<svg width="24" height="24" viewBox="0 0 24 24" fill="none" xmlns="http://www.w3.org/2000/svg">
<path fill-rule="evenodd" clip-rule="evenodd" d="M4.93077 4.27249C6.46261 2.58293 8.83849 2 12.0401 2C12.9668 2 13.8216 2.05142 14.5919 2.15694C14.748 2.17832 14.8933 2.24827 15.0074 2.3569L20.6774 7.7569C20.7925 7.86656 20.8698 8.00998 20.8982 8.16645C21.0985 9.27377 21.1901 10.5511 21.1901 12C21.1901 15.4998 20.6714 18.0653 19.1578 19.7318C17.6244 21.42 15.2458 22 12.0401 22C8.83922 22 6.46308 21.4199 4.93099 19.7315C3.41887 18.0651 2.90015 15.4999 2.90015 12C2.90015 8.5048 3.41898 5.93992 4.93077 4.27249ZM6.04202 5.28001C4.93131 6.50508 4.40015 8.5652 4.40015 12C4.40015 15.4401 4.93143 17.4999 6.04181 18.7235C7.13222 19.9251 8.95107 20.5 12.0401 20.5C15.1345 20.5 16.9559 19.925 18.0475 18.7232C19.1588 17.4997 19.6901 15.4402 19.6901 12C19.6901 10.7185 19.6151 9.61383 19.4629 8.67165L14.1511 3.61282C13.5202 3.53823 12.8149 3.5 12.0401 3.5C8.95181 3.5 7.13268 4.07707 6.04202 5.28001Z" fill="#212121"/>
<path fill-rule="evenodd" clip-rule="evenodd" d="M9.59882 10.7177C9.89171 10.4248 10.3666 10.4248 10.6595 10.7177L14.1255 14.1837C14.4184 14.4766 14.4184 14.9515 14.1255 15.2444C13.8326 15.5373 13.3577 15.5373 13.0648 15.2444L9.59882 11.7784C9.30593 11.4855 9.30593 11.0106 9.59882 10.7177Z" fill="#212121"/>
<path fill-rule="evenodd" clip-rule="evenodd" d="M14.1262 10.7177C14.4191 11.0106 14.4191 11.4855 14.1262 11.7784L10.6602 15.2444C10.3673 15.5373 9.89245 15.5373 9.59955 15.2444C9.30666 14.9515 9.30666 14.4766 9.59955 14.1837L13.0656 10.7177C13.3584 10.4248 13.8333 10.4248 14.1262 10.7177Z" fill="#212121"/>
<path fill-rule="evenodd" clip-rule="evenodd" d="M13.9341 2.08301C14.3483 2.08301 14.6841 2.41879 14.6841 2.83301V5.49401C14.6841 6.9375 15.854 8.10701 17.2981 8.10701H20.2491C20.6633 8.10701 20.9991 8.44279 20.9991 8.85701C20.9991 9.27122 20.6633 9.60701 20.2491 9.60701H17.2981C15.0262 9.60701 13.1841 7.76651 13.1841 5.49401V2.83301C13.1841 2.41879 13.5199 2.08301 13.9341 2.08301Z" fill="#212121"/>
</svg>
