<svg width="25" height="24" viewBox="0 0 25 24" fill="none" xmlns="http://www.w3.org/2000/svg">
<path fill-rule="evenodd" clip-rule="evenodd" d="M21.6815 9.729C21.2945 8.083 19.5765 7.998 18.1955 7.929C17.3265 7.885 16.4275 7.841 16.0515 7.452C15.6685 7.056 15.3695 6.297 15.0785 5.563C14.5115 4.127 13.8685 2.5 12.2495 2.5C10.6315 2.5 9.98953 4.127 9.42153 5.563C9.13153 6.297 8.83153 7.056 8.44953 7.452C8.07253 7.841 7.17353 7.885 6.30453 7.929C4.92353 7.998 3.20553 8.083 2.81853 9.729C2.45153 11.291 3.59853 12.236 4.61053 13.07C5.30253 13.64 5.95653 14.18 6.10153 14.84C6.24253 15.481 6.03053 16.309 5.82553 17.111C5.47353 18.49 5.07353 20.052 6.40853 21.059C6.82553 21.374 7.24853 21.499 7.66653 21.499C8.57153 21.499 9.45353 20.915 10.2085 20.415C10.9075 19.953 11.6305 19.474 12.2495 19.474C12.8685 19.474 13.5925 19.953 14.2905 20.415C15.3955 21.146 16.7695 22.054 18.0925 21.059C19.4275 20.052 19.0275 18.489 18.6745 17.109C18.4695 16.308 18.2585 15.48 18.3985 14.84C18.5435 14.18 19.1975 13.641 19.8895 13.07C20.9015 12.236 22.0485 11.291 21.6815 9.729Z" fill="#212121"/>
</svg>
