<svg width="25" height="25" viewBox="0 0 25 25" fill="none" xmlns="http://www.w3.org/2000/svg">
<path fill-rule="evenodd" clip-rule="evenodd" d="M6.46876 14.3475C4.28076 14.3475 2.49976 16.1275 2.49976 18.3165C2.49976 20.5045 4.28076 22.2845 6.46876 22.2845C8.65676 22.2845 10.4378 20.5045 10.4378 18.3165C10.4378 16.1275 8.65676 14.3475 6.46876 14.3475Z" fill="#212121"/>
<path fill-rule="evenodd" clip-rule="evenodd" d="M18.0313 14.3475C15.8433 14.3475 14.0623 16.1275 14.0623 18.3165C14.0623 20.5045 15.8433 22.2845 18.0313 22.2845C20.2193 22.2845 22.0003 20.5045 22.0003 18.3165C22.0003 16.1275 20.2193 14.3475 18.0313 14.3475Z" fill="#212121"/>
<path fill-rule="evenodd" clip-rule="evenodd" d="M16.2187 6.75367C16.2187 4.56567 14.4387 2.78467 12.2497 2.78467C10.0617 2.78467 8.28174 4.56567 8.28174 6.75367C8.28174 8.94167 10.0617 10.7227 12.2497 10.7227C14.4387 10.7227 16.2187 8.94167 16.2187 6.75367Z" fill="#212121"/>
</svg>
