<svg width="25" height="25" viewBox="0 0 25 25" fill="none" xmlns="http://www.w3.org/2000/svg">
<path fill-rule="evenodd" clip-rule="evenodd" d="M22.8047 6.26498L22.1576 6.64407C19.1754 8.39098 16.8701 10.6928 15.306 12.5688C14.5256 13.5049 13.934 14.3299 13.539 14.9183C13.3415 15.2124 13.1935 15.447 13.0958 15.6064C13.0469 15.6861 13.0107 15.7469 12.9871 15.7869L12.9614 15.8311L12.9557 15.841L12.9548 15.8425L12.7395 16.2235H11.8674L11.6453 15.8877L11.6428 15.884L11.6318 15.8677C11.6216 15.8526 11.6056 15.8292 11.584 15.7983C11.541 15.7365 11.476 15.645 11.3911 15.5302C11.2211 15.3004 10.9724 14.9792 10.6611 14.6183C10.0323 13.8894 9.17555 13.0309 8.21988 12.4268L7.58594 12.026L8.38749 10.7581L9.02143 11.1589C10.1548 11.8754 11.123 12.8573 11.7969 13.6386C11.9594 13.8269 12.1064 14.0055 12.236 14.1684C12.2548 14.1402 12.2739 14.1115 12.2936 14.0823C12.7128 13.4578 13.3353 12.5902 14.1539 11.6083C15.7881 9.64816 18.221 7.21168 21.3994 5.34979L22.0465 4.9707L22.8047 6.26498Z" fill="#212121"/>
<path fill-rule="evenodd" clip-rule="evenodd" d="M1.97119 12.5347C1.97119 7.01182 6.44834 2.53467 11.9712 2.53467C17.494 2.53467 21.9712 7.01182 21.9712 12.5347C21.9712 18.0575 17.494 22.5347 11.9712 22.5347C6.44834 22.5347 1.97119 18.0575 1.97119 12.5347ZM11.9712 4.03467C7.27677 4.03467 3.47119 7.84025 3.47119 12.5347C3.47119 17.2291 7.27677 21.0347 11.9712 21.0347C16.6656 21.0347 20.4712 17.2291 20.4712 12.5347C20.4712 7.84025 16.6656 4.03467 11.9712 4.03467Z" fill="#212121"/>
</svg>
