<svg width="25" height="25" viewBox="0 0 25 25" fill="none" xmlns="http://www.w3.org/2000/svg">
<path fill-rule="evenodd" clip-rule="evenodd" d="M19.384 13.4062H5.11597C4.70197 13.4062 4.36597 13.7422 4.36597 14.1562C4.36597 14.5703 4.70197 14.9062 5.11597 14.9062H6.13097C6.47297 17.7083 8.69797 19.9332 11.5 20.2752V21.9782C11.5 22.3922 11.836 22.7282 12.25 22.7282C12.664 22.7282 13 22.3922 13 21.9782V20.2752C15.803 19.9332 18.027 17.7083 18.369 14.9062H19.384C19.798 14.9062 20.134 14.5703 20.134 14.1562C20.134 13.7422 19.798 13.4062 19.384 13.4062Z" fill="#212121"/>
<path opacity="0.4" fill-rule="evenodd" clip-rule="evenodd" d="M6.57983 11.4015H17.9188C18.1958 11.4015 18.4188 11.1775 18.4188 10.9015V8.64752C18.4188 5.24652 15.6518 2.47852 12.2488 2.47852C8.84783 2.47852 6.07983 5.24652 6.07983 8.64752V10.9015C6.07983 11.1775 6.30383 11.4015 6.57983 11.4015Z" fill="#212121"/>
</svg>
