<svg width="25" height="24" viewBox="0 0 25 24" fill="none" xmlns="http://www.w3.org/2000/svg">
<path fill-rule="evenodd" clip-rule="evenodd" d="M11.041 3.54297C7.1537 3.54297 4.00244 6.69423 4.00244 10.5815C4.00244 14.4688 7.1537 17.62 11.041 17.62C14.9283 17.62 18.0795 14.4688 18.0795 10.5815C18.0795 6.69423 14.9283 3.54297 11.041 3.54297ZM2.00244 10.5815C2.00244 5.58966 6.04913 1.54297 11.041 1.54297C16.0328 1.54297 20.0795 5.58966 20.0795 10.5815C20.0795 15.5734 16.0328 19.62 11.041 19.62C6.04913 19.62 2.00244 15.5734 2.00244 10.5815Z" fill="#212121"/>
<path opacity="0.4" fill-rule="evenodd" clip-rule="evenodd" d="M16.5281 15.0874L22.4976 21.0414L21.0853 22.4575L15.1157 16.5035L16.5281 15.0874Z" fill="#212121"/>
</svg>
