<svg width="25" height="24" viewBox="0 0 25 24" fill="none" xmlns="http://www.w3.org/2000/svg">
<path fill-rule="evenodd" clip-rule="evenodd" d="M17.8061 11.0283L22.6303 11.0283V12.5283H17.8063M17.8063 12.5283C16.656 12.5292 15.8468 13.3617 15.8467 14.2438C15.8474 15.1268 16.6565 15.9591 17.8065 15.9598H22.6303V17.4598H17.8061C15.9643 17.4587 14.3479 16.0852 14.3467 14.2445C14.3467 12.4031 15.9648 11.0293 17.8061 11.0283" fill="#212121"/>
<path fill-rule="evenodd" clip-rule="evenodd" d="M1.86914 4.97607H22.6305V22.0001H1.86914V4.97607ZM3.36914 6.47607V20.5001H21.1305V6.47607H3.36914Z" fill="#212121"/>
<path fill-rule="evenodd" clip-rule="evenodd" d="M1.86914 2L19.9983 2.0008V6.37803H18.4983V3.50074L3.36914 3.50007V21.9996H1.86914V2Z" fill="#212121"/>
<path fill-rule="evenodd" clip-rule="evenodd" d="M6.43359 9.54395H13.3671V11.0439H6.43359V9.54395Z" fill="#212121"/>
</svg>
