<svg width="25" height="25" viewBox="0 0 25 25" fill="none" xmlns="http://www.w3.org/2000/svg">
<path fill-rule="evenodd" clip-rule="evenodd" d="M11.9601 10.1771V11.6771H16.4401V11.8671C16.4401 14.1871 14.5601 16.0771 12.2501 16.0771C9.93012 16.0771 8.05012 14.1871 8.05012 11.8671V6.69705C8.05012 4.36705 9.93012 2.47705 12.2501 2.47705C14.5201 2.47705 16.3701 4.29705 16.4301 6.56705H13.0401V8.06705H16.4401V10.1771H11.9601Z" fill="#212121"/>
<path fill-rule="evenodd" clip-rule="evenodd" d="M18.7779 11.147V11.897C18.7779 15.516 15.8489 18.46 12.2489 18.46C8.64992 18.46 5.72192 15.516 5.72192 11.897V11.147H4.22192V11.897C4.22192 16.088 7.42292 19.54 11.4979 19.922V22.731H12.9979V19.922C17.0749 19.541 20.2779 16.089 20.2779 11.897V11.147H18.7779Z" fill="#212121"/>
</svg>
