<svg width="24" height="24" viewBox="0 0 24 24" fill="none" xmlns="http://www.w3.org/2000/svg">
<path fill-rule="evenodd" clip-rule="evenodd" d="M7.81166 5.7749C7.85456 5.08012 8.05238 4.0881 8.74916 3.28681C9.48616 2.43781 10.5802 2.00781 11.9992 2.00781C13.4192 2.00781 14.5122 2.43781 15.2502 3.28681C15.9468 4.08794 16.1443 5.08006 16.187 5.7749H20.0756C20.4896 5.7749 20.8256 6.1109 20.8256 6.5249C20.8256 6.9389 20.4896 7.2749 20.0756 7.2749H3.92456C3.51056 7.2749 3.17456 6.9389 3.17456 6.5249C3.17456 6.1109 3.51056 5.7749 3.92456 5.7749H7.81166ZM14.6842 5.7749C14.6464 5.323 14.5136 4.72169 14.1122 4.26381C13.6722 3.76181 12.9612 3.50781 11.9992 3.50781C11.0382 3.50781 10.3272 3.76181 9.88616 4.26381C9.48476 4.72169 9.35218 5.323 9.31447 5.7749H14.6842Z" fill="#212121"/>
<path d="M11.989 21.9927C9.03002 21.9927 7.20802 21.4797 6.08202 20.3317C4.49397 18.7126 4.54596 16.0588 4.6179 12.3872L4.61802 12.3807C4.63502 11.5197 4.65302 10.5937 4.65302 9.59766C4.65302 9.18366 4.98902 8.84766 5.40302 8.84766C5.81702 8.84766 6.15302 9.18366 6.15302 9.59766C6.15302 10.6037 6.13502 11.5407 6.11702 12.4107C6.05002 15.8437 6.00602 18.1107 7.15302 19.2807C7.96302 20.1077 9.50002 20.4927 11.989 20.4927C14.483 20.4927 16.023 20.1057 16.837 19.2767C17.991 18.0997 17.948 15.8189 17.883 12.3662L17.8812 12.2696C17.8657 11.4407 17.849 10.5497 17.849 9.59766C17.849 9.18366 18.185 8.84766 18.599 8.84766C19.013 8.84766 19.349 9.18366 19.349 9.59766C19.349 10.5767 19.366 11.4887 19.383 12.3377L19.3832 12.3453C19.4521 16.0354 19.5019 18.7028 17.907 20.3277C16.778 21.4787 14.952 21.9927 11.989 21.9927Z" fill="#212121"/>
</svg>
