<svg width="24" height="24" viewBox="0 0 24 24" fill="none" xmlns="http://www.w3.org/2000/svg">
<path fill-rule="evenodd" clip-rule="evenodd" d="M6.36475 12.9287C6.77896 12.9287 7.11475 13.2645 7.11475 13.6787C7.11475 16.3955 9.31696 18.5977 12.0337 18.5977C14.7516 18.5977 16.9537 16.3954 16.9537 13.6787C16.9537 13.2645 17.2895 12.9287 17.7037 12.9287C18.118 12.9287 18.4537 13.2645 18.4537 13.6787C18.4537 17.224 15.5799 20.0977 12.0337 20.0977C8.48853 20.0977 5.61475 17.2239 5.61475 13.6787C5.61475 13.2645 5.95053 12.9287 6.36475 12.9287Z" fill="#212121"/>
<path fill-rule="evenodd" clip-rule="evenodd" d="M12.0337 18.5977C12.4479 18.5977 12.7837 18.9334 12.7837 19.3477V21.4997C12.7837 21.9139 12.4479 22.2497 12.0337 22.2497C11.6195 22.2497 11.2837 21.9139 11.2837 21.4997V19.3477C11.2837 18.9334 11.6195 18.5977 12.0337 18.5977Z" fill="#212121"/>
<path fill-rule="evenodd" clip-rule="evenodd" d="M4.1499 13.6787C4.1499 13.2645 4.48569 12.9287 4.8999 12.9287H19.1679C19.5821 12.9287 19.9179 13.2645 19.9179 13.6787C19.9179 14.0929 19.5821 14.4287 19.1679 14.4287H4.8999C4.48569 14.4287 4.1499 14.0929 4.1499 13.6787Z" fill="#212121"/>
<path fill-rule="evenodd" clip-rule="evenodd" d="M5.6145 8.169C5.6145 4.62379 8.48829 1.75 12.0335 1.75C15.5796 1.75 18.4535 4.6237 18.4535 8.169V10.423C18.4535 10.8372 18.1177 11.173 17.7035 11.173C17.2893 11.173 16.9535 10.8372 16.9535 10.423V8.169C16.9535 5.4523 14.7514 3.25 12.0335 3.25C9.31672 3.25 7.1145 5.45221 7.1145 8.169V10.423C7.1145 10.8372 6.77872 11.173 6.3645 11.173C5.95029 11.173 5.6145 10.8372 5.6145 10.423V8.169Z" fill="#212121"/>
</svg>
