<svg width="25" height="25" viewBox="0 0 25 25" fill="none" xmlns="http://www.w3.org/2000/svg">
<path fill-rule="evenodd" clip-rule="evenodd" d="M13.8345 2.52588L14.5799 2.60866C18.6292 3.05834 21.8284 6.25308 22.2825 10.3025L22.366 11.0478L20.8754 11.215L20.7918 10.4697C20.4159 7.11707 17.7671 4.47182 14.4144 4.09949L13.6689 4.01671L13.8345 2.52588Z" fill="#212121"/>
<path fill-rule="evenodd" clip-rule="evenodd" d="M13.9039 6.01758L14.6402 6.16059C16.7117 6.56295 18.33 8.18284 18.7333 10.2534L18.8767 10.9896L17.4044 11.2764L17.261 10.5402C16.9744 9.06881 15.8247 7.9187 14.3542 7.63306L13.6179 7.49006L13.9039 6.01758Z" fill="#212121"/>
<path fill-rule="evenodd" clip-rule="evenodd" d="M6.72809 2.36328L10.655 7.75739L8.93007 10.7532C8.99139 10.934 9.08996 11.1943 9.23682 11.5042C9.53625 12.136 10.0312 12.9626 10.8107 13.7421C11.6366 14.568 12.5129 15.1094 13.1835 15.4439C13.5172 15.6103 13.7971 15.7241 13.9901 15.7953L16.9774 14.0753L22.5151 18.1589L22.192 18.7361C21.2666 20.3895 20.0854 21.5707 18.4321 22.4961L18.2773 22.5827L18.1001 22.5908C13.2213 22.8141 9.02631 20.1612 6.20315 16.8776C4.78673 15.2302 3.69194 13.3991 3.01055 11.6365C2.33431 9.88723 2.04085 8.14079 2.3126 6.68778L2.33642 6.56041L2.4016 6.44842C3.33636 4.84217 4.54318 3.64482 6.14212 2.70697L6.72809 2.36328ZM14.0727 16.6132C13.8744 17.3365 13.8742 17.3365 13.874 17.3364L13.8723 17.336L13.8695 17.3352L13.8617 17.333L13.8375 17.3259C13.8176 17.3201 13.7903 17.3118 13.7561 17.3009C13.6878 17.2792 13.5919 17.2472 13.4729 17.2033C13.2351 17.1157 12.9036 16.9805 12.514 16.7862C11.7367 16.3985 10.7169 15.7696 9.75008 14.8028C8.82172 13.8745 8.23579 12.8945 7.88135 12.1466C7.70376 11.7719 7.58298 11.4527 7.50561 11.2233C7.46688 11.1084 7.43892 11.0157 7.42007 10.9494C7.41064 10.9162 7.40348 10.8895 7.39839 10.87L7.39228 10.846L7.39034 10.8381L7.38963 10.8352L7.38935 10.834C7.38929 10.8338 7.38911 10.833 8.1187 10.6592L7.38911 10.833L7.32008 10.5432L8.86916 7.85288L6.32827 4.36268C5.26757 5.08493 4.44067 5.96278 3.76578 7.08824C3.60157 8.15171 3.81235 9.55058 4.40964 11.0956C5.02543 12.6885 6.0283 14.3735 7.34055 15.8997C9.93807 18.9209 13.6559 21.2231 17.8536 21.0991C18.9914 20.4359 19.8431 19.6366 20.542 18.5676L16.8762 15.8644L14.176 17.4192L13.874 17.3364L14.0727 16.6132Z" fill="#212121"/>
</svg>
