<svg width="24" height="24" viewBox="0 0 24 24" fill="none" xmlns="http://www.w3.org/2000/svg">
<path d="M11.9998 18.9758C13.8658 18.9758 15.7708 21.9948 17.5408 20.6608C19.3108 19.3258 17.2408 16.6438 17.6598 14.7348C18.0788 12.8248 21.4678 12.0698 20.9448 9.84478C20.4228 7.62078 16.6528 9.05378 15.4418 7.80078" stroke="#212121" stroke-width="1.5" stroke-linecap="round" stroke-linejoin="round"/>
<path d="M14.1282 5.162C13.6542 4.022 13.0922 3 12.0002 3C9.96418 3 9.77118 6.547 8.55918 7.8C7.34718 9.053 3.57818 7.62 3.05518 9.844C2.53218 12.069 5.92218 12.824 6.34018 14.734C6.76118 16.643 4.68918 19.325 6.45918 20.66C7.41218 21.379 8.40518 20.835 9.40918 20.179" stroke="#212121" stroke-width="1.5" stroke-linecap="round" stroke-linejoin="round"/>
</svg>
