<svg width="25" height="25" viewBox="0 0 25 25" fill="none" xmlns="http://www.w3.org/2000/svg">
<path opacity="0.4" fill-rule="evenodd" clip-rule="evenodd" d="M20.149 12.5338C20.149 13.3098 20.612 14.0918 21.645 14.0918C21.921 14.0918 22.145 14.3148 22.145 14.5918C22.145 19.8868 21.694 21.5608 12.25 21.5608C2.80598 21.5608 2.35498 19.8868 2.35498 14.5918C2.35498 14.3148 2.57798 14.0918 2.85498 14.0918C3.32798 14.0918 3.70398 13.9338 3.97298 13.6218C4.21298 13.3438 4.34998 12.9468 4.34998 12.5338C4.34998 11.7598 3.88798 10.9768 2.85498 10.9768C2.57798 10.9768 2.35498 10.7538 2.35498 10.4768C2.35498 5.18379 2.80598 3.50879 12.25 3.50879C21.694 3.50879 22.145 5.18379 22.145 10.4768C22.145 10.7538 21.921 10.9768 21.645 10.9768C20.612 10.9768 20.149 11.7598 20.149 12.5338Z" fill="#212121"/>
<path d="M11.2483 9.95273C11.4198 9.59197 11.693 9.13477 12.2495 9.13477C12.8061 9.13477 13.0793 9.59197 13.2508 9.95273C13.2964 10.0488 13.3391 10.1476 13.3794 10.2412L13.3815 10.246L13.3815 10.246C13.4217 10.3393 13.4596 10.4272 13.4988 10.5102C13.5806 10.6833 13.6558 10.8071 13.7357 10.8832C13.7913 10.9355 13.8997 10.9786 14.0924 11.004C14.223 11.0213 14.3598 11.0275 14.5094 11.0343C14.5795 11.0374 14.6524 11.0407 14.7288 11.0454C14.9511 11.0589 15.2008 11.0839 15.4126 11.1701C15.6384 11.262 15.8341 11.4297 15.9083 11.7177C15.9783 11.9913 15.9136 12.2261 15.785 12.4202C15.6644 12.6023 15.4866 12.7507 15.3261 12.875C15.2779 12.9123 15.2314 12.9474 15.1865 12.9813C15.0707 13.0687 14.9659 13.1478 14.8722 13.2348C14.7453 13.3527 14.6764 13.4532 14.6531 13.5495C14.6265 13.6612 14.6365 13.8006 14.6752 13.9782C14.6942 14.0652 14.7185 14.1552 14.7451 14.2507L14.7581 14.297L14.7581 14.2972C14.7804 14.377 14.8039 14.4609 14.8244 14.5434C14.8724 14.7373 14.9136 14.9589 14.883 15.1735C14.8503 15.4033 14.7371 15.613 14.5079 15.7716C14.0298 16.101 13.5431 15.8634 13.1955 15.6621C13.1233 15.6203 13.0566 15.5798 12.9925 15.5409L12.9924 15.5408C12.8826 15.4741 12.7805 15.4121 12.6712 15.3561C12.5046 15.2706 12.3682 15.2259 12.2495 15.2259C12.1309 15.2259 11.9945 15.2706 11.8278 15.3561C11.7186 15.4121 11.6165 15.4741 11.5067 15.5408L11.5066 15.5409L11.5062 15.5411C11.4423 15.5799 11.3756 15.6204 11.3035 15.6621C10.956 15.8634 10.4697 16.1013 9.99163 15.7719C9.7627 15.6132 9.64918 15.4031 9.61653 15.1735C9.58602 14.9589 9.62711 14.7374 9.67512 14.5434C9.69553 14.461 9.71895 14.3772 9.74124 14.2974L9.75425 14.2508C9.78081 14.1553 9.80508 14.0653 9.82399 13.9783C9.86258 13.8007 9.87256 13.6612 9.84594 13.5495C9.82272 13.4532 9.75377 13.3527 9.62684 13.2348C9.5332 13.1478 9.42842 13.0687 9.31258 12.9813L9.31223 12.9811C9.2675 12.9473 9.22095 12.9122 9.17293 12.875C9.01249 12.7507 8.83467 12.6023 8.71404 12.4202C8.5855 12.2261 8.52066 11.9917 8.59066 11.7181C8.66485 11.4301 8.8607 11.262 9.08649 11.1701C9.29828 11.0839 9.54799 11.0589 9.77027 11.0454C9.84665 11.0407 9.91957 11.0374 9.9897 11.0343C10.1392 11.0275 10.2761 11.0213 10.4067 11.004C10.5994 10.9786 10.7078 10.9355 10.7633 10.8832C10.8433 10.8071 10.9185 10.6833 11.0002 10.5102C11.0395 10.4272 11.0773 10.3393 11.1176 10.246L11.1196 10.2412C11.16 10.1476 11.2026 10.0488 11.2483 9.95273Z" fill="#212121"/>
</svg>
