<svg width="24" height="24" viewBox="0 0 24 24" fill="none" xmlns="http://www.w3.org/2000/svg">
<path fill-rule="evenodd" clip-rule="evenodd" d="M16.7124 9.27144C17.0398 9.52515 17.0996 9.99625 16.8459 10.3237L13.9169 14.1037C13.7945 14.2616 13.6143 14.3641 13.4161 14.3886C13.2178 14.4131 13.018 14.3576 12.8609 14.2342L10.0426 12.0218L7.51139 15.3107C7.25876 15.639 6.78786 15.7003 6.45961 15.4477C6.13135 15.195 6.07004 14.7241 6.32267 14.3959L9.31567 10.5069C9.43775 10.3482 9.61816 10.245 9.81677 10.2201C10.0154 10.1952 10.2157 10.2508 10.3731 10.3744L13.1935 12.5883L15.6602 9.40491C15.9139 9.07749 16.385 9.01774 16.7124 9.27144Z" fill="#212121"/>
<path fill-rule="evenodd" clip-rule="evenodd" d="M19.6671 3.09961C19.0193 3.09961 18.4951 3.62382 18.4951 4.27161C18.4951 4.91865 19.0196 5.44361 19.6671 5.44361C20.3146 5.44361 20.8391 4.91865 20.8391 4.27161C20.8391 3.62382 20.3149 3.09961 19.6671 3.09961ZM16.9951 4.27161C16.9951 2.7954 18.1909 1.59961 19.6671 1.59961C21.1433 1.59961 22.3391 2.7954 22.3391 4.27161C22.3391 5.74657 21.1436 6.94361 19.6671 6.94361C18.1906 6.94361 16.9951 5.74657 16.9951 4.27161Z" fill="#212121"/>
<path fill-rule="evenodd" clip-rule="evenodd" d="M5.00342 5.60669C3.78045 6.82966 3.19946 8.87583 3.19946 12.3027C3.19946 15.7302 3.78046 17.7763 5.0034 18.9991C6.22635 20.222 8.2725 20.8027 11.6995 20.8027C15.127 20.8027 17.1731 20.222 18.3959 18.9992C19.6187 17.7763 20.1995 15.7302 20.1995 12.3027C20.1995 11.1971 20.1397 10.2276 20.0136 9.37898C19.9527 8.96926 20.2355 8.58777 20.6452 8.52688C21.0549 8.466 21.4364 8.74878 21.4973 9.15849C21.6372 10.0999 21.6995 11.1464 21.6995 12.3027C21.6995 15.8132 21.1242 18.3921 19.4565 20.0598C17.7889 21.7275 15.21 22.3027 11.6995 22.3027C8.18943 22.3027 5.61058 21.7275 3.94278 20.0598C2.27497 18.3922 1.69946 15.8133 1.69946 12.3027C1.69946 8.79264 2.27498 6.21381 3.94276 4.54603C5.61054 2.87825 8.18936 2.30273 11.6995 2.30273C12.8345 2.30273 13.8631 2.36296 14.7902 2.49751C15.2001 2.557 15.4842 2.93753 15.4247 3.34745C15.3652 3.75737 14.9847 4.04145 14.5747 3.98196C13.7379 3.86051 12.7844 3.80273 11.6995 3.80273C8.27256 3.80273 6.22639 4.38372 5.00342 5.60669Z" fill="#212121"/>
</svg>
