<svg width="24" height="24" viewBox="0 0 24 24" fill="none" xmlns="http://www.w3.org/2000/svg">
<path fill-rule="evenodd" clip-rule="evenodd" d="M12.0006 3.74609C11.2856 3.74609 10.8766 4.64609 10.3346 6.01809C10.0006 6.86709 9.65357 7.74309 9.09857 8.31709C8.37757 9.06109 7.22857 9.11909 6.11657 9.17409C4.64857 9.24609 3.93957 9.35209 3.78457 10.0121C3.61457 10.7371 4.09557 11.2271 5.15457 12.1011C5.94257 12.7511 6.83557 13.4871 7.07357 14.5701C7.27757 15.4991 7.02857 16.4741 6.78757 17.4161C6.41657 18.8681 6.30757 19.6011 6.91157 20.0581C7.46757 20.4771 8.05757 20.1711 9.26957 19.3691C10.1236 18.8051 11.0046 18.2211 12.0006 18.2211C12.9956 18.2211 13.8776 18.8051 14.7306 19.3691C15.9416 20.1701 16.5306 20.4771 17.0896 20.0581C17.6936 19.6011 17.5846 18.8671 17.2126 17.4151C16.9726 16.4741 16.7236 15.4991 16.9276 14.5691C17.1646 13.4871 18.0576 12.7511 18.8456 12.1011C19.9046 11.2281 20.3856 10.7371 20.2156 10.0111C20.0606 9.35209 19.3526 9.24609 17.8846 9.17409C16.7726 9.11909 15.6226 9.06109 14.9026 8.31709C14.3476 7.74309 14.0006 6.86709 13.6666 6.01809C13.1236 4.64509 12.7146 3.74609 12.0006 3.74609ZM7.41957 21.7531C6.95657 21.7531 6.48257 21.6121 6.00857 21.2551C4.54057 20.1481 4.98057 18.4271 5.33357 17.0451C5.53157 16.2711 5.73557 15.4741 5.60757 14.8921C5.48157 14.3141 4.85957 13.8021 4.20157 13.2591C3.18657 12.4231 1.92257 11.3811 2.32457 9.66909C2.75557 7.83809 4.65557 7.74409 6.04257 7.67609C6.82557 7.63709 7.71257 7.59309 8.02057 7.27409C8.36857 6.91509 8.65857 6.18009 8.93957 5.46809C9.50657 4.03209 10.2116 2.24609 12.0006 2.24609C13.7886 2.24609 14.4946 4.03209 15.0616 5.46809C15.3426 6.18009 15.6326 6.91509 15.9806 7.27409C16.2886 7.59309 17.1756 7.63709 17.9586 7.67609C19.3456 7.74409 21.2456 7.83809 21.6756 9.66809C22.0776 11.3811 20.8136 12.4231 19.7996 13.2591C19.1406 13.8021 18.5186 14.3141 18.3926 14.8921C18.2646 15.4731 18.4686 16.2711 18.6666 17.0441C19.0206 18.4271 19.4596 20.1471 17.9926 21.2551C16.5276 22.3571 15.0726 21.3941 13.9026 20.6201C13.2346 20.1781 12.5436 19.7211 12.0006 19.7211C11.4566 19.7211 10.7656 20.1781 10.0976 20.6201C9.30657 21.1431 8.38557 21.7531 7.41957 21.7531Z" fill="#212121"/>
</svg>
