<svg width="24" height="24" viewBox="0 0 24 24" fill="none" xmlns="http://www.w3.org/2000/svg">
<path d="M15.6721 9.11108C15.4801 9.11108 15.2881 9.03808 15.1421 8.89108C14.8491 8.59808 14.8491 8.12408 15.1421 7.83108L17.6121 5.36108L15.1421 2.89108C14.8491 2.59808 14.8491 2.12408 15.1421 1.83108C15.4351 1.53808 15.9091 1.53808 16.2021 1.83108L18.6721 4.30108L21.1421 1.83108C21.4351 1.53808 21.9091 1.53808 22.2021 1.83108C22.4951 2.12408 22.4951 2.59808 22.2021 2.89108L19.7321 5.36108L22.2021 7.83108C22.4951 8.12408 22.4951 8.59808 22.2021 8.89108C22.0561 9.03808 21.8641 9.11108 21.6721 9.11108C21.4801 9.11108 21.2881 9.03808 21.1421 8.89108L18.6721 6.42108L16.2021 8.89108C16.0561 9.03808 15.8641 9.11108 15.6721 9.11108Z" fill="#212121"/>
<path fill-rule="evenodd" clip-rule="evenodd" d="M7.5146 16.4401C12.2236 21.1501 15.3606 22.3881 17.3456 22.3881C18.3266 22.3881 19.0276 22.0861 19.4956 21.7501C19.5176 21.7371 21.6786 20.4101 22.0416 18.4131C22.2116 17.4861 21.9506 16.5691 21.2876 15.7591C18.5336 12.4161 17.1316 12.7301 15.5846 13.4831C14.6346 13.9481 13.8836 14.3131 11.7626 12.1921C9.64285 10.0714 10.0085 9.32029 10.4714 8.36944C11.2264 6.82144 11.5366 5.41911 8.1946 2.66511C7.3806 2.00011 6.4616 1.74011 5.5236 1.91511C3.5576 2.28511 2.2406 4.39811 2.2426 4.39811C1.1906 5.87511 0.475603 9.40211 7.5146 16.4401ZM5.8326 3.38311C5.9206 3.36911 6.0076 3.36111 6.0936 3.36111C6.4866 3.36111 6.8646 3.51411 7.2416 3.82411C9.9366 6.04411 9.5956 6.74411 9.1226 7.71311C8.4126 9.17011 8.0416 10.5921 10.7016 13.2531C13.3636 15.9141 14.7856 15.5431 16.2416 14.8321L16.2441 14.8309C17.2118 14.3605 17.9115 14.0204 20.1286 16.7121C20.5076 17.1741 20.6526 17.6341 20.5716 18.1191C20.3846 19.2341 19.0766 20.2461 18.6856 20.4901C17.2746 21.4961 13.8766 20.6831 8.5746 15.3801C3.2716 10.0771 2.4576 6.67911 3.5006 5.21311C3.7086 4.87511 4.7136 3.57211 5.8326 3.38311Z" fill="#212121"/>
</svg>
