<svg width="25" height="24" viewBox="0 0 25 24" fill="none" xmlns="http://www.w3.org/2000/svg">
<path fill-rule="evenodd" clip-rule="evenodd" d="M12.8801 2.82031C12.8801 2.41031 12.5401 2.07031 12.1301 2.07031C11.7201 2.07031 11.3801 2.41031 11.3801 2.82031V6.71031C11.8801 6.69031 12.3801 6.69031 12.8801 6.70031V2.82031Z" fill="#212121"/>
<path fill-rule="evenodd" clip-rule="evenodd" d="M16.67 6.83032H16.65C15.4 6.75032 14.1501 6.71031 12.8801 6.70031L12.88 13.0503L14.52 11.4003C14.81 11.1103 15.29 11.1103 15.58 11.4003C15.87 11.7003 15.87 12.1703 15.58 12.4603L12.66 15.3903C12.59 15.4603 12.51 15.5103 12.42 15.5503C12.33 15.5903 12.23 15.6103 12.13 15.6103C12.03 15.6103 11.93 15.5903 11.84 15.5503C11.75 15.5103 11.67 15.4603 11.6 15.3903L8.68 12.4603C8.39 12.1703 8.39 11.7003 8.68 11.4003C8.97 11.1103 9.45 11.1103 9.74 11.4003L11.38 13.0503L11.3801 6.71031C10.1901 6.71031 9.01 6.76032 7.83 6.83032C3.8 7.20032 2.5 9.03032 2.5 14.3303C2.5 21.9303 5.35 21.9303 12.25 21.9303C19.15 21.9303 22 21.9303 22 14.3303C22 9.03032 20.7 7.20032 16.67 6.83032Z" fill="#212121"/>
</svg>
