<svg width="25" height="25" viewBox="0 0 25 25" fill="none" xmlns="http://www.w3.org/2000/svg">
<path fill-rule="evenodd" clip-rule="evenodd" d="M18.2677 6.14251C14.9613 2.83571 9.58847 2.83571 6.28204 6.14337C4.62282 7.80222 3.79657 9.97091 3.79819 12.1424C3.79943 13.8216 3.78737 16.1239 3.77501 18.0049C3.76883 18.9457 3.76257 19.7817 3.75785 20.3825L3.75621 20.587C3.81761 20.5866 3.8822 20.5861 3.94981 20.5857C4.54389 20.582 5.37036 20.5777 6.30002 20.5757C8.15728 20.5717 10.4337 20.5765 12.0909 20.6123C14.3214 20.6605 16.5632 19.8354 18.2677 18.1307C21.5745 14.8235 21.5803 9.4555 18.2677 6.14251ZM3 21.3427L2.25002 21.3361L2.2579 20.3708C2.26261 19.7704 2.26886 18.9351 2.27504 17.9951C2.2874 16.1144 2.29943 13.8168 2.29819 12.1435C2.29629 9.58997 3.26915 7.03456 5.22118 5.0829C5.22113 5.08295 5.22124 5.08285 5.22118 5.0829M5.22118 5.0829C9.11344 1.18938 15.4362 1.18928 19.3284 5.0819C23.2274 8.98136 23.2203 15.299 19.3284 19.1913C17.3229 21.1971 14.6811 22.1687 12.0585 22.112C10.4205 22.0766 8.15957 22.0717 6.30328 22.0757C5.37615 22.0777 4.5518 22.0819 3.95925 22.0857C3.663 22.0875 3.42473 22.0893 3.26059 22.0906L3.00771 22.0926L3 21.3427L3.00671 22.0926L2.24341 22.0995L2.25002 21.3361L3 21.3427" fill="#212121"/>
<path fill-rule="evenodd" clip-rule="evenodd" d="M11.4502 11.7695H13.0489V13.2695H11.4502V11.7695Z" fill="#212121"/>
<path fill-rule="evenodd" clip-rule="evenodd" d="M15.1846 11.7695H16.7833V13.2695H15.1846V11.7695Z" fill="#212121"/>
<path fill-rule="evenodd" clip-rule="evenodd" d="M7.71582 11.7695H9.31456V13.2695H7.71582V11.7695Z" fill="#212121"/>
</svg>
