<svg width="25" height="25" viewBox="0 0 25 25" fill="none" xmlns="http://www.w3.org/2000/svg">
<path opacity="0.4" fill-rule="evenodd" clip-rule="evenodd" d="M6.726 15.2295C7.911 14.6735 8.869 15.0175 9.796 15.3515C10.495 15.6035 11.219 15.8635 12.22 15.8635C12.998 15.8635 13.457 15.1765 14.12 14.0425C14.78 12.9155 15.601 11.5125 17.259 11.5125C19.563 11.5125 20.991 12.9655 21.959 14.0365C21.984 13.5785 22 13.1045 22 12.6035C22 5.40452 19.448 2.85352 12.25 2.85352C5.052 2.85352 2.5 5.40452 2.5 12.6035C2.5 15.2885 2.856 17.3265 3.676 18.8275C4.192 17.8105 5.314 15.8925 6.726 15.2295Z" fill="#212121"/>
<path fill-rule="evenodd" clip-rule="evenodd" d="M21.4818 15.7347C21.3348 15.5837 21.1788 15.4107 21.0118 15.2237C20.1278 14.2387 19.0268 13.0117 17.2588 13.0117C16.5148 13.0117 16.0658 13.6877 15.4158 14.7997C14.7468 15.9427 13.9158 17.3637 12.2198 17.3637C10.9568 17.3637 10.0318 17.0307 9.2878 16.7617C8.4118 16.4457 7.9598 16.3057 7.3648 16.5867C6.2328 17.1187 5.0968 19.2647 4.7548 20.0467C4.7348 20.0947 4.7038 20.1337 4.6748 20.1757C6.2118 21.7147 8.6498 22.3527 12.2508 22.3527C18.2098 22.3527 20.9778 20.5947 21.7568 15.9087C21.6558 15.8707 21.5618 15.8167 21.4818 15.7347Z" fill="#212121"/>
<path d="M11.3491 9.38795C11.3491 8.14195 10.3341 7.12695 9.08815 7.12695C7.84215 7.12695 6.82715 8.14195 6.82715 9.38795C6.82715 10.634 7.84215 11.648 9.08815 11.648C10.3341 11.648 11.3491 10.634 11.3491 9.38795Z" fill="#212121"/>
</svg>
