<svg width="25" height="25" viewBox="0 0 25 25" fill="none" xmlns="http://www.w3.org/2000/svg">
<path fill-rule="evenodd" clip-rule="evenodd" d="M17.4789 17.4529C17.4789 17.8669 17.1429 18.2029 16.7289 18.2029C16.3149 18.2029 15.9789 17.8669 15.9789 17.4529V14.2959C15.9789 13.8819 16.3149 13.5459 16.7289 13.5459C17.1429 13.5459 17.4789 13.8819 17.4789 14.2959V17.4529ZM12.9999 17.4529C12.9999 17.8669 12.6639 18.2029 12.2499 18.2029C11.8359 18.2029 11.4999 17.8669 11.4999 17.4529V7.55485C11.4999 7.13985 11.8359 6.80485 12.2499 6.80485C12.6639 6.80485 12.9999 7.13985 12.9999 7.55485V17.4529ZM8.44594 17.4529C8.44594 17.8669 8.10994 18.2029 7.69594 18.2029C7.28194 18.2029 6.94594 17.8669 6.94594 17.4529V10.7589C6.94594 10.3449 7.28194 10.0089 7.69594 10.0089C8.10994 10.0089 8.44594 10.3449 8.44594 10.7589V17.4529ZM12.2499 2.29785C4.69094 2.29785 2.01294 4.97585 2.01294 12.5349C2.01294 20.0939 4.69094 22.7719 12.2499 22.7719C19.8079 22.7719 22.4869 20.0939 22.4869 12.5349C22.4869 4.97585 19.8079 2.29785 12.2499 2.29785Z" fill="#212121"/>
</svg>
