<svg width="24" height="24" viewBox="0 0 24 24" fill="none" xmlns="http://www.w3.org/2000/svg">
<path fill-rule="evenodd" clip-rule="evenodd" d="M5.3042 5.30396C4.08123 6.52693 3.50024 8.5731 3.50024 12C3.50024 15.4269 4.08123 17.4731 5.3042 18.696C6.52717 19.919 8.57334 20.5 12.0002 20.5C15.4271 20.5 17.4733 19.919 18.6963 18.696C19.9193 17.4731 20.5002 15.4269 20.5002 12C20.5002 8.5731 19.9193 6.52693 18.6963 5.30396C17.4733 4.08098 15.4271 3.5 12.0002 3.5C8.57334 3.5 6.52717 4.08098 5.3042 5.30396ZM4.24354 4.24329C5.91132 2.57552 8.49015 2 12.0002 2C15.5103 2 18.0892 2.57552 19.7569 4.24329C21.4247 5.91107 22.0002 8.4899 22.0002 12C22.0002 15.5101 21.4247 18.0889 19.7569 19.7567C18.0892 21.4245 15.5103 22 12.0002 22C8.49015 22 5.91132 21.4245 4.24354 19.7567C2.57576 18.0889 2.00024 15.5101 2.00024 12C2.00024 8.4899 2.57576 5.91107 4.24354 4.24329Z" fill="#212121"/>
<path fill-rule="evenodd" clip-rule="evenodd" d="M15.1003 8.89936C15.3932 9.19225 15.3932 9.66712 15.1003 9.96002L9.96026 15.1C9.66737 15.3929 9.19249 15.3929 8.8996 15.1C8.60671 14.8071 8.60671 14.3323 8.8996 14.0394L14.0396 8.89936C14.3325 8.60646 14.8074 8.60646 15.1003 8.89936Z" fill="#212121"/>
<path fill-rule="evenodd" clip-rule="evenodd" d="M13.4956 14.5C13.4956 13.9477 13.9433 13.5 14.4956 13.5H14.5046C15.0569 13.5 15.5046 13.9477 15.5046 14.5C15.5046 15.0523 15.0569 15.5 14.5046 15.5H14.4956C13.9433 15.5 13.4956 15.0523 13.4956 14.5Z" fill="#212121"/>
<path fill-rule="evenodd" clip-rule="evenodd" d="M8.49561 9.5C8.49561 8.94772 8.94332 8.5 9.49561 8.5H9.50461C10.0569 8.5 10.5046 8.94772 10.5046 9.5C10.5046 10.0523 10.0569 10.5 9.50461 10.5H9.49561C8.94332 10.5 8.49561 10.0523 8.49561 9.5Z" fill="#212121"/>
</svg>
