<svg width="25" height="24" viewBox="0 0 25 24" fill="none" xmlns="http://www.w3.org/2000/svg">
<path opacity="0.4" fill-rule="evenodd" clip-rule="evenodd" d="M3.74976 12.001C3.74976 11.4487 4.19747 11.001 4.74976 11.001L19.7498 11.001C20.302 11.001 20.7498 11.4487 20.7498 12.001C20.7498 12.5533 20.302 13.001 19.7498 13.001L4.74976 13.001C4.19747 13.001 3.74976 12.5533 3.74976 12.001Z" fill="#212121"/>
<path d="M14.1746 5.09593C13.6885 4.83388 13.0819 5.01556 12.8199 5.50172C12.6424 5.83101 12.6686 6.21557 12.855 6.51089C12.9438 6.65152 13.0689 6.77192 13.2257 6.85647L13.2276 6.85751L13.238 6.86319L13.2833 6.88814C13.324 6.9107 13.3852 6.94492 13.4638 6.98989C13.6213 7.07987 13.8483 7.21256 14.1215 7.38065C14.67 7.718 15.3957 8.19235 16.1164 8.74532C16.843 9.30284 17.5321 9.91576 18.0305 10.5256C18.5482 11.1592 18.7501 11.6559 18.7501 11.9992C18.7501 12.3432 18.548 12.8404 18.0303 13.4743C17.532 14.0845 16.8429 14.6977 16.1162 15.2554C15.3956 15.8087 14.6698 16.2832 14.1214 16.6206C13.8481 16.7888 13.6211 16.9215 13.4637 17.0115C13.3846 17.0568 13.3053 17.1017 13.2252 17.1452C12.7394 17.4074 12.5579 18.0138 12.8199 18.4998C13.082 18.9859 13.6886 19.1675 14.1747 18.9054C14.2694 18.8543 14.3631 18.8012 14.4565 18.7477C14.6299 18.6486 14.8756 18.5049 15.1695 18.324C15.7554 17.9635 16.5422 17.4497 17.334 16.8419C18.1199 16.2387 18.9433 15.5181 19.5794 14.7394C20.1961 13.9842 20.7501 13.0371 20.7501 11.9992C20.7501 10.9615 20.1958 10.0148 19.5792 9.26014C18.9432 8.48176 18.1197 7.76155 17.3339 7.15857C16.5421 6.55105 15.7553 6.03752 15.1694 5.67712C14.8755 5.49633 14.6298 5.35268 14.4564 5.25354C14.3696 5.20394 14.3008 5.1654 14.2528 5.13884L14.197 5.10808L14.1815 5.09964L14.1769 5.09718L14.1746 5.09593Z" fill="#212121"/>
</svg>
