<svg width="24" height="24" viewBox="0 0 24 24" fill="none" xmlns="http://www.w3.org/2000/svg">
<path fill-rule="evenodd" clip-rule="evenodd" d="M21.4399 13.9942C18.7789 13.9942 18.7789 9.87976 21.4399 9.87976C21.4399 5.11261 21.4399 3.41113 12.0449 3.41113C2.6499 3.41113 2.6499 5.11261 2.6499 9.87976C5.3109 9.87976 5.3109 13.9942 2.6499 13.9942C2.6499 18.7623 2.6499 20.4638 12.0449 20.4638C21.4399 20.4638 21.4399 18.7623 21.4399 13.9942Z" stroke="#212121" stroke-width="1.5" stroke-linecap="round" stroke-linejoin="round"/>
<path fill-rule="evenodd" clip-rule="evenodd" d="M12.0449 9.1709C11.3619 9.1709 11.2969 10.2604 10.8909 10.646C10.4839 11.0306 9.22087 10.591 9.04487 11.2741C8.86987 11.9581 10.0069 12.1902 10.1479 12.7766C10.2879 13.363 9.59387 14.1872 10.1869 14.5984C10.7809 15.0076 11.4199 14.0802 12.0449 14.0802C12.6699 14.0802 13.3089 15.0076 13.9029 14.5984C14.4969 14.1872 13.8019 13.363 13.9419 12.7766C14.0829 12.1902 15.2199 11.9581 15.0449 11.2741C14.8689 10.591 13.6059 11.0306 13.1989 10.646C12.7929 10.2604 12.7279 9.1709 12.0449 9.1709Z" stroke="#212121" stroke-width="1.5" stroke-linecap="round" stroke-linejoin="round"/>
</svg>
