<svg width="25" height="25" viewBox="0 0 25 25" fill="none" xmlns="http://www.w3.org/2000/svg">
<path fill-rule="evenodd" clip-rule="evenodd" d="M13.4443 13.333H21.7499V21.6386H13.4443V13.333ZM14.9443 14.833V20.1386H20.2499V14.833H14.9443Z" fill="#212121"/>
<path fill-rule="evenodd" clip-rule="evenodd" d="M16.8477 18.2842L16.8477 16.687L18.3477 16.687L18.3477 18.2842L16.8477 18.2842Z" fill="#212121"/>
<path fill-rule="evenodd" clip-rule="evenodd" d="M2.75 13.333H11.0556V21.6386H2.75V13.333ZM4.25 14.833V20.1386H9.55556V14.833H4.25Z" fill="#212121"/>
<path fill-rule="evenodd" clip-rule="evenodd" d="M6.15234 18.2842L6.15234 16.687L7.65234 16.687L7.65234 18.2842L6.15234 18.2842Z" fill="#212121"/>
<path fill-rule="evenodd" clip-rule="evenodd" d="M13.4443 2.63867H17.3749V4.13867H14.9443V8.2584H13.4443V2.63867ZM18.5485 2.63867H21.7499V5.84006H20.2499V4.13867H18.5485V2.63867ZM21.7499 7.01367V10.9442H18.5485V9.44423H20.2499V7.01367H21.7499ZM13.4443 9.44423H17.1645V10.9442H13.4443V9.44423Z" fill="#212121"/>
<path fill-rule="evenodd" clip-rule="evenodd" d="M19.0967 8.72266H15.7676V5.00427H17.2676V7.22266H19.0967V8.72266Z" fill="#212121"/>
<path fill-rule="evenodd" clip-rule="evenodd" d="M18.1936 6.50391L18.1936 4.99391L19.6936 4.99391L19.6936 6.50391L18.1936 6.50391Z" fill="#212121"/>
<path fill-rule="evenodd" clip-rule="evenodd" d="M2.75 2.63867H11.0556V10.9442H2.75V2.63867ZM4.25 4.13867V9.44423H9.55556V4.13867H4.25Z" fill="#212121"/>
<path fill-rule="evenodd" clip-rule="evenodd" d="M6.15234 7.58984L6.15234 5.99262L7.65234 5.99262L7.65234 7.58984L6.15234 7.58984Z" fill="#212121"/>
</svg>
