<svg width="25" height="25" viewBox="0 0 25 25" fill="none" xmlns="http://www.w3.org/2000/svg">
<path fill-rule="evenodd" clip-rule="evenodd" d="M17.02 10.7135L16.46 11.3435C16.44 11.3135 13 8.26352 12.96 8.24352L13.52 7.61352C14.38 6.65352 15.86 6.56352 16.82 7.41352C17.34 7.87352 17.61 8.52352 17.61 9.16352C17.61 9.71352 17.42 10.2635 17.02 10.7135ZM11.6 16.8435C10.86 17.6735 9.86 17.8735 9.07 17.8735C8.35 17.8735 7.79 17.7035 7.78 17.7035C7.75 17.6935 7.72 17.6635 7.71 17.6335C7.7 17.6135 6.67 15.3635 8.1 13.7435L11.98 9.35352C12.01 9.38352 15.45 12.4335 15.48 12.4535L11.6 16.8435ZM12.25 2.85352C5.05 2.85352 2.5 5.40352 2.5 12.6035C2.5 19.8035 5.05 22.3535 12.25 22.3535C19.45 22.3535 22 19.8035 22 12.6035C22 5.40352 19.45 2.85352 12.25 2.85352Z" fill="#212121"/>
</svg>
