<svg width="25" height="24" viewBox="0 0 25 24" fill="none" xmlns="http://www.w3.org/2000/svg">
<path opacity="0.4" fill-rule="evenodd" clip-rule="evenodd" d="M7.53753 7.6C7.45753 8.72 7.41771 9.90005 7.40771 11.1301L7.40771 12.6301C7.41771 13.8401 7.46753 15.1 7.53753 16.4L7.53753 16.42C7.90753 20.45 9.73753 21.75 15.0375 21.75C22.6375 21.75 22.6375 18.9 22.6375 12C22.6375 5.1 22.6375 2.25 15.0375 2.25C9.73753 2.25 7.90753 3.55 7.53753 7.6Z" fill="#212121"/>
<path fill-rule="evenodd" clip-rule="evenodd" d="M12.8417 11.2502L11.1987 9.61117C11.0517 9.46517 10.9777 9.27217 10.9777 9.08017C10.9777 8.88917 11.0517 8.69717 11.1967 8.55117C11.4897 8.25717 11.9647 8.25717 12.2577 8.54917L15.1857 11.4692C15.4687 11.7502 15.4687 12.2502 15.1857 12.5312L12.2577 15.4512C11.9647 15.7432 11.4897 15.7432 11.1967 15.4492C10.9047 15.1552 10.9047 14.6812 11.1987 14.3892L12.8417 12.7502L2.60484 12.7502C2.19316 12.7502 1.86258 12.4046 1.86259 11.993C1.86259 11.5811 2.19353 11.2502 2.60544 11.2502L12.8417 11.2502Z" fill="#212121"/>
</svg>
