<svg width="25" height="24" viewBox="0 0 25 24" fill="none" xmlns="http://www.w3.org/2000/svg">
<path fill-rule="evenodd" clip-rule="evenodd" d="M9.01367 10.8064C9.01367 9.01834 10.4627 7.56934 12.2507 7.56934C14.038 7.56934 15.4868 9.01854 15.4868 10.8064C15.4868 12.5934 14.0378 14.0424 12.2507 14.0424C10.4629 14.0424 9.01367 12.5936 9.01367 10.8064ZM12.2507 9.06934C11.2911 9.06934 10.5137 9.84677 10.5137 10.8064C10.5137 11.7648 11.2909 12.5424 12.2507 12.5424C13.2093 12.5424 13.9868 11.765 13.9868 10.8064C13.9868 9.84657 13.2092 9.06934 12.2507 9.06934Z" fill="#212121"/>
<path fill-rule="evenodd" clip-rule="evenodd" d="M12.2498 3.5C8.56991 3.5 5.42408 6.82774 5.54022 10.574C5.62304 13.2455 7.32463 15.7359 9.13068 17.6225C10.0208 18.5523 10.9077 19.3057 11.5726 19.8267C11.8424 20.0381 12.0747 20.2104 12.2546 20.34C12.4336 20.2137 12.6643 20.0458 12.932 19.8397C13.596 19.3286 14.4819 18.5872 15.371 17.6658C17.1728 15.7986 18.8767 13.3079 18.9602 10.5743C19.0747 6.82757 15.9294 3.5 12.2498 3.5ZM12.2498 21.2499C11.8404 21.8784 11.8402 21.8782 11.84 21.8781L11.8394 21.8777L11.8377 21.8766L11.8324 21.8731L11.8139 21.8609C11.7982 21.8505 11.7758 21.8355 11.7472 21.8161C11.6898 21.7772 11.6074 21.7205 11.5033 21.6468C11.2953 21.4995 11.0006 21.284 10.6475 21.0074C9.94242 20.455 8.99889 19.6539 8.04715 18.6598C6.16945 16.6983 4.14145 13.8624 4.04094 10.6205C3.89962 6.0623 7.68933 2 12.2498 2C16.8103 2 20.5988 6.06234 20.4595 10.6201C20.3587 13.9213 18.3325 16.757 16.4504 18.7074C15.4975 19.6949 14.5529 20.4851 13.8469 21.0284C13.4934 21.3005 13.1982 21.5119 12.9898 21.6562C12.8856 21.7284 12.8029 21.784 12.7454 21.822C12.7167 21.8411 12.6942 21.8557 12.6784 21.8659L12.6598 21.8779L12.6544 21.8814L12.6527 21.8825L12.6521 21.8829C12.6519 21.883 12.6517 21.8831 12.2498 21.2499ZM12.2498 21.2499L12.6517 21.8831L12.2445 22.1416L11.8404 21.8784L12.2498 21.2499Z" fill="#212121"/>
</svg>
