<svg width="25" height="25" viewBox="0 0 25 25" fill="none" xmlns="http://www.w3.org/2000/svg">
<path fill-rule="evenodd" clip-rule="evenodd" d="M9.61691 8.34239C9.71636 8.21012 9.90412 8.18336 10.0366 8.28257L15.2165 12.163C15.3492 12.2624 15.3761 12.4506 15.2766 12.5832L10.4569 19.003C9.29688 20.553 7.54688 20.863 6.33688 20.863C5.58688 20.863 5.04688 20.743 4.98688 20.733C4.85688 20.703 4.73688 20.613 4.66688 20.493C4.59688 20.363 2.87688 17.303 4.79688 14.753L9.61691 8.34239Z" fill="#212121"/>
<path opacity="0.4" fill-rule="evenodd" clip-rule="evenodd" d="M19.8584 19.3516H13.4814C13.0674 19.3516 12.7314 19.6876 12.7314 20.1016C12.7314 20.5156 13.0674 20.8516 13.4814 20.8516H19.8584C20.2724 20.8516 20.6084 20.5156 20.6084 20.1016C20.6084 19.6876 20.2724 19.3516 19.8584 19.3516Z" fill="#212121"/>
<path opacity="0.4" fill-rule="evenodd" clip-rule="evenodd" d="M17.2065 10.0138L16.5365 10.9045C16.437 11.0367 16.2493 11.0634 16.1169 10.9642L10.9361 7.08321C10.8037 6.98403 10.7765 6.7964 10.8754 6.66378L11.5465 5.76375C12.2365 4.83375 13.3065 4.34375 14.3865 4.34375C15.1265 4.34375 15.8665 4.57375 16.5065 5.05375C17.2565 5.62375 17.7465 6.45375 17.8865 7.38375C18.0165 8.32375 17.7765 9.25375 17.2065 10.0138Z" fill="#212121"/>
</svg>
