<svg width="25" height="24" viewBox="0 0 25 24" fill="none" xmlns="http://www.w3.org/2000/svg">
<path fill-rule="evenodd" clip-rule="evenodd" d="M23.3466 16.5688C22.6166 14.2828 20.6816 12.9748 18.0266 12.9748H18.0076C16.9256 12.9648 15.9586 13.1828 15.1426 13.5998C17.4196 14.3308 19.1076 15.9528 19.8846 18.2478C21.1176 18.0768 22.1896 17.6978 23.1376 17.1188L23.4506 16.9198L23.3466 16.5688Z" fill="#212121"/>
<path fill-rule="evenodd" clip-rule="evenodd" d="M16.2905 11.2483C16.8025 11.5333 17.3815 11.6943 18.0075 11.6943C19.9705 11.6943 21.5635 10.1003 21.5635 8.13732C21.5635 6.18432 19.9705 4.59032 18.0075 4.59032C17.6185 4.59032 17.2485 4.65732 16.8975 4.77032C17.4095 5.59632 17.7035 6.57232 17.7035 7.60632C17.7035 9.01032 17.1815 10.2813 16.2905 11.2483Z" fill="#212121"/>
<path fill-rule="evenodd" clip-rule="evenodd" d="M9.31032 13.5814C8.51332 13.1834 7.57432 12.9744 6.51232 12.9744H6.47432C3.81932 12.9744 1.88432 14.2834 1.16332 16.5684L1.04932 16.9194L1.36232 17.1184C2.26332 17.6694 3.32632 18.0384 4.51132 18.2284C5.29832 15.9244 7.01532 14.2924 9.31032 13.5814Z" fill="#212121"/>
<path fill-rule="evenodd" clip-rule="evenodd" d="M6.49346 11.694C7.11946 11.694 7.69746 11.533 8.21046 11.248C7.31846 10.281 6.79646 9.01001 6.79646 7.60601C6.79646 6.57301 7.09046 5.59601 7.60346 4.77101C7.25246 4.65701 6.88246 4.59001 6.49346 4.59001C4.53046 4.59001 2.93646 6.18401 2.93646 8.13701C2.93646 10.101 4.53046 11.694 6.49346 11.694Z" fill="#212121"/>
<path fill-rule="evenodd" clip-rule="evenodd" d="M12.216 14.1033C12.2 14.1033 12.185 14.1033 12.17 14.1033C8.756 14.1033 6.267 15.7813 5.341 18.7103L5.229 19.0643L5.546 19.2583C7.354 20.3603 9.514 20.8963 12.149 20.8963H12.234C14.871 20.8963 17.032 20.3603 18.84 19.2583L19.158 19.0643L19.046 18.7103C18.119 15.7813 15.631 14.1033 12.216 14.1033Z" fill="#212121"/>
<path fill-rule="evenodd" clip-rule="evenodd" d="M12.2502 12.1185C14.7362 12.1185 16.7582 10.0965 16.7582 7.61052C16.7582 5.12552 14.7362 3.10352 12.2502 3.10352C9.76419 3.10352 7.74219 5.12552 7.74219 7.61052C7.74219 10.0965 9.76419 12.1185 12.2502 12.1185Z" fill="#212121"/>
</svg>
