<svg width="25" height="25" viewBox="0 0 25 25" fill="none" xmlns="http://www.w3.org/2000/svg">
<path fill-rule="evenodd" clip-rule="evenodd" d="M22.1514 7.47035C21.3714 6.63035 18.9714 8.14035 17.6114 9.10035C17.8414 10.0903 17.9514 11.2403 17.9514 12.5403C17.9514 13.8303 17.8414 14.9603 17.6214 15.9503C18.7114 16.7203 20.4914 17.8503 21.5314 17.8503C21.7914 17.8503 22.0114 17.7803 22.1514 17.6203C23.0814 16.6303 23.0814 8.47035 22.1514 7.47035Z" fill="#212121"/>
<path fill-rule="evenodd" clip-rule="evenodd" d="M9.06137 5.11035C3.59137 5.11035 1.65137 7.06035 1.65137 12.5404C1.65137 18.0204 3.59137 19.9604 9.06137 19.9604C14.5214 19.9604 16.4514 18.0204 16.4514 12.5404C16.4514 7.06035 14.5214 5.11035 9.06137 5.11035Z" fill="#212121"/>
</svg>
