<svg width="25" height="25" viewBox="0 0 25 25" fill="none" xmlns="http://www.w3.org/2000/svg">
<path fill-rule="evenodd" clip-rule="evenodd" d="M16.0596 9.34792C15.0136 9.10492 13.7526 8.99392 12.2496 8.99392C10.7466 8.99392 9.4856 9.10492 8.4396 9.34792V7.91592C8.4726 5.84192 10.1236 4.19692 12.1996 4.16992C13.2306 4.14192 14.1816 4.54192 14.9106 5.25292C15.6386 5.96392 16.0476 6.91492 16.0596 7.92392V9.34792ZM12.9996 17.0469C12.9996 17.4609 12.6636 17.7969 12.2496 17.7969C11.8356 17.7969 11.4996 17.4609 11.4996 17.0469V14.8259C11.4996 14.4119 11.8356 14.0759 12.2496 14.0759C12.6636 14.0759 12.9996 14.4119 12.9996 14.8259V17.0469ZM17.5596 9.86092V7.91492C17.5416 6.49592 16.9736 5.16892 15.9566 4.17892C14.9416 3.18892 13.5876 2.69792 12.1796 2.66992C9.2886 2.70692 6.9866 5.00092 6.9396 7.90492V9.86192C4.9056 10.8319 4.0896 12.6829 4.0896 15.7649C4.0896 20.7649 6.2256 22.5369 12.2496 22.5369C18.2746 22.5369 20.4106 20.7649 20.4106 15.7649C20.4106 12.6829 19.5936 10.8309 17.5596 9.86092Z" fill="#212121"/>
</svg>
