<svg width="24" height="24" viewBox="0 0 24 24" fill="none" xmlns="http://www.w3.org/2000/svg">
<path d="M17.6314 10.699H17.6564C18.0584 10.699 18.3914 10.38 18.4054 9.97402C18.4644 8.22902 17.4234 6.94602 15.8154 6.78102C15.4114 6.74702 15.0354 7.03802 14.9924 7.45002C14.9504 7.86202 15.2504 8.23002 15.6624 8.27302C16.4734 8.35602 16.9384 8.97302 16.9064 9.92402C16.8924 10.338 17.2174 10.685 17.6314 10.699Z" fill="#212121"/>
<path fill-rule="evenodd" clip-rule="evenodd" d="M2.15932 12.6385C3.95332 18.2225 9.94632 21.2355 12.0023 21.2355C14.0733 21.2355 20.0863 18.2215 21.8423 12.6375C22.9923 9.04554 21.7173 4.35754 17.6513 3.04754C15.9193 2.49254 13.5463 2.69654 11.9803 4.28954C10.5293 2.89554 8.37332 2.39254 6.34232 3.04854C2.28032 4.35554 1.00732 9.04454 2.15832 12.6375L2.15932 12.6385ZM12.0023 19.7355C10.8173 19.7355 5.23432 17.3055 3.58732 12.1805C2.65632 9.27254 3.62032 5.50054 6.80232 4.47554C8.19332 4.02654 10.2253 4.27854 11.3943 5.89254C11.5393 6.09154 11.7713 6.19154 12.0183 6.20154C12.2643 6.19654 12.4923 6.07054 12.6283 5.86554C13.6943 4.24754 15.7423 4.01154 17.1923 4.47554C20.3773 5.50154 21.3433 9.27354 20.4123 12.1835C18.8013 17.3065 13.1963 19.7355 12.0023 19.7355Z" fill="#212121"/>
</svg>
