<svg width="24" height="24" viewBox="0 0 24 24" fill="none" xmlns="http://www.w3.org/2000/svg">
<path fill-rule="evenodd" clip-rule="evenodd" d="M12.9489 10.741C13.4039 11.195 14.5259 11.389 15.8019 11.389C17.7459 11.389 20.0489 10.938 20.8989 10.27C21.6759 9.65795 21.9829 8.74195 21.7629 7.69095C21.3099 5.52695 18.5589 2.87695 16.1029 2.23895C14.8399 1.90995 13.7659 2.16395 13.0789 2.95395C12.1109 4.06995 11.8319 9.62095 12.9489 10.741ZM14.0209 9.69295C13.5319 9.03595 13.6799 4.68295 14.2159 3.93295C14.5179 3.58995 15.0249 3.50895 15.7249 3.68995C17.6109 4.18095 19.9589 6.39495 20.2949 7.99795C20.4279 8.63595 20.1919 8.91695 19.9709 9.09095C19.0059 9.85095 14.6589 10.153 14.0209 9.69295Z" fill="#212121"/>
<path fill-rule="evenodd" clip-rule="evenodd" d="M2.16748 13.4498C2.16748 18.1098 5.95848 21.9008 10.6185 21.9008C15.1715 21.9008 17.8195 18.4388 18.6675 16.3928C19.2265 15.0428 19.2155 13.9368 18.6355 13.3568C17.9155 12.6369 16.6329 12.6764 15.1485 12.722L15.1235 12.7228C13.7655 12.7668 12.2275 12.8158 11.6145 12.2018C10.9365 11.5238 10.8805 9.92882 10.8355 8.64682L10.8354 8.64476C10.7894 7.33774 10.7532 6.30652 10.1745 5.72882C9.50648 5.06082 8.41648 4.96982 7.18448 5.48082C4.75248 6.48782 2.16748 9.62382 2.16748 13.4498ZM7.75848 6.86682C8.10448 6.72282 8.42348 6.65082 8.67348 6.65082C8.86748 6.65082 9.02048 6.69482 9.10948 6.78382C9.2762 6.99946 9.31236 8.01942 9.33636 8.69644L9.33648 8.69982C9.39048 10.2438 9.45848 12.1668 10.5535 13.2628C11.6235 14.3328 13.4991 14.2742 15.1577 14.2223L15.1904 14.2212C16.0243 14.1952 17.2597 14.1567 17.5575 14.4018C17.6315 14.5948 17.5835 15.4818 16.7905 16.7718C16.2685 17.6238 14.2775 20.4008 10.6185 20.4008C6.78548 20.4008 3.66748 17.2828 3.66748 13.4498C3.66748 9.88882 6.17648 7.52182 7.75848 6.86682Z" fill="#212121"/>
</svg>
