<svg width="25" height="24" viewBox="0 0 25 24" fill="none" xmlns="http://www.w3.org/2000/svg">
<path fill-rule="evenodd" clip-rule="evenodd" d="M12.2499 0.84375L14.5981 6.33122L20.1387 4.11139L17.9189 9.65201L23.4063 12.0002L17.9189 14.3483L20.1387 19.8889L14.5981 17.6691L12.2499 23.1566L9.90177 17.6691L4.36115 19.8889L6.58097 14.3483L1.09351 12.0002L6.58097 9.65201L4.36115 4.11139L9.90177 6.33122L12.2499 0.84375ZM12.2499 4.65659L10.7043 8.26865L7.05723 6.80747L8.5184 10.4545L4.90634 12.0002L8.5184 13.5458L7.05723 17.1929L10.7043 15.7317L12.2499 19.3438L13.7956 15.7317L17.4426 17.1929L15.9814 13.5458L19.5935 12.0002L15.9814 10.4545L17.4426 6.80747L13.7956 8.26865L12.2499 4.65659Z" fill="#212121"/>
</svg>
