<svg width="24" height="24" viewBox="0 0 24 24" fill="none" xmlns="http://www.w3.org/2000/svg">
<path fill-rule="evenodd" clip-rule="evenodd" d="M12.0023 9.63965C10.6704 9.63965 9.59033 10.719 9.59033 12.0516C9.59033 13.3834 10.6705 14.4636 12.0023 14.4636C13.3341 14.4636 14.4143 13.3834 14.4143 12.0516C14.4143 10.719 13.3343 9.63965 12.0023 9.63965ZM8.09033 12.0516C8.09033 9.89028 9.84227 8.13965 12.0023 8.13965C14.1624 8.13965 15.9143 9.89028 15.9143 12.0516C15.9143 14.2119 14.1625 15.9636 12.0023 15.9636C9.84212 15.9636 8.09033 14.2119 8.09033 12.0516Z" fill="#212121"/>
<path fill-rule="evenodd" clip-rule="evenodd" d="M4.97577 6.59826C6.77017 5.08118 9.25098 4 12.0022 4C14.7529 4 17.2337 5.08034 19.0282 6.59706C20.8033 8.09726 22.0042 10.114 22.0042 12.052C22.0042 13.99 20.8033 16.0067 19.0282 17.5069C17.2337 19.0237 14.7529 20.104 12.0022 20.104C9.25098 20.104 6.77017 19.0228 4.97577 17.5057C3.20099 16.0052 2.00024 13.9885 2.00024 12.052C2.00024 10.1155 3.20099 8.09876 4.97577 6.59826ZM5.94422 7.74374C4.3705 9.07424 3.50024 10.7085 3.50024 12.052C3.50024 13.3955 4.3705 15.0298 5.94422 16.3603C7.49832 17.6742 9.64351 18.604 12.0022 18.604C14.3606 18.604 16.5058 17.6748 18.06 16.3613C19.6337 15.0313 20.5042 13.397 20.5042 12.052C20.5042 10.707 19.6337 9.07274 18.06 7.74269C16.5058 6.42916 14.3606 5.5 12.0022 5.5C9.64351 5.5 7.49832 6.42982 5.94422 7.74374Z" fill="#212121"/>
</svg>
