<svg width="25" height="24" viewBox="0 0 25 24" fill="none" xmlns="http://www.w3.org/2000/svg">
<path opacity="0.4" fill-rule="evenodd" clip-rule="evenodd" d="M10.154 14.3364H10.101C6.35399 14.3364 3.62399 16.1774 2.60799 19.3904L2.48999 19.7644L2.82399 19.9684C4.78199 21.1624 7.22299 21.7674 10.081 21.7674C10.112 21.7684 10.143 21.7684 10.175 21.7674C13.072 21.7674 15.446 21.1784 17.431 19.9684L17.765 19.7644L17.647 19.3904C16.632 16.1774 13.901 14.3364 10.154 14.3364Z" fill="#212121"/>
<path fill-rule="evenodd" clip-rule="evenodd" d="M22.0102 9.94152H19.9652V7.93652H18.4652V9.94152H16.4202V11.4415H18.4652V13.4465H19.9652V11.4415H22.0102V9.94152Z" fill="#212121"/>
<path fill-rule="evenodd" clip-rule="evenodd" d="M10.1272 12.1084C12.8502 12.1084 15.0652 9.89345 15.0652 7.17045C15.0652 4.44645 12.8502 2.23145 10.1272 2.23145C7.40421 2.23145 5.18921 4.44645 5.18921 7.17045C5.18921 9.89345 7.40421 12.1084 10.1272 12.1084Z" fill="#212121"/>
</svg>
