<svg width="25" height="25" viewBox="0 0 25 25" fill="none" xmlns="http://www.w3.org/2000/svg">
<path fill-rule="evenodd" clip-rule="evenodd" d="M12.255 9.78516H12.246C11.832 9.78516 11.496 9.44916 11.496 9.03516C11.496 8.62116 11.832 8.28516 12.246 8.28516C12.66 8.28516 13.001 8.62116 13.001 9.03516C13.001 9.44916 12.669 9.78516 12.255 9.78516ZM13 16.4302C13 16.8442 12.664 17.1802 12.25 17.1802C11.836 17.1802 11.5 16.8442 11.5 16.4302V12.5352C11.5 12.1212 11.836 11.7852 12.25 11.7852C12.664 11.7852 13 12.1212 13 12.5352V16.4302ZM12.25 2.78516C5.052 2.78516 2.5 5.33716 2.5 12.5352C2.5 19.7332 5.052 22.2852 12.25 22.2852C19.448 22.2852 22 19.7332 22 12.5352C22 5.33716 19.448 2.78516 12.25 2.78516Z" fill="#212121"/>
</svg>
