<svg width="24" height="24" viewBox="0 0 24 24" fill="none" xmlns="http://www.w3.org/2000/svg">
<path fill-rule="evenodd" clip-rule="evenodd" d="M4.45009 9.7122C5.02564 8.93548 5.96655 8.54719 7.69884 8.38751C8.11131 8.34949 8.41485 7.9843 8.37683 7.57183C8.33881 7.15937 7.97362 6.85582 7.56116 6.89384C5.71345 7.06416 4.21436 7.51087 3.24491 8.81915C2.31546 10.0735 2 11.9633 2 14.6407C2 18.1905 2.55654 20.373 4.37994 21.4931C5.249 22.0269 6.3253 22.2629 7.55739 22.3775C8.78465 22.4917 10.259 22.4917 11.9684 22.4917H12.0316C13.741 22.4917 15.2154 22.4917 16.4426 22.3775C17.6747 22.2629 18.751 22.0269 19.6201 21.4931C21.4435 20.373 22 18.1905 22 14.6407C22 11.9633 21.6845 10.0735 20.7551 8.81915C19.7856 7.51087 18.2866 7.06416 16.4388 6.89384C16.0264 6.85582 15.6612 7.15937 15.6232 7.57183C15.5851 7.9843 15.8887 8.34949 16.3012 8.38751C18.0334 8.54719 18.9744 8.93548 19.5499 9.7122C20.1655 10.5429 20.5 11.9881 20.5 14.6407C20.5 18.1918 19.9015 19.5598 18.8349 20.215C18.259 20.5688 17.4565 20.7767 16.3036 20.8839C15.1535 20.991 13.7472 20.9917 12 20.9917C10.2528 20.9917 8.84654 20.991 7.69636 20.8839C6.54345 20.7767 5.741 20.5688 5.16506 20.215C4.09846 19.5598 3.5 18.1918 3.5 14.6407C3.5 11.9881 3.83454 10.5429 4.45009 9.7122Z" fill="#212121"/>
<path fill-rule="evenodd" clip-rule="evenodd" d="M12.1208 15C11.7066 15 11.3708 14.6642 11.3708 14.25V2.209C11.3708 1.79479 11.7066 1.459 12.1208 1.459C12.5351 1.459 12.8708 1.79479 12.8708 2.209V14.25C12.8708 14.6642 12.5351 15 12.1208 15Z" fill="#212121"/>
<path fill-rule="evenodd" clip-rule="evenodd" d="M8.67559 5.66716C8.3821 5.37487 8.38112 4.9 8.67342 4.6065L11.5894 1.6785C11.7302 1.53718 11.9214 1.45774 12.1208 1.45774C12.3203 1.45774 12.5115 1.53718 12.6523 1.6785L15.5683 4.6065C15.8605 4.9 15.8596 5.37487 15.5661 5.66716C15.2726 5.95945 14.7977 5.95848 14.5054 5.66498L12.1208 3.27059L9.73625 5.66498C9.44396 5.95848 8.96909 5.95945 8.67559 5.66716Z" fill="#212121"/>
</svg>
