<svg width="24" height="24" viewBox="0 0 24 24" fill="none" xmlns="http://www.w3.org/2000/svg">
<path d="M10.7618 14.1207C10.9028 14.2617 11.0938 14.3407 11.2928 14.3407C11.4918 14.3407 11.6828 14.2617 11.8228 14.1207L15.7208 10.2217C16.0138 9.92867 16.0138 9.45367 15.7208 9.16067C15.4278 8.86767 14.9538 8.86767 14.6608 9.16067L11.2928 12.5287L9.93175 11.1657C9.63875 10.8727 9.16275 10.8727 8.87075 11.1657C8.57775 11.4577 8.57775 11.9337 8.86975 12.2267L10.7618 14.1207Z" fill="#212121"/>
<path fill-rule="evenodd" clip-rule="evenodd" d="M3.57802 12.7003C3.57802 19.3973 9.06302 22.1773 12 22.1773C14.937 22.1773 20.422 19.3973 20.422 12.7003C20.422 10.8064 20.4464 9.42966 20.4643 8.41539L20.4651 8.37061C20.511 5.83362 20.5206 5.30387 19.866 4.64927C19.034 3.81727 15.59 1.82227 12 1.82227C8.40902 1.82227 4.96602 3.81727 4.13602 4.64927C3.47941 5.30387 3.489 5.83463 3.53493 8.37568L3.53572 8.41982C3.55366 9.43315 3.57802 10.809 3.57802 12.7003ZM5.19702 5.71027C5.68202 5.22327 8.73402 3.32227 12 3.32227C15.266 3.32227 18.319 5.22327 18.805 5.71027C18.997 5.90227 19.004 6.22027 18.966 8.34727C18.947 9.37327 18.922 10.7683 18.922 12.7003C18.922 18.7873 13.848 20.6773 12 20.6773C10.152 20.6773 5.07802 18.7873 5.07802 12.7003C5.07802 10.7999 5.05373 9.41737 5.03579 8.39658L5.03502 8.35227C4.99602 6.22127 5.00302 5.90227 5.19702 5.71027Z" fill="#212121"/>
</svg>
