<svg width="25" height="25" viewBox="0 0 25 25" fill="none" xmlns="http://www.w3.org/2000/svg">
<path fill-rule="evenodd" clip-rule="evenodd" d="M7.85426 19.279C7.15126 19.279 6.58026 19.85 6.58026 20.553C6.58026 21.256 7.15126 21.828 7.85426 21.828C8.55626 21.828 9.12726 21.256 9.12726 20.553C9.12726 19.85 8.55626 19.279 7.85426 19.279Z" fill="#212121"/>
<path fill-rule="evenodd" clip-rule="evenodd" d="M18.7214 19.279C18.0184 19.279 17.4474 19.85 17.4474 20.553C17.4474 21.256 18.0184 21.828 18.7214 21.828C19.4244 21.828 19.9954 21.256 19.9954 20.553C19.9954 19.85 19.4244 19.279 18.7214 19.279Z" fill="#212121"/>
<path fill-rule="evenodd" clip-rule="evenodd" d="M13.8251 11.7117H17.9951V10.2117H13.8251V11.7117ZM6.39507 6.3017L6.09507 3.2417H2.19507V4.7417H4.73507L6.01507 17.4417H20.8351L22.3051 6.3017H6.39507Z" fill="#212121"/>
</svg>
