<svg width="25" height="24" viewBox="0 0 25 24" fill="none" xmlns="http://www.w3.org/2000/svg">
<path fill-rule="evenodd" clip-rule="evenodd" d="M12.2503 9.0625C10.6279 9.0625 9.31274 10.3777 9.31274 12C9.31274 13.6224 10.6279 14.9376 12.2503 14.9376C13.8726 14.9376 15.1878 13.6224 15.1878 12C15.1878 10.3777 13.8726 9.0625 12.2503 9.0625ZM7.81274 12C7.81274 9.54926 9.7995 7.5625 12.2503 7.5625C14.7011 7.5625 16.6878 9.54926 16.6878 12C16.6878 14.4508 14.7011 16.4376 12.2503 16.4376C9.7995 16.4376 7.81274 14.4508 7.81274 12Z" fill="#212121"/>
<path fill-rule="evenodd" clip-rule="evenodd" d="M9.90082 1.84668L12.2506 3.69555L14.6004 1.84668L19.8696 4.88885L19.4434 7.84813L22.2177 8.95799V15.0423L19.4424 16.1526L19.8686 19.1113L14.5994 22.1535L12.2506 20.3055L9.90191 22.1535L4.63272 19.1113L5.0588 16.1531L2.28223 15.0423V8.95799L5.0578 7.84762L4.63163 4.88885L9.90082 1.84668ZM6.26109 5.68013L6.71073 8.80195L3.78223 9.97349V14.0268L6.71173 15.1988L6.26217 18.32L9.77245 20.3467L12.2506 18.3968L14.7288 20.3467L18.2391 18.32L17.7895 15.1983L20.7177 14.0268V9.97349L17.7905 8.80246L18.2402 5.68013L14.7299 3.65347L12.2506 5.60419L9.77137 3.65347L6.26109 5.68013Z" fill="#212121"/>
</svg>
