<svg width="24" height="24" viewBox="0 0 24 24" fill="none" xmlns="http://www.w3.org/2000/svg">
<path fill-rule="evenodd" clip-rule="evenodd" d="M5.3042 5.30396C4.08123 6.52693 3.50024 8.5731 3.50024 12C3.50024 15.4269 4.08123 17.4731 5.3042 18.696C6.52717 19.919 8.57334 20.5 12.0002 20.5C15.4271 20.5 17.4733 19.919 18.6963 18.696C19.9193 17.4731 20.5002 15.4269 20.5002 12C20.5002 8.5731 19.9193 6.52693 18.6963 5.30396C17.4733 4.08098 15.4271 3.5 12.0002 3.5C8.57334 3.5 6.52717 4.08098 5.3042 5.30396ZM4.24354 4.24329C5.91132 2.57552 8.49015 2 12.0002 2C15.5103 2 18.0892 2.57552 19.7569 4.24329C21.4247 5.91107 22.0002 8.4899 22.0002 12C22.0002 15.5101 21.4247 18.0889 19.7569 19.7567C18.0892 21.4245 15.5103 22 12.0002 22C8.49015 22 5.91132 21.4245 4.24354 19.7567C2.57576 18.0889 2.00024 15.5101 2.00024 12C2.00024 8.4899 2.57576 5.91107 4.24354 4.24329Z" fill="#212121"/>
<path fill-rule="evenodd" clip-rule="evenodd" d="M14.2046 13.8994C14.2046 13.3471 14.6523 12.8994 15.2046 12.8994H15.2136C15.7659 12.8994 16.2136 13.3471 16.2136 13.8994C16.2136 14.4517 15.7659 14.8994 15.2136 14.8994H15.2046C14.6523 14.8994 14.2046 14.4517 14.2046 13.8994Z" fill="#212121"/>
<path fill-rule="evenodd" clip-rule="evenodd" d="M8.19556 13.8994C8.19556 13.3471 8.64327 12.8994 9.19556 12.8994H9.20456C9.75684 12.8994 10.2046 13.3471 10.2046 13.8994C10.2046 14.4517 9.75684 14.8994 9.20456 14.8994H9.19556C8.64327 14.8994 8.19556 14.4517 8.19556 13.8994Z" fill="#212121"/>
<path fill-rule="evenodd" clip-rule="evenodd" d="M11.2046 9.89941C11.2046 9.34713 11.6523 8.89941 12.2046 8.89941H12.2136C12.7659 8.89941 13.2136 9.34713 13.2136 9.89941C13.2136 10.4517 12.7659 10.8994 12.2136 10.8994H12.2046C11.6523 10.8994 11.2046 10.4517 11.2046 9.89941Z" fill="#212121"/>
</svg>
