<svg width="24" height="24" viewBox="0 0 24 24" fill="none" xmlns="http://www.w3.org/2000/svg">
<path d="M18.6558 8.63379C19.9091 10.9049 19.9091 13.6765 18.6558 15.9396" stroke="#212121" stroke-width="1.5" stroke-linecap="round" stroke-linejoin="round"/>
<path fill-rule="evenodd" clip-rule="evenodd" d="M4.66711 12.2869C4.66355 13.5055 4.66711 14.9349 5.67333 15.7891C6.67955 16.6442 7.47866 16.2913 8.78088 16.7197C10.084 17.1491 11.9089 19.7962 13.9249 18.6006C15.0147 17.8264 15.5284 16.3651 15.5284 12.2869C15.5284 8.20863 15.0378 6.7633 13.9249 5.97308C11.9089 4.77841 10.084 7.42552 8.78088 7.85397C7.47866 8.2833 6.67955 7.93041 5.67333 8.78463C4.66711 9.63885 4.66355 11.0682 4.66711 12.2869Z" stroke="#212121" stroke-width="1.5" stroke-linecap="round" stroke-linejoin="round"/>
</svg>
