<svg width="25" height="25" viewBox="0 0 25 25" fill="none" xmlns="http://www.w3.org/2000/svg">
<path fill-rule="evenodd" clip-rule="evenodd" d="M7.71924 7.12375C7.72523 4.62163 9.75766 2.59775 12.2607 2.60255C14.7624 2.60854 16.7865 4.64142 16.7812 7.14307V10.1745C16.7812 10.5888 16.4455 10.9245 16.0312 10.9245C15.617 10.9245 15.2812 10.5888 15.2812 10.1745V7.14255L15.2812 7.14075C15.2852 5.46711 13.9315 4.10675 12.2578 4.10254C10.5833 4.09953 9.2237 5.45313 9.21924 7.12649V10.1745C9.21924 10.5888 8.88345 10.9245 8.46924 10.9245C8.05502 10.9245 7.71924 10.5888 7.71924 10.1745L7.71924 7.12375Z" fill="#212121"/>
<path opacity="0.4" fill-rule="evenodd" clip-rule="evenodd" d="M4.89578 9.00207C6.44852 7.78677 8.85701 7.35156 12.25 7.35156C15.6429 7.35156 18.0514 7.78677 19.6041 9.00207C21.1949 10.2471 21.769 12.2077 21.769 14.9106C21.769 17.6129 21.1949 19.5733 19.6041 20.8182C18.0514 22.0333 15.6429 22.4686 12.25 22.4686C8.857 22.4686 6.44853 22.0333 4.89581 20.8182C3.30504 19.5733 2.73096 17.6129 2.73096 14.9106C2.73096 12.2077 3.30502 10.2471 4.89578 9.00207Z" fill="#212121"/>
</svg>
