<svg width="25" height="25" viewBox="0 0 25 25" fill="none" xmlns="http://www.w3.org/2000/svg">
<path fill-rule="evenodd" clip-rule="evenodd" d="M16.78 7.14547V7.76547C16.32 7.66547 15.82 7.57547 15.28 7.51547V7.14547C15.28 5.47547 13.93 4.10547 12.26 4.10547H12.25C10.58 4.10547 9.21997 5.46547 9.21997 7.12547V7.51547C8.67997 7.57547 8.17997 7.66547 7.71997 7.76547V7.12547C7.71997 4.63547 9.75997 2.60547 12.25 2.60547H12.26C14.76 2.61547 16.79 4.64547 16.78 7.14547Z" fill="#212121"/>
<path fill-rule="evenodd" clip-rule="evenodd" d="M21.77 14.9155C21.77 20.4955 19.28 22.4655 12.25 22.4655C5.21998 22.4655 2.72998 20.4955 2.72998 14.9155C2.72998 10.7655 4.10997 8.60547 7.71997 7.76547L7.71998 10.1755C7.71998 10.5955 8.04998 10.9255 8.46998 10.9255C8.87998 10.9255 9.21998 10.5955 9.21998 10.1755L9.21997 7.51547C10.12 7.40547 11.13 7.35547 12.25 7.35547C13.37 7.35547 14.38 7.40547 15.28 7.51547L15.28 10.1755C15.28 10.5955 15.62 10.9255 16.03 10.9255C16.44 10.9255 16.78 10.5955 16.78 10.1755L16.78 7.76547C20.39 8.60547 21.77 10.7655 21.77 14.9155Z" fill="#212121"/>
</svg>
