<svg width="25" height="24" viewBox="0 0 25 24" fill="none" xmlns="http://www.w3.org/2000/svg">
<path fill-rule="evenodd" clip-rule="evenodd" d="M17.1716 10.1269C16.7576 10.1269 16.4176 9.79085 16.4176 9.37685C16.4176 8.96285 16.7486 8.62685 17.1626 8.62685H17.1716C17.5856 8.62685 17.9216 8.96285 17.9216 9.37685C17.9216 9.79085 17.5856 10.1269 17.1716 10.1269ZM12.2506 16.7709C10.1026 16.7709 8.35558 15.0229 8.35558 12.8749C8.35558 10.7279 10.1026 8.98085 12.2506 8.98085C14.3986 8.98085 16.1456 10.7279 16.1456 12.8749C16.1456 15.0229 14.3986 16.7709 12.2506 16.7709ZM17.8696 6.00285C17.7006 5.94985 17.4546 5.83885 17.2476 5.61185C17.1616 5.51785 17.0456 5.28285 16.9336 5.05685C16.6316 4.44585 16.2186 3.60985 15.3876 3.25985C14.3196 2.81185 10.2196 2.80985 9.11658 3.25785C8.29658 3.59485 7.87858 4.43485 7.57358 5.04785C7.45858 5.27785 7.34058 5.51585 7.25258 5.61185C7.04658 5.83985 6.80058 5.94985 6.64758 5.99885C3.35058 6.91085 2.74658 9.05385 2.74658 12.9439C2.74658 18.5679 4.11858 21.0769 12.2506 21.0769C20.3816 21.0769 21.7536 18.5679 21.7536 12.9439C21.7536 9.05385 21.1506 6.91085 17.8696 6.00285Z" fill="#212121"/>
<path fill-rule="evenodd" clip-rule="evenodd" d="M12.2507 10.4803C10.9297 10.4803 9.85571 11.5543 9.85571 12.8753C9.85571 14.1963 10.9297 15.2703 12.2507 15.2703C13.5717 15.2703 14.6457 14.1963 14.6457 12.8753C14.6457 11.5543 13.5717 10.4803 12.2507 10.4803Z" fill="#212121"/>
</svg>
