<svg width="24" height="24" viewBox="0 0 24 24" fill="none" xmlns="http://www.w3.org/2000/svg">
<path fill-rule="evenodd" clip-rule="evenodd" d="M12.0369 7.71289C12.4511 7.71289 12.7869 8.04868 12.7869 8.46289V15.6113C12.7869 16.0255 12.4511 16.3613 12.0369 16.3613C11.6227 16.3613 11.2869 16.0255 11.2869 15.6113V8.46289C11.2869 8.04868 11.6227 7.71289 12.0369 7.71289Z" fill="#212121"/>
<path fill-rule="evenodd" clip-rule="evenodd" d="M7.70898 12.0371C7.70898 11.6229 8.04477 11.2871 8.45898 11.2871H15.6148C16.029 11.2871 16.3648 11.6229 16.3648 12.0371C16.3648 12.4513 16.029 12.7871 15.6148 12.7871H8.45898C8.04477 12.7871 7.70898 12.4513 7.70898 12.0371Z" fill="#212121"/>
<path fill-rule="evenodd" clip-rule="evenodd" d="M4.96051 4.96027C3.66147 6.25931 3.05005 8.42719 3.05005 12.0366C3.05005 15.6461 3.66147 17.814 4.96051 19.113C6.25956 20.4121 8.42744 21.0235 12.0369 21.0235C15.6463 21.0235 17.8142 20.4121 19.1133 19.113C20.4123 17.814 21.0237 15.6461 21.0237 12.0366C21.0237 8.42719 20.4123 6.25931 19.1133 4.96027C17.8142 3.66122 15.6463 3.0498 12.0369 3.0498C8.42744 3.0498 6.25956 3.66122 4.96051 4.96027ZM3.89985 3.89961C5.6437 2.15576 8.34424 1.5498 12.0369 1.5498C15.7295 1.5498 18.4301 2.15576 20.1739 3.89961C21.9178 5.64346 22.5237 8.344 22.5237 12.0366C22.5237 15.7293 21.9178 18.4298 20.1739 20.1737C18.4301 21.9175 15.7295 22.5235 12.0369 22.5235C8.34424 22.5235 5.6437 21.9175 3.89985 20.1737C2.156 18.4298 1.55005 15.7293 1.55005 12.0366C1.55005 8.344 2.156 5.64346 3.89985 3.89961Z" fill="#212121"/>
</svg>
