<svg width="24" height="24" viewBox="0 0 24 24" fill="none" xmlns="http://www.w3.org/2000/svg">
<path fill-rule="evenodd" clip-rule="evenodd" d="M8.83686 10.8984C8.22808 10.8984 7.73486 11.3917 7.73486 12.0004C7.73486 12.6092 8.22808 13.1024 8.83686 13.1024C9.44565 13.1024 9.93886 12.6092 9.93886 12.0004C9.93886 11.3918 9.44675 10.8992 8.83945 10.8984H8.83686ZM6.23486 12.0004C6.23486 10.5632 7.39965 9.39844 8.83686 9.39844H8.83986C10.2764 9.39984 11.4389 10.5651 11.4389 12.0004C11.4389 13.4377 10.2741 14.6024 8.83686 14.6024C7.39965 14.6024 6.23486 13.4377 6.23486 12.0004Z" fill="#212121"/>
<path fill-rule="evenodd" clip-rule="evenodd" d="M9.94189 12C9.94189 11.5858 10.2777 11.25 10.6919 11.25H17.0099C17.4241 11.25 17.7599 11.5858 17.7599 12V13.852C17.7599 14.2662 17.4241 14.602 17.0099 14.602C16.5957 14.602 16.2599 14.2662 16.2599 13.852V12.75H10.6919C10.2777 12.75 9.94189 12.4142 9.94189 12Z" fill="#212121"/>
<path fill-rule="evenodd" clip-rule="evenodd" d="M14.1821 11.25C14.5963 11.25 14.9321 11.5858 14.9321 12V13.852C14.9321 14.2662 14.5963 14.602 14.1821 14.602C13.7679 14.602 13.4321 14.2662 13.4321 13.852V12C13.4321 11.5858 13.7679 11.25 14.1821 11.25Z" fill="#212121"/>
<path fill-rule="evenodd" clip-rule="evenodd" d="M5.30396 5.30396C4.08098 6.52693 3.5 8.5731 3.5 12C3.5 15.4269 4.08098 17.4731 5.30396 18.696C6.52693 19.919 8.5731 20.5 12 20.5C15.4269 20.5 17.4731 19.919 18.696 18.696C19.919 17.4731 20.5 15.4269 20.5 12C20.5 8.5731 19.919 6.52693 18.696 5.30396C17.4731 4.08098 15.4269 3.5 12 3.5C8.5731 3.5 6.52693 4.08098 5.30396 5.30396ZM4.24329 4.24329C5.91107 2.57552 8.4899 2 12 2C15.5101 2 18.0889 2.57552 19.7567 4.24329C21.4245 5.91107 22 8.4899 22 12C22 15.5101 21.4245 18.0889 19.7567 19.7567C18.0889 21.4245 15.5101 22 12 22C8.4899 22 5.91107 21.4245 4.24329 19.7567C2.57552 18.0889 2 15.5101 2 12C2 8.4899 2.57552 5.91107 4.24329 4.24329Z" fill="#212121"/>
</svg>
