<svg width="25" height="24" viewBox="0 0 25 24" fill="none" xmlns="http://www.w3.org/2000/svg">
<path opacity="0.4" fill-rule="evenodd" clip-rule="evenodd" d="M11.3565 12.8931C11.3694 12.9515 11.3842 13.0172 11.4006 13.0896C11.4738 13.4125 11.581 13.8685 11.7172 14.4024C11.989 15.4678 12.3788 16.8541 12.8475 18.1148C13.0818 18.7451 13.339 19.3525 13.6149 19.8765C13.8872 20.3938 14.194 20.8614 14.5381 21.1858C14.8813 21.5094 15.3414 21.7594 15.8734 21.6328C16.3742 21.5136 16.7676 21.0961 17.0902 20.5372C18.1385 18.7211 19.5304 14.7626 20.5433 11.0835C21.0521 9.2356 21.4716 7.43552 21.7073 5.98399C21.825 5.25935 21.8989 4.60952 21.9128 4.07832C21.9243 3.64015 21.9223 3.14232 21.7108 2.74508C21.664 2.65735 21.5922 2.58553 21.5045 2.53881C21.1072 2.32725 20.6094 2.32528 20.1712 2.33675C19.64 2.35066 18.9902 2.42454 18.2656 2.54222C16.814 2.77794 15.014 3.19744 13.1661 3.70622C9.48696 4.71921 5.52852 6.11101 3.71239 7.15933C3.15349 7.48197 2.73593 7.87533 2.61678 8.37613C2.49019 8.90817 2.74015 9.36823 3.06377 9.71147C3.38819 10.0556 3.85573 10.3623 4.37304 10.6347C4.89706 10.9106 5.50445 11.1677 6.13473 11.4021C7.39547 11.8708 8.78173 12.2606 9.84714 12.5323C10.3811 12.6685 10.8371 12.7757 11.1599 12.849C11.2323 12.8654 11.2981 12.8801 11.3565 12.8931Z" fill="#212121"/>
<path fill-rule="evenodd" clip-rule="evenodd" d="M19.0624 5.60248C19.3553 5.89538 19.3553 6.37025 19.0624 6.66314L13.5306 12.1949C13.2377 12.4878 12.7628 12.4878 12.4699 12.1949C12.177 11.902 12.177 11.4272 12.4699 11.1343L18.0017 5.60248C18.2946 5.30959 18.7695 5.30959 19.0624 5.60248Z" fill="#212121"/>
</svg>
