<svg width="25" height="25" viewBox="0 0 25 25" fill="none" xmlns="http://www.w3.org/2000/svg">
<path fill-rule="evenodd" clip-rule="evenodd" d="M16.341 10.6922L11.591 15.4382C11.45 15.5792 11.26 15.6582 11.061 15.6582C10.862 15.6582 10.671 15.5792 10.53 15.4382L8.159 13.0652C7.866 12.7722 7.866 12.2972 8.159 12.0042C8.453 11.7112 8.928 11.7132 9.22 12.0042L11.061 13.8472L15.28 9.63116C15.573 9.33816 16.048 9.33916 16.341 9.63116C16.634 9.92416 16.634 10.3992 16.341 10.6922ZM12.25 2.78516C5.052 2.78516 2.5 5.33716 2.5 12.5352C2.5 19.7332 5.052 22.2852 12.25 22.2852C19.448 22.2852 22 19.7332 22 12.5352C22 5.33716 19.448 2.78516 12.25 2.78516Z" fill="#212121"/>
</svg>
