<svg width="25" height="25" viewBox="0 0 25 25" fill="none" xmlns="http://www.w3.org/2000/svg">
<path opacity="0.4" fill-rule="evenodd" clip-rule="evenodd" d="M12.2499 2.29785C4.69094 2.29785 2.01294 4.97585 2.01294 12.5349C2.01294 20.0939 4.69094 22.7719 12.2499 22.7719C19.8079 22.7719 22.4869 20.0939 22.4869 12.5349C22.4869 4.97585 19.8079 2.29785 12.2499 2.29785Z" fill="#212121"/>
<path d="M16.729 18.2027C17.143 18.2027 17.479 17.8667 17.479 17.4527V14.2957C17.479 13.8817 17.143 13.5457 16.729 13.5457C16.315 13.5457 15.979 13.8817 15.979 14.2957V17.4527C15.979 17.8667 16.315 18.2027 16.729 18.2027Z" fill="#212121"/>
<path d="M12.25 18.2027C12.664 18.2027 13 17.8667 13 17.4527V7.55469C13 7.13969 12.664 6.80469 12.25 6.80469C11.836 6.80469 11.5 7.13969 11.5 7.55469V17.4527C11.5 17.8667 11.836 18.2027 12.25 18.2027Z" fill="#212121"/>
<path d="M7.69604 18.2027C8.11004 18.2027 8.44604 17.8667 8.44604 17.4527V10.7587C8.44604 10.3447 8.11004 10.0087 7.69604 10.0087C7.28204 10.0087 6.94604 10.3447 6.94604 10.7587V17.4527C6.94604 17.8667 7.28204 18.2027 7.69604 18.2027Z" fill="#212121"/>
</svg>
