<svg width="25" height="24" viewBox="0 0 25 24" fill="none" xmlns="http://www.w3.org/2000/svg">
<path fill-rule="evenodd" clip-rule="evenodd" d="M11.4386 6.91169C11.9746 7.44669 12.1596 9.25869 12.2096 11.0037L12.2156 13.0037C12.1626 15.2407 11.9026 16.6107 11.4386 17.0747C10.8746 17.6377 9.93458 17.3487 9.17858 17.0347C7.60958 16.3837 3.07358 13.6377 3.07358 11.9927C3.07358 10.2977 7.81158 7.56069 9.25058 6.96369C10.0326 6.63869 10.9036 6.37869 11.4386 6.91169Z" fill="#212121"/>
<path opacity="0.4" fill-rule="evenodd" clip-rule="evenodd" d="M12.2095 11.0039L20.4265 11.0039C20.9795 11.0039 21.4265 11.4509 21.4265 12.0039C21.4265 12.5569 20.9795 13.0039 20.4265 13.0039L12.2155 13.0039L12.2095 11.0039Z" fill="#212121"/>
</svg>
