<svg width="25" height="25" viewBox="0 0 25 25" fill="none" xmlns="http://www.w3.org/2000/svg">
<path fill-rule="evenodd" clip-rule="evenodd" d="M12.2551 17.1802C11.8411 17.1802 11.5011 16.8442 11.5011 16.4302C11.5011 16.0162 11.8321 15.6802 12.2461 15.6802H12.2551C12.6691 15.6802 13.0051 16.0162 13.0051 16.4302C13.0051 16.8442 12.6691 17.1802 12.2551 17.1802ZM11.5001 9.03516C11.5001 8.62116 11.8361 8.28516 12.2501 8.28516C12.6641 8.28516 13.0001 8.62116 13.0001 9.03516V12.9302C13.0001 13.3442 12.6641 13.6802 12.2501 13.6802C11.8361 13.6802 11.5001 13.3442 11.5001 12.9302V9.03516ZM19.3101 10.6932L19.0981 10.3192C16.1121 5.00916 14.2561 3.03516 12.2501 3.03516C10.2441 3.03516 8.38808 5.00916 5.40208 10.3192L5.19108 10.6932C4.11808 12.5752 1.88808 16.4902 2.30208 18.8262C2.79008 21.5892 5.63508 22.0352 12.2501 22.0352C18.8661 22.0352 21.7111 21.5892 22.1981 18.8262C22.6121 16.4902 20.3821 12.5752 19.3101 10.6932Z" fill="#212121"/>
</svg>
