<svg width="25" height="24" viewBox="0 0 25 24" fill="none" xmlns="http://www.w3.org/2000/svg">
<path opacity="0.4" fill-rule="evenodd" clip-rule="evenodd" d="M12.2498 3.5C12.802 3.5 13.2498 3.94772 13.2498 4.5V19.5C13.2498 20.0523 12.802 20.5 12.2498 20.5C11.6975 20.5 11.2498 20.0523 11.2498 19.5V4.5C11.2498 3.94772 11.6975 3.5 12.2498 3.5Z" fill="#212121"/>
<path d="M19.1548 13.9249C19.4168 13.4387 19.2352 12.8322 18.749 12.5701C18.4197 12.3926 18.0352 12.4188 17.7398 12.6053C17.5992 12.694 17.4788 12.8191 17.3943 12.9759L17.3932 12.9778L17.3875 12.9883L17.3626 13.0336C17.34 13.0743 17.3058 13.1354 17.2608 13.2141C17.1709 13.3715 17.0382 13.5985 16.8701 13.8718C16.5327 14.4202 16.0584 15.146 15.5054 15.8667C14.9479 16.5933 14.335 17.2824 13.7251 17.7807C13.0915 18.2984 12.5949 18.5004 12.2515 18.5004C11.9075 18.5004 11.4103 18.2982 10.7765 17.7806C10.1662 17.2822 9.55304 16.5931 8.99528 15.8665C8.44208 15.1458 7.96756 14.4201 7.63009 13.8716C7.46195 13.5984 7.32921 13.3714 7.2392 13.214C7.19397 13.1349 7.14899 13.0556 7.10557 12.9755C6.84337 12.4896 6.23697 12.3081 5.75095 12.5702C5.26482 12.8323 5.08322 13.4388 5.34533 13.925C5.39644 14.0197 5.44957 14.1133 5.503 14.2067C5.60217 14.3802 5.74587 14.6258 5.92673 14.9198C6.28726 15.5057 6.80099 16.2925 7.40879 17.0843C8.01203 17.8702 8.73258 18.6936 9.51137 19.3296C10.2665 19.9463 11.2136 20.5004 12.2515 20.5004C13.2892 20.5004 14.2359 19.9461 14.9906 19.3294C15.769 18.6934 16.4892 17.87 17.0922 17.0841C17.6997 16.2923 18.2132 15.5055 18.5736 14.9196C18.7544 14.6257 18.8981 14.3801 18.9972 14.2066C19.0468 14.1198 19.0853 14.051 19.1119 14.0031L19.1427 13.9472L19.1511 13.9317L19.1535 13.9272L19.1548 13.9249Z" fill="#212121"/>
</svg>
