<svg width="25" height="25" viewBox="0 0 25 25" fill="none" xmlns="http://www.w3.org/2000/svg">
<path fill-rule="evenodd" clip-rule="evenodd" d="M19.0279 13.3242H5.47192C5.05792 13.3242 4.72192 13.6602 4.72192 14.0742C4.72192 14.4882 5.05792 14.8242 5.47192 14.8242H6.41692C6.75592 17.4692 8.85392 19.5682 11.4999 19.9062V21.5052C11.4999 21.9192 11.8359 22.2552 12.2499 22.2552C12.6639 22.2552 12.9999 21.9192 12.9999 21.5052V19.9072C15.6459 19.5682 17.7439 17.4692 18.0829 14.8242H19.0279C19.4419 14.8242 19.7779 14.4882 19.7779 14.0742C19.7779 13.6602 19.4419 13.3242 19.0279 13.3242Z" fill="#212121"/>
<path opacity="0.4" fill-rule="evenodd" clip-rule="evenodd" d="M12.2535 2.95215C9.00353 2.95215 6.36353 5.59215 6.36353 8.84215V10.9821C6.36353 11.2621 6.58353 11.4821 6.86353 11.4821H17.6335C17.9135 11.4821 18.1335 11.2621 18.1335 10.9821V8.84215C18.1335 5.59215 15.4935 2.95215 12.2535 2.95215Z" fill="#212121"/>
<path d="M10.7532 9.64207H13.7432C14.1532 9.64207 14.4932 9.30207 14.4932 8.89207C14.4932 8.48207 14.1532 8.14207 13.7432 8.14207H10.7532C10.3432 8.14207 10.0032 8.48207 10.0032 8.89207C10.0032 9.30207 10.3432 9.64207 10.7532 9.64207Z" fill="#212121"/>
<path d="M12.7532 5.37207H11.7432C11.3332 5.37207 10.9932 5.71207 10.9932 6.12207C10.9932 6.53207 11.3332 6.87207 11.7432 6.87207H12.7532C13.1632 6.87207 13.5032 6.53207 13.5032 6.12207C13.5032 5.71207 13.1632 5.37207 12.7532 5.37207Z" fill="#212121"/>
</svg>
