<svg width="24" height="24" viewBox="0 0 24 24" fill="none" xmlns="http://www.w3.org/2000/svg">
<path d="M8.24048 15.8746C8.24048 16.2886 8.57648 16.6246 8.99048 16.6246C9.40448 16.6246 9.74048 16.2886 9.74048 15.8746V14.8364H10.8147C11.2287 14.8364 11.5647 14.5004 11.5647 14.0864C11.5647 13.6724 11.2287 13.3364 10.8147 13.3364H9.74048V12.2996C9.74048 11.8856 9.40448 11.5496 8.99048 11.5496C8.57648 11.5496 8.24048 11.8856 8.24048 12.2996V13.3364H7.16675C6.75275 13.3364 6.41675 13.6724 6.41675 14.0864C6.41675 14.5004 6.75275 14.8364 7.16675 14.8364H8.24048V15.8746Z" fill="#212121"/>
<path d="M15.2126 13.1582H15.1106C14.6966 13.1582 14.3606 12.8222 14.3606 12.4082C14.3606 11.9942 14.6966 11.6582 15.1106 11.6582H15.2126C15.6266 11.6582 15.9626 11.9942 15.9626 12.4082C15.9626 12.8222 15.6266 13.1582 15.2126 13.1582Z" fill="#212121"/>
<path d="M16.8406 16.5703H16.9436C17.3576 16.5703 17.6936 16.2343 17.6936 15.8203C17.6936 15.4063 17.3576 15.0703 16.9436 15.0703H16.8406C16.4266 15.0703 16.0906 15.4063 16.0906 15.8203C16.0906 16.2343 16.4266 16.5703 16.8406 16.5703Z" fill="#212121"/>
<path fill-rule="evenodd" clip-rule="evenodd" d="M11.8338 5.96861C4.35662 5.99973 1.7019 8.14837 1.7019 14.1323C1.7019 20.1593 4.3959 22.2963 11.9999 22.2963C19.6029 22.2963 22.2979 20.1593 22.2979 14.1323C22.2979 8.47106 19.9209 6.24262 13.3338 5.99238V5.70112C13.3128 4.19012 12.0498 2.99112 10.5638 2.98312H9.54878C9.53063 2.97838 9.51088 2.97375 9.49008 2.96887C9.38363 2.94389 9.24961 2.91245 9.16178 2.82712C9.05878 2.72613 9.00078 2.59113 8.99978 2.44713C8.99678 2.03413 8.66178 1.70312 8.24978 1.70312H8.24378C7.82978 1.70613 7.49678 2.04512 7.49978 2.45912C7.50378 3.00513 7.72178 3.51613 8.11178 3.89913C8.50178 4.28013 8.99378 4.46712 9.55578 4.48312H10.5698C11.2638 4.46613 11.8248 5.03312 11.8338 5.71112V5.96861ZM3.2019 14.1323C3.2019 9.02526 5.2569 7.46826 11.9999 7.46826C18.7419 7.46826 20.7979 9.02526 20.7979 14.1323C20.7979 19.2393 18.7419 20.7963 11.9999 20.7963C5.2569 20.7963 3.2019 19.2393 3.2019 14.1323Z" fill="#212121"/>
</svg>
