<svg width="25" height="24" viewBox="0 0 25 24" fill="none" xmlns="http://www.w3.org/2000/svg">
<path fill-rule="evenodd" clip-rule="evenodd" d="M15.2374 6.95696C14.4614 6.63596 13.5954 6.37996 13.0634 6.91396C12.6194 7.35996 12.3664 9.08696 12.3014 10.999H4.07544C3.52244 10.999 3.07544 11.446 3.07544 11.999C3.07544 12.552 3.52244 12.999 4.07544 12.999H12.3024C12.3674 14.907 12.6204 16.628 13.0644 17.072C13.2984 17.306 13.5954 17.394 13.9184 17.394C14.3714 17.394 14.8734 17.22 15.3124 17.038C16.8834 16.388 21.4244 13.642 21.4244 11.992C21.4244 10.289 16.6774 7.55396 15.2374 6.95696Z" fill="#212121"/>
</svg>
