<svg width="25" height="24" viewBox="0 0 25 24" fill="none" xmlns="http://www.w3.org/2000/svg">
<path fill-rule="evenodd" clip-rule="evenodd" d="M18.8427 6.97168L19.2153 7.62257C20.7724 10.3426 20.773 13.6669 19.2148 16.3803L18.8413 17.0307L17.5405 16.2837L17.914 15.6333C19.2061 13.3832 19.2067 10.6269 17.9135 8.36779L17.5409 7.71689L18.8427 6.97168Z" fill="#212121"/>
<path fill-rule="evenodd" clip-rule="evenodd" d="M13.0955 3.7373H14.9009V20.2627H13.0955L8.96965 16.6863H4.11917L4.11855 15.937C4.11641 13.3124 4.11641 10.6878 4.11855 8.06316L4.11917 7.31378H8.96964L13.0955 3.7373ZM13.4009 5.45769L9.52927 8.81378H5.618C5.61659 10.938 5.61659 13.0622 5.618 15.1863H9.52926L13.4009 18.5423V5.45769Z" fill="#212121"/>
</svg>
