<svg width="25" height="25" viewBox="0 0 25 25" fill="none" xmlns="http://www.w3.org/2000/svg">
<path fill-rule="evenodd" clip-rule="evenodd" d="M15.351 10.4952L10.21 15.6362C10.064 15.7822 9.872 15.8552 9.68 15.8552C9.488 15.8552 9.296 15.7822 9.15 15.6362C8.857 15.3432 8.857 14.8682 9.15 14.5752L14.29 9.43416C14.583 9.14116 15.058 9.14116 15.351 9.43416C15.644 9.72716 15.644 10.2022 15.351 10.4952ZM14.754 15.7852C14.34 15.7852 13.999 15.4492 13.999 15.0352C13.999 14.6212 14.331 14.2852 14.746 14.2852H14.754C15.168 14.2852 15.504 14.6212 15.504 15.0352C15.504 15.4492 15.168 15.7852 14.754 15.7852ZM9.746 9.28516H9.754C10.168 9.28516 10.504 9.62116 10.504 10.0352C10.504 10.4492 10.168 10.7852 9.754 10.7852C9.34 10.7852 8.999 10.4492 8.999 10.0352C8.999 9.62116 9.331 9.28516 9.746 9.28516ZM12.25 2.78516C5.052 2.78516 2.5 5.33716 2.5 12.5352C2.5 19.7332 5.052 22.2852 12.25 22.2852C19.449 22.2852 22 19.7332 22 12.5352C22 5.33716 19.449 2.78516 12.25 2.78516Z" fill="#212121"/>
</svg>
