<svg width="25" height="24" viewBox="0 0 25 24" fill="none" xmlns="http://www.w3.org/2000/svg">
<path fill-rule="evenodd" clip-rule="evenodd" d="M9.74021 4.86224C9.74021 4.01324 10.3282 3.32324 11.0502 3.32324H13.4502C14.1722 3.32324 14.7602 4.01324 14.7602 4.86224V4.88624C13.9942 4.80924 13.1602 4.77124 12.2502 4.77124C11.3392 4.77124 10.5052 4.80924 9.74021 4.88624V4.86224ZM2.75621 10.7812C5.36521 12.3892 8.74521 13.2762 12.2702 13.2792C15.7882 13.2762 19.1592 12.3922 21.7662 10.7912C21.2382 7.52824 19.5732 5.79224 16.2602 5.11724V4.86224C16.2602 3.18624 14.9992 1.82324 13.4502 1.82324H11.0502C9.50121 1.82324 8.24021 3.18624 8.24021 4.86224V5.11724C4.93221 5.79124 3.26821 7.52224 2.73621 10.7732C2.74321 10.7772 2.75021 10.7772 2.75621 10.7812Z" fill="#212121"/>
<path fill-rule="evenodd" clip-rule="evenodd" d="M13 14.8171V16.9801C13 17.3941 12.664 17.7301 12.25 17.7301C11.836 17.7301 11.5 17.3941 11.5 16.9801V14.8161C8.23904 14.7071 5.12104 13.8931 2.56404 12.4841C2.54904 12.8031 2.54004 13.1311 2.54004 13.4731C2.54004 19.8991 5.08104 22.1761 12.25 22.1761C19.419 22.1761 21.96 19.8991 21.96 13.4731C21.96 13.1391 21.952 12.8181 21.938 12.5071C19.377 13.9081 16.259 14.7141 13 14.8171Z" fill="#212121"/>
</svg>
