<svg width="25" height="25" viewBox="0 0 25 25" fill="none" xmlns="http://www.w3.org/2000/svg">
<path fill-rule="evenodd" clip-rule="evenodd" d="M18.3951 10.065C18.0431 10.487 14.8841 14.188 12.2611 14.188C9.64107 14.188 6.45007 10.49 6.09407 10.068C5.82807 9.75097 5.86807 9.27797 6.18507 9.01097C6.50107 8.74297 6.97407 8.78497 7.24107 9.10097C8.41207 10.488 10.8091 12.688 12.2611 12.688C13.7121 12.688 16.0871 10.49 17.2431 9.10397C17.5081 8.78697 17.9811 8.74497 18.2991 9.00797C18.6171 9.27397 18.6601 9.74697 18.3951 10.065ZM12.2501 2.91797C4.84907 2.91797 2.22607 5.43397 2.22607 12.535C2.22607 19.635 4.84907 22.152 12.2501 22.152C19.6511 22.152 22.2741 19.635 22.2741 12.535C22.2741 5.43397 19.6511 2.91797 12.2501 2.91797Z" fill="#212121"/>
</svg>
