<svg width="25" height="24" viewBox="0 0 25 24" fill="none" xmlns="http://www.w3.org/2000/svg">
<path d="M12.2314 14.6231C15.2615 14.6153 17.8379 16.0066 18.7849 19.0014C16.8761 20.1651 14.6293 20.6133 12.2314 20.6074C9.83364 20.6133 7.58679 20.1651 5.67798 19.0014C6.62608 16.0033 9.19812 14.6153 12.2314 14.6231Z" stroke="#212121" stroke-width="1.5" stroke-linecap="square"/>
<path d="M17.6555 13.773C19.7799 13.7675 21.5862 14.7429 22.2501 16.8426C21.5254 17.2844 20.7312 17.5791 19.8884 17.7558" stroke="#212121" stroke-width="1.5" stroke-linecap="square"/>
<path d="M6.84473 13.773C4.72036 13.7675 2.91407 14.7429 2.25013 16.8426C2.97482 17.2844 3.769 17.5791 4.61185 17.7558" stroke="#212121" stroke-width="1.5" stroke-linecap="square"/>
<circle cx="12.2501" cy="7.49102" r="4.09844" stroke="#212121" stroke-width="1.5" stroke-linecap="square"/>
<path d="M16.733 6.05034C17.0226 5.95247 17.3329 5.89941 17.6556 5.89941C19.2461 5.89941 20.5355 7.18883 20.5355 8.7794C20.5355 10.37 19.2461 11.6594 17.6556 11.6594C16.8825 11.6594 16.1806 11.3548 15.6633 10.8591" stroke="#212121" stroke-width="1.5" stroke-linecap="square"/>
<path d="M7.50054 5.97445C7.28983 5.92537 7.07024 5.89941 6.84458 5.89941C5.25401 5.89941 3.9646 7.18883 3.9646 8.7794C3.9646 10.37 5.25401 11.6594 6.84458 11.6594C7.53781 11.6594 8.17383 11.4145 8.67082 11.0064" stroke="#212121" stroke-width="1.5" stroke-linecap="square"/>
</svg>
