<svg width="60" height="60" viewBox="0 0 60 60" fill="none" xmlns="http://www.w3.org/2000/svg">
<path fill-rule="evenodd" clip-rule="evenodd" d="M48.3696 48.3696C53.2426 43.4966 55.9863 36.8914 56 30C56 23.1044 53.2607 16.4912 48.3848 11.6152C43.5088 6.73928 36.8956 4 30 4C23.1044 4 16.4912 6.73928 11.6152 11.6152C6.73928 16.4912 4 23.1044 4 30V51.918C4 53.0006 4.43007 54.0389 5.19559 54.8044C5.96111 55.5699 6.99939 56 8.082 56H30C36.8914 55.9863 43.4966 53.2426 48.3696 48.3696ZM20.3734 31.5605C19.1529 31.5605 18.116 32.6984 18.5014 33.9372C20.043 38.9384 24.6955 42.5723 30.2014 42.5723C35.7073 42.5723 40.2863 38.9384 41.9105 33.9372C42.2868 32.6984 41.259 31.5605 39.956 31.5605H20.3734ZM26.4574 26.1005L26.4757 26.128C26.6684 26.385 26.9988 26.4859 27.2924 26.385C27.5953 26.284 27.7971 25.9996 27.7971 25.6876C27.7971 24.045 27.1823 22.4207 26.2738 21.2094C25.3745 20.0165 24.0807 19.0805 22.6583 19.0805C21.236 19.0805 19.9421 20.0165 19.0428 21.2094C18.1343 22.4207 17.5195 24.045 17.5195 25.6876C17.5195 25.9996 17.7214 26.284 18.0242 26.385C18.3178 26.4859 18.6482 26.385 18.8409 26.128L18.8593 26.1005C18.8649 26.0948 18.8627 26.0883 18.8602 26.0808C18.8546 26.0642 18.8474 26.0433 18.9235 26.0179C18.9117 25.9707 18.9758 25.9121 19.0523 25.8422C19.0948 25.8033 19.1411 25.761 19.1804 25.7151C19.3337 25.5373 19.5279 25.3268 19.7549 25.0807C19.8676 24.9585 19.9885 24.8274 20.1164 24.6873C20.924 24.0542 21.8508 23.4852 22.6583 23.4852C23.4658 23.4852 24.3927 24.0542 25.2002 24.6873C25.3281 24.8275 25.449 24.9585 25.5618 25.0807C25.7887 25.3268 25.9829 25.5373 26.1362 25.7151C26.1888 25.7764 26.235 25.8315 26.2761 25.8802C26.321 25.9337 26.3596 25.9796 26.3931 26.0179C26.4005 26.0278 26.4072 26.0369 26.4135 26.0455C26.4305 26.0687 26.4439 26.0871 26.4574 26.1005ZM41.1397 26.1005L41.1581 26.128C41.3508 26.385 41.6811 26.4859 41.9748 26.385C42.2776 26.284 42.4795 25.9996 42.4795 25.6876C42.4795 24.045 41.8647 22.4207 40.9562 21.2094C40.0569 20.0165 38.763 19.0805 37.3407 19.0805C35.9183 19.0805 34.6244 20.0165 33.7251 21.2094C32.8167 22.4207 32.2018 24.045 32.2018 25.6876C32.2018 25.9996 32.4037 26.284 32.7066 26.385C33.0002 26.4859 33.3305 26.385 33.5233 26.128L33.5416 26.1005C33.5473 26.0948 33.5451 26.0883 33.5425 26.0808C33.5369 26.0642 33.5298 26.0433 33.6058 26.0179C33.594 25.9707 33.6581 25.9121 33.7347 25.8422C33.7771 25.8033 33.8235 25.761 33.8628 25.7151C34.0161 25.5373 34.2103 25.3267 34.4373 25.0807C34.55 24.9584 34.6709 24.8274 34.7988 24.6873C35.6063 24.0542 36.5331 23.4852 37.3407 23.4852C38.1482 23.4852 39.075 24.0542 39.8826 24.6873C40.0105 24.8275 40.1314 24.9585 40.2441 25.0807C40.4711 25.3268 40.6653 25.5373 40.8186 25.7151C40.8711 25.7764 40.9174 25.8315 40.9584 25.8803C41.0033 25.9337 41.0419 25.9796 41.0755 26.0179C41.0829 26.0278 41.0896 26.037 41.0959 26.0455C41.1129 26.0687 41.1263 26.0871 41.1397 26.1005Z" fill="#246BFD"/>
</svg>
