<svg width="25" height="25" viewBox="0 0 25 25" fill="none" xmlns="http://www.w3.org/2000/svg">
<path fill-rule="evenodd" clip-rule="evenodd" d="M20.6281 10.6344L20.7111 11.3804L22.2021 11.2124L22.1181 10.4674C21.6611 6.39043 18.4941 3.22643 14.4161 2.77343L13.6701 2.69043L13.5051 4.18143L14.2501 4.26443C17.6271 4.63943 20.2491 7.25943 20.6281 10.6344Z" fill="#212121"/>
<path fill-rule="evenodd" clip-rule="evenodd" d="M17.0968 10.7047L17.2408 11.4407L18.7128 11.1547L18.5698 10.4187C18.1638 8.33674 16.5578 6.72974 14.4768 6.32574L13.7408 6.18274L13.4538 7.65474L14.1898 7.79774C15.6678 8.08474 16.8088 9.22574 17.0968 10.7047Z" fill="#212121"/>
<path fill-rule="evenodd" clip-rule="evenodd" d="M13.8517 16.234C13.3317 16.054 11.8367 15.45 10.4697 14.084C9.1867 12.801 8.6517 11.383 8.4947 10.889L10.1937 7.93803L6.4957 2.85803L6.1047 3.08803C4.5227 4.01603 3.3627 5.17603 2.4537 6.73903L2.3947 6.89903C1.8807 9.64303 3.4517 13.687 6.3007 16.963C9.3907 20.516 13.4027 22.518 17.3847 22.518C17.5647 22.518 17.7457 22.514 17.9247 22.506L18.0437 22.501L18.1467 22.442C19.7487 21.545 20.9137 20.381 21.8097 18.779L22.0247 18.394L16.7967 14.539L13.8517 16.234Z" fill="#212121"/>
</svg>
