<svg width="25" height="24" viewBox="0 0 25 24" fill="none" xmlns="http://www.w3.org/2000/svg">
<path opacity="0.4" fill-rule="evenodd" clip-rule="evenodd" d="M3.25049 11L21.2502 11L21.2503 13L3.25049 13L3.25049 11Z" fill="#212121"/>
<path fill-rule="evenodd" clip-rule="evenodd" d="M4.24962 13C7.92054 13 10.9097 9.78058 10.9097 6.33995L10.9097 5.33995L8.90967 5.33995L8.90967 6.33995C8.90967 8.71881 6.77365 11 4.24962 11L3.24962 11L3.24962 13L4.24962 13Z" fill="#212121"/>
<path fill-rule="evenodd" clip-rule="evenodd" d="M4.24962 11C7.92054 11 10.9097 14.2194 10.9097 17.66L10.9097 18.66L8.90967 18.66L8.90967 17.66C8.90967 15.2812 6.77365 13 4.24962 13L3.24962 13L3.24962 11L4.24962 11Z" fill="#212121"/>
</svg>
