<svg width="24" height="24" viewBox="0 0 24 24" fill="none" xmlns="http://www.w3.org/2000/svg">
<path fill-rule="evenodd" clip-rule="evenodd" d="M11.8792 2C12.2934 2 12.6292 2.33579 12.6292 2.75V14.791C12.6292 15.2052 12.2934 15.541 11.8792 15.541C11.4649 15.541 11.1292 15.2052 11.1292 14.791V2.75C11.1292 2.33579 11.4649 2 11.8792 2Z" fill="#212121"/>
<path fill-rule="evenodd" clip-rule="evenodd" d="M8.43389 11.3328C8.72739 11.0405 9.20226 11.0415 9.49455 11.335L11.8791 13.7294L14.2637 11.335C14.556 11.0415 15.0309 11.0405 15.3244 11.3328C15.6179 11.6251 15.6188 12.1 15.3266 12.3935L12.4106 15.3215C12.2698 15.4628 12.0786 15.5423 11.8791 15.5423C11.6797 15.5423 11.4885 15.4628 11.3477 15.3215L8.43172 12.3935C8.13943 12.1 8.1404 11.6251 8.43389 11.3328Z" fill="#212121"/>
<path fill-rule="evenodd" clip-rule="evenodd" d="M15.6234 7.18998C15.6614 6.77751 16.0266 6.47398 16.4391 6.51201C18.2864 6.68233 19.7854 7.12906 20.7549 8.43727C21.6845 9.69156 22.0002 11.5813 22.0002 14.2588C22.0002 17.8083 21.4434 19.9905 19.6199 21.1104C18.7508 21.6442 17.6745 21.8801 16.4424 21.9947C15.2152 22.1088 13.741 22.1088 12.0319 22.1088H11.9686C10.259 22.1088 8.78452 22.1088 7.55723 21.9947C6.3251 21.8801 5.24883 21.6442 4.37983 21.1104C2.55651 19.9905 2.00024 17.8081 2.00024 14.2588C2.00024 11.5814 2.3157 9.69163 3.24515 8.43731C4.2146 7.12903 5.71369 6.68232 7.5614 6.512C7.97387 6.47398 8.33906 6.77753 8.37708 7.19C8.4151 7.60246 8.11155 7.96765 7.69909 8.00567C5.96679 8.16535 5.02589 8.55365 4.45034 9.33036C3.83479 10.1611 3.50024 11.6063 3.50024 14.2588C3.50024 17.8096 4.09847 19.1772 5.16491 19.8323C5.74079 20.186 6.5432 20.3939 7.69617 20.5011C8.84641 20.6081 10.2528 20.6088 12.0002 20.6088C13.7472 20.6088 15.1533 20.6081 16.3035 20.5011C17.4563 20.3939 18.2588 20.186 18.8349 19.8322C19.9016 19.1771 20.5002 17.8094 20.5002 14.2588C20.5002 11.6063 20.1655 10.1611 19.5498 9.33041C18.9741 8.55362 18.0331 8.16535 16.3014 8.00567C15.8889 7.96764 15.5854 7.60244 15.6234 7.18998Z" fill="#212121"/>
</svg>
