<svg width="25" height="24" viewBox="0 0 25 24" fill="none" xmlns="http://www.w3.org/2000/svg">
<path fill-rule="evenodd" clip-rule="evenodd" d="M11.2485 3.5C7.22315 3.5 3.95996 6.76319 3.95996 10.7885C3.95996 14.8139 7.22315 18.0771 11.2485 18.0771C15.2738 18.0771 18.537 14.8139 18.537 10.7885C18.537 6.76319 15.2738 3.5 11.2485 3.5ZM2.45996 10.7885C2.45996 5.93476 6.39472 2 11.2485 2C16.1023 2 20.037 5.93476 20.037 10.7885C20.037 15.6423 16.1023 19.5771 11.2485 19.5771C6.39472 19.5771 2.45996 15.6423 2.45996 10.7885Z" fill="#212121"/>
<path fill-rule="evenodd" clip-rule="evenodd" d="M16.7358 15.6475L22.3513 21.2484L21.292 22.3104L15.6765 16.7095L16.7358 15.6475Z" fill="#212121"/>
</svg>
