<svg width="25" height="24" viewBox="0 0 25 24" fill="none" xmlns="http://www.w3.org/2000/svg">
<path fill-rule="evenodd" clip-rule="evenodd" d="M19.3104 7.99011C19.1104 7.62711 18.6534 7.49611 18.2914 7.69611C17.9284 7.89511 17.7964 8.35211 17.9974 8.71511C19.1184 10.7481 19.1184 13.2691 17.9974 15.2951C17.7964 15.6571 17.9284 16.1141 18.2904 16.3141C18.4054 16.3781 18.5304 16.4081 18.6534 16.4081C18.9164 16.4081 19.1734 16.2681 19.3104 16.0211C20.6784 13.5491 20.6784 10.4701 19.3104 7.99011Z" fill="#212121"/>
<path opacity="0.4" fill-rule="evenodd" clip-rule="evenodd" d="M14.1769 5.26141C12.5029 4.26641 10.9649 5.44541 9.84288 6.30541C9.38388 6.65741 8.94988 6.98841 8.62088 7.09641C8.17488 7.24341 7.78788 7.29041 7.41488 7.33441C6.76088 7.41241 6.08588 7.49341 5.34588 8.12141C4.15788 9.13041 4.16088 10.7234 4.16388 12.0044C4.16088 13.2844 4.15788 14.8774 5.34688 15.8884C6.08788 16.5174 6.76388 16.5974 7.41788 16.6754C7.79088 16.7204 8.17688 16.7664 8.62188 16.9114C8.94888 17.0204 9.38188 17.3524 9.83988 17.7024C10.6549 18.3274 11.6869 19.1184 12.8449 19.1184C13.2839 19.1184 13.7409 19.0054 14.2109 18.7264C15.5509 17.7764 16.0249 16.0174 16.0249 12.0044C16.0249 7.94241 15.5679 6.24541 14.1769 5.26141Z" fill="#212121"/>
</svg>
