<svg width="25" height="24" viewBox="0 0 25 24" fill="none" xmlns="http://www.w3.org/2000/svg">
<path fill-rule="evenodd" clip-rule="evenodd" d="M2.25 12C2.25 6.47784 6.72673 2 12.25 2C17.7722 2 22.25 6.47779 22.25 12C22.25 17.5222 17.7722 22 12.25 22C6.72673 22 2.25 17.5222 2.25 12ZM12.25 3.5C7.55527 3.5 3.75 7.30616 3.75 12C3.75 16.6938 7.55527 20.5 12.25 20.5C16.9438 20.5 20.75 16.6938 20.75 12C20.75 7.30621 16.9438 3.5 12.25 3.5Z" fill="#212121"/>
<path fill-rule="evenodd" clip-rule="evenodd" d="M8.78121 9.49707L12.2499 12.9808L15.7186 9.49707L16.7816 10.5554L12.2499 15.1067L7.71826 10.5554L8.78121 9.49707Z" fill="#212121"/>
</svg>
