<svg width="24" height="24" viewBox="0 0 24 24" fill="none" xmlns="http://www.w3.org/2000/svg">
<path fill-rule="evenodd" clip-rule="evenodd" d="M8.39746 12.4978C8.39746 10.3467 10.1417 8.60254 12.2927 8.60254C14.4438 8.60254 16.188 10.3467 16.188 12.4978C16.188 14.6489 14.4438 16.3931 12.2927 16.3931C10.1417 16.3931 8.39746 14.6489 8.39746 12.4978ZM12.2927 10.1025C10.9701 10.1025 9.89746 11.1752 9.89746 12.4978C9.89746 13.8204 10.9701 14.8931 12.2927 14.8931C13.6154 14.8931 14.688 13.8204 14.688 12.4978C14.688 11.1752 13.6154 10.1025 12.2927 10.1025Z" fill="#212121"/>
<path fill-rule="evenodd" clip-rule="evenodd" d="M14.1093 2.36839C14.6331 2.41861 15.1656 2.50133 15.5264 2.65306L15.527 2.65333C16.2631 2.96372 16.6862 3.60507 16.9501 4.08364C17.0432 4.25255 17.1334 4.43465 17.2084 4.58612C17.239 4.64793 17.267 4.70465 17.2918 4.75328C17.3955 4.95721 17.4497 5.03875 17.4738 5.06517L17.4749 5.06632C17.6192 5.22515 17.8032 5.329 17.9766 5.38563C19.6475 5.8501 20.7332 6.6643 21.3492 7.95538C21.9321 9.17692 22.0456 10.7384 22.0456 12.5665C22.0456 15.1552 21.8301 17.3712 20.3435 18.8702C18.8651 20.3609 16.3269 20.9502 12.2925 20.9502C8.25804 20.9502 5.71982 20.3609 4.24138 18.8702C2.75481 17.3712 2.53931 15.1552 2.53931 12.5665C2.53931 10.7384 2.65287 9.17692 3.2357 7.95538C3.85176 6.66419 4.93764 5.84996 6.60874 5.38551C6.78195 5.32919 6.96521 5.2257 7.11005 5.06632L7.11109 5.06517C7.13571 5.0382 7.19104 4.95498 7.29629 4.74911C7.32161 4.69959 7.35034 4.6419 7.38163 4.5791C7.45746 4.42685 7.54827 4.24454 7.64167 4.07565C7.90481 3.59984 8.32994 2.9513 9.06516 2.65031L9.06607 2.64994C9.41881 2.50608 9.94437 2.42459 10.4656 2.37382C11.0147 2.32035 11.6527 2.29325 12.2851 2.29204C12.9174 2.29082 13.5571 2.31543 14.1093 2.36839ZM9.63294 4.0387C9.40415 4.1326 9.19047 4.37455 8.95431 4.80158C8.87658 4.94213 8.81178 5.07239 8.74322 5.21023C8.70786 5.2813 8.67151 5.35438 8.63186 5.43193C8.534 5.62336 8.39794 5.88006 8.21968 6.07563C7.86447 6.4663 7.43363 6.69853 7.04807 6.81983C7.03963 6.82249 7.03115 6.82499 7.02263 6.82734C5.65254 7.20569 4.97611 7.79101 4.5895 8.60132C4.16785 9.48504 4.03931 10.7335 4.03931 12.5665C4.03931 15.2009 4.30275 16.8018 5.30644 17.8139C6.31826 18.8342 8.28162 19.4502 12.2925 19.4502C16.3033 19.4502 18.2667 18.8342 19.2785 17.8139C20.2822 16.8018 20.5456 15.2009 20.5456 12.5665C20.5456 10.7335 20.4171 9.48504 19.9954 8.60132C19.6088 7.79101 18.9324 7.20569 17.5623 6.82734C17.5535 6.82492 17.5448 6.82233 17.5361 6.81959C17.1529 6.69858 16.7209 6.46678 16.3653 6.07569C16.1865 5.87956 16.0515 5.62351 15.9547 5.43309C15.9156 5.35626 15.8799 5.28397 15.8451 5.21374C15.7774 5.07672 15.7135 4.94754 15.6364 4.80779C15.4051 4.38809 15.1893 4.13894 14.9445 4.03559C14.8145 3.98103 14.4868 3.91146 13.9661 3.86154C13.4735 3.81429 12.884 3.79088 12.288 3.79203C11.6921 3.79318 11.1028 3.81885 10.611 3.86676C10.0919 3.91732 9.76311 3.98575 9.63294 4.0387Z" fill="#212121"/>
<path fill-rule="evenodd" clip-rule="evenodd" d="M16.4543 9C16.4543 8.58579 16.7901 8.25 17.2043 8.25H17.2133C17.6276 8.25 17.9633 8.58579 17.9633 9C17.9633 9.41421 17.6276 9.75 17.2133 9.75H17.2043C16.7901 9.75 16.4543 9.41421 16.4543 9Z" fill="#212121"/>
</svg>
