<svg width="25" height="25" viewBox="0 0 25 25" fill="none" xmlns="http://www.w3.org/2000/svg">
<path fill-rule="evenodd" clip-rule="evenodd" d="M6.72809 2.17334L10.655 7.56745L8.93007 10.5632C8.95337 10.6319 8.98211 10.7123 9.01688 10.8026C9.14637 11.1388 9.35817 11.6092 9.68292 12.13L10.0798 12.7664L8.80694 13.5601L8.4101 12.9237C8.02655 12.3086 7.77444 11.7502 7.6171 11.3417C7.53831 11.1371 7.48291 10.9691 7.44646 10.8491C7.42822 10.7891 7.41469 10.741 7.40532 10.7062C7.40064 10.6888 7.39699 10.6747 7.39431 10.6641L7.39101 10.6509L7.38988 10.6463L7.38945 10.6445L7.38918 10.6434C7.38914 10.6432 7.3891 10.6431 8.1187 10.4693L7.38918 10.6434L7.32008 10.3532L8.86915 7.66294L6.32826 4.17274C5.26756 4.89499 4.44067 5.77284 3.76577 6.89829C3.61179 7.89554 3.78722 9.18976 4.30553 10.627C4.84157 12.1135 5.72455 13.6966 6.89177 15.1667L7.35812 15.7541L6.18337 16.6868L5.71701 16.0994C4.45748 14.513 3.49042 12.7885 2.89448 11.1359C2.30269 9.49484 2.05653 7.86698 2.3126 6.49783L2.33642 6.37047L2.40159 6.25848C3.33636 4.65222 4.54317 3.45488 6.14212 2.51703L6.72809 2.17334ZM10.9434 13.7255L11.5283 14.1949C12.2435 14.7688 12.9409 15.149 13.4575 15.3848C13.6712 15.4824 13.8528 15.5547 13.9901 15.6054L16.9774 13.8853L22.5151 17.9689L22.192 18.5462C21.2666 20.1995 20.0854 21.3807 18.4321 22.3061L18.2773 22.3928L18.1 22.4009C14.0441 22.5865 10.4582 20.7817 7.749 18.2883L7.19714 17.7804L8.21294 16.6767L8.76479 17.1846C11.2263 19.45 14.3739 21.012 17.8536 20.9091C18.9914 20.2459 19.8431 19.4466 20.542 18.3777L16.8762 15.6745L14.176 17.2293L13.8744 17.1466L14.0727 16.4233C13.8744 17.1466 13.8746 17.1467 13.8744 17.1466L13.8727 17.1461L13.8704 17.1455L13.8642 17.1438L13.8456 17.1384C13.8304 17.1339 13.8097 17.1278 13.7838 17.1197C13.7322 17.1036 13.6598 17.0801 13.5696 17.0483C13.3893 16.9846 13.1369 16.8874 12.8345 16.7494C12.231 16.4738 11.4215 16.0324 10.5896 15.3649L10.0046 14.8955L10.9434 13.7255Z" fill="#212121"/>
<path fill-rule="evenodd" clip-rule="evenodd" d="M19.9395 6.32474L4.2989 23.0081L3.20459 21.9822L18.8452 5.29883L19.9395 6.32474Z" fill="#212121"/>
</svg>
