<svg width="24" height="24" viewBox="0 0 24 24" fill="none" xmlns="http://www.w3.org/2000/svg">
<path fill-rule="evenodd" clip-rule="evenodd" d="M11.9729 12.1404H11.9989C14.5359 12.1404 16.5999 10.0774 16.5999 7.54141C16.5999 5.00441 14.5359 2.94141 11.9989 2.94141C9.46294 2.94141 7.39894 5.00441 7.39894 7.53941C7.39294 10.0684 9.44294 12.1324 11.9729 12.1404ZM8.89894 7.54141C8.89894 5.83241 10.2899 4.44141 11.9989 4.44141C13.7089 4.44141 15.0999 5.83241 15.0999 7.54141C15.0999 9.25041 13.7089 10.6404 11.9989 10.6404H11.9749C10.2739 10.6344 8.89494 9.24541 8.89894 7.54141Z" fill="#212121"/>
<path fill-rule="evenodd" clip-rule="evenodd" d="M5.24316 17.8575C5.24316 21.0595 10.3282 21.0595 11.9992 21.0595C13.6702 21.0595 18.7552 21.0595 18.7552 17.8405C18.7552 15.4135 15.7252 13.4375 11.9992 13.4375C8.27316 13.4375 5.24316 15.4195 5.24316 17.8575ZM6.74316 17.8575C6.74316 16.4795 8.99116 14.9375 11.9992 14.9375C15.0072 14.9375 17.2552 16.4705 17.2552 17.8405C17.2552 19.2615 14.3962 19.5595 11.9992 19.5595C9.60216 19.5595 6.74316 19.2645 6.74316 17.8575Z" fill="#212121"/>
<path d="M18.3897 11.083C18.0577 11.083 17.7547 10.862 17.6647 10.527C17.5577 10.127 17.7957 9.71599 18.1957 9.60799C19.1327 9.35699 19.7877 8.50299 19.7877 7.53099C19.7877 6.51399 19.0677 5.62799 18.0737 5.42599C17.6677 5.34299 17.4067 4.94599 17.4887 4.53999C17.5727 4.13499 17.9667 3.87899 18.3737 3.95499C20.0627 4.29999 21.2877 5.80399 21.2877 7.53099C21.2877 9.18099 20.1757 10.631 18.5837 11.058C18.5187 11.075 18.4527 11.083 18.3897 11.083Z" fill="#212121"/>
<path d="M20.1912 17.3996C20.2732 17.7456 20.5802 17.9776 20.9202 17.9776C20.9782 17.9776 21.0352 17.9706 21.0932 17.9576C22.1642 17.7056 22.9732 16.7506 22.9732 15.7376C22.9732 14.1666 21.0662 12.7366 18.9712 12.7366C18.5572 12.7366 18.2212 13.0726 18.2212 13.4866C18.2212 13.9006 18.5572 14.2366 18.9712 14.2366C20.4412 14.2366 21.4732 15.2096 21.4732 15.7376C21.4732 15.9846 21.2222 16.3866 20.7492 16.4976C20.3462 16.5926 20.0962 16.9966 20.1912 17.3996Z" fill="#212121"/>
<path d="M5.61143 11.083C5.54843 11.083 5.48243 11.075 5.41843 11.058C3.82443 10.632 2.71143 9.18199 2.71143 7.53099C2.71143 5.80399 3.93743 4.29999 5.62643 3.95499C6.03343 3.87899 6.42843 4.13499 6.51143 4.53999C6.59343 4.94599 6.33243 5.34299 5.92643 5.42599C4.93243 5.62799 4.21143 6.51399 4.21143 7.53099C4.21143 8.50299 4.86643 9.35699 5.80443 9.60799C6.20543 9.71599 6.44243 10.127 6.33643 10.526C6.24643 10.862 5.94343 11.083 5.61143 11.083Z" fill="#212121"/>
<path d="M2.90686 17.9576C2.96486 17.9716 3.02186 17.9776 3.07986 17.9776C3.41986 17.9776 3.72686 17.7456 3.80886 17.3996C3.90386 16.9966 3.65386 16.5916 3.25086 16.4976C2.77786 16.3866 2.52686 15.9846 2.52686 15.7376C2.52686 15.2096 3.55886 14.2366 5.02886 14.2366C5.44286 14.2366 5.77886 13.9006 5.77886 13.4866C5.77886 13.0726 5.44286 12.7366 5.02886 12.7366C2.93386 12.7366 1.02686 14.1666 1.02686 15.7376C1.02686 16.7506 1.83586 17.7066 2.90686 17.9576Z" fill="#212121"/>
</svg>
