<svg width="24" height="24" viewBox="0 0 24 24" fill="none" xmlns="http://www.w3.org/2000/svg">
<path fill-rule="evenodd" clip-rule="evenodd" d="M3.58279 20.4171C3.72879 20.5641 3.92079 20.6371 4.11279 20.6371C4.30479 20.6371 4.49679 20.5641 4.64279 20.4171L6.8693 18.1905C6.92208 18.1505 6.97024 18.1028 7.01201 18.0478L20.4168 4.64305C20.7098 4.35005 20.7098 3.87505 20.4168 3.58205C20.1238 3.28905 19.6498 3.28905 19.3568 3.58205L17.4787 5.46029C15.8036 4.47189 13.9202 3.95215 11.9958 3.95215C6.45585 3.95215 1.99585 8.35615 1.99585 12.0021C1.99585 13.9519 3.25178 16.1084 5.25638 17.6834L3.58279 19.3571C3.28979 19.6501 3.28979 20.1241 3.58279 20.4171ZM6.32619 16.6135C4.61299 15.3185 3.49585 13.5217 3.49585 12.0021C3.49585 9.05415 7.41785 5.45215 11.9958 5.45215C13.5225 5.45215 15.0206 5.83353 16.3776 6.56146L14.1842 8.75494C13.5423 8.32265 12.7766 8.08374 11.9977 8.08374H11.9887C10.9437 8.08574 9.96272 8.49474 9.22472 9.23474C8.48772 9.97474 8.08272 10.9577 8.08572 11.9977C8.0827 12.7779 8.32084 13.5443 8.75435 14.1852L6.32619 16.6135ZM9.84732 13.0921L13.0907 9.84852C12.754 9.67664 12.3779 9.58374 11.9967 9.58374H11.9917C11.3467 9.58474 10.7417 9.83674 10.2877 10.2927C9.83372 10.7497 9.58372 11.3547 9.58572 11.9987C9.58392 12.3812 9.67612 12.7567 9.84732 13.0921Z" fill="#212121"/>
<path d="M11.9942 20.0529C11.0472 20.0529 10.0962 19.9229 9.16418 19.6649C8.76518 19.5549 8.53118 19.1419 8.64118 18.7429C8.75118 18.3429 9.16718 18.1099 9.56418 18.2199C10.3652 18.4409 11.1822 18.5529 11.9942 18.5529C16.5772 18.5529 20.5042 14.9509 20.5042 12.0019C20.5042 11.0469 20.0602 9.95793 19.2552 8.93793C18.9992 8.61293 19.0552 8.14093 19.3802 7.88393C19.7052 7.62793 20.1772 7.68293 20.4332 8.00793C21.4462 9.29293 22.0042 10.7109 22.0042 12.0019C22.0042 15.6489 17.5392 20.0529 11.9942 20.0529Z" fill="#212121"/>
<path d="M12.5662 15.8537C12.2112 15.8537 11.8962 15.6007 11.8292 15.2397C11.7542 14.8327 12.0242 14.4407 12.4322 14.3667C13.4112 14.1857 14.1892 13.4077 14.3662 12.4277C14.4402 12.0197 14.8292 11.7517 15.2382 11.8237C15.6452 11.8977 15.9162 12.2877 15.8422 12.6957C15.5542 14.2857 14.2932 15.5487 12.7022 15.8407C12.6572 15.8497 12.6112 15.8537 12.5662 15.8537Z" fill="#212121"/>
</svg>
