<svg width="25" height="25" viewBox="0 0 25 25" fill="none" xmlns="http://www.w3.org/2000/svg">
<path fill-rule="evenodd" clip-rule="evenodd" d="M15.9707 10.8248L12.0727 14.7238C11.9317 14.8648 11.7417 14.9438 11.5427 14.9438C11.3437 14.9438 11.1527 14.8648 11.0117 14.7238L9.11969 12.8298C8.82669 12.5368 8.82669 12.0608 9.12069 11.7688C9.41269 11.4758 9.88769 11.4758 10.1807 11.7688L11.5427 13.1328L14.9097 9.76378C15.2027 9.47078 15.6777 9.47078 15.9707 9.76378C16.2637 10.0568 16.2637 10.5318 15.9707 10.8248ZM19.9377 5.42878C19.3317 4.82178 16.0037 2.67578 12.2497 2.67578C8.49369 2.67578 5.16769 4.82178 4.56169 5.42878C3.98069 6.01078 3.98969 6.46378 4.03369 8.97778C4.05269 9.99778 4.07769 11.3858 4.07769 13.3038C4.07769 19.8238 9.39969 22.5308 12.2497 22.5308C15.0987 22.5308 20.4217 19.8238 20.4217 13.3038C20.4217 11.3848 20.4467 9.99578 20.4657 8.97678C20.5107 6.46278 20.5187 6.01078 19.9377 5.42878Z" fill="#212121"/>
</svg>
