<svg width="24" height="24" viewBox="0 0 24 24" fill="none" xmlns="http://www.w3.org/2000/svg">
<path fill-rule="evenodd" clip-rule="evenodd" d="M7.5729 3.51172C5.9149 3.51172 4.5399 4.85372 4.5009 6.50872V17.3397C4.4719 18.9867 5.7789 20.3387 7.4139 20.3667L7.5609 20.3657H15.5729C17.2149 20.3477 18.5539 18.9907 18.5519 17.3407V8.34172L13.9179 3.51172H7.5849H7.5729ZM7.3999 21.8667C4.9269 21.8237 2.9589 19.7867 3.0009 17.3267V6.49072C3.0579 4.00972 5.1069 2.01172 7.5699 2.01172H7.5879H14.2369C14.4409 2.01172 14.6359 2.09472 14.7779 2.24172L19.8439 7.52072C19.9769 7.65972 20.0519 7.84672 20.0519 8.03972V17.3397C20.0559 19.8087 18.0499 21.8397 15.5809 21.8657L7.3999 21.8667Z" fill="#212121"/>
<path fill-rule="evenodd" clip-rule="evenodd" d="M13.7935 13.6643H8.89453C8.48053 13.6643 8.14453 13.3283 8.14453 12.9143C8.14453 12.5003 8.48053 12.1643 8.89453 12.1643H13.7935C14.2075 12.1643 14.5435 12.5003 14.5435 12.9143C14.5435 13.3283 14.2075 13.6643 13.7935 13.6643Z" fill="#212121"/>
<path fill-rule="evenodd" clip-rule="evenodd" d="M11.3445 16.1144C10.9305 16.1144 10.5945 15.7784 10.5945 15.3644V10.4644C10.5945 10.0504 10.9305 9.71436 11.3445 9.71436C11.7585 9.71436 12.0945 10.0504 12.0945 10.4644V15.3644C12.0945 15.7784 11.7585 16.1144 11.3445 16.1144Z" fill="#212121"/>
<path fill-rule="evenodd" clip-rule="evenodd" d="M19.2976 8.98449H16.5436C14.7126 8.97949 13.2246 7.48749 13.2246 5.65949V2.75049C13.2246 2.33649 13.5606 2.00049 13.9746 2.00049C14.3886 2.00049 14.7246 2.33649 14.7246 2.75049V5.65949C14.7246 6.66349 15.5416 7.48149 16.5456 7.48449H19.2976C19.7116 7.48449 20.0476 7.82049 20.0476 8.23449C20.0476 8.64849 19.7116 8.98449 19.2976 8.98449Z" fill="#212121"/>
</svg>
