<svg width="25" height="25" viewBox="0 0 25 25" fill="none" xmlns="http://www.w3.org/2000/svg">
<path fill-rule="evenodd" clip-rule="evenodd" d="M11.4996 3.58661V2.13867H12.9996V3.58661C16.5454 3.9611 19.3082 6.96084 19.3082 10.6059V13.3991C19.3082 15.1333 19.8354 16.8265 20.8198 18.2543L21.6305 19.43H2.86865L3.67932 18.2543C4.66375 16.8265 5.19092 15.1333 5.19092 13.3991V10.6059C5.19092 6.96085 7.95379 3.9611 11.4996 3.58661ZM12.2496 5.04724C9.17961 5.04724 6.69092 7.53594 6.69092 10.6059V13.3991C6.69092 14.9793 6.31851 16.5306 5.61199 17.93H18.8871C18.1806 16.5306 17.8082 14.9793 17.8082 13.3991V10.6059C17.8082 7.53593 15.3195 5.04724 12.2496 5.04724Z" fill="#212121"/>
<path fill-rule="evenodd" clip-rule="evenodd" d="M8.27173 18.9101V18.6797H9.77173V18.9101C9.77173 20.279 10.8814 21.3886 12.2503 21.3886C13.6191 21.3886 14.7288 20.279 14.7288 18.9101V18.6797H16.2288V18.9101C16.2288 21.1074 14.4475 22.8886 12.2503 22.8886C10.053 22.8886 8.27173 21.1074 8.27173 18.9101Z" fill="#212121"/>
</svg>
