<svg width="25" height="25" viewBox="0 0 25 25" fill="none" xmlns="http://www.w3.org/2000/svg">
<path opacity="0.4" fill-rule="evenodd" clip-rule="evenodd" d="M21.8696 10.6846H2.63059C2.52859 11.5046 2.47559 12.3976 2.47559 13.3866C2.47559 20.6016 5.03359 23.1596 12.2496 23.1596C19.4666 23.1596 22.0246 20.6016 22.0246 13.3866C22.0246 12.3976 21.9716 11.5046 21.8696 10.6846Z" fill="#212121"/>
<path d="M15.9086 13.8711C15.9086 14.2851 16.2486 14.6211 16.6626 14.6211C17.0766 14.6211 17.4126 14.2851 17.4126 13.8711C17.4126 13.4571 17.0766 13.1211 16.6626 13.1211H16.6536C16.2396 13.1211 15.9086 13.4571 15.9086 13.8711Z" fill="#212121"/>
<path d="M15.9086 17.7241C15.9086 18.1381 16.2486 18.4741 16.6626 18.4741C17.0766 18.4741 17.4126 18.1381 17.4126 17.7241C17.4126 17.3091 17.0766 16.9741 16.6626 16.9741H16.6536C16.2396 16.9741 15.9086 17.3091 15.9086 17.7241Z" fill="#212121"/>
<path d="M11.5086 13.8711C11.5086 14.2851 11.8496 14.6211 12.2636 14.6211C12.6776 14.6211 13.0136 14.2851 13.0136 13.8711C13.0136 13.4571 12.6776 13.1211 12.2636 13.1211H12.2546C11.8406 13.1211 11.5086 13.4571 11.5086 13.8711Z" fill="#212121"/>
<path d="M11.5086 17.7241C11.5086 18.1381 11.8496 18.4741 12.2636 18.4741C12.6776 18.4741 13.0136 18.1381 13.0136 17.7241C13.0136 17.3091 12.6776 16.9741 12.2636 16.9741H12.2546C11.8406 16.9741 11.5086 17.3091 11.5086 17.7241Z" fill="#212121"/>
<path d="M7.10059 13.8711C7.10059 14.2851 7.44159 14.6211 7.85559 14.6211C8.26959 14.6211 8.60559 14.2851 8.60559 13.8711C8.60559 13.4571 8.26959 13.1211 7.85559 13.1211H7.84659C7.43259 13.1211 7.10059 13.4571 7.10059 13.8711Z" fill="#212121"/>
<path d="M7.10059 17.7241C7.10059 18.1381 7.44159 18.4741 7.85559 18.4741C8.26959 18.4741 8.60559 18.1381 8.60559 17.7241C8.60559 17.3091 8.26959 16.9741 7.85559 16.9741H7.84659C7.43259 16.9741 7.10059 17.3091 7.10059 17.7241Z" fill="#212121"/>
<path fill-rule="evenodd" clip-rule="evenodd" d="M17.2033 4.26316V2.66016C17.2033 2.24616 16.8673 1.91016 16.4533 1.91016C16.0393 1.91016 15.7033 2.24616 15.7033 2.66016V5.92316C15.7033 6.18316 15.8443 6.40216 16.0463 6.53616C15.9273 6.61616 15.7923 6.67316 15.6383 6.67316C15.2243 6.67316 14.8883 6.33716 14.8883 5.92316V3.75716C14.0863 3.66116 13.2123 3.61216 12.2493 3.61216C11.1153 3.61216 10.1043 3.68016 9.19534 3.81716V2.66016C9.19534 2.24616 8.85934 1.91016 8.44534 1.91016C8.03134 1.91016 7.69534 2.24616 7.69534 2.66016V5.92316C7.69534 6.18316 7.83634 6.40216 8.03834 6.53616C7.91934 6.61616 7.78434 6.67316 7.63034 6.67316C7.21634 6.67316 6.88034 6.33716 6.88034 5.92316V4.39316C4.74634 5.21616 3.49434 6.74716 2.90234 9.18516H21.5973C20.9693 6.59916 19.5813 5.04716 17.2033 4.26316Z" fill="#212121"/>
</svg>
