<svg width="24" height="24" viewBox="0 0 24 24" fill="none" xmlns="http://www.w3.org/2000/svg">
<path d="M4.30212 15.7261C3.31812 14.5471 2.74512 13.2211 2.74512 12.0041C2.74512 8.7241 6.88512 4.7041 11.9951 4.7041C14.0851 4.7041 16.0251 5.3741 17.5851 6.4141" stroke="#212121" stroke-width="1.5" stroke-linecap="round" stroke-linejoin="round"/>
<path d="M19.8452 8.47363C20.7362 9.60363 21.2552 10.8536 21.2552 12.0036C21.2552 15.2836 17.1052 19.3036 11.9952 19.3036C11.0852 19.3036 10.1962 19.1736 9.36523 18.9436" stroke="#212121" stroke-width="1.5" stroke-linecap="round" stroke-linejoin="round"/>
<path d="M15.1054 12.5625C14.8714 13.8545 13.8604 14.8675 12.5684 15.1045" stroke="#212121" stroke-width="1.5" stroke-linecap="round" stroke-linejoin="round"/>
<path d="M9.7612 14.23C9.1662 13.641 8.8332 12.838 8.8362 12.001C8.8322 10.256 10.2442 8.83796 11.9902 8.83496" stroke="#212121" stroke-width="1.5" stroke-linecap="round" stroke-linejoin="round"/>
<path d="M19.8873 4.11328L4.11328 19.8873" stroke="#212121" stroke-width="1.5" stroke-linecap="round" stroke-linejoin="round"/>
</svg>
