<svg width="25" height="25" viewBox="0 0 25 25" fill="none" xmlns="http://www.w3.org/2000/svg">
<path fill-rule="evenodd" clip-rule="evenodd" d="M13.7438 9.64215H10.7538C10.3438 9.64215 10.0038 9.30215 10.0038 8.89215C10.0038 8.48215 10.3438 8.14215 10.7538 8.14215H13.7438C14.1538 8.14215 14.4938 8.48215 14.4938 8.89215C14.4938 9.30215 14.1538 9.64215 13.7438 9.64215ZM11.7438 5.37215H12.7538C13.1638 5.37215 13.5038 5.71215 13.5038 6.12215C13.5038 6.53215 13.1638 6.87215 12.7538 6.87215H11.7438C11.3338 6.87215 10.9938 6.53215 10.9938 6.12215C10.9938 5.71215 11.3338 5.37215 11.7438 5.37215ZM12.2538 2.95215C9.00382 2.95215 6.36382 5.59215 6.36382 8.84215V10.9821C6.36382 11.2621 6.58382 11.4821 6.86382 11.4821H17.6338C17.9138 11.4821 18.1338 11.2621 18.1338 10.9821V8.84215C18.1338 5.59215 15.4938 2.95215 12.2538 2.95215Z" fill="#212121"/>
<path fill-rule="evenodd" clip-rule="evenodd" d="M19.0279 13.3241H5.47192C5.05792 13.3241 4.72192 13.6601 4.72192 14.0741C4.72192 14.4881 5.05792 14.8241 5.47192 14.8241H6.41692C6.75592 17.4691 8.85392 19.5681 11.4999 19.9061V21.5051C11.4999 21.9191 11.8359 22.2551 12.2499 22.2551C12.6639 22.2551 12.9999 21.9191 12.9999 21.5051V19.9071C15.6459 19.5681 17.7439 17.4691 18.0829 14.8241H19.0279C19.4419 14.8241 19.7779 14.4881 19.7779 14.0741C19.7779 13.6601 19.4419 13.3241 19.0279 13.3241Z" fill="#212121"/>
</svg>
