<svg width="25" height="25" viewBox="0 0 25 25" fill="none" xmlns="http://www.w3.org/2000/svg">
<path opacity="0.4" fill-rule="evenodd" clip-rule="evenodd" d="M21.4974 16.4116C18.8594 13.2116 17.5444 13.4986 16.0984 14.2016C15.0974 14.6876 14.2334 15.1096 11.9874 12.8626C9.74141 10.6156 10.1624 9.75262 10.6484 8.75362C11.3534 7.30662 11.6394 5.98862 8.43641 3.35162C7.67341 2.72662 6.84141 2.48662 5.97541 2.65462C4.14241 2.99762 2.84741 5.03762 2.84941 5.03762C2.03741 6.17362 0.925409 9.58962 8.09241 16.7576C12.8064 21.4726 15.8974 22.6036 17.7734 22.6036C18.7504 22.6036 19.3964 22.2976 19.7704 22.0286C19.7914 22.0166 21.8494 20.7416 22.1964 18.8726C22.3584 18.0036 22.1234 17.1766 21.4974 16.4116Z" fill="#212121"/>
</svg>
