<svg width="25" height="24" viewBox="0 0 25 24" fill="none" xmlns="http://www.w3.org/2000/svg">
<path fill-rule="evenodd" clip-rule="evenodd" d="M15.8449 12.688H8.62489C8.21089 12.688 7.87489 12.352 7.87489 11.938C7.87489 11.524 8.21089 11.188 8.62489 11.188H15.8449C16.2589 11.188 16.5949 11.524 16.5949 11.938C16.5949 12.352 16.2589 12.688 15.8449 12.688ZM15.8449 16.447H8.62489C8.21089 16.447 7.87489 16.111 7.87489 15.697C7.87489 15.283 8.21089 14.947 8.62489 14.947H15.8449C16.2589 14.947 16.5949 15.283 16.5949 15.697C16.5949 16.111 16.2589 16.447 15.8449 16.447ZM8.62489 7.427H11.3799C11.7939 7.427 12.1299 7.763 12.1299 8.177C12.1299 8.591 11.7939 8.927 11.3799 8.927H8.62489C8.21089 8.927 7.87489 8.591 7.87489 8.177C7.87489 7.763 8.21089 7.427 8.62489 7.427ZM12.2499 2.25C5.68489 2.25 3.35889 4.802 3.35889 12.001C3.35889 19.199 5.68489 21.751 12.2499 21.751C18.8139 21.751 21.1409 19.199 21.1409 12.001C21.1409 4.802 18.8139 2.25 12.2499 2.25Z" fill="#212121"/>
</svg>
