<svg width="25" height="24" viewBox="0 0 25 24" fill="none" xmlns="http://www.w3.org/2000/svg">
<path opacity="0.4" fill-rule="evenodd" clip-rule="evenodd" d="M17.26 8.674C15.614 8.674 14.27 7.34 14.27 5.694V3.652L19.552 8.674H17.26ZM20.955 8.85C20.955 8.81 20.955 8.78 20.945 8.74C20.915 8.56 20.885 8.38 20.855 8.21C20.835 8.1 20.785 8.01 20.705 7.93L15.035 2.53C14.965 2.46 14.865 2.41 14.765 2.4C14.595 2.38 14.415 2.36 14.235 2.34C14.205 2.33 14.165 2.33 14.135 2.33C13.555 2.28 12.915 2.25 12.245 2.25C5.68498 2.25 3.35498 4.8 3.35498 12C3.35498 19.19 5.68498 21.75 12.245 21.75C18.815 21.75 21.145 19.19 21.145 12C21.145 10.8 21.085 9.76 20.955 8.85Z" fill="#212121"/>
<path d="M13.8146 15.3375C14.1076 15.0445 14.1076 14.5705 13.8146 14.2775L12.6126 13.0745L13.8156 11.8715C14.1086 11.5785 14.1086 11.1045 13.8156 10.8115C13.5226 10.5185 13.0486 10.5185 12.7556 10.8115L11.5526 12.0145L10.3486 10.8115C10.0566 10.5185 9.5816 10.5185 9.2886 10.8115C8.9956 11.1045 8.9956 11.5785 9.2886 11.8715L10.4916 13.0745L9.2896 14.2775C8.9966 14.5705 8.9966 15.0445 9.2896 15.3375C9.4356 15.4845 9.6276 15.5575 9.8196 15.5575C10.0126 15.5575 10.2036 15.4845 10.3496 15.3375L11.5526 14.1355L12.7546 15.3375C12.9006 15.4845 13.0926 15.5575 13.2846 15.5575C13.4766 15.5575 13.6686 15.4845 13.8146 15.3375Z" fill="#212121"/>
</svg>
