<svg width="25" height="24" viewBox="0 0 25 24" fill="none" xmlns="http://www.w3.org/2000/svg">
<g opacity="0.4">
<path fill-rule="evenodd" clip-rule="evenodd" d="M21.985 16.8203C21.225 14.4103 19.185 13.0303 16.385 13.0303H16.345C15.115 13.0303 14.045 13.3003 13.145 13.7903C15.405 14.6103 17.085 16.3003 17.865 18.6503C19.355 18.4903 20.665 18.0703 21.765 17.4003L22.105 17.1903L21.985 16.8203Z" fill="#212121"/>
<path fill-rule="evenodd" clip-rule="evenodd" d="M16.835 18.7203C16.045 16.5703 14.405 15.1103 12.165 14.5203C11.435 14.3203 10.625 14.2203 9.76502 14.2203H9.71502C6.11502 14.2203 3.49502 15.9903 2.51502 19.0803L2.39502 19.4503L2.73502 19.6503C4.63502 20.8203 6.91502 21.3803 9.68502 21.3803H9.73502C12.575 21.3903 14.835 20.8203 16.745 19.6503L17.085 19.4503L16.965 19.0803C16.925 18.9603 16.885 18.8403 16.835 18.7203Z" fill="#212121"/>
</g>
<path fill-rule="evenodd" clip-rule="evenodd" d="M14.2049 10.9901C14.8149 11.4201 15.5649 11.6801 16.3649 11.6801C18.4249 11.6801 20.1049 10.0001 20.1049 7.93012C20.1049 5.87012 18.4249 4.19012 16.3649 4.19012C15.7849 4.19012 15.2449 4.32012 14.7549 4.56012C15.2249 5.39012 15.4949 6.35012 15.4949 7.37012C15.4949 8.74012 15.0149 10.0001 14.2049 10.9901Z" fill="#212121"/>
<path fill-rule="evenodd" clip-rule="evenodd" d="M9.73486 12.1301C11.2549 12.1301 12.6049 11.4101 13.4749 10.3001C14.1149 9.50012 14.4949 8.48012 14.4949 7.37012C14.4949 6.55012 14.2849 5.78012 13.9249 5.11012C13.1149 3.63012 11.5449 2.62012 9.73486 2.62012C7.11486 2.62012 4.98486 4.75012 4.98486 7.37012C4.98486 9.99012 7.11486 12.1301 9.73486 12.1301Z" fill="#212121"/>
</svg>
