<svg width="25" height="25" viewBox="0 0 25 25" fill="none" xmlns="http://www.w3.org/2000/svg">
<path fill-rule="evenodd" clip-rule="evenodd" d="M2.32255 8.33247C4.37757 12.6585 8.08902 15.3635 12.248 15.3652C12.2493 15.3652 12.2507 15.3652 12.252 15.3652V13.8652C12.2513 13.8652 12.2507 13.8652 12.25 13.8652C12.2493 13.8652 12.2487 13.8652 12.248 13.8652M12.25 13.8652C15.7047 13.8644 18.9566 11.6169 20.8225 7.68885L21.1444 7.0114L22.4993 7.65503L22.1774 8.33247C20.1224 12.6585 16.411 15.3635 12.252 15.3652M12.25 13.8652C8.79533 13.8644 5.5434 11.6169 3.67744 7.68885L3.35563 7.0114L2.00073 7.65503L2.32255 8.33247" fill="#212121"/>
<path fill-rule="evenodd" clip-rule="evenodd" d="M9.32679 13.3584L8.06415 17.7085L9.50469 18.1266L10.7673 13.7765L9.32679 13.3584Z" fill="#212121"/>
<path fill-rule="evenodd" clip-rule="evenodd" d="M15.0934 13.3579L16.356 17.708L14.9155 18.1261L13.6528 13.776L15.0934 13.3579Z" fill="#212121"/>
<path fill-rule="evenodd" clip-rule="evenodd" d="M18.8397 10.8188L22.0115 13.9906L20.9508 15.0513L17.7791 11.8795L18.8397 10.8188Z" fill="#212121"/>
<path fill-rule="evenodd" clip-rule="evenodd" d="M5.58119 10.8188L2.40942 13.9906L3.47008 15.0513L6.64185 11.8795L5.58119 10.8188Z" fill="#212121"/>
</svg>
