<svg width="25" height="25" viewBox="0 0 25 25" fill="none" xmlns="http://www.w3.org/2000/svg">
<path fill-rule="evenodd" clip-rule="evenodd" d="M12.25 20.5987C11.01 20.5987 9.99995 19.6587 9.85995 18.4587H14.64C14.5 19.6587 13.49 20.5987 12.25 20.5987ZM18.94 13.4087V9.03871C18.94 8.86871 18.93 8.69871 18.92 8.53871C18.53 8.65871 18.11 8.72871 17.68 8.72871C15.46 8.72871 13.65 6.92871 13.65 4.69871C13.65 3.94871 13.85 3.24871 14.22 2.64871C13.6 2.44871 12.94 2.34871 12.25 2.34871C8.55995 2.34871 5.55995 5.34871 5.55995 9.03871V13.4087L3.94995 15.0487V18.4587H8.35995C8.50995 20.4887 10.18 22.0987 12.25 22.0987C14.32 22.0987 16 20.4887 16.14 18.4587H20.55V15.0487L18.94 13.4087Z" fill="#212121"/>
<path fill-rule="evenodd" clip-rule="evenodd" d="M17.68 7.22871C18.02 7.22871 18.34 7.15871 18.64 7.03871C19.56 6.65871 20.21 5.75871 20.21 4.69871C20.21 3.30871 19.08 2.17871 17.68 2.17871C16.82 2.17871 16.06 2.60871 15.6 3.25871C15.32 3.66871 15.15 4.15871 15.15 4.69871C15.15 6.09871 16.29 7.22871 17.68 7.22871Z" fill="#212121"/>
</svg>
