<svg width="24" height="24" viewBox="0 0 24 24" fill="none" xmlns="http://www.w3.org/2000/svg">
<path fill-rule="evenodd" clip-rule="evenodd" d="M11.2753 3.46387C6.96095 3.46387 3.46436 6.96046 3.46436 11.2748C3.46436 15.5892 6.96095 19.0858 11.2753 19.0858C15.5888 19.0858 19.0863 15.5891 19.0863 11.2748C19.0863 6.96052 15.5888 3.46387 11.2753 3.46387ZM1.96436 11.2748C1.96436 6.13203 6.13252 1.96387 11.2753 1.96387C16.4171 1.96387 20.5863 6.13198 20.5863 11.2748C20.5863 16.4177 16.4171 20.5858 11.2753 20.5858C6.13252 20.5858 1.96436 16.4176 1.96436 11.2748Z" fill="#212121"/>
<path fill-rule="evenodd" clip-rule="evenodd" d="M19.8987 19.2373C19.5336 19.2373 19.2373 19.5342 19.2373 19.8978C19.2373 20.2632 19.5336 20.5592 19.8987 20.5592C20.2632 20.5592 20.5592 20.2639 20.5592 19.8978C20.5592 19.5336 20.2632 19.2373 19.8987 19.2373ZM17.7373 19.8978C17.7373 18.7051 18.7058 17.7373 19.8987 17.7373C21.0923 17.7373 22.0592 18.7058 22.0592 19.8978C22.0592 21.0917 21.0923 22.0592 19.8987 22.0592C18.7058 22.0592 17.7373 21.0923 17.7373 19.8978Z" fill="#212121"/>
</svg>
