<svg width="25" height="24" viewBox="0 0 25 24" fill="none" xmlns="http://www.w3.org/2000/svg">
<path fill-rule="evenodd" clip-rule="evenodd" d="M13.1199 4.16953L14.7589 5.81253C14.9049 5.95953 15.0979 6.03353 15.2899 6.03353C15.4809 6.03353 15.6729 5.95953 15.8189 5.81453C16.1129 5.52153 16.1129 5.04653 15.8209 4.75353L12.9009 1.82553C12.6199 1.54253 12.1199 1.54253 11.8389 1.82553L8.91895 4.75353C8.62695 5.04653 8.62695 5.52153 8.92095 5.81453C9.21495 6.10653 9.68895 6.10653 9.98095 5.81253L11.6199 4.16953V7.15753C12.1299 7.14753 12.6299 7.14753 13.1199 7.15753V4.16953Z" fill="#212121"/>
<path fill-rule="evenodd" clip-rule="evenodd" d="M16.65 7.28735C15.53 7.20735 14.3499 7.16753 13.1199 7.15753L13.12 14.3973C13.12 14.8073 12.78 15.1473 12.37 15.1473C11.96 15.1473 11.62 14.8073 11.62 14.3973L11.6199 7.15753C10.4099 7.16753 9.15 7.21735 7.85 7.28735H7.83C3.8 7.65735 2.5 9.48735 2.5 14.7873C2.5 22.3873 5.35 22.3873 12.25 22.3873C19.15 22.3873 22 22.3873 22 14.7873C22 9.48735 20.7 7.65735 16.65 7.28735Z" fill="#212121"/>
</svg>
