<svg width="25" height="25" viewBox="0 0 25 25" fill="none" xmlns="http://www.w3.org/2000/svg">
<path fill-rule="evenodd" clip-rule="evenodd" d="M6.72907 2.36328L10.656 7.75739L8.93105 10.7532C8.99237 10.934 9.09094 11.1943 9.2378 11.5042C9.53723 12.136 10.0322 12.9626 10.8117 13.7421C11.6375 14.568 12.5139 15.1094 13.1845 15.4439C13.5181 15.6103 13.798 15.7241 13.9911 15.7953L16.9783 14.0753L22.5161 18.1589L22.1929 18.7361C21.2676 20.3895 20.0864 21.5707 18.433 22.4961L18.2782 22.5827L18.101 22.5908C13.2223 22.8141 9.02729 20.1612 6.20412 16.8776C4.78771 15.2302 3.69292 13.3991 3.01153 11.6365C2.33529 9.88723 2.04183 8.14079 2.31358 6.68778L2.3374 6.56041L2.40257 6.44842C3.33734 4.84217 4.54416 3.64482 6.1431 2.70697L6.72907 2.36328ZM14.0737 16.6132C13.8754 17.3365 13.8752 17.3365 13.8749 17.3364L13.8733 17.336L13.8705 17.3352L13.8627 17.333L13.8384 17.3259C13.8185 17.3201 13.7912 17.3118 13.7571 17.3009C13.6888 17.2792 13.5929 17.2472 13.4739 17.2033C13.2361 17.1157 12.9045 16.9805 12.515 16.7862C11.7377 16.3985 10.7178 15.7696 9.75105 14.8028C8.8227 13.8745 8.23677 12.8945 7.88233 12.1466C7.70474 11.7719 7.58396 11.4527 7.50658 11.2233C7.46786 11.1084 7.43989 11.0157 7.42104 10.9494C7.41162 10.9162 7.40446 10.8895 7.39937 10.87L7.39326 10.846L7.39131 10.8381L7.39061 10.8352L7.39033 10.834C7.39027 10.8338 7.39008 10.833 8.11968 10.6592L7.39008 10.833L7.32106 10.5432L8.87013 7.85288L6.32925 4.36268C5.26855 5.08493 4.44165 5.96278 3.76675 7.08824C3.60254 8.15171 3.81333 9.55058 4.41062 11.0956C5.0264 12.6885 6.02928 14.3735 7.34152 15.8997C9.93905 18.9209 13.6568 21.2231 17.8546 21.0991C18.9924 20.4359 19.844 19.6366 20.543 18.5676L16.8772 15.8644L14.1769 17.4192L13.8749 17.3364L14.0737 16.6132Z" fill="#212121"/>
</svg>
