<svg width="24" height="24" viewBox="0 0 24 24" fill="none" xmlns="http://www.w3.org/2000/svg">
<path d="M7.19458 15.4753H16.7876C17.2016 15.4753 17.5376 15.1393 17.5376 14.7253C17.5376 14.3113 17.2016 13.9753 16.7876 13.9753H7.19458C6.78058 13.9753 6.44458 14.3113 6.44458 14.7253C6.44458 15.1393 6.78058 15.4753 7.19458 15.4753Z" fill="#212121"/>
<path fill-rule="evenodd" clip-rule="evenodd" d="M1.63989 14.0152C1.63989 21.5052 6.12989 22.1002 11.9999 22.1002C17.8699 22.1002 22.3599 21.5052 22.3599 13.9882C22.3599 12.1662 22.3599 9.11818 20.4749 7.08418C19.3019 5.81818 17.7799 5.84718 16.5579 5.87118C15.8209 5.88718 15.1229 5.89918 14.6599 5.63618C14.0779 5.30518 13.8799 4.93618 13.6299 4.46918C13.3429 3.93118 12.9839 3.26218 12.0379 2.75218C10.3589 1.84618 8.39489 1.66818 5.86089 2.18918C3.29689 2.71518 1.63989 4.97618 1.63989 7.94918V14.0152ZM6.16289 3.65818C6.99589 3.48718 7.75089 3.40118 8.44189 3.40118C9.54989 3.40118 10.4929 3.62318 11.3259 4.07218C11.8753 4.36885 12.0565 4.70744 12.3071 5.17564L12.3084 5.17817C12.5993 5.72 12.9615 6.39451 13.9189 6.94018C14.7322 7.40183 15.6594 7.38651 16.5614 7.3716L16.5869 7.37118C17.6979 7.34818 18.6589 7.33218 19.3749 8.10318C20.8599 9.70618 20.8599 12.2822 20.8599 14.0152C20.8599 19.9512 18.0229 20.6002 11.9999 20.6002C5.83889 20.6002 3.13989 19.9772 3.13989 14.0152V7.94918C3.13989 6.17518 3.93389 4.11518 6.16289 3.65818Z" fill="#212121"/>
</svg>
