<svg width="25" height="25" viewBox="0 0 25 25" fill="none" xmlns="http://www.w3.org/2000/svg">
<path fill-rule="evenodd" clip-rule="evenodd" d="M20.149 12.5338C20.149 13.3098 20.612 14.0918 21.645 14.0918C21.921 14.0918 22.145 14.3148 22.145 14.5918C22.145 19.8868 21.694 21.5608 12.25 21.5608C2.80598 21.5608 2.35498 19.8868 2.35498 14.5918C2.35498 14.3148 2.57798 14.0918 2.85498 14.0918C3.32798 14.0918 3.70398 13.9338 3.97298 13.6218C4.21298 13.3438 4.34998 12.9468 4.34998 12.5338C4.34998 11.7598 3.88798 10.9768 2.85498 10.9768C2.57798 10.9768 2.35498 10.7538 2.35498 10.4768C2.35498 5.18379 2.80598 3.50879 12.25 3.50879C21.694 3.50879 22.145 5.18379 22.145 10.4768C22.145 10.7538 21.921 10.9768 21.645 10.9768C20.612 10.9768 20.149 11.7598 20.149 12.5338ZM11.2487 9.95249C11.4202 9.59172 11.6934 9.13452 12.2499 9.13452C12.8065 9.13452 13.0797 9.59172 13.2512 9.95249C13.2968 10.0485 13.3395 10.1474 13.3798 10.241L13.3819 10.2457C13.4221 10.339 13.46 10.4269 13.4992 10.5099C13.581 10.6831 13.6562 10.8069 13.7361 10.8829C13.7917 10.9353 13.9001 10.9783 14.0928 11.0038C14.2234 11.021 14.3602 11.0272 14.5098 11.034C14.5799 11.0372 14.6528 11.0405 14.7292 11.0451C14.9515 11.0586 15.2012 11.0837 15.413 11.1699C15.6388 11.2618 15.8345 11.4295 15.9087 11.7174C15.9787 11.991 15.914 12.2259 15.7854 12.4199C15.6648 12.6021 15.487 12.7505 15.3265 12.8747C15.2783 12.9121 15.2318 12.9472 15.1869 12.9811C15.071 13.0685 14.9663 13.1476 14.8726 13.2346C14.7457 13.3525 14.6767 13.453 14.6535 13.5493C14.6269 13.6609 14.6369 13.8003 14.6756 13.9779C14.6946 14.0649 14.7189 14.1549 14.7455 14.2504L14.7585 14.2968C14.7808 14.3767 14.8043 14.4606 14.8248 14.5431C14.8728 14.7371 14.914 14.9587 14.8834 15.1733C14.8507 15.403 14.7375 15.6127 14.5083 15.7714C14.0302 16.1008 13.5435 15.8631 13.1959 15.6619C13.1237 15.62 13.057 15.5795 12.9929 15.5406C12.883 15.4739 12.7809 15.4119 12.6716 15.3559C12.505 15.2704 12.3686 15.2256 12.2499 15.2256C12.1313 15.2256 11.9949 15.2704 11.8282 15.3559C11.719 15.4119 11.6169 15.4739 11.507 15.5406C11.4429 15.5795 11.3762 15.6201 11.3039 15.6619C10.9564 15.8631 10.4701 16.1011 9.99203 15.7717C9.7631 15.613 9.64958 15.4028 9.61692 15.1732C9.58641 14.9587 9.62751 14.7371 9.67551 14.5432C9.69592 14.4608 9.71934 14.3769 9.74164 14.2971L9.75464 14.2505C9.7812 14.155 9.80547 14.0651 9.82439 13.978C9.86298 13.8004 9.87296 13.661 9.84633 13.5493C9.82312 13.453 9.75417 13.3525 9.62724 13.2346C9.5336 13.1476 9.42882 13.0685 9.31297 12.9811C9.26813 12.9472 9.22147 12.912 9.17333 12.8747C9.01289 12.7505 8.83507 12.6021 8.71444 12.4199C8.58589 12.2259 8.52105 11.9914 8.59105 11.7178C8.66524 11.4299 8.86109 11.2618 9.08689 11.1699C9.29868 11.0837 9.54839 11.0586 9.77066 11.0451C9.84704 11.0405 9.91996 11.0372 9.99009 11.034C10.1396 11.0272 10.2765 11.021 10.4071 11.0038C10.5998 10.9783 10.7082 10.9353 10.7637 10.8829C10.8437 10.8069 10.9188 10.6831 11.0006 10.5099C11.0399 10.4269 11.0777 10.3391 11.118 10.2457L11.12 10.241C11.1604 10.1474 11.203 10.0485 11.2487 9.95249Z" fill="#212121"/>
</svg>
