<svg width="25" height="24" viewBox="0 0 25 24" fill="none" xmlns="http://www.w3.org/2000/svg">
<path d="M6.22276 20.5146C5.07576 20.2496 3.99376 19.8316 2.99976 19.2256C3.97876 16.1316 6.63276 14.6986 9.76376 14.7066C12.8918 14.6986 15.5508 16.1346 16.5278 19.2256C14.5578 20.4266 12.2388 20.8896 9.76376 20.8836" stroke="#212121" stroke-width="1.5" stroke-linecap="square"/>
<path d="M19.0622 17.9456C19.9292 17.7436 20.7482 17.4256 21.5002 16.9676C20.7542 14.6066 18.7232 13.5106 16.3352 13.5166C14.8312 13.5126 13.4712 13.9446 12.4832 14.8536" stroke="#212121" stroke-width="1.5" stroke-linecap="square"/>
<path d="M9.7641 3.11621C12.1041 3.11621 14.0011 5.01321 14.0011 7.35321C14.0011 9.69321 12.1041 11.5902 9.7641 11.5902C7.4241 11.5902 5.5271 9.69321 5.5271 7.35321C5.5271 6.72121 5.6651 6.12121 5.9131 5.58321" stroke="#212121" stroke-width="1.5" stroke-linecap="square"/>
<path d="M13.9636 5.67002C14.5536 5.05202 15.3866 4.66602 16.3096 4.66602C18.0996 4.66602 19.5506 6.11702 19.5506 7.90702C19.5506 9.69802 18.0996 11.149 16.3096 11.149" stroke="#212121" stroke-width="1.5" stroke-linecap="square"/>
</svg>
