<svg width="24" height="24" viewBox="0 0 24 24" fill="none" xmlns="http://www.w3.org/2000/svg">
<path d="M11.9998 17.0682C11.5858 17.0682 11.2498 16.7322 11.2498 16.3182V14.0972C11.2498 13.6832 11.5858 13.3472 11.9998 13.3472C12.4138 13.3472 12.7498 13.6832 12.7498 14.0972V16.3182C12.7498 16.7322 12.4138 17.0682 11.9998 17.0682Z" fill="#212121"/>
<path fill-rule="evenodd" clip-rule="evenodd" d="M8.17944 8.37371V7.19238C8.22244 5.11538 9.87744 3.46738 11.9494 3.44238H11.9964C13.6664 3.44238 15.1604 4.54738 15.6404 6.14538C15.7604 6.54038 16.1764 6.76738 16.5754 6.64838C16.9714 6.52938 17.1974 6.11038 17.0774 5.71338C16.4084 3.48438 14.3254 1.94238 11.9964 1.94238H11.9304C9.04544 1.97738 6.73944 4.27038 6.67944 7.17638V8.87115C4.48981 9.87366 3.59009 11.82 3.59009 15.0364C3.59009 20.1554 5.86909 22.0584 12.0001 22.0584C18.1311 22.0584 20.4101 20.1554 20.4101 15.0364C20.4101 9.91738 18.1311 8.01538 12.0001 8.01538C10.5051 8.01538 9.23917 8.12847 8.17944 8.37371ZM7.60135 10.0756C7.65956 10.0619 7.71517 10.0414 7.76728 10.0151C8.79743 9.65832 10.1788 9.51538 12.0001 9.51538C17.3601 9.51538 18.9101 10.7534 18.9101 15.0364C18.9101 19.3204 17.3601 20.5584 12.0001 20.5584C6.64009 20.5584 5.09009 19.3204 5.09009 15.0364C5.09009 12.2883 5.72819 10.7938 7.60135 10.0756Z" fill="#212121"/>
</svg>
