<svg width="24" height="24" viewBox="0 0 24 24" fill="none" xmlns="http://www.w3.org/2000/svg">
<path fill-rule="evenodd" clip-rule="evenodd" d="M9.87628 11.9859H9.90828C12.8213 11.9859 15.1913 9.6159 15.1913 6.7029C15.1913 3.7899 12.8213 1.4209 9.90828 1.4209C6.99528 1.4209 4.62528 3.7899 4.62528 6.6999C4.61528 9.6049 6.96928 11.9769 9.87628 11.9859ZM6.12528 6.7029C6.12528 4.6169 7.82228 2.9209 9.90828 2.9209C11.9943 2.9209 13.6913 4.6169 13.6913 6.7029C13.6913 8.7889 11.9943 10.4859 9.90828 10.4859H9.87928C7.80228 10.4799 6.11828 8.7829 6.12528 6.7029Z" fill="#212121"/>
<path fill-rule="evenodd" clip-rule="evenodd" d="M2.08667 18.9413C2.08667 22.2013 6.55067 22.5783 9.90867 22.5783C11.8437 22.5783 17.7307 22.5783 17.7307 18.9213C17.7307 16.1343 14.1487 13.7803 9.90867 13.7803C5.66867 13.7803 2.08667 16.1433 2.08667 18.9413ZM3.58667 18.9413C3.58667 17.2133 6.29067 15.2803 9.90867 15.2803C13.5267 15.2803 16.2307 17.2023 16.2307 18.9213C16.2307 20.3523 14.1037 21.0783 9.90867 21.0783C5.71367 21.0783 3.58667 20.3593 3.58667 18.9413Z" fill="#212121"/>
<path d="M19.1165 12.9092C18.7025 12.9092 18.3665 12.5732 18.3665 12.1592V10.9043H17.0735C16.6595 10.9043 16.3235 10.5683 16.3235 10.1543C16.3235 9.7403 16.6595 9.4043 17.0735 9.4043H18.3665V8.14917C18.3665 7.73517 18.7025 7.39917 19.1165 7.39917C19.5305 7.39917 19.8665 7.73517 19.8665 8.14917V9.4043H21.1635C21.5775 9.4043 21.9135 9.7403 21.9135 10.1543C21.9135 10.5683 21.5775 10.9043 21.1635 10.9043H19.8665V12.1592C19.8665 12.5732 19.5305 12.9092 19.1165 12.9092Z" fill="#212121"/>
</svg>
