<svg width="24" height="24" viewBox="0 0 24 24" fill="none" xmlns="http://www.w3.org/2000/svg">
<path fill-rule="evenodd" clip-rule="evenodd" d="M13.214 4.87683C9.54177 5.88792 5.71936 7.24573 4.05338 8.20738C3.65544 8.4371 3.56757 8.59036 3.55188 8.6241C3.55928 8.65 3.58827 8.7122 3.68936 8.81942C3.87466 9.01595 4.20112 9.24645 4.67149 9.49411C5.1318 9.73647 5.68563 9.97252 6.28641 10.1959C7.4877 10.6425 8.82586 11.0197 9.87219 11.2866C10.3935 11.4196 10.8385 11.5242 11.1526 11.5954C11.3095 11.631 11.4336 11.6582 11.518 11.6765L11.614 11.697L11.6379 11.702L11.6449 11.7035C11.9378 11.7641 12.167 11.9931 12.2276 12.286L12.2291 12.2932L12.2341 12.3172L12.2546 12.4131C12.2729 12.4975 12.3001 12.6216 12.3357 12.7786C12.407 13.0926 12.5116 13.5376 12.6445 14.0589C12.9114 15.1053 13.2887 16.4434 13.7352 17.6447C13.9586 18.2455 14.1946 18.7993 14.437 19.2596C14.6847 19.73 14.9152 20.0565 15.1117 20.2417C15.2189 20.3428 15.2811 20.3718 15.307 20.3792C15.3408 20.3635 15.494 20.2757 15.7237 19.8777C16.6854 18.2118 18.0432 14.3893 19.0543 10.7171C19.5564 8.89343 19.9637 7.14034 20.1896 5.74909C20.3028 5.05178 20.3675 4.46341 20.3793 4.01107C20.3841 3.83074 20.3801 3.6814 20.3697 3.56143C20.2497 3.55103 20.1004 3.54706 19.92 3.55178C19.4677 3.56362 18.8793 3.62828 18.182 3.74151C16.7908 3.96744 15.0377 4.37472 13.214 4.87683ZM15.3213 20.3811C15.3214 20.3816 15.3181 20.3819 15.3112 20.3803C15.3177 20.3797 15.3212 20.3805 15.3213 20.3811ZM10.8633 13.0679C10.8493 13.0647 10.8352 13.0615 10.8207 13.0582C10.4961 12.9846 10.0379 12.8769 9.50145 12.74C8.43222 12.4673 7.03634 12.075 5.76371 11.6018C5.12753 11.3653 4.50943 11.104 3.97267 10.8214C3.44596 10.5441 2.95021 10.222 2.59796 9.84842C2.24692 9.47609 1.93519 8.93294 2.08966 8.28372C2.23298 7.68136 2.72525 7.24207 3.30348 6.90828C5.14965 5.84263 9.13531 4.44401 12.8158 3.43064C14.6685 2.92053 16.478 2.49858 17.9416 2.26091C18.6717 2.14234 19.3338 2.06661 19.8808 2.05229C20.1543 2.04513 20.4138 2.05286 20.6467 2.08281C20.8706 2.11159 21.1184 2.16661 21.3381 2.2836C21.4697 2.35369 21.5774 2.46142 21.6475 2.59302C21.7645 2.81269 21.8195 3.06047 21.8483 3.2844C21.8783 3.51733 21.886 3.77679 21.8788 4.05031C21.8645 4.59729 21.7888 5.25941 21.6702 5.98952C21.4325 7.45311 21.0106 9.26257 20.5005 11.1153C19.4871 14.7958 18.0885 18.7814 17.0228 20.6276C16.6891 21.2058 16.2498 21.6981 15.6474 21.8415C14.9982 21.9959 14.455 21.6842 14.0827 21.3332C13.7091 20.9809 13.387 20.4852 13.1097 19.9584C12.8271 19.4217 12.5658 18.8036 12.3293 18.1674C11.8561 16.8948 11.4638 15.4989 11.1911 14.4297C11.0542 13.8932 10.9465 13.435 10.8729 13.1104C10.8696 13.0959 10.8664 13.0818 10.8633 13.0679ZM3.55002 8.60982C3.55057 8.60991 3.55137 8.61337 3.55079 8.6199C3.54918 8.61299 3.54947 8.60972 3.55002 8.60982Z" fill="#212121"/>
<path fill-rule="evenodd" clip-rule="evenodd" d="M21.5159 2.41498C21.8088 2.70788 21.8088 3.18275 21.5159 3.47564L12.0235 12.968C11.7306 13.2609 11.2557 13.2609 10.9628 12.968C10.6699 12.6751 10.6699 12.2003 10.9628 11.9074L20.4552 2.41498C20.7481 2.12209 21.223 2.12209 21.5159 2.41498Z" fill="#212121"/>
</svg>
