<svg width="25" height="25" viewBox="0 0 25 25" fill="none" xmlns="http://www.w3.org/2000/svg">
<path fill-rule="evenodd" clip-rule="evenodd" d="M17.1939 17.2315H17.0919C16.6779 17.2315 16.3419 16.8955 16.3419 16.4815C16.3419 16.0675 16.6779 15.7315 17.0919 15.7315H17.1939C17.6079 15.7315 17.9439 16.0675 17.9439 16.4815C17.9439 16.8955 17.6079 17.2315 17.1939 17.2315ZM15.4629 13.8195H15.3609C14.9469 13.8195 14.6109 13.4835 14.6109 13.0695C14.6109 12.6555 14.9469 12.3195 15.3609 12.3195H15.4629C15.8769 12.3195 16.2129 12.6555 16.2129 13.0695C16.2129 13.4835 15.8769 13.8195 15.4629 13.8195ZM11.0649 15.4985H9.9909V16.5365C9.9909 16.9505 9.6549 17.2865 9.2409 17.2865C8.8269 17.2865 8.4909 16.9505 8.4909 16.5365V15.4985H7.4169C7.0029 15.4985 6.6669 15.1625 6.6669 14.7485C6.6669 14.3345 7.0029 13.9985 7.4169 13.9985H8.4909V12.9605C8.4909 12.5465 8.8269 12.2105 9.2409 12.2105C9.6549 12.2105 9.9909 12.5465 9.9909 12.9605V13.9985H11.0649C11.4789 13.9985 11.8149 14.3345 11.8149 14.7485C11.8149 15.1625 11.4789 15.4985 11.0649 15.4985ZM13.5839 6.90453V6.36153C13.5639 4.85253 12.3399 3.59753 10.8139 3.64453H9.7929C9.6499 3.64453 9.5149 3.58953 9.4129 3.48953C9.3089 3.38753 9.2519 3.25253 9.2499 3.10753C9.2459 2.69253 8.8899 2.33953 8.4929 2.36453C8.0789 2.36853 7.7459 2.70753 7.7499 3.12153C7.7609 4.24153 8.6749 5.14453 9.7859 5.14453H10.8279C11.5119 5.14453 12.0749 5.69853 12.0839 6.37253V6.88353C4.7969 6.91553 2.2019 8.99553 2.2019 14.7935C2.2019 20.6355 4.8319 22.7075 12.2509 22.7075C19.6689 22.7075 22.2979 20.6355 22.2979 14.7935C22.2979 9.31453 19.9869 7.15253 13.5839 6.90453Z" fill="#212121"/>
</svg>
