<svg width="24" height="24" viewBox="0 0 24 24" fill="none" xmlns="http://www.w3.org/2000/svg">
<path fill-rule="evenodd" clip-rule="evenodd" d="M11.9612 13.1387C12.3754 13.1387 12.7112 13.4745 12.7112 13.8887V16.5167C12.7112 16.9309 12.3754 17.2667 11.9612 17.2667C11.547 17.2667 11.2112 16.9309 11.2112 16.5167V13.8887C11.2112 13.4745 11.547 13.1387 11.9612 13.1387Z" fill="#212121"/>
<path fill-rule="evenodd" clip-rule="evenodd" d="M2.21816 11.0475C2.4557 10.7082 2.92334 10.6256 3.26268 10.8632L3.27447 10.8714C5.56289 12.2763 8.60547 13.1416 11.9566 13.1416C15.3056 13.1416 18.355 12.2775 20.6437 10.8745L20.6497 10.8702C20.9852 10.6272 21.4541 10.7022 21.697 11.0377C21.94 11.3732 21.865 11.8421 21.5295 12.0851L21.5005 12.1061C21.4854 12.117 21.4698 12.1274 21.454 12.1372C18.9012 13.7097 15.5641 14.6416 11.9566 14.6416C8.34869 14.6416 5.0206 13.7095 2.4691 12.1371C2.45666 12.1294 2.44445 12.1214 2.43249 12.113L2.40249 12.092C2.06315 11.8545 1.98062 11.3868 2.21816 11.0475Z" fill="#212121"/>
<path fill-rule="evenodd" clip-rule="evenodd" d="M5.26404 7.50205C4.07205 8.5636 3.50024 10.3336 3.50024 13.3505C3.50024 16.3674 4.07205 18.1373 5.26404 19.1989C6.48242 20.2839 8.53513 20.8035 11.9612 20.8035C15.3879 20.8035 17.4406 20.2839 18.6588 19.1989C19.8507 18.1374 20.4222 16.3674 20.4222 13.3505C20.4222 10.3335 19.8507 8.56355 18.6588 7.50203C17.4406 6.41701 15.3879 5.89746 11.9612 5.89746C8.53513 5.89746 6.48242 6.417 5.26404 7.50205ZM4.26645 6.38187C5.92657 4.90342 8.47936 4.39746 11.9612 4.39746C15.4436 4.39746 17.9964 4.90341 19.6564 6.38189C21.3428 7.88387 21.9222 10.2154 21.9222 13.3505C21.9222 16.4855 21.3428 18.8171 19.6564 20.319C17.9964 21.7975 15.4436 22.3035 11.9612 22.3035C8.47936 22.3035 5.92657 21.7975 4.26645 20.3191C2.57994 18.8171 2.00024 16.4856 2.00024 13.3505C2.00024 10.2154 2.57994 7.88382 4.26645 6.38187Z" fill="#212121"/>
<path fill-rule="evenodd" clip-rule="evenodd" d="M7.94873 4.7392C7.94873 3.13717 9.13523 1.7002 10.7587 1.7002H13.1637C14.7872 1.7002 15.9737 3.13717 15.9737 4.7392V5.3692C15.9737 5.78341 15.6379 6.11919 15.2237 6.11919C14.8095 6.11919 14.4737 5.78341 14.4737 5.3692V4.7392C14.4737 3.81322 13.8142 3.2002 13.1637 3.2002H10.7587C10.1082 3.2002 9.44873 3.81322 9.44873 4.7392V5.3692C9.44873 5.78341 9.11294 6.11919 8.69873 6.11919C8.28452 6.11919 7.94873 5.78341 7.94873 5.3692V4.7392Z" fill="#212121"/>
</svg>
