<svg width="24" height="24" viewBox="0 0 24 24" fill="none" xmlns="http://www.w3.org/2000/svg">
<path d="M18.684 13.805C18.746 13.693 18.774 13.571 18.774 13.451C18.774 13.183 18.631 12.926 18.38 12.79C18.015 12.594 17.56 12.729 17.364 13.094C16.349 14.9752 14.3574 17.8049 12.7498 18.5595L12.7498 4.49951C12.7498 4.08551 12.4138 3.74951 11.9998 3.74951C11.5858 3.74951 11.2498 4.08551 11.2498 4.49951L11.2498 18.5579C9.6406 17.8009 7.65019 14.9739 6.63505 13.094C6.43805 12.729 5.98405 12.594 5.61905 12.79C5.25505 12.987 5.12005 13.444 5.31505 13.805C5.67005 14.466 8.87905 20.25 12.002 20.25C15.121 20.25 18.329 14.466 18.684 13.805Z" fill="#212121"/>
</svg>
