<svg width="24" height="24" viewBox="0 0 24 24" fill="none" xmlns="http://www.w3.org/2000/svg">
<path fill-rule="evenodd" clip-rule="evenodd" d="M14.8624 6.95968C14.4094 6.77168 13.9264 6.60568 13.4964 6.60568C13.1874 6.60568 12.9064 6.69068 12.6834 6.91468C12.2198 7.38009 11.9627 9.23873 11.9121 11.2495L3.69526 11.2495C3.28126 11.2495 2.94526 11.5855 2.94526 11.9995C2.94526 12.4135 3.28126 12.7495 3.69526 12.7495L11.9125 12.7495C11.9639 14.756 12.2212 16.6086 12.6844 17.0727C13.2484 17.6357 14.1814 17.3487 14.9344 17.0387C16.5074 16.3877 21.0544 13.6407 21.0544 11.9927C21.0544 10.2917 16.3044 7.55668 14.8624 6.95968ZM13.6844 8.12468C14.9804 8.36468 19.0474 11.0357 19.5334 11.9947C19.0494 12.9907 14.9814 15.6857 13.7084 15.8837C13.2954 14.6297 13.3024 9.32668 13.6844 8.12468Z" fill="#212121"/>
</svg>
