<svg width="25" height="25" viewBox="0 0 25 25" fill="none" xmlns="http://www.w3.org/2000/svg">
<path fill-rule="evenodd" clip-rule="evenodd" d="M14.8608 2.35933C14.4478 2.30733 14.0778 2.61033 14.0328 3.02133C13.9868 3.43333 14.2838 3.80333 14.6948 3.84933C18.0718 4.22433 20.6938 6.84433 21.0728 10.2203C21.1158 10.6033 21.4398 10.8863 21.8168 10.8863C21.8448 10.8863 21.8738 10.8843 21.9018 10.8813C22.3128 10.8363 22.6088 10.4643 22.5628 10.0523C22.1058 5.97633 18.9388 2.81233 14.8608 2.35933Z" fill="#212121"/>
<path fill-rule="evenodd" clip-rule="evenodd" d="M17.5415 10.2909C17.6115 10.6489 17.9255 10.8969 18.2765 10.8969C18.3245 10.8969 18.3725 10.8929 18.4215 10.8839C18.8275 10.8049 19.0935 10.4099 19.0145 10.0039C18.6075 7.92192 17.0005 6.31492 14.9205 5.91092C14.5235 5.83192 14.1205 6.09792 14.0415 6.50492C13.9625 6.91092 14.2285 7.30492 14.6355 7.38392C16.1115 7.67092 17.2535 8.81192 17.5415 10.2909Z" fill="#212121"/>
<path fill-rule="evenodd" clip-rule="evenodd" d="M15.7759 14.4511C14.7779 14.9371 13.9139 15.3591 11.6669 13.1121C9.42088 10.8651 9.84088 10.0021 10.3279 9.00314C11.0329 7.55514 11.3179 6.23814 8.11588 3.60114C7.35088 2.97614 6.52088 2.73614 5.65388 2.90414C3.82088 3.24714 2.52588 5.28714 2.52788 5.28714C1.71588 6.42314 0.603876 9.83914 7.77088 17.0071C12.4849 21.7221 15.5769 22.8531 17.4529 22.8531C18.4289 22.8531 19.0759 22.5471 19.4499 22.2781C19.4699 22.2661 21.5279 20.9911 21.8759 19.1221C22.0379 18.2531 21.8019 17.4261 21.1759 16.6611C18.5399 13.4621 17.2229 13.7461 15.7759 14.4511Z" fill="#212121"/>
</svg>
