<svg width="25" height="24" viewBox="0 0 25 24" fill="none" xmlns="http://www.w3.org/2000/svg">
<path fill-rule="evenodd" clip-rule="evenodd" d="M12.25 15.9369C10.079 15.9369 8.31298 14.1709 8.31298 11.9999C8.31298 9.82895 10.079 8.06195 12.25 8.06195C14.421 8.06195 16.188 9.82895 16.188 11.9999C16.188 14.1709 14.421 15.9369 12.25 15.9369ZM21.968 9.12695L19.168 8.00695L19.598 5.01995L14.622 2.14795L12.251 4.01395L9.87898 2.14795L4.90298 5.01995L5.33298 8.00695L2.53198 9.12695V14.8729L5.33398 15.9939L4.90398 18.9789L9.87998 21.8519L12.251 19.9869L14.621 21.8519L19.597 18.9789L19.167 15.9929L21.968 14.8729V9.12695Z" fill="#212121"/>
</svg>
