<svg width="25" height="25" viewBox="0 0 25 25" fill="none" xmlns="http://www.w3.org/2000/svg">
<path fill-rule="evenodd" clip-rule="evenodd" d="M6.71406 14.286H6.73406C6.86606 14.286 6.99306 14.233 7.08706 14.14L10.5901 10.636C10.7191 10.507 10.7681 10.317 10.7161 10.141C10.5101 9.43798 10.7491 8.94698 11.0261 8.37998C11.7291 6.93198 12.0131 5.61498 8.81106 2.97298C8.04606 2.34798 7.21406 2.11598 6.34506 2.27898C4.49906 2.62998 3.22306 4.66498 3.22506 4.66498C2.38806 5.84798 1.68306 8.64998 6.35406 14.111C6.44406 14.217 6.57506 14.28 6.71406 14.286Z" fill="#212121"/>
<path fill-rule="evenodd" clip-rule="evenodd" d="M21.8743 16.037C19.2393 12.841 17.9233 13.126 16.4733 13.83C15.5573 14.277 14.7593 14.663 12.9063 13.007L21.6543 4.25902C21.9473 3.96602 21.9473 3.49102 21.6543 3.19802C21.3613 2.90502 20.8873 2.90502 20.5943 3.19802L2.09426 21.698C1.80126 21.991 1.80126 22.466 2.09426 22.759C2.24026 22.905 2.43226 22.978 2.62426 22.978C2.81626 22.978 3.00826 22.905 3.15426 22.759L9.00826 16.905C13.4253 21.176 16.3513 22.232 18.1483 22.232C19.1283 22.232 19.7723 21.922 20.1433 21.652C20.1633 21.641 22.2303 20.36 22.5763 18.498C22.7373 17.63 22.5013 16.803 21.8743 16.037Z" fill="#212121"/>
</svg>
