<svg width="25" height="25" viewBox="0 0 25 25" fill="none" xmlns="http://www.w3.org/2000/svg">
<path d="M13.8291 11.7097H17.9986V10.2142H13.8291V11.7097Z" fill="#212121"/>
<path fill-rule="evenodd" clip-rule="evenodd" d="M2.20162 3.2939C2.1893 3.32612 2.18481 3.66768 2.19174 4.05297L2.2043 4.75348L4.71824 4.77759L4.73954 4.87883C4.75128 4.93452 5.03812 7.76368 5.37694 11.1659C5.71575 14.5681 6.00154 17.3772 6.01201 17.4083C6.04002 17.4916 20.8023 17.4916 20.8305 17.4083C20.8411 17.3772 21.1675 14.9249 21.5558 11.9589C21.9442 8.99291 22.273 6.51007 22.2866 6.44155L22.3113 6.31692H6.40499L6.37771 6.10167C6.36276 5.98325 6.29935 5.3562 6.23686 4.70816C6.17431 4.06013 6.11235 3.46361 6.09916 3.38263L6.0751 3.23535H4.1496C2.61767 3.23535 2.21952 3.24732 2.20162 3.2939ZM20.5582 8.05031C20.5416 8.18114 20.3004 10.0114 20.0223 12.1175L19.5167 15.9468L13.4537 15.9584C8.62626 15.9675 7.38692 15.9583 7.3716 15.913C7.36104 15.8818 7.17799 14.1024 6.96489 11.9589C6.75174 9.81542 6.56774 8.00554 6.556 7.93702L6.5347 7.81239H20.5884L20.5582 8.05031Z" fill="#212121"/>
<path d="M7.52007 19.339C6.57875 19.602 6.26844 20.7781 6.95836 21.4679C7.15261 21.6621 7.37642 21.7765 7.63822 21.8145C7.71029 21.8272 7.78445 21.8339 7.86017 21.8339C7.98635 21.8339 8.10823 21.8154 8.22328 21.7812C8.38474 21.7373 8.5269 21.663 8.65035 21.558C8.94242 21.3254 9.12963 20.9668 9.12963 20.5644C9.12963 19.8633 8.56127 19.2949 7.86017 19.2949C7.81396 19.2949 7.76834 19.2974 7.72341 19.3022C7.65487 19.3082 7.58682 19.3204 7.52007 19.339Z" fill="#212121"/>
<path d="M18.7247 19.2949C18.9771 19.2949 19.2123 19.3686 19.41 19.4956C19.5061 19.5518 19.5896 19.6186 19.6529 19.6939C19.6715 19.716 19.6891 19.7376 19.7058 19.7587C19.7516 19.8145 19.7928 19.8742 19.8287 19.9373C19.8417 19.9599 19.8537 19.9825 19.8646 20.0051C19.9476 20.1738 19.9941 20.3637 19.9941 20.5644C19.9941 20.7254 19.9642 20.8794 19.9095 21.0211C19.8735 21.1301 19.8191 21.2271 19.7412 21.3249C19.5228 21.6164 19.1819 21.8109 18.7949 21.8319C18.3922 21.8553 17.9826 21.6899 17.7225 21.3458C17.5287 21.0894 17.4548 20.8719 17.4548 20.5583C17.4548 20.1216 17.6665 19.7405 18.0157 19.5112C18.2181 19.3746 18.4621 19.2949 18.7247 19.2949Z" fill="#212121"/>
</svg>
