<svg width="25" height="25" viewBox="0 0 25 25" fill="none" xmlns="http://www.w3.org/2000/svg">
<g opacity="0.4">
<path fill-rule="evenodd" clip-rule="evenodd" d="M10.7347 16.8476H4.26172C3.70972 16.8476 3.26172 17.2946 3.26172 17.8476C3.26172 18.4006 3.70972 18.8476 4.26172 18.8476H10.7347C11.2867 18.8476 11.7347 18.4006 11.7347 17.8476C11.7347 17.2946 11.2867 16.8476 10.7347 16.8476Z" fill="#212121"/>
<path fill-rule="evenodd" clip-rule="evenodd" d="M20.2386 6.3584H13.7676C13.2156 6.3584 12.7676 6.8054 12.7676 7.3584C12.7676 7.9114 13.2156 8.3584 13.7676 8.3584H20.2386C20.7906 8.3584 21.2386 7.9114 21.2386 7.3584C21.2386 6.8054 20.7906 6.3584 20.2386 6.3584Z" fill="#212121"/>
</g>
<path fill-rule="evenodd" clip-rule="evenodd" d="M17.5174 14.6266C15.1994 14.6266 14.2954 15.5296 14.2954 17.8486C14.2954 20.1676 15.1994 21.0706 17.5174 21.0706C19.8364 21.0706 20.7394 20.1676 20.7394 17.8486C20.7394 15.5296 19.8364 14.6266 17.5174 14.6266Z" fill="#212121"/>
<path fill-rule="evenodd" clip-rule="evenodd" d="M6.98372 10.5797C9.30272 10.5797 10.2057 9.67674 10.2057 7.35674C10.2057 5.03874 9.30272 4.13574 6.98372 4.13574C4.66472 4.13574 3.76172 5.03874 3.76172 7.35674C3.76172 9.67674 4.66472 10.5797 6.98372 10.5797Z" fill="#212121"/>
</svg>
