<svg width="24" height="24" viewBox="0 0 24 24" fill="none" xmlns="http://www.w3.org/2000/svg">
<path d="M13.02 10.8923H15.793C16.207 10.8923 16.543 10.5563 16.543 10.1423C16.543 9.72827 16.207 9.39227 15.793 9.39227H13.02C12.605 9.39227 12.27 9.72827 12.27 10.1423C12.27 10.5563 12.605 10.8923 13.02 10.8923Z" fill="#212121"/>
<path fill-rule="evenodd" clip-rule="evenodd" d="M12.3318 17.8026C12.5808 17.8096 12.8358 17.8136 13.0978 17.8136C15.0608 17.8136 17.3148 17.5826 18.8778 16.3676C20.5978 15.0306 21.7528 11.8946 21.4518 9.37558C21.2518 7.69858 20.4158 6.44858 19.0988 5.85558C18.1458 5.42558 17.1168 5.45858 16.2108 5.48958L16.2018 5.48989C16.0269 5.49579 15.8539 5.50162 15.6828 5.50358C14.6048 5.51758 13.5258 5.55058 12.4468 5.58858C10.4218 5.66044 8.39777 5.75621 6.37274 5.85202L6.36084 5.85258L6.31684 5.85458C6.31784 5.70258 6.31684 5.55258 6.31384 5.40558C6.36784 3.35358 4.58184 2.54258 3.62984 2.40058C3.22584 2.33658 2.83884 2.62158 2.77684 3.03158C2.71684 3.44158 2.99884 3.82258 3.40884 3.88358C3.46784 3.89258 4.84784 4.11358 4.81384 5.40358C4.83484 6.27158 4.76084 7.25059 4.68184 8.28658L4.68172 8.28826C4.45275 11.3079 4.19326 14.7299 6.45384 16.3396C8.15084 17.5486 10.4868 17.7566 12.3318 17.8026ZM6.18563 8.29865C6.20999 7.97978 6.23396 7.66596 6.25384 7.35958L6.43284 7.35158C8.45484 7.25558 10.4778 7.15958 12.4998 7.08758C13.5668 7.04958 14.6358 7.01758 15.7018 7.00358C15.8819 7.00065 16.0639 6.99484 16.2478 6.98897L16.2598 6.98858L16.2781 6.98802C17.0864 6.96321 17.8516 6.93972 18.4828 7.22358C19.3258 7.60258 19.8228 8.38658 19.9628 9.55258C20.1988 11.5386 19.2628 14.1696 17.9578 15.1826C16.5458 16.2806 14.0948 16.3496 12.3698 16.3036C10.7378 16.2626 8.69084 16.0906 7.32484 15.1186C5.75284 13.9986 5.96884 11.1526 6.17784 8.40058L6.18563 8.29865Z" fill="#212121"/>
<path d="M5.98816 20.3131C5.98816 21.0271 6.56916 21.6081 7.28416 21.6081C7.99816 21.6081 8.57816 21.0271 8.57816 20.3131C8.57816 19.6001 7.99816 19.0191 7.28416 19.0191C6.56916 19.0191 5.98816 19.6001 5.98816 20.3131Z" fill="#212121"/>
<path d="M16.3203 20.3131C16.3203 21.0271 16.9013 21.6081 17.6153 21.6081C18.3293 21.6081 18.9103 21.0271 18.9103 20.3131C18.9103 19.6001 18.3293 19.0191 17.6153 19.0191C16.9013 19.0191 16.3203 19.6001 16.3203 20.3131Z" fill="#212121"/>
</svg>
