<svg width="25" height="24" viewBox="0 0 25 24" fill="none" xmlns="http://www.w3.org/2000/svg">
<path d="M9.76408 14.7071C12.8915 14.6991 15.5507 16.135 16.5282 19.2261C14.558 20.4272 12.2389 20.8898 9.76408 20.8837C7.28921 20.8898 4.97016 20.4272 3 19.2261C3.97857 16.1317 6.63327 14.6991 9.76408 14.7071Z" stroke="#212121" stroke-width="1.5" stroke-linecap="square"/>
<path opacity="0.4" d="M16.3352 18.2326C18.225 18.2372 19.9958 17.884 21.5002 16.9669C20.7539 14.6065 18.7233 13.51 16.3352 13.5161C14.8309 13.5123 13.4705 13.944 12.4824 14.8534" stroke="#212121" stroke-width="1.5" stroke-linecap="square"/>
<circle cx="9.76421" cy="7.35259" r="4.23687" stroke="#212121" stroke-width="1.5" stroke-linecap="square"/>
<path opacity="0.4" d="M13.9643 5.67014C14.5546 5.05148 15.3871 4.66602 16.3097 4.66602C18.0998 4.66602 19.551 6.11718 19.551 7.90729C19.551 9.69739 18.0998 11.1486 16.3097 11.1486C15.2154 11.1486 14.2478 10.6063 13.6609 9.77575" stroke="#212121" stroke-width="1.5" stroke-linecap="square"/>
</svg>
