<svg width="25" height="25" viewBox="0 0 25 25" fill="none" xmlns="http://www.w3.org/2000/svg">
<path fill-rule="evenodd" clip-rule="evenodd" d="M9.088 7.12652C10.334 7.12652 11.349 8.14151 11.349 9.38752C11.349 10.6335 10.334 11.6475 9.088 11.6475C7.842 11.6475 6.827 10.6335 6.827 9.38752C6.827 8.14151 7.842 7.12652 9.088 7.12652ZM6.726 15.2295C7.911 14.6735 8.869 15.0175 9.796 15.3515C10.495 15.6035 11.219 15.8635 12.22 15.8635C12.998 15.8635 13.457 15.1765 14.12 14.0425C14.78 12.9155 15.601 11.5125 17.259 11.5125C19.563 11.5125 20.991 12.9655 21.959 14.0365C21.984 13.5785 22 13.1045 22 12.6035C22 5.40452 19.448 2.85352 12.25 2.85352C5.052 2.85352 2.5 5.40452 2.5 12.6035C2.5 15.2885 2.856 17.3265 3.676 18.8275C4.192 17.8105 5.314 15.8925 6.726 15.2295Z" fill="#212121"/>
<path fill-rule="evenodd" clip-rule="evenodd" d="M21.4815 15.7349C21.3345 15.5839 21.1785 15.4109 21.0115 15.2239C20.1275 14.2389 19.0265 13.0119 17.2585 13.0119C16.5145 13.0119 16.0655 13.6879 15.4155 14.7999C14.7465 15.9429 13.9155 17.3639 12.2195 17.3639C10.9565 17.3639 10.0315 17.0309 9.2875 16.7619C8.4115 16.4459 7.9595 16.3059 7.3645 16.5869C6.2325 17.1189 5.0965 19.2649 4.7545 20.0469C4.7345 20.0949 4.7035 20.1339 4.6745 20.1759C6.2115 21.7149 8.6495 22.3529 12.2505 22.3529C18.2095 22.3529 20.9775 20.5949 21.7565 15.9089C21.6555 15.8709 21.5615 15.8169 21.4815 15.7349Z" fill="#212121"/>
</svg>
