<svg width="24" height="24" viewBox="0 0 24 24" fill="none" xmlns="http://www.w3.org/2000/svg">
<path fill-rule="evenodd" clip-rule="evenodd" d="M17.48 19.7686C17.781 19.7686 18.025 20.0126 18.025 20.3126C18.025 20.6136 17.781 20.8576 17.48 20.8576C17.18 20.8576 16.936 20.6136 16.936 20.3126C16.936 20.0126 17.18 19.7686 17.48 19.7686Z" fill="#212121"/>
<path opacity="0.4" fill-rule="evenodd" clip-rule="evenodd" d="M17.48 19.7686C17.781 19.7686 18.025 20.0126 18.025 20.3126C18.025 20.6136 17.781 20.8576 17.48 20.8576C17.18 20.8576 16.936 20.6136 16.936 20.3126C16.936 20.0126 17.18 19.7686 17.48 19.7686Z" stroke="#212121" stroke-width="1.5" stroke-linecap="round" stroke-linejoin="round"/>
<path fill-rule="evenodd" clip-rule="evenodd" d="M7.149 19.7686C7.449 19.7686 7.693 20.0126 7.693 20.3126C7.693 20.6136 7.449 20.8576 7.149 20.8576C6.848 20.8576 6.604 20.6136 6.604 20.3126C6.604 20.0126 6.848 19.7686 7.149 19.7686Z" fill="#212121"/>
<path opacity="0.4" fill-rule="evenodd" clip-rule="evenodd" d="M7.149 19.7686C7.449 19.7686 7.693 20.0126 7.693 20.3126C7.693 20.6136 7.449 20.8576 7.149 20.8576C6.848 20.8576 6.604 20.6136 6.604 20.3126C6.604 20.0126 6.848 19.7686 7.149 19.7686Z" stroke="#212121" stroke-width="1.5" stroke-linecap="round" stroke-linejoin="round"/>
<path d="M5.40901 6.6416C7.71901 6.5326 10.028 6.4196 12.339 6.3376C13.412 6.2996 14.485 6.2666 15.558 6.2526C16.583 6.2396 17.693 6.1056 18.656 6.5386C21.959 8.0256 20.566 14.0006 18.283 15.7746C16.692 17.0106 14.148 17.1026 12.217 17.0526C10.425 17.0076 8.26301 16.8026 6.75501 15.7286C4.15601 13.8776 5.51401 8.8336 5.42901 5.3846C5.48001 3.4546 3.38501 3.1416 3.38501 3.1416" stroke="#212121" stroke-width="1.5" stroke-linecap="round" stroke-linejoin="round"/>
<path opacity="0.4" d="M12.885 10.1416H15.658" stroke="#212121" stroke-width="1.5" stroke-linecap="round" stroke-linejoin="round"/>
</svg>
