<svg width="25" height="24" viewBox="0 0 25 24" fill="none" xmlns="http://www.w3.org/2000/svg">
<path fill-rule="evenodd" clip-rule="evenodd" d="M21.985 16.8201C21.225 14.4101 19.185 13.0301 16.385 13.0301H16.345C15.115 13.0301 14.045 13.3001 13.145 13.7901C15.405 14.6101 17.085 16.3001 17.865 18.6501C19.355 18.4901 20.665 18.0701 21.765 17.4001L22.105 17.1901L21.985 16.8201Z" fill="#212121"/>
<path fill-rule="evenodd" clip-rule="evenodd" d="M14.205 10.9901C14.815 11.4201 15.565 11.6801 16.365 11.6801C18.425 11.6801 20.105 10.0001 20.105 7.93012C20.105 5.87012 18.425 4.19012 16.365 4.19012C15.785 4.19012 15.245 4.32012 14.755 4.56012C15.225 5.39012 15.495 6.35012 15.495 7.37012C15.495 8.74012 15.015 10.0001 14.205 10.9901Z" fill="#212121"/>
<path fill-rule="evenodd" clip-rule="evenodd" d="M16.835 18.7201C16.045 16.5701 14.405 15.1101 12.165 14.5201C11.435 14.3201 10.625 14.2201 9.76502 14.2201H9.71502C6.11502 14.2201 3.49502 15.9901 2.51502 19.0801L2.39502 19.4501L2.73502 19.6501C4.63502 20.8201 6.91502 21.3801 9.68502 21.3801H9.73502C12.575 21.3901 14.835 20.8201 16.745 19.6501L17.085 19.4501L16.965 19.0801C16.925 18.9601 16.885 18.8401 16.835 18.7201Z" fill="#212121"/>
<path fill-rule="evenodd" clip-rule="evenodd" d="M9.73499 12.1301C11.255 12.1301 12.605 11.4101 13.475 10.3001C14.115 9.50012 14.495 8.48012 14.495 7.37012C14.495 6.55012 14.285 5.78012 13.925 5.11012C13.115 3.63012 11.545 2.62012 9.73499 2.62012C7.11499 2.62012 4.98499 4.75012 4.98499 7.37012C4.98499 9.99012 7.11499 12.1301 9.73499 12.1301Z" fill="#212121"/>
</svg>
