<svg width="25" height="24" viewBox="0 0 25 24" fill="none" xmlns="http://www.w3.org/2000/svg">
<path fill-rule="evenodd" clip-rule="evenodd" d="M12.25 2C17.7722 2 22.25 6.47673 22.25 12C22.25 17.5222 17.7722 22 12.25 22C6.72779 22 2.25 17.5222 2.25 12C2.25 6.47673 6.72784 2 12.25 2ZM20.75 12C20.75 7.30527 16.9438 3.5 12.25 3.5C7.55616 3.5 3.75 7.30527 3.75 12C3.75 16.6938 7.55621 20.5 12.25 20.5C16.9438 20.5 20.75 16.6938 20.75 12Z" fill="#212121"/>
<path fill-rule="evenodd" clip-rule="evenodd" d="M14.7529 8.53121L11.2692 11.9999L14.7529 15.4686L13.6946 16.5316L9.14332 11.9999L13.6946 7.46826L14.7529 8.53121Z" fill="#212121"/>
</svg>
