<svg width="25" height="25" viewBox="0 0 25 25" fill="none" xmlns="http://www.w3.org/2000/svg">
<path fill-rule="evenodd" clip-rule="evenodd" d="M15.1893 13.0144H15.1433C14.5913 13.0144 14.1433 12.5664 14.1433 12.0144C14.1433 11.4624 14.5913 11.0144 15.1433 11.0144C15.6973 11.0144 16.1663 11.4724 16.1663 12.0144C16.1663 12.5754 15.7373 13.0144 15.1893 13.0144ZM8.7303 6.91143C8.8533 6.18143 9.1913 5.50643 9.7283 4.97443C10.4013 4.30743 11.2933 3.94043 12.2433 3.94043H12.2603C14.0243 3.94043 15.4833 5.22843 15.7703 6.91143C14.7383 6.77243 13.5803 6.69543 12.2503 6.69543C10.9213 6.69543 9.7623 6.77243 8.7303 6.91143ZM9.3583 13.0144H9.3123C8.7613 13.0144 8.3123 12.5664 8.3123 12.0144C8.3123 11.4624 8.7613 11.0144 9.3123 11.0144C9.8673 11.0144 10.3353 11.4724 10.3353 12.0144C10.3353 12.5754 9.9063 13.0144 9.3583 13.0144ZM20.9173 9.24743C20.1773 8.28243 18.9813 7.61243 17.2993 7.19843C17.1343 4.55043 14.9493 2.44043 12.2633 2.44043H12.2403C10.8953 2.44043 9.6283 2.96143 8.6723 3.90943C7.7843 4.78943 7.2833 5.94443 7.2023 7.19843C5.5193 7.61143 4.3233 8.28143 3.5833 9.24743C2.5733 10.5664 2.3983 12.3794 3.0493 14.7914C4.5523 20.3674 5.4343 22.6294 12.2503 22.6294C19.0653 22.6294 19.9473 20.3674 21.4513 14.7914C22.1013 12.3794 21.9273 10.5664 20.9173 9.24743Z" fill="#212121"/>
</svg>
