<svg width="25" height="25" viewBox="0 0 25 25" fill="none" xmlns="http://www.w3.org/2000/svg">
<path fill-rule="evenodd" clip-rule="evenodd" d="M12.254 16.7852C11.84 16.7852 11.499 16.4492 11.499 16.0352C11.499 15.6212 11.831 15.2852 12.245 15.2852H12.254C12.668 15.2852 13.004 15.6212 13.004 16.0352C13.004 16.4492 12.668 16.7852 12.254 16.7852ZM11.5 8.64016C11.5 8.22616 11.836 7.89016 12.25 7.89016C12.664 7.89016 13 8.22616 13 8.64016V12.5352C13 12.9492 12.664 13.2852 12.25 13.2852C11.836 13.2852 11.5 12.9492 11.5 12.5352V8.64016ZM12.25 2.78516C5.052 2.78516 2.5 5.33716 2.5 12.5352C2.5 19.7332 5.052 22.2852 12.25 22.2852C19.448 22.2852 22 19.7332 22 12.5352C22 5.33716 19.448 2.78516 12.25 2.78516Z" fill="#212121"/>
</svg>
