<svg width="25" height="24" viewBox="0 0 25 24" fill="none" xmlns="http://www.w3.org/2000/svg">
<path fill-rule="evenodd" clip-rule="evenodd" d="M21.7684 7.74265C21.3314 5.65665 18.6694 3.09965 16.2894 2.48065C15.1224 2.17565 14.1384 2.40365 13.5184 3.11765C12.6574 4.10965 12.3724 9.55965 13.3764 10.5637C13.7864 10.9737 14.8214 11.1477 16.0134 11.1477C17.9034 11.1477 20.1854 10.7097 20.9944 10.0737C21.6934 9.52365 21.9684 8.69565 21.7684 7.74265Z" fill="#212121"/>
<path fill-rule="evenodd" clip-rule="evenodd" d="M15.3817 12.9722C13.9727 13.0182 12.3777 13.0682 11.6877 12.3782C10.9407 11.6302 10.8827 9.98118 10.8357 8.65518C10.7917 7.40318 10.7567 6.41318 10.2487 5.90618C9.65572 5.31318 8.66472 5.24318 7.53072 5.71118C5.17372 6.68818 2.66772 9.73318 2.66772 13.4512C2.66772 17.9722 6.34672 21.6512 10.8687 21.6512C15.2897 21.6512 17.8627 18.2852 18.6867 16.2972C19.2057 15.0452 19.2137 14.0372 18.7087 13.5342C18.0617 12.8862 16.8177 12.9282 15.3817 12.9722Z" fill="#212121"/>
</svg>
