<svg width="25" height="24" viewBox="0 0 25 24" fill="none" xmlns="http://www.w3.org/2000/svg">
<path opacity="0.4" fill-rule="evenodd" clip-rule="evenodd" d="M17.864 4.65212C16.333 3.07312 14.339 2.20312 12.25 2.20312C10.159 2.20312 8.16502 3.07313 6.63302 4.65313C5.07802 6.25712 4.22402 8.41212 4.29102 10.5661C4.48002 16.6701 11.67 21.4231 11.977 21.6221L12.246 21.7971L12.518 21.6251C12.824 21.4311 20.019 16.7931 20.209 10.5651C20.275 8.41213 19.42 6.25612 17.864 4.65212Z" fill="#212121"/>
<path d="M9.51294 10.759C9.51294 12.268 10.7409 13.495 12.2499 13.495C13.7589 13.495 14.9859 12.268 14.9859 10.759C14.9859 9.24997 13.7589 8.02197 12.2499 8.02197C10.7409 8.02197 9.51294 9.24997 9.51294 10.759Z" fill="#212121"/>
</svg>
