<svg width="24" height="24" viewBox="0 0 24 24" fill="none" xmlns="http://www.w3.org/2000/svg">
<path fill-rule="evenodd" clip-rule="evenodd" d="M19.398 8.42098C18.5435 8.86621 17.5071 9.55489 16.6173 10.2602C16.2927 10.5176 15.821 10.463 15.5637 10.1384C15.3064 9.81385 15.3609 9.34212 15.6855 9.0848C16.6338 8.33302 17.7498 7.58837 18.7048 7.09073C19.1775 6.84447 19.6454 6.64029 20.0517 6.53555C20.2531 6.48364 20.4795 6.44533 20.704 6.45876C20.9262 6.47205 21.234 6.54313 21.4725 6.80038C21.611 6.9494 21.6971 7.12552 21.7533 7.26474C21.8136 7.41431 21.8623 7.58047 21.9028 7.75057C21.9839 8.09103 22.046 8.50543 22.0933 8.95511C22.1882 9.85793 22.2306 10.9735 22.2264 12.0754C22.2222 13.1776 22.1712 14.287 22.0742 15.1783C22.026 15.6221 21.9646 16.0286 21.887 16.3596C21.8484 16.5247 21.8022 16.6859 21.7455 16.8304C21.694 16.9613 21.6111 17.1389 21.4718 17.2883C21.2241 17.5554 20.9016 17.6115 20.6929 17.6176C20.4747 17.624 20.2539 17.5813 20.0577 17.5271C19.6604 17.4172 19.1971 17.2116 18.7249 16.9643C17.771 16.4649 16.6476 15.7246 15.6903 14.9783C15.3636 14.7237 15.3052 14.2524 15.5599 13.9257C15.8145 13.599 16.2858 13.5406 16.6125 13.7953C17.5123 14.4967 18.5603 15.1849 19.4207 15.6355C19.8308 15.8502 20.1695 15.9956 20.4141 16.0688C20.4182 16.0525 20.4224 16.0353 20.4266 16.0174C20.4846 15.7699 20.538 15.4303 20.583 15.0161C20.6727 14.1913 20.7223 13.1365 20.7264 12.0696C20.7305 11.0025 20.689 9.94426 20.6015 9.11196C20.5576 8.69409 20.5038 8.3506 20.4436 8.09828C20.4342 8.05883 20.425 8.02302 20.4161 7.99069C20.1717 8.05513 19.8242 8.19887 19.398 8.42098ZM20.3321 16.3208C20.3321 16.3208 20.3325 16.3201 20.3332 16.3188C20.3325 16.3202 20.3322 16.3208 20.3321 16.3208Z" fill="#212121"/>
<path fill-rule="evenodd" clip-rule="evenodd" d="M4.55499 7.15803C3.69851 8.01725 3.2644 9.482 3.2644 12.0371C3.2644 14.5917 3.69849 16.0565 4.55502 16.9159C5.41083 17.7745 6.86928 18.21 9.41536 18.21C11.9609 18.21 13.4191 17.7745 14.2748 16.9159C15.1313 16.0565 15.5654 14.5917 15.5654 12.0371C15.5654 9.482 15.1313 8.01722 14.2749 7.158C13.4192 6.29949 11.961 5.86426 9.41536 5.86426C6.86919 5.86426 5.41077 6.2995 4.55499 7.15803ZM3.49263 6.09906C4.79328 4.79425 6.78533 4.36426 9.41536 4.36426C12.0449 4.36426 14.0368 4.79426 15.3373 6.09909C16.6371 7.4032 17.0654 9.39985 17.0654 12.0371C17.0654 14.6739 16.6371 16.6705 15.3373 17.9748C14.0368 19.2797 12.045 19.71 9.41536 19.71C6.78524 19.71 4.79322 19.2797 3.4926 17.9748C2.1927 16.6706 1.7644 14.6739 1.7644 12.0371C1.7644 9.39985 2.19268 7.40317 3.49263 6.09906Z" fill="#212121"/>
</svg>
