<svg width="25" height="25" viewBox="0 0 25 25" fill="none" xmlns="http://www.w3.org/2000/svg">
<path fill-rule="evenodd" clip-rule="evenodd" d="M14.6601 13.7198C14.9531 14.0128 14.9531 14.4878 14.6601 14.7808C14.5141 14.9268 14.3221 14.9998 14.1301 14.9998C13.9381 14.9998 13.7461 14.9268 13.5991 14.7808L12.2501 13.4318L10.9011 14.7808C10.7541 14.9268 10.5621 14.9998 10.3701 14.9998C10.1791 14.9998 9.98709 14.9268 9.84009 14.7808C9.54709 14.4878 9.54709 14.0128 9.84009 13.7198L11.1891 12.3708L9.84009 11.0228C9.54709 10.7298 9.54709 10.2548 9.84009 9.96178C10.1331 9.66878 10.6081 9.66878 10.9011 9.96178L12.2501 11.3108L13.5991 9.96178C13.8921 9.66878 14.3671 9.66878 14.6601 9.96178C14.9531 10.2548 14.9531 10.7298 14.6601 11.0228L13.3111 12.3708L14.6601 13.7198ZM19.9381 5.42978C19.3311 4.82278 16.0041 2.67578 12.2501 2.67578C8.49709 2.67578 5.16909 4.82278 4.56209 5.42978C3.98109 6.01078 3.98909 6.46378 4.03409 8.97878C4.05309 9.99778 4.07709 11.3858 4.07709 13.3038C4.07709 19.8238 9.40109 22.5318 12.2501 22.5318C15.1001 22.5318 20.4231 19.8238 20.4231 13.3038C20.4231 11.3868 20.4481 9.99878 20.4661 8.98078C20.5111 6.46378 20.5191 6.01078 19.9381 5.42978Z" fill="#212121"/>
</svg>
