<svg width="24" height="24" viewBox="0 0 24 24" fill="none" xmlns="http://www.w3.org/2000/svg">
<path fill-rule="evenodd" clip-rule="evenodd" d="M5.30371 5.30396C4.08074 6.52693 3.49976 8.5731 3.49976 12C3.49976 15.4269 4.08074 17.4731 5.30371 18.696C6.52668 19.919 8.57285 20.5 11.9998 20.5C15.4267 20.5 17.4728 19.919 18.6958 18.696C19.9188 17.4731 20.4998 15.4269 20.4998 12C20.4998 8.5731 19.9188 6.52693 18.6958 5.30396C17.4728 4.08098 15.4267 3.5 11.9998 3.5C8.57285 3.5 6.52668 4.08098 5.30371 5.30396ZM4.24305 4.24329C5.91083 2.57552 8.48966 2 11.9998 2C15.5099 2 18.0887 2.57552 19.7565 4.24329C21.4242 5.91107 21.9998 8.4899 21.9998 12C21.9998 15.5101 21.4242 18.0889 19.7565 19.7567C18.0887 21.4245 15.5099 22 11.9998 22C8.48966 22 5.91083 21.4245 4.24305 19.7567C2.57527 18.0889 1.99976 15.5101 1.99976 12C1.99976 8.4899 2.57527 5.91107 4.24305 4.24329Z" fill="#212121"/>
<path fill-rule="evenodd" clip-rule="evenodd" d="M11.2454 15.5C11.2454 15.0858 11.5811 14.75 11.9954 14.75H12.0044C12.4186 14.75 12.7544 15.0858 12.7544 15.5C12.7544 15.9142 12.4186 16.25 12.0044 16.25H11.9954C11.5811 16.25 11.2454 15.9142 11.2454 15.5Z" fill="#212121"/>
<path fill-rule="evenodd" clip-rule="evenodd" d="M11.9998 7.35449C12.414 7.35449 12.7498 7.69028 12.7498 8.10449V11.9995C12.7498 12.4137 12.414 12.7495 11.9998 12.7495C11.5855 12.7495 11.2498 12.4137 11.2498 11.9995V8.10449C11.2498 7.69028 11.5855 7.35449 11.9998 7.35449Z" fill="#212121"/>
</svg>
