<svg width="25" height="25" viewBox="0 0 25 25" fill="none" xmlns="http://www.w3.org/2000/svg">
<path opacity="0.4" d="M9.18664 9.20263C9.2273 9.19669 9.26805 9.19113 9.30888 9.186C9.45426 9.16772 9.64701 9.14186 9.87923 9.10964C10.5921 9.03129 11.3806 8.99414 12.2501 8.99414C18.2741 8.99414 20.4101 10.7661 20.4101 15.7651C20.4101 20.7651 18.2741 22.5371 12.2501 22.5371C6.22609 22.5371 4.09009 20.7651 4.09009 15.7651C4.09009 13.0646 4.7166 11.3084 6.23942 10.2632C6.63855 10.0178 7.65058 9.51001 8.79749 9.27172C8.92429 9.24696 9.05399 9.22395 9.18664 9.20263Z" fill="#212121"/>
<path d="M8.43872 9.34792V7.91592C8.47172 5.84192 10.1227 4.19692 12.1987 4.16992C13.2297 4.14192 14.1807 4.54192 14.9097 5.25292C15.6377 5.96392 16.0467 6.91492 16.0587 7.92392V9.34741C16.6189 9.47758 17.1175 9.64585 17.5587 9.85568V7.91492C17.5407 6.49592 16.9727 5.16892 15.9557 4.17892C14.9407 3.18892 13.5867 2.69792 12.1787 2.66992C9.28772 2.70692 6.98572 5.00092 6.93872 7.90492V9.86192L8.43872 9.34792Z" fill="#212121"/>
<path d="M12.9998 17.0472C12.9998 17.4612 12.6638 17.7972 12.2498 17.7972C11.8358 17.7972 11.4998 17.4612 11.4998 17.0472V14.8262C11.4998 14.4122 11.8358 14.0762 12.2498 14.0762C12.6638 14.0762 12.9998 14.4122 12.9998 14.8262V17.0472Z" fill="#212121"/>
</svg>
