<svg width="25" height="25" viewBox="0 0 25 25" fill="none" xmlns="http://www.w3.org/2000/svg">
<path d="M15.143 13.0146H15.189C15.737 13.0146 16.166 12.5756 16.166 12.0146C16.166 11.4726 15.697 11.0146 15.143 11.0146C14.591 11.0146 14.143 11.4626 14.143 12.0146C14.143 12.5666 14.591 13.0146 15.143 13.0146Z" fill="#212121"/>
<path d="M9.31201 13.0146H9.35801C9.90601 13.0146 10.335 12.5756 10.335 12.0146C10.335 11.4726 9.86701 11.0146 9.31201 11.0146C8.76101 11.0146 8.31201 11.4626 8.31201 12.0146C8.31201 12.5666 8.76101 13.0146 9.31201 13.0146Z" fill="#212121"/>
<path opacity="0.4" d="M15.7702 6.91058C16.6963 7.04122 17.5662 7.23438 18.3173 7.50143C18.326 7.50452 18.3347 7.50758 18.3433 7.51063C19.4875 7.92277 20.3408 8.49552 20.9173 9.24731C21.9273 10.5663 22.1013 12.3793 21.4513 14.7913C19.9473 20.3673 19.0653 22.6293 12.2503 22.6293C5.4343 22.6293 4.5523 20.3673 3.0493 14.7913C2.3983 12.3793 2.5733 10.5663 3.5833 9.24731C4.23022 8.40282 5.22563 7.78455 6.59026 7.36644L6.59473 7.37C7.71288 7.01756 9.54972 6.76094 11.5403 6.70289C11.7715 6.69787 12.0081 6.69531 12.2503 6.69531C13.5803 6.69531 14.7382 6.77158 15.7702 6.91058C15.7702 6.91082 15.7701 6.91034 15.7702 6.91058Z" fill="#212121"/>
<path d="M15.77 6.9107C16.6505 7.03491 19.4641 7.7313 17.2991 7.19843C17.1341 4.55043 14.9491 2.44043 12.2631 2.44043H12.2401C10.8951 2.44043 9.62815 2.96143 8.67215 3.90943C7.78415 4.78943 7.28315 5.94443 7.20215 7.19843L8.73015 6.91143C8.85315 6.18143 9.19115 5.50643 9.72815 4.97443C10.4011 4.30743 11.2931 3.94043 12.2431 3.94043H12.2601C14.0239 3.94043 15.4827 5.22806 15.77 6.9107Z" fill="#212121"/>
</svg>
