<svg width="25" height="24" viewBox="0 0 25 24" fill="none" xmlns="http://www.w3.org/2000/svg">
<path fill-rule="evenodd" clip-rule="evenodd" d="M11.2235 5.24121H10.7235C9.08547 5.24121 7.49947 5.72221 6.13747 6.63221C4.77547 7.54221 3.72447 8.82321 3.09747 10.3362C2.47047 11.8492 2.30847 13.4992 2.62847 15.1052C2.94747 16.7132 3.72847 18.1742 4.88747 19.3312C6.04447 20.4892 7.50547 21.2702 9.11247 21.5902C9.64847 21.6972 10.1885 21.7502 10.7275 21.7502C11.8035 21.7502 12.8725 21.5382 13.8815 21.1202C15.3945 20.4932 16.6765 19.4432 17.5855 18.0812C18.4955 16.7192 18.9765 15.1342 18.9765 13.4952V12.9952H11.2235V5.24121Z" fill="#212121"/>
<path fill-rule="evenodd" clip-rule="evenodd" d="M19.6137 4.66651C18.0557 3.10751 15.9827 2.24951 13.7777 2.24951H13.2777V11.0025H22.0317V10.5025C22.0317 8.29851 21.1727 6.22651 19.6137 4.66651Z" fill="#212121"/>
</svg>
