<svg width="25" height="24" viewBox="0 0 25 24" fill="none" xmlns="http://www.w3.org/2000/svg">
<path fill-rule="evenodd" clip-rule="evenodd" d="M9.74033 4.86224C9.74033 4.01324 10.3283 3.32324 11.0503 3.32324H13.4503C14.1723 3.32324 14.7603 4.01324 14.7603 4.86224V4.88624C13.9943 4.80924 13.1603 4.77124 12.2503 4.77124C11.3393 4.77124 10.5053 4.80924 9.74033 4.88624V4.86224ZM2.75633 10.7812C5.36533 12.3892 8.74533 13.2762 12.2703 13.2792C15.7883 13.2762 19.1593 12.3922 21.7663 10.7912C21.2383 7.52824 19.5733 5.79224 16.2603 5.11724V4.86224C16.2603 3.18624 14.9993 1.82324 13.4503 1.82324H11.0503C9.50133 1.82324 8.24033 3.18624 8.24033 4.86224V5.11724C4.93233 5.79124 3.26833 7.52224 2.73633 10.7732C2.74333 10.7772 2.75033 10.7772 2.75633 10.7812Z" fill="#212121"/>
<path opacity="0.4" fill-rule="evenodd" clip-rule="evenodd" d="M13 14.8174V16.9804C13 17.3944 12.664 17.7304 12.25 17.7304C11.836 17.7304 11.5 17.3944 11.5 16.9804V14.8164C8.23904 14.7074 5.12104 13.8934 2.56404 12.4844C2.54904 12.8034 2.54004 13.1314 2.54004 13.4734C2.54004 19.8994 5.08104 22.1764 12.25 22.1764C19.419 22.1764 21.96 19.8994 21.96 13.4734C21.96 13.1394 21.952 12.8184 21.938 12.5074C19.377 13.9084 16.259 14.7144 13 14.8174Z" fill="#212121"/>
</svg>
