<svg width="25" height="24" viewBox="0 0 25 24" fill="none" xmlns="http://www.w3.org/2000/svg">
<path fill-rule="evenodd" clip-rule="evenodd" d="M11.1244 2.37269C9.75305 2.56849 8.03924 3.26153 6.86315 4.09597C6.13091 4.6155 4.91111 5.88296 4.40125 6.65418C3.21594 8.44663 2.61897 10.8298 2.84818 12.8537C3.00486 14.2365 3.59865 16.0699 4.29234 17.3131C4.42543 17.5516 4.53434 17.791 4.53434 17.845C4.53434 17.899 4.02963 18.7517 3.41275 19.74C2.79586 20.7282 2.26499 21.5814 2.23298 21.6359C2.19453 21.7015 4.1536 21.7317 8.03696 21.7251C13.6279 21.7157 13.9381 21.7057 14.7415 21.5084C20.321 20.1381 23.5171 14.5014 21.805 9.05138C20.3865 4.53613 15.8485 1.69848 11.1244 2.37269ZM14.0704 3.89046C17.3791 4.52345 19.9752 7.08989 20.6436 10.3886C20.901 11.6585 20.8056 13.3201 20.4044 14.5539C19.6976 16.7282 18.2606 18.3817 16.1784 19.4171C14.4988 20.2524 14.0595 20.3052 9.04688 20.2745L4.82926 20.2486L5.57546 19.0478L6.32167 17.8469L5.90616 17.1651C5.37539 16.2938 4.91557 15.2337 4.57883 14.105C4.36141 13.3763 4.31117 13.0047 4.30374 12.0736C4.2856 9.77207 5.0113 7.94732 6.60292 6.29271C7.87117 4.97421 9.62521 4.05553 11.3226 3.82089C12.0143 3.72517 13.3887 3.75996 14.0704 3.89046ZM8.10187 12.4246V13.172L8.86988 13.143L9.6379 13.1141L9.66703 12.3957L9.69617 11.6773H8.89902H8.10187V12.4246ZM11.7685 12.4205V13.1636H12.5117H13.255V12.4205V11.6773H12.5117H11.7685V12.4205ZM15.3565 12.3957L15.3856 13.1141L16.1536 13.143L16.9216 13.172V12.4246V11.6773H16.1245H15.3273L15.3565 12.3957Z" fill="#212121"/>
</svg>
