<svg width="25" height="25" viewBox="0 0 25 25" fill="none" xmlns="http://www.w3.org/2000/svg">
<path fill-rule="evenodd" clip-rule="evenodd" d="M15.181 15.4582C15.035 15.6042 14.843 15.6782 14.651 15.6782C14.458 15.6782 14.267 15.6042 14.12 15.4582L12.247 13.5852L10.38 15.4522C10.234 15.5992 10.042 15.6722 9.85 15.6722C9.659 15.6722 9.466 15.5992 9.32 15.4522C9.027 15.1592 9.027 14.6852 9.32 14.3922L11.186 12.5242L9.32 10.6582C9.027 10.3652 9.027 9.89116 9.32 9.59816C9.613 9.30516 10.087 9.30516 10.38 9.59816L12.246 11.4642L14.11 9.60016C14.403 9.30716 14.877 9.30716 15.17 9.60016C15.463 9.89316 15.463 10.3672 15.17 10.6602L13.307 12.5242L15.181 14.3972C15.474 14.6902 15.474 15.1652 15.181 15.4582ZM12.25 2.78516C5.052 2.78516 2.5 5.33716 2.5 12.5352C2.5 19.7332 5.052 22.2852 12.25 22.2852C19.449 22.2852 22 19.7332 22 12.5352C22 5.33716 19.449 2.78516 12.25 2.78516Z" fill="#212121"/>
</svg>
