<svg width="25" height="25" viewBox="0 0 25 25" fill="none" xmlns="http://www.w3.org/2000/svg">
<path fill-rule="evenodd" clip-rule="evenodd" d="M5.94506 11.1155H18.7551C18.3551 7.62551 16.5251 6.33551 12.3551 6.33551C8.18506 6.33551 6.35506 7.62551 5.94506 11.1155Z" fill="#212121"/>
<path fill-rule="evenodd" clip-rule="evenodd" d="M22.8151 12.6155H1.68506C1.27506 12.6155 0.935059 12.9555 0.935059 13.3655C0.935059 13.7755 1.27506 14.1155 1.68506 14.1155H2.30506C2.34506 14.7555 2.39506 15.3755 2.49506 15.9155V15.9555C3.12506 19.7155 5.09506 21.6655 8.87506 22.2955C8.91506 22.3055 8.96506 22.3055 9.00506 22.3055C9.36506 22.3055 9.67506 22.0455 9.74506 21.6755C9.80506 21.2755 9.53506 20.8855 9.12506 20.8155C5.93506 20.2855 4.49506 18.8355 3.97506 15.6655C3.96506 15.6455 3.96506 15.6355 3.96506 15.6155C3.88506 15.1655 3.84506 14.6555 3.80506 14.1155H5.90506C6.21506 17.9355 8.01506 19.3355 12.3551 19.3355C16.6951 19.3355 18.4951 17.9355 18.8051 14.1155H20.6851C20.6551 14.6655 20.6051 15.1955 20.5251 15.6655V15.7055C19.9951 18.8555 18.5451 20.2855 15.3751 20.8155C14.9651 20.8855 14.6951 21.2755 14.7651 21.6755C14.8251 22.0455 15.1351 22.3055 15.4951 22.3055C15.5451 22.3055 15.5851 22.3055 15.6251 22.2955C19.4251 21.6655 21.3951 19.6955 22.0151 15.9055V15.8655C22.1051 15.3355 22.1551 14.7355 22.1951 14.1155H22.8151C23.2351 14.1155 23.5651 13.7755 23.5651 13.3655C23.5651 12.9555 23.2351 12.6155 22.8151 12.6155Z" fill="#212121"/>
<path fill-rule="evenodd" clip-rule="evenodd" d="M3.11006 10.0255C3.15106 10.0325 3.19206 10.0355 3.23206 10.0355C3.59306 10.0355 3.91106 9.7745 3.97106 9.4065C4.48606 6.2625 5.97906 4.7705 9.12206 4.2555C9.53106 4.1885 9.80806 3.8035 9.74106 3.3945C9.67506 2.9855 9.28606 2.7095 8.88006 2.7755C5.08306 3.3965 3.11306 5.3675 2.49106 9.1645C2.42406 9.5725 2.70106 9.9585 3.11006 10.0255Z" fill="#212121"/>
<path fill-rule="evenodd" clip-rule="evenodd" d="M15.3801 4.25589C18.5241 4.77089 20.0161 6.26289 20.5311 9.40589C20.5911 9.77489 20.9091 10.0349 21.2701 10.0349C21.3111 10.0349 21.3511 10.0319 21.3921 10.0259C21.8011 9.95789 22.0781 9.57189 22.0111 9.16389C21.3891 5.36689 19.4191 3.39689 15.6221 2.77589C15.2141 2.70789 14.8281 2.98489 14.7611 3.39489C14.6941 3.80389 14.9711 4.18889 15.3801 4.25589Z" fill="#212121"/>
</svg>
