<svg width="24" height="24" viewBox="0 0 24 24" fill="none" xmlns="http://www.w3.org/2000/svg">
<path fill-rule="evenodd" clip-rule="evenodd" d="M11.9998 3.5C7.30592 3.5 3.49976 7.30527 3.49976 12C3.49976 16.6938 7.30597 20.5 11.9998 20.5C16.6945 20.5 20.4998 16.6938 20.4998 12C20.4998 7.30521 16.6945 3.5 11.9998 3.5ZM1.99976 12C1.99976 6.47673 6.4776 2 11.9998 2C17.523 2 21.9998 6.47679 21.9998 12C21.9998 17.5222 17.523 22 11.9998 22C6.47754 22 1.99976 17.5222 1.99976 12Z" fill="#212121"/>
<path fill-rule="evenodd" clip-rule="evenodd" d="M11.6606 7.0957C12.0749 7.0957 12.4106 7.43149 12.4106 7.8457V11.9549L16.2029 12.0168C16.6171 12.0236 16.9473 12.3648 16.9405 12.779C16.9338 13.1931 16.5926 13.5234 16.1784 13.5166L11.6484 13.4426C11.239 13.4359 10.9106 13.1021 10.9106 12.6927V7.8457C10.9106 7.43149 11.2464 7.0957 11.6606 7.0957Z" fill="#212121"/>
</svg>
