<svg width="25" height="24" viewBox="0 0 25 24" fill="none" xmlns="http://www.w3.org/2000/svg">
<path fill-rule="evenodd" clip-rule="evenodd" d="M16.1545 20.8994L16.1545 5.46014L17.6545 5.46014L17.6545 20.8994L16.1545 20.8994Z" fill="#212121"/>
<path fill-rule="evenodd" clip-rule="evenodd" d="M17.6545 20.1502C17.6545 17.2052 15.0697 14.8047 12.309 14.8047H11.559V16.3047H12.309C14.2733 16.3047 16.1545 18.0654 16.1545 20.1502V20.9002H17.6545V20.1502Z" fill="#212121"/>
<path fill-rule="evenodd" clip-rule="evenodd" d="M16.1545 20.1502C16.1545 17.2052 18.7394 14.8047 21.5001 14.8047H22.2501V16.3047H21.5001C19.5357 16.3047 17.6545 18.0654 17.6545 20.1502V20.9002H16.1545V20.1502Z" fill="#212121"/>
<path fill-rule="evenodd" clip-rule="evenodd" d="M6.84546 3.09961L6.84546 18.5389L8.34546 18.5389L8.34546 3.09961L6.84546 3.09961Z" fill="#212121"/>
<path fill-rule="evenodd" clip-rule="evenodd" d="M8.34546 3.8498C8.34546 6.79479 5.76059 9.19531 2.99995 9.19531L2.24995 9.19531L2.24995 7.69531L2.99995 7.69531C4.96427 7.69531 6.84546 5.93462 6.84546 3.8498L6.84546 3.0998L8.34546 3.0998L8.34546 3.8498Z" fill="#212121"/>
<path fill-rule="evenodd" clip-rule="evenodd" d="M6.84546 3.8498C6.84546 6.79479 9.43033 9.19531 12.191 9.19531L12.941 9.19531L12.941 7.69531L12.191 7.69531C10.2267 7.69531 8.34546 5.93462 8.34546 3.8498L8.34546 3.0998L6.84546 3.0998L6.84546 3.8498Z" fill="#212121"/>
</svg>
