<svg width="24" height="24" viewBox="0 0 24 24" fill="none" xmlns="http://www.w3.org/2000/svg">
<path fill-rule="evenodd" clip-rule="evenodd" d="M4.93052 4.27249C6.46237 2.58293 8.83824 2 12.0399 2C12.9666 2 13.8214 2.05142 14.5917 2.15694C14.7477 2.17832 14.8931 2.24827 15.0071 2.3569L20.6771 7.7569C20.7923 7.86656 20.8696 8.00998 20.8979 8.16645C21.0983 9.27377 21.1899 10.5511 21.1899 12C21.1899 15.4998 20.6712 18.0653 19.1576 19.7318C17.6242 21.42 15.2455 22 12.0399 22C8.83897 22 6.46283 21.4199 4.93074 19.7315C3.41862 18.0651 2.8999 15.4999 2.8999 12C2.8999 8.5048 3.41874 5.93992 4.93052 4.27249ZM6.04178 5.28001C4.93107 6.50508 4.3999 8.5652 4.3999 12C4.3999 15.4401 4.93118 17.4999 6.04156 18.7235C7.13197 19.9251 8.95083 20.5 12.0399 20.5C15.1343 20.5 16.9557 19.925 18.0472 18.7232C19.1586 17.4997 19.6899 15.4402 19.6899 12C19.6899 10.7185 19.6149 9.61383 19.4626 8.67165L14.1509 3.61282C13.52 3.53823 12.8146 3.5 12.0399 3.5C8.95156 3.5 7.13244 4.07707 6.04178 5.28001Z" fill="#212121"/>
<path fill-rule="evenodd" clip-rule="evenodd" d="M11.6604 9.22656C12.0746 9.22656 12.4104 9.56235 12.4104 9.97656V16.0176C12.4104 16.4318 12.0746 16.7676 11.6604 16.7676C11.2462 16.7676 10.9104 16.4318 10.9104 16.0176V9.97656C10.9104 9.56235 11.2462 9.22656 11.6604 9.22656Z" fill="#212121"/>
<path fill-rule="evenodd" clip-rule="evenodd" d="M8.7855 13.1307C9.07901 12.8384 9.55389 12.8394 9.84615 13.1329L11.6597 14.9542L13.4732 13.1329C13.7655 12.8394 14.2404 12.8384 14.5339 13.1307C14.8274 13.4229 14.8284 13.8978 14.5362 14.1913L12.1912 16.5463C12.0504 16.6877 11.8592 16.7671 11.6597 16.7671C11.4602 16.7671 11.269 16.6877 11.1282 16.5463L8.78324 14.1913C8.49097 13.8978 8.49198 13.4229 8.7855 13.1307Z" fill="#212121"/>
<path fill-rule="evenodd" clip-rule="evenodd" d="M13.9343 2.08301C14.3485 2.08301 14.6843 2.41879 14.6843 2.83301V5.49401C14.6843 6.9375 15.8542 8.10701 17.2983 8.10701H20.2493C20.6635 8.10701 20.9993 8.44279 20.9993 8.85701C20.9993 9.27122 20.6635 9.60701 20.2493 9.60701H17.2983C15.0264 9.60701 13.1843 7.76651 13.1843 5.49401V2.83301C13.1843 2.41879 13.5201 2.08301 13.9343 2.08301Z" fill="#212121"/>
</svg>
