<svg width="24" height="24" viewBox="0 0 24 24" fill="none" xmlns="http://www.w3.org/2000/svg">
<path fill-rule="evenodd" clip-rule="evenodd" d="M2.75 12C2.75 18.937 5.063 21.25 12 21.25C18.937 21.25 21.25 18.937 21.25 12C21.25 5.063 18.937 2.75 12 2.75C5.063 2.75 2.75 5.063 2.75 12Z" stroke="#212121" stroke-width="1.5" stroke-linecap="round" stroke-linejoin="round"/>
<path opacity="0.4" d="M21.1201 14.6667C20.2391 13.7607 18.9931 11.9297 16.7041 11.9297C14.4151 11.9297 14.3651 15.9677 12.0291 15.9677C9.69206 15.9677 8.75106 14.5967 7.22806 15.3127C5.70606 16.0277 4.46606 18.8737 4.46606 18.8737" stroke="#212121" stroke-width="1.5" stroke-linecap="round" stroke-linejoin="round"/>
<path opacity="0.4" fill-rule="evenodd" clip-rule="evenodd" d="M10.5987 8.78444C10.5987 9.75744 9.81066 10.5454 8.83766 10.5454C7.86566 10.5454 7.07666 9.75744 7.07666 8.78444C7.07666 7.81144 7.86566 7.02344 8.83766 7.02344C9.81066 7.02344 10.5987 7.81144 10.5987 8.78444Z" stroke="#212121" stroke-width="1.5" stroke-linecap="round" stroke-linejoin="round"/>
</svg>
