<svg width="25" height="24" viewBox="0 0 25 24" fill="none" xmlns="http://www.w3.org/2000/svg">
<path fill-rule="evenodd" clip-rule="evenodd" d="M12.25 13.4951C10.741 13.4951 9.51302 12.2681 9.51302 10.7591C9.51302 9.25012 10.741 8.02212 12.25 8.02212C13.759 8.02212 14.986 9.25012 14.986 10.7591C14.986 12.2681 13.759 13.4951 12.25 13.4951ZM17.864 4.65212C16.333 3.07312 14.339 2.20312 12.25 2.20312C10.159 2.20312 8.16502 3.07313 6.63302 4.65313C5.07802 6.25712 4.22402 8.41212 4.29102 10.5661C4.48002 16.6701 11.67 21.4231 11.977 21.6221L12.246 21.7971L12.518 21.6251C12.824 21.4311 20.019 16.7931 20.209 10.5651C20.275 8.41213 19.42 6.25612 17.864 4.65212Z" fill="#212121"/>
</svg>
