<svg width="24" height="24" viewBox="0 0 24 24" fill="none" xmlns="http://www.w3.org/2000/svg">
<path fill-rule="evenodd" clip-rule="evenodd" d="M10.3398 7.70164C9.96236 7.98576 9.51024 8.30959 9.0494 8.4611L9.04796 8.46157C8.47367 8.64909 7.94783 8.71217 7.55101 8.75978C7.43855 8.77327 7.33645 8.78552 7.24655 8.799C6.83928 8.86009 6.53346 8.95018 6.16917 9.25967C5.83236 9.5458 5.63674 9.94547 5.53022 10.4641C5.42097 10.9959 5.41797 11.5857 5.42251 12.2079L5.42259 12.2188L5.42251 12.2188C5.41797 12.841 5.42097 13.4308 5.53022 13.9626C5.6366 14.4806 5.83186 14.8799 6.16787 15.1659C6.49718 15.4427 6.77596 15.5392 7.10845 15.5987C7.25514 15.6249 7.40094 15.6421 7.5784 15.6631C7.6293 15.6691 7.68279 15.6754 7.73966 15.6824C7.98335 15.7121 8.26316 15.7505 8.57267 15.8221C8.97622 15.9155 9.22765 16.3184 9.13427 16.7219C9.04089 17.1255 8.63804 17.3769 8.23449 17.2835C8.00268 17.2299 7.7848 17.199 7.55819 17.1714C7.51572 17.1662 7.47168 17.161 7.42647 17.1557C7.24264 17.134 7.03949 17.1101 6.8445 17.0753C6.31402 16.9804 5.77443 16.7953 5.20065 16.3124L5.19799 16.3102C4.52374 15.7374 4.20937 14.9873 4.06089 14.2645C3.91558 13.557 3.91812 12.816 3.92251 12.2134C3.91812 11.6107 3.91558 10.8697 4.06089 10.1622C4.20937 9.43939 4.52374 8.68932 5.19799 8.11651C5.84475 7.56705 6.44709 7.40214 7.02403 7.3156C7.18097 7.29205 7.32504 7.27458 7.46326 7.25781C7.83305 7.21295 8.16097 7.17317 8.58154 7.03593C8.77382 6.97253 9.04069 6.80207 9.43763 6.50325C9.52397 6.43826 9.61602 6.36756 9.71253 6.29343C10.0169 6.05963 10.3658 5.79171 10.7198 5.56109C11.6567 4.95085 12.9663 4.37847 14.368 5.20591C14.3856 5.21631 14.4028 5.22742 14.4195 5.23923C15.5112 6.0105 16.0324 7.23406 16.2366 9.39601C16.2755 9.80839 15.9728 10.1743 15.5604 10.2132C15.148 10.2521 14.7822 9.94939 14.7432 9.53701C14.5566 7.56029 14.1222 6.87718 13.5794 6.48256C12.9589 6.13065 12.3418 6.29476 11.5385 6.81798C11.2378 7.01387 10.9566 7.22975 10.6635 7.45474C10.5576 7.53603 10.4502 7.6185 10.3398 7.70164Z" fill="#212121"/>
<path fill-rule="evenodd" clip-rule="evenodd" d="M15.6084 12.9224C16.0223 12.9385 16.3448 13.287 16.3288 13.7009C16.2116 16.7293 15.691 18.2755 14.421 19.1776C14.4045 19.1893 14.3876 19.2003 14.3702 19.2107C12.9336 20.0652 11.5884 19.4379 10.6495 18.8025C10.3065 18.5703 10.2166 18.104 10.4488 17.761C10.6809 17.418 11.1472 17.3281 11.4903 17.5602C12.3118 18.1162 12.9468 18.2969 13.5776 17.9365C14.2106 17.4736 14.716 16.5882 14.8299 13.6429C14.8459 13.229 15.1945 12.9064 15.6084 12.9224Z" fill="#212121"/>
<path fill-rule="evenodd" clip-rule="evenodd" d="M20.8157 4.14057C21.1086 4.43346 21.1086 4.90834 20.8157 5.20123L5.471 20.546C5.17811 20.8389 4.70324 20.8389 4.41034 20.546C4.11745 20.2531 4.11745 19.7782 4.41034 19.4853L19.7551 4.14057C20.048 3.84768 20.5228 3.84768 20.8157 4.14057Z" fill="#212121"/>
</svg>
