<svg width="24" height="24" viewBox="0 0 24 24" fill="none" xmlns="http://www.w3.org/2000/svg">
<path d="M6.55851 21.2773C4.35651 20.9773 2.80151 20.2393 2.80151 18.6733C2.80151 16.4493 5.91851 14.4453 9.61051 14.4453C13.2825 14.4453 16.4185 16.4303 16.4185 18.6533C16.4185 20.8763 13.3025 21.4523 9.61051 21.4523" stroke="#212121" stroke-width="1.5" stroke-linecap="round" stroke-linejoin="round"/>
<path d="M17.5125 13.6504C19.5005 13.6504 21.1985 14.9984 21.1985 16.2014C21.1985 16.9104 20.6135 17.6384 19.7235 17.8474" stroke="#212121" stroke-width="1.5" stroke-linecap="round" stroke-linejoin="round"/>
<path d="M16.8523 10.0757C18.2553 9.70071 19.2893 8.42171 19.2893 6.89971C19.2903 5.31171 18.1633 3.98571 16.6653 3.67871" stroke="#212121" stroke-width="1.5" stroke-linecap="round" stroke-linejoin="round"/>
<path d="M6.56488 3.78488C5.75188 4.57788 5.24588 5.68487 5.24588 6.91087C5.23688 9.31287 7.17788 11.2669 9.57888 11.2749H9.60988C12.0199 11.2749 13.9739 9.32087 13.9739 6.91087C13.9739 4.50087 12.0199 2.54688 9.60988 2.54688" stroke="#212121" stroke-width="1.5" stroke-linecap="round" stroke-linejoin="round"/>
</svg>
