<svg width="25" height="25" viewBox="0 0 25 25" fill="none" xmlns="http://www.w3.org/2000/svg">
<path fill-rule="evenodd" clip-rule="evenodd" d="M19.2141 6.38466C20.5341 6.98466 21.3641 8.23466 21.5641 9.90466C21.6441 10.5347 21.6241 11.2047 21.5341 11.8747C21.2541 13.8847 20.2841 15.8947 18.9941 16.9047C18.0141 17.6647 16.7641 18.0347 15.4941 18.2047C14.7241 18.3147 13.9441 18.3447 13.2141 18.3447C12.9541 18.3447 12.6941 18.3447 12.4441 18.3347C10.6041 18.2847 8.26409 18.0747 6.57409 16.8747C4.30446 15.2649 4.564 11.8458 4.79397 8.81617L4.79409 8.81466C4.79704 8.77662 4.8 8.73864 4.80295 8.70073C4.87985 7.71242 4.95298 6.77253 4.92409 5.93466C4.96409 4.68466 3.66409 4.43466 3.51409 4.41466C3.11409 4.34466 2.83409 3.96466 2.89409 3.55466C2.96409 3.15466 3.34409 2.88466 3.74409 2.93466C4.68409 3.07466 6.43409 3.87466 6.42409 5.87466C6.42409 5.92494 6.42496 5.97517 6.42619 6.02538C6.43099 6.22118 6.59745 6.37743 6.79312 6.36877C8.71968 6.28074 10.6371 6.19314 12.5641 6.12466C13.6441 6.08466 14.7141 6.05466 15.7941 6.03466C15.8841 6.03466 15.9716 6.03216 16.0591 6.02966C16.1466 6.02716 16.2341 6.02466 16.3241 6.02466L16.3608 6.02345C17.2614 5.99368 18.267 5.96043 19.2141 6.38466ZM13.1341 11.4247H15.9041C16.3241 11.4247 16.6541 11.0847 16.6541 10.6747C16.6541 10.2647 16.3241 9.92466 15.9041 9.92466H13.1341C12.7241 9.92466 12.3841 10.2647 12.3841 10.6747C12.3841 11.0847 12.7241 11.4247 13.1341 11.4247Z" fill="#212121"/>
<path d="M7.39778 19.5517C6.68378 19.5517 6.10278 20.1317 6.10278 20.8457C6.10278 21.5597 6.68378 22.1407 7.39778 22.1407C8.11178 22.1407 8.69178 21.5597 8.69178 20.8457C8.69178 20.1317 8.11178 19.5517 7.39778 19.5517Z" fill="#212121"/>
<path d="M17.7288 19.5517C17.0148 19.5517 16.4348 20.1317 16.4348 20.8457C16.4348 21.5597 17.0148 22.1407 17.7288 22.1407C18.4428 22.1407 19.0238 21.5597 19.0238 20.8457C19.0238 20.1317 18.4428 19.5517 17.7288 19.5517Z" fill="#212121"/>
</svg>
