<svg width="25" height="24" viewBox="0 0 25 24" fill="none" xmlns="http://www.w3.org/2000/svg">
<path fill-rule="evenodd" clip-rule="evenodd" d="M21.4998 14.5545C20.1558 14.5545 18.8898 15.0885 17.8998 15.9435V5.20952H15.8998V15.9405C14.9128 15.0865 13.6498 14.5545 12.3098 14.5545H11.3098V16.5545H12.3098C14.1878 16.5545 15.8998 18.2685 15.8998 20.1505V21.1505H17.8998V20.1505C17.8998 18.2685 19.6158 16.5545 21.4998 16.5545H22.4998V14.5545H21.4998Z" fill="#212121"/>
<path fill-rule="evenodd" clip-rule="evenodd" d="M12.1902 9.44512H13.1902V7.44512H12.1902C10.3112 7.44512 8.59924 5.73112 8.59924 3.84912V2.84912H6.59924V3.84912C6.59924 5.73112 4.88324 7.44512 3.00024 7.44512H2.00024V9.44512H3.00024C4.34324 9.44512 5.61024 8.91112 6.59924 8.05612V18.7891H8.59924V8.05912C9.58624 8.91312 10.8502 9.44512 12.1902 9.44512Z" fill="#212121"/>
</svg>
