<svg width="25" height="24" viewBox="0 0 25 24" fill="none" xmlns="http://www.w3.org/2000/svg">
<path fill-rule="evenodd" clip-rule="evenodd" d="M9.06356 21.8366C10.7131 22.1647 12.423 21.9963 13.9768 21.3527C15.5307 20.709 16.8588 19.6191 17.7932 18.2206C18.7276 16.8222 19.2264 15.1781 19.2264 13.4962V12.7462H11.4726V4.99237L10.7226 4.99237C9.04067 4.99237 7.39655 5.49111 5.9981 6.42552C4.59966 7.35993 3.5097 8.68804 2.86607 10.2419C2.22243 11.7958 2.05403 13.5056 2.38215 15.1552C2.71027 16.8048 3.52018 18.32 4.70946 19.5093C5.89874 20.6986 7.41398 21.5085 9.06356 21.8366ZM13.4028 19.9669C12.123 20.497 10.7148 20.6357 9.35619 20.3654C7.99758 20.0952 6.74962 19.4281 5.77012 18.4486C4.79062 17.4691 4.12357 16.2212 3.85333 14.8626C3.58309 13.504 3.72179 12.0957 4.25189 10.8159C4.78199 9.53616 5.67969 8.44231 6.83146 7.67272C7.77423 7.04279 8.85257 6.65326 9.97257 6.53263V14.2462H17.6861C17.5655 15.3662 17.176 16.4445 16.546 17.3873C15.7764 18.5391 14.6826 19.4368 13.4028 19.9669Z" fill="#212121"/>
<path fill-rule="evenodd" clip-rule="evenodd" d="M13.0273 11.2539L22.2812 11.2539L22.2812 10.5039C22.2812 8.24855 21.3852 6.08558 19.7904 4.4908C18.1957 2.89603 16.0327 2.00009 13.7773 2.00009H13.0273L13.0273 11.2539ZM14.5273 9.75391L14.5273 3.54034C16.1091 3.71065 17.5943 4.41599 18.7298 5.55146C19.8653 6.68694 20.5706 8.17215 20.7409 9.75391L14.5273 9.75391Z" fill="#212121"/>
</svg>
