<svg width="25" height="24" viewBox="0 0 25 24" fill="none" xmlns="http://www.w3.org/2000/svg">
<path opacity="0.4" fill-rule="evenodd" clip-rule="evenodd" d="M19.6766 4.57593C17.6956 2.59493 15.0586 1.50293 12.2526 1.50293C9.44664 1.50293 6.80964 2.59493 4.82864 4.57593C1.72664 7.67893 0.880636 12.4409 2.70564 16.3749C2.73864 16.5369 2.64964 17.1959 2.58564 17.6779C2.34364 19.4839 2.21964 20.8099 2.83264 21.4239C3.44464 22.0369 4.76964 21.9129 6.57564 21.6699C7.05764 21.6059 7.72464 21.5199 7.82864 21.5309C9.23464 22.1819 10.7376 22.4969 12.2296 22.4969C14.9676 22.4969 17.6696 21.4349 19.6766 19.4269C23.7696 15.3319 23.7706 8.66993 19.6766 4.57593Z" fill="#212121"/>
<path d="M15.1955 12.416C15.1955 12.969 15.6485 13.416 16.2005 13.416C16.7525 13.416 17.2005 12.969 17.2005 12.416C17.2005 11.863 16.7525 11.416 16.2005 11.416H16.1915C15.6385 11.416 15.1955 11.863 15.1955 12.416Z" fill="#212121"/>
<path d="M11.1865 12.416C11.1865 12.969 11.6385 13.416 12.1915 13.416C12.7435 13.416 13.1915 12.969 13.1915 12.416C13.1915 11.863 12.7435 11.416 12.1915 11.416H12.1825C11.6305 11.416 11.1865 11.863 11.1865 12.416Z" fill="#212121"/>
<path d="M7.17847 12.416C7.17847 12.969 7.63047 13.416 8.18247 13.416C8.73447 13.416 9.18247 12.969 9.18247 12.416C9.18247 11.863 8.73447 11.416 8.18247 11.416H8.17347C7.62047 11.416 7.17847 11.863 7.17847 12.416Z" fill="#212121"/>
</svg>
