<svg width="25" height="24" viewBox="0 0 25 24" fill="none" xmlns="http://www.w3.org/2000/svg">
<path d="M5.23999 18.9792C4.15499 17.8952 3.41699 16.5132 3.11799 15.0092C2.81899 13.5052 2.97199 11.9462 3.55899 10.5292C4.14599 9.11219 5.13999 7.90119 6.41499 7.04919C7.68999 6.19719 9.18899 5.74219 10.723 5.74219V13.4962H18.476C18.476 15.0302 18.022 16.5292 17.17 17.8042C16.318 19.0792 15.107 20.0732 13.69 20.6602C12.273 21.2472 10.714 21.4002 9.20999 21.1012" stroke="#212121" stroke-width="1.5" stroke-linecap="square"/>
<path d="M13.7771 10.504V2.75C15.8341 2.75 17.8061 3.567 19.2601 5.021C20.7141 6.475 21.5311 8.448 21.5311 10.504H17.5481" stroke="#212121" stroke-width="1.5" stroke-linecap="square"/>
</svg>
