<svg width="25" height="25" viewBox="0 0 25 25" fill="none" xmlns="http://www.w3.org/2000/svg">
<path fill-rule="evenodd" clip-rule="evenodd" d="M6.58027 11.4015H17.9193C18.1963 11.4015 18.4193 11.1775 18.4193 10.9015V8.64752C18.4193 5.24652 15.6523 2.47852 12.2493 2.47852C8.84827 2.47852 6.08027 5.24652 6.08027 8.64752V10.9015C6.08027 11.1775 6.30427 11.4015 6.58027 11.4015Z" fill="#212121"/>
<path fill-rule="evenodd" clip-rule="evenodd" d="M19.384 13.4063H5.11597C4.70197 13.4063 4.36597 13.7423 4.36597 14.1563C4.36597 14.5703 4.70197 14.9063 5.11597 14.9063H6.13097C6.47297 17.7083 8.69797 19.9333 11.5 20.2753V21.9783C11.5 22.3923 11.836 22.7283 12.25 22.7283C12.664 22.7283 13 22.3923 13 21.9783V20.2753C15.803 19.9333 18.027 17.7083 18.369 14.9063H19.384C19.798 14.9063 20.134 14.5703 20.134 14.1563C20.134 13.7423 19.798 13.4063 19.384 13.4063Z" fill="#212121"/>
</svg>
