<svg width="25" height="24" viewBox="0 0 25 24" fill="none" xmlns="http://www.w3.org/2000/svg">
<path opacity="0.4" fill-rule="evenodd" clip-rule="evenodd" d="M13.2473 11.9598V20.1768C13.2473 20.7298 12.8003 21.1768 12.2473 21.1768C11.6943 21.1768 11.2473 20.7298 11.2473 20.1768V11.9658L13.2473 11.9598Z" fill="#212121"/>
<path fill-rule="evenodd" clip-rule="evenodd" d="M17.3386 11.1878C16.8036 11.7238 14.9916 11.9088 13.2466 11.9588L11.2466 11.9648C9.00955 11.9118 7.63955 11.6518 7.17555 11.1878C6.61255 10.6238 6.90155 9.68384 7.21555 8.92784C7.86655 7.35884 10.6126 2.82284 12.2576 2.82284C13.9526 2.82284 16.6896 7.56084 17.2866 8.99984C17.6116 9.78184 17.8716 10.6528 17.3386 11.1878Z" fill="#212121"/>
</svg>
