<svg width="24" height="24" viewBox="0 0 24 24" fill="none" xmlns="http://www.w3.org/2000/svg">
<path d="M6.91699 14.8533L9.90999 10.9643L13.324 13.6443L16.253 9.86426" stroke="#212121" stroke-width="1.5" stroke-linecap="round" stroke-linejoin="round"/>
<path fill-rule="evenodd" clip-rule="evenodd" d="M19.6671 2.34961C20.7291 2.34961 21.5891 3.20961 21.5891 4.27161C21.5891 5.33261 20.7291 6.19361 19.6671 6.19361C18.6051 6.19361 17.7451 5.33261 17.7451 4.27161C17.7451 3.20961 18.6051 2.34961 19.6671 2.34961Z" stroke="#212121" stroke-width="1.5" stroke-linecap="round" stroke-linejoin="round"/>
<path d="M20.7555 9.26873C20.8885 10.1637 20.9495 11.1717 20.9495 12.3027C20.9495 19.2407 18.6375 21.5527 11.6995 21.5527C4.76246 21.5527 2.44946 19.2407 2.44946 12.3027C2.44946 5.36573 4.76246 3.05273 11.6995 3.05273C12.8095 3.05273 13.8005 3.11173 14.6825 3.23973" stroke="#212121" stroke-width="1.5" stroke-linecap="round" stroke-linejoin="round"/>
</svg>
