<svg width="25" height="25" viewBox="0 0 25 25" fill="none" xmlns="http://www.w3.org/2000/svg">
<path fill-rule="evenodd" clip-rule="evenodd" d="M2.25 4.38477H22.25V11.2964H21.5C20.7906 11.2964 20.2366 11.8569 20.2366 12.5357C20.2366 13.2141 20.7901 13.7741 21.5 13.7741H22.25V20.6848H2.25V13.7741H3C3.70991 13.7741 4.26343 13.2141 4.26343 12.5357C4.26343 11.8956 3.74966 11.3745 3 11.3745H2.25V4.38477ZM3.75 5.88477V9.97114C4.88872 10.2713 5.76343 11.2453 5.76343 12.5357C5.76343 13.7998 4.90887 14.8504 3.75 15.1724V19.1848H20.75V15.1724C19.5911 14.8504 18.7366 13.7998 18.7366 12.5357C18.7366 11.272 19.5909 10.2204 20.75 9.89817V5.88477H3.75Z" fill="#212121"/>
<path fill-rule="evenodd" clip-rule="evenodd" d="M12.249 7.60059L13.7238 10.3958L16.8379 10.9346L14.6353 13.201L15.0851 16.3292L12.249 14.9347L9.41296 16.3292L9.86282 13.201L7.66016 10.9346L10.7743 10.3958L12.249 7.60059ZM12.249 10.8151L11.7568 11.7481L10.7173 11.9279L11.4525 12.6844L11.3024 13.7286L12.249 13.2631L13.1957 13.7286L13.0456 12.6844L13.7808 11.9279L12.7413 11.7481L12.249 10.8151Z" fill="#212121"/>
</svg>
