<svg width="25" height="24" viewBox="0 0 25 24" fill="none" xmlns="http://www.w3.org/2000/svg">
<path fill-rule="evenodd" clip-rule="evenodd" d="M20.4628 3.7969C20.1698 3.5039 19.6948 3.5039 19.4018 3.7969L15.4428 7.7569C15.1728 6.4609 14.6948 5.6459 13.8878 5.0769C12.2038 4.0829 10.6588 5.2689 9.53076 6.1339C9.06976 6.4879 8.63476 6.8219 8.30676 6.9299C7.85776 7.0769 7.46876 7.1239 7.09276 7.1699C6.43376 7.2489 5.75176 7.3319 5.00676 7.9649C3.79876 8.9899 3.81076 10.6569 3.81876 11.8659C3.81076 13.0829 3.79876 14.7499 5.00876 15.7779C5.60376 16.2789 6.15676 16.4289 6.69076 16.5089L4.05776 19.1419C3.76476 19.4349 3.76476 19.9089 4.05776 20.2019C4.20476 20.3489 4.39676 20.4219 4.58776 20.4219C4.77976 20.4219 4.97176 20.3489 5.11876 20.2019L20.4628 4.8579C20.7558 4.5649 20.7558 4.0899 20.4628 3.7969Z" fill="#212121"/>
<path opacity="0.4" fill-rule="evenodd" clip-rule="evenodd" d="M15.427 12.8705C15.239 12.7875 15.019 12.8285 14.873 12.9745L10.364 17.4845C10.259 17.5905 10.206 17.7375 10.22 17.8865C10.234 18.0345 10.314 18.1685 10.437 18.2525C10.982 18.6205 11.712 19.0275 12.545 19.0275C12.98 19.0275 13.444 18.9165 13.924 18.6305C15.107 17.7895 15.612 16.3085 15.726 13.3485C15.735 13.1415 15.615 12.9525 15.427 12.8705Z" fill="#212121"/>
</svg>
