<svg width="24" height="24" viewBox="0 0 24 24" fill="none" xmlns="http://www.w3.org/2000/svg">
<path fill-rule="evenodd" clip-rule="evenodd" d="M2 12.1211C2 11.7069 2.33579 11.3711 2.75 11.3711H14.791C15.2052 11.3711 15.541 11.7069 15.541 12.1211C15.541 12.5353 15.2052 12.8711 14.791 12.8711H2.75C2.33579 12.8711 2 12.5353 2 12.1211Z" fill="#212121"/>
<path fill-rule="evenodd" clip-rule="evenodd" d="M11.3328 8.67584C11.6251 8.38234 12.1 8.38137 12.3935 8.67366L15.3215 11.5897C15.4628 11.7304 15.5423 11.9216 15.5423 12.1211C15.5423 12.3205 15.4628 12.5118 15.3215 12.6525L12.3935 15.5685C12.1 15.8608 11.6251 15.8598 11.3328 15.5663C11.0405 15.2728 11.0415 14.798 11.335 14.5057L13.7294 12.1211L11.335 9.7365C11.0415 9.4442 11.0405 8.96933 11.3328 8.67584Z" fill="#212121"/>
<path fill-rule="evenodd" clip-rule="evenodd" d="M9.33036 4.45009C8.55365 5.02564 8.16535 5.96655 8.00567 7.69884C7.96765 8.11131 7.60246 8.41485 7.19 8.37683C6.77753 8.33881 6.47398 7.97362 6.512 7.56116C6.68232 5.71345 7.12903 4.21436 8.43731 3.24491C9.69163 2.31546 11.5814 2 14.2588 2C17.8087 2 19.9912 2.55654 21.1113 4.37994C21.6451 5.249 21.881 6.3253 21.9957 7.55739C22.1098 8.78465 22.1098 10.259 22.1098 11.9684V12.0316C22.1098 13.741 22.1098 15.2154 21.9957 16.4426C21.881 17.6747 21.6451 18.751 21.1113 19.6201C19.9912 21.4435 17.8087 22 14.2588 22C11.5814 22 9.69163 21.6845 8.43731 20.7551C7.12903 19.7856 6.68232 18.2866 6.512 16.4388C6.47398 16.0264 6.77753 15.6612 7.19 15.6232C7.60246 15.5851 7.96765 15.8887 8.00567 16.3012C8.16535 18.0334 8.55365 18.9744 9.33036 19.5499C10.1611 20.1655 11.6063 20.5 14.2588 20.5C17.81 20.5 19.178 19.9015 19.8332 18.8349C20.1869 18.259 20.3948 17.4565 20.5021 16.3036C20.6091 15.1535 20.6098 13.7472 20.6098 12C20.6098 10.2528 20.6091 8.84654 20.5021 7.69636C20.3948 6.54345 20.1869 5.741 19.8332 5.16506C19.178 4.09846 17.81 3.5 14.2588 3.5C11.6063 3.5 10.1611 3.83454 9.33036 4.45009Z" fill="#212121"/>
</svg>
