<svg width="24" height="24" viewBox="0 0 24 24" fill="none" xmlns="http://www.w3.org/2000/svg">
<path fill-rule="evenodd" clip-rule="evenodd" d="M4.24329 4.24329C5.91107 2.57552 8.4899 2 12 2C15.5101 2 18.0889 2.57552 19.7567 4.24329C21.4245 5.91107 22 8.4899 22 12C22 15.5101 21.4245 18.0889 19.7567 19.7567C18.0889 21.4245 15.5101 22 12 22C8.4899 22 5.91107 21.4245 4.24329 19.7567C2.57552 18.0889 2 15.5101 2 12C2 8.4899 2.57552 5.91107 4.24329 4.24329ZM5.30396 5.30396C4.08098 6.52693 3.5 8.5731 3.5 12C3.5 15.4269 4.08098 17.4731 5.30396 18.696C6.52693 19.919 8.5731 20.5 12 20.5C15.4269 20.5 17.4731 19.919 18.696 18.696C19.919 17.4731 20.5 15.4269 20.5 12C20.5 8.5731 19.919 6.52693 18.696 5.30396C17.4731 4.08098 15.4269 3.5 12 3.5C8.5731 3.5 6.52693 4.08098 5.30396 5.30396Z" fill="#212121"/>
<path fill-rule="evenodd" clip-rule="evenodd" d="M11.999 6.88379C12.4132 6.88379 12.749 7.21958 12.749 7.63379V11.5689L15.7743 13.3737C16.13 13.5859 16.2463 14.0463 16.0341 14.402C15.8219 14.7578 15.3615 14.8741 15.0058 14.6619L11.6148 12.6389C11.3879 12.5036 11.249 12.2589 11.249 11.9948V7.63379C11.249 7.21958 11.5848 6.88379 11.999 6.88379Z" fill="#212121"/>
</svg>
