<svg width="24" height="24" viewBox="0 0 24 24" fill="none" xmlns="http://www.w3.org/2000/svg">
<path opacity="0.4" d="M22 11.9999C22 17.5229 17.523 21.9999 12 21.9999C6.477 21.9999 2 17.5229 2 11.9999C2 6.47788 6.477 1.99988 12 1.99988C17.523 1.99988 22 6.47788 22 11.9999Z" fill="#212121"/>
<path d="M15.86 8.70493L14.24 13.8249C14.18 14.0349 14.01 14.2049 13.8 14.2659L8.69996 15.8649C8.35996 15.9759 8.02996 15.6449 8.13996 15.3049L9.73996 10.1749C9.79996 9.96493 9.96996 9.80493 10.18 9.73493L15.3 8.13493C15.65 8.02493 15.97 8.35493 15.86 8.70493Z" fill="#212121"/>
</svg>
