<svg width="25" height="25" viewBox="0 0 25 25" fill="none" xmlns="http://www.w3.org/2000/svg">
<path opacity="0.4" fill-rule="evenodd" clip-rule="evenodd" d="M21.8021 12.1365C19.9301 10.7165 18.9671 8.38952 19.2861 6.06252L19.3761 5.40952L18.7221 5.49952C16.4021 5.81952 14.0681 4.85452 12.6481 2.98252L12.2501 2.45752L11.8511 2.98252C10.4311 4.85452 8.0981 5.82052 5.7771 5.49952L5.1241 5.40952L5.2141 6.06252C5.5331 8.38952 4.5691 10.7165 2.6981 12.1365L2.1731 12.5345L2.6981 12.9335C4.5691 14.3525 5.5331 16.6795 5.2141 19.0075L5.1241 19.6605L5.7771 19.5705C8.0971 19.2525 10.4311 20.2145 11.8511 22.0865L12.2501 22.6115L12.6481 22.0865C14.0681 20.2145 16.4031 19.2535 18.7221 19.5705L19.3761 19.6605L19.2861 19.0075C18.9671 16.6795 19.9301 14.3525 21.8021 12.9335L22.3271 12.5345L21.8021 12.1365Z" fill="#212121"/>
<path d="M8.84741 14.6683L9.90841 15.7293L15.4434 10.1943L14.3834 9.1333L8.84741 14.6683Z" fill="#212121"/>
<path d="M13.5744 15.3563H15.0744V13.8563H13.5664L13.5744 15.3563Z" fill="#212121"/>
<path d="M10.7214 11.0033V9.5033H9.21541L9.22141 11.0033H10.7214Z" fill="#212121"/>
</svg>
