<svg width="25" height="25" viewBox="0 0 25 25" fill="none" xmlns="http://www.w3.org/2000/svg">
<path fill-rule="evenodd" clip-rule="evenodd" d="M22.8325 7.58359L21.0255 6.72559L20.5965 7.62859C19.2595 10.4426 17.1855 12.4086 14.7955 13.2306L14.5945 13.2886C13.8375 13.5266 13.0535 13.6616 12.2495 13.6616C8.81748 13.6606 5.69748 11.4056 3.90348 7.62859L3.47448 6.72559L1.66748 7.58359L2.09648 8.48659C2.69748 9.75059 3.43348 10.8656 4.26948 11.8236L2.05648 14.0386L3.47048 15.4516L5.69648 13.2246C6.59548 13.9686 7.57648 14.5516 8.61448 14.9616L7.75348 17.9246L9.67448 18.4826L10.5385 15.5076C11.0985 15.6066 11.6685 15.6616 12.2485 15.6616H12.2515C12.8055 15.6616 13.3505 15.6126 13.8855 15.5226L14.7455 18.4826L16.6655 17.9246L15.8135 14.9886C16.8615 14.5836 17.8535 14.0056 18.7615 13.2616L20.9505 15.4516L22.3655 14.0386L20.1935 11.8656C21.0455 10.8986 21.7935 9.76959 22.4035 8.48659L22.8325 7.58359Z" fill="#212121"/>
</svg>
