<svg width="25" height="24" viewBox="0 0 25 24" fill="none" xmlns="http://www.w3.org/2000/svg">
<path fill-rule="evenodd" clip-rule="evenodd" d="M21.7158 2.74155C21.6688 2.65355 21.5978 2.58155 21.5098 2.53455C19.4238 1.42455 6.94482 5.29255 3.71682 7.15455C2.87582 7.63955 2.50082 8.20955 2.60382 8.84555C2.90082 10.6876 7.86382 12.0836 10.5568 12.7086L15.6138 7.65255C15.9068 7.35955 16.3818 7.35955 16.6748 7.65255C16.9678 7.94556 16.9678 8.42055 16.6748 8.71355L11.5688 13.8176C12.2098 16.5386 13.5908 21.3536 15.4038 21.6456C15.4718 21.6566 15.5398 21.6626 15.6068 21.6626C16.1608 21.6626 16.6608 21.2826 17.0938 20.5326C18.9558 17.3076 22.8268 4.83055 21.7158 2.74155Z" fill="#212121"/>
</svg>
