<svg width="25" height="24" viewBox="0 0 25 24" fill="none" xmlns="http://www.w3.org/2000/svg">
<path fill-rule="evenodd" clip-rule="evenodd" d="M19.3104 7.99005C19.1104 7.62705 18.6534 7.49605 18.2914 7.69605C17.9284 7.89505 17.7964 8.35205 17.9974 8.71505C19.1184 10.748 19.1184 13.269 17.9974 15.295C17.7964 15.657 17.9284 16.114 18.2904 16.314C18.4054 16.378 18.5304 16.408 18.6534 16.408C18.9164 16.408 19.1734 16.268 19.3104 16.021C20.6784 13.549 20.6784 10.47 19.3104 7.99005Z" fill="#212121"/>
<path fill-rule="evenodd" clip-rule="evenodd" d="M14.1771 5.26141C12.5031 4.26641 10.9651 5.44541 9.84312 6.30541C9.38412 6.65741 8.95012 6.98841 8.62112 7.09641C8.17512 7.24341 7.78812 7.29041 7.41512 7.33441C6.76112 7.41241 6.08612 7.49341 5.34612 8.12141C4.15812 9.13041 4.16112 10.7234 4.16412 12.0044C4.16112 13.2844 4.15812 14.8774 5.34712 15.8884C6.08812 16.5174 6.76412 16.5974 7.41812 16.6754C7.79112 16.7204 8.17712 16.7664 8.62212 16.9114C8.94912 17.0204 9.38212 17.3524 9.84012 17.7024C10.6551 18.3274 11.6871 19.1184 12.8451 19.1184C13.2841 19.1184 13.7411 19.0054 14.2111 18.7264C15.5511 17.7764 16.0251 16.0174 16.0251 12.0044C16.0251 7.94241 15.5681 6.24541 14.1771 5.26141Z" fill="#212121"/>
</svg>
