<svg width="25" height="24" viewBox="0 0 25 24" fill="none" xmlns="http://www.w3.org/2000/svg">
<path opacity="0.4" d="M12.2502 7.49992C15.5164 7.49992 19.3713 13.7397 20.1101 14.9906C20.2522 15.2304 20.2825 15.5048 20.217 15.7538C20.1526 15.9994 19.9949 16.2206 19.759 16.3598C19.2864 16.643 18.6711 16.4828 18.3904 16.0087C16.8372 13.3837 13.8123 9.49992 12.2502 9.49992V7.49992Z" fill="#212121"/>
<path d="M12.2501 9.49988C12.2501 9.49988 12.2502 9.49988 12.2501 9.49988C10.6901 9.49988 7.66514 13.3839 6.11014 16.0089C5.83014 16.4829 5.21714 16.6429 4.74114 16.3599C4.26614 16.0789 4.10814 15.4659 4.39014 14.9909C5.12914 13.7399 8.98414 7.49988 12.2501 7.49988C12.2501 7.49988 12.2502 7.49988 12.2501 7.49988V9.49988Z" fill="#212121"/>
</svg>
