<svg width="25" height="25" viewBox="0 0 25 25" fill="none" xmlns="http://www.w3.org/2000/svg">
<path fill-rule="evenodd" clip-rule="evenodd" d="M19.349 10.2015C19.349 9.92554 19.125 9.70154 18.849 9.70154H5.65304C5.37604 9.70154 5.15304 9.92554 5.15304 10.2015C5.15304 11.1985 5.13504 12.1275 5.11804 12.9885C5.04404 16.7375 4.99504 19.2145 6.51004 20.7595C7.58604 21.8565 9.35304 22.3465 12.24 22.3465C15.13 22.3465 16.9 21.8555 17.979 20.7565C19.501 19.2045 19.453 16.7155 19.382 12.9455C19.366 12.0965 19.349 11.1815 19.349 10.2015Z" fill="#212121"/>
<path fill-rule="evenodd" clip-rule="evenodd" d="M20.325 6.37833H16.184C16.143 5.72433 15.962 4.80233 15.311 4.05433C14.623 3.26333 13.593 2.86133 12.249 2.86133C10.906 2.86133 9.87605 3.26333 9.18805 4.05433C8.53705 4.80233 8.35505 5.72433 8.31405 6.37833H4.17505C3.76105 6.37833 3.42505 6.71433 3.42505 7.12833C3.42505 7.54233 3.76105 7.87833 4.17505 7.87833H20.325C20.739 7.87833 21.075 7.54233 21.075 7.12833C21.075 6.71433 20.739 6.37833 20.325 6.37833Z" fill="#212121"/>
</svg>
