<svg width="25" height="25" viewBox="0 0 25 25" fill="none" xmlns="http://www.w3.org/2000/svg">
<path opacity="0.4" fill-rule="evenodd" clip-rule="evenodd" d="M21.6201 8.81008C21.0901 9.06008 20.4901 9.20008 19.8701 9.20008C17.5301 9.20008 15.6201 7.29008 15.6201 4.95008C15.6201 4.31008 15.7601 3.71008 16.0201 3.17008C14.9201 2.94008 13.6401 2.83008 12.1601 2.83008C4.95014 2.83008 2.39014 5.38008 2.39014 12.6001C2.39014 19.8201 4.95014 22.3701 12.1601 22.3701C19.3801 22.3701 21.9401 19.8201 21.9401 12.6001C21.9401 11.1501 21.8401 9.89008 21.6201 8.81008Z" fill="#212121"/>
<path d="M13.5899 14.9802L16.5199 11.2002C16.7699 10.8702 16.7099 10.4002 16.3899 10.1502C16.0599 9.89024 15.5899 9.95024 15.3299 10.2802L12.8699 13.4602L10.0499 11.2502C9.88988 11.1302 9.68988 11.0702 9.48988 11.1002C9.28988 11.1202 9.10988 11.2202 8.98988 11.3802L5.98988 15.2702C5.73988 15.6002 5.79988 16.0702 6.12988 16.3202C6.26988 16.4302 6.42988 16.4802 6.58988 16.4802C6.80988 16.4802 7.03988 16.3802 7.17988 16.1902L9.70988 12.9002L12.5299 15.1102C12.6899 15.2302 12.8899 15.2902 13.0899 15.2602C13.2899 15.2402 13.4699 15.1402 13.5899 14.9802Z" fill="#212121"/>
<path fill-rule="evenodd" clip-rule="evenodd" d="M19.8696 7.2002C20.2896 7.2002 20.6896 7.08019 21.0196 6.8802C21.6696 6.4902 22.1096 5.7702 22.1096 4.9502C22.1096 3.7102 21.1096 2.7002 19.8696 2.7002C19.0596 2.7002 18.3496 3.1302 17.9496 3.7802C17.7396 4.1202 17.6196 4.5202 17.6196 4.9502C17.6196 6.1902 18.6296 7.2002 19.8696 7.2002Z" fill="#212121"/>
</svg>
