<svg width="25" height="25" viewBox="0 0 25 25" fill="none" xmlns="http://www.w3.org/2000/svg">
<path fill-rule="evenodd" clip-rule="evenodd" d="M15.463 15.4352C14.911 15.4352 14.459 14.9882 14.459 14.4352C14.459 13.8822 14.902 13.4352 15.454 13.4352H15.463C16.015 13.4352 16.463 13.8822 16.463 14.4352C16.463 14.9882 16.015 15.4352 15.463 15.4352ZM12.463 11.4352C11.911 11.4352 11.459 10.9882 11.459 10.4352C11.459 9.88216 11.902 9.43516 12.454 9.43516H12.463C13.015 9.43516 13.463 9.88216 13.463 10.4352C13.463 10.9882 13.015 11.4352 12.463 11.4352ZM9.455 15.4352C8.903 15.4352 8.45 14.9882 8.45 14.4352C8.45 13.8822 8.894 13.4352 9.446 13.4352H9.455C10.007 13.4352 10.455 13.8822 10.455 14.4352C10.455 14.9882 10.007 15.4352 9.455 15.4352ZM12.25 2.78516C5.051 2.78516 2.5 5.33616 2.5 12.5352C2.5 19.7332 5.051 22.2852 12.25 22.2852C19.449 22.2852 22 19.7332 22 12.5352C22 5.33616 19.449 2.78516 12.25 2.78516Z" fill="#212121"/>
</svg>
