<svg width="24" height="24" viewBox="0 0 24 24" fill="none" xmlns="http://www.w3.org/2000/svg">
<path d="M12 21.25C18.937 21.25 21.25 18.937 21.25 12" stroke="#212121" stroke-width="1.5" stroke-linecap="round" stroke-linejoin="round"/>
<path d="M12 2.75C5.063 2.75 2.75 5.063 2.75 12C2.75 17.553 4.232 20.143 8.382 20.955" stroke="#212121" stroke-width="1.5" stroke-linecap="round" stroke-linejoin="round"/>
<path fill-rule="evenodd" clip-rule="evenodd" d="M19.5293 4.30364V4.30364C18.5363 3.42464 17.0193 3.51664 16.1403 4.50964C16.1403 4.50964 11.7713 9.44464 10.2563 11.1576C8.73926 12.8696 9.85126 15.2346 9.85126 15.2346C9.85126 15.2346 12.3553 16.0276 13.8493 14.3396C15.3443 12.6516 19.7353 7.69264 19.7353 7.69264C20.6143 6.69964 20.5213 5.18264 19.5293 4.30364Z" stroke="#212121" stroke-width="1.5" stroke-linecap="round" stroke-linejoin="round"/>
<path d="M15.0093 5.80078L16.8223 7.40578" stroke="#212121" stroke-width="1.5" stroke-linecap="round" stroke-linejoin="round"/>
</svg>
