<svg width="25" height="25" viewBox="0 0 25 25" fill="none" xmlns="http://www.w3.org/2000/svg">
<path opacity="0.4" fill-rule="evenodd" clip-rule="evenodd" d="M11.5322 6.88945C4.66545 7.0241 2.2019 9.14368 2.2019 14.7929C2.2019 20.6349 4.8319 22.7069 12.2509 22.7069C19.6689 22.7069 22.2979 20.6349 22.2979 14.7929C22.2979 9.66886 20.2766 7.44596 14.7773 6.97659C13.661 6.89951 12.3561 6.88491 11.5322 6.88945Z" fill="#212121"/>
<path d="M13.5843 6.90453V6.36153C13.5643 4.85253 12.3403 3.59753 10.8143 3.64453H9.79328C9.65028 3.64453 9.51528 3.58953 9.41328 3.48953C9.30928 3.38753 9.25228 3.25253 9.25028 3.10753C9.24628 2.69253 8.89028 2.33953 8.49328 2.36453C8.07928 2.36853 7.74628 2.70753 7.75028 3.12153C7.76128 4.24153 8.67528 5.14453 9.78628 5.14453H10.8283C11.5123 5.14453 12.0753 5.69853 12.0843 6.37253V6.88353C11.5631 6.88582 13.5843 6.90453 13.5843 6.90453Z" fill="#212121"/>
<path d="M11.0652 15.4984H9.99124V16.5364C9.99124 16.9504 9.65524 17.2864 9.24124 17.2864C8.82724 17.2864 8.49124 16.9504 8.49124 16.5364V15.4984H7.41724C7.00324 15.4984 6.66724 15.1624 6.66724 14.7484C6.66724 14.3344 7.00324 13.9984 7.41724 13.9984H8.49124V12.9604C8.49124 12.5464 8.82724 12.2104 9.24124 12.2104C9.65524 12.2104 9.99124 12.5464 9.99124 12.9604V13.9984H11.0652C11.4792 13.9984 11.8152 14.3344 11.8152 14.7484C11.8152 15.1624 11.4792 15.4984 11.0652 15.4984Z" fill="#212121"/>
<path d="M15.3612 13.8194H15.4632C15.8772 13.8194 16.2132 13.4834 16.2132 13.0694C16.2132 12.6554 15.8772 12.3194 15.4632 12.3194H15.3612C14.9472 12.3194 14.6112 12.6554 14.6112 13.0694C14.6112 13.4834 14.9472 13.8194 15.3612 13.8194Z" fill="#212121"/>
<path d="M17.0922 17.2314H17.1942C17.6082 17.2314 17.9442 16.8954 17.9442 16.4814C17.9442 16.0674 17.6082 15.7314 17.1942 15.7314H17.0922C16.6782 15.7314 16.3422 16.0674 16.3422 16.4814C16.3422 16.8954 16.6782 17.2314 17.0922 17.2314Z" fill="#212121"/>
</svg>
