<svg width="25" height="25" viewBox="0 0 25 25" fill="none" xmlns="http://www.w3.org/2000/svg">
<path fill-rule="evenodd" clip-rule="evenodd" d="M19.845 6.10424L22.315 3.63424C22.608 3.34124 22.608 2.86724 22.315 2.57424C22.022 2.28124 21.547 2.28124 21.254 2.57424L18.784 5.04324L16.315 2.57424C16.022 2.28124 15.547 2.28124 15.254 2.57424C14.961 2.86724 14.961 3.34124 15.254 3.63424L17.724 6.10424L15.254 8.57424C14.961 8.86724 14.961 9.34124 15.254 9.63424C15.401 9.78124 15.592 9.85424 15.784 9.85424C15.977 9.85424 16.168 9.78124 16.315 9.63424L18.784 7.16524L21.254 9.63424C21.401 9.78124 21.592 9.85424 21.784 9.85424C21.977 9.85424 22.168 9.78124 22.315 9.63424C22.608 9.34124 22.608 8.86724 22.315 8.57424L19.845 6.10424Z" fill="#212121"/>
<path fill-rule="evenodd" clip-rule="evenodd" d="M15.8079 14.451C14.8099 14.937 13.9469 15.359 11.6999 13.112C9.45387 10.865 9.87287 10.002 10.3609 9.00295C11.0649 7.55496 11.3499 6.23795 8.14787 3.60095C7.38487 2.97695 6.56287 2.73995 5.68887 2.90295C3.82887 3.24895 2.55787 5.28595 2.55987 5.28595C1.74887 6.42295 0.636873 9.84096 7.80387 17.007C12.5159 21.719 15.6079 22.852 17.4839 22.852C18.4609 22.852 19.1099 22.545 19.4859 22.276C19.5059 22.263 21.5749 20.959 21.9109 19.108C22.0669 18.244 21.8309 17.422 21.2079 16.661C18.5749 13.464 17.2569 13.746 15.8079 14.451Z" fill="#212121"/>
</svg>
