<svg width="25" height="25" viewBox="0 0 25 25" fill="none" xmlns="http://www.w3.org/2000/svg">
<path fill-rule="evenodd" clip-rule="evenodd" d="M16.5199 11.2002L13.5899 14.9802C13.4699 15.1402 13.2899 15.2402 13.0899 15.2602C12.8899 15.2902 12.6899 15.2302 12.5299 15.1102L9.70989 12.9002L7.17989 16.1902C7.03989 16.3802 6.80989 16.4802 6.58989 16.4802C6.42989 16.4802 6.26989 16.4302 6.12989 16.3202C5.79989 16.0702 5.73989 15.6002 5.98989 15.2702L8.98989 11.3802C9.10989 11.2202 9.28989 11.1202 9.48989 11.1002C9.68989 11.0702 9.88989 11.1302 10.0499 11.2502L12.8699 13.4602L15.3299 10.2802C15.5899 9.9502 16.0599 9.8902 16.3899 10.1502C16.7099 10.4002 16.7699 10.8702 16.5199 11.2002ZM21.6199 8.8102C21.0899 9.0602 20.4899 9.2002 19.8699 9.2002C17.5299 9.2002 15.6199 7.2902 15.6199 4.9502C15.6199 4.3102 15.7599 3.7102 16.0199 3.1702C14.9199 2.9402 13.6399 2.8302 12.1599 2.8302C4.94989 2.8302 2.38989 5.3802 2.38989 12.6002C2.38989 19.8202 4.94989 22.3702 12.1599 22.3702C19.3799 22.3702 21.9399 19.8202 21.9399 12.6002C21.9399 11.1502 21.8399 9.8902 21.6199 8.8102Z" fill="#212121"/>
<path fill-rule="evenodd" clip-rule="evenodd" d="M19.8699 7.2002C20.2899 7.2002 20.6899 7.08019 21.0199 6.8802C21.6699 6.4902 22.1099 5.7702 22.1099 4.9502C22.1099 3.7102 21.1099 2.7002 19.8699 2.7002C19.0599 2.7002 18.3499 3.1302 17.9499 3.7802C17.7399 4.1202 17.6199 4.5202 17.6199 4.9502C17.6199 6.1902 18.6299 7.2002 19.8699 7.2002Z" fill="#212121"/>
</svg>
