<svg width="24" height="24" viewBox="0 0 24 24" fill="none" xmlns="http://www.w3.org/2000/svg">
<path fill-rule="evenodd" clip-rule="evenodd" d="M6.60376 13.082C7.01797 13.082 7.35376 13.4178 7.35376 13.832C7.35376 16.3922 9.42899 18.4676 11.9903 18.4676C14.5505 18.4676 16.6258 16.3923 16.6258 13.832C16.6258 13.4178 16.9616 13.082 17.3758 13.082C17.79 13.082 18.1258 13.4178 18.1258 13.832C18.1258 17.2207 15.3789 19.9676 11.9903 19.9676C8.60073 19.9676 5.85376 17.2208 5.85376 13.832C5.85376 13.4178 6.18955 13.082 6.60376 13.082Z" fill="#212121"/>
<path fill-rule="evenodd" clip-rule="evenodd" d="M11.9902 18.4678C12.4044 18.4678 12.7402 18.8036 12.7402 19.2178V21.2622C12.7402 21.6764 12.4044 22.0122 11.9902 22.0122C11.576 22.0122 11.2402 21.6764 11.2402 21.2622V19.2178C11.2402 18.8036 11.576 18.4678 11.9902 18.4678Z" fill="#212121"/>
<path fill-rule="evenodd" clip-rule="evenodd" d="M4.46216 13.832C4.46216 13.4178 4.79794 13.082 5.21216 13.082H18.7677C19.1819 13.082 19.5177 13.4178 19.5177 13.832C19.5177 14.2462 19.1819 14.582 18.7677 14.582H5.21216C4.79794 14.582 4.46216 14.2462 4.46216 13.832Z" fill="#212121"/>
<path fill-rule="evenodd" clip-rule="evenodd" d="M5.85352 8.59844C5.85352 5.20969 8.60049 2.46289 11.99 2.46289C15.3787 2.46289 18.1256 5.20978 18.1256 8.59844V10.7397C18.1256 11.154 17.7898 11.4897 17.3756 11.4897C16.9614 11.4897 16.6256 11.154 16.6256 10.7397V8.59844C16.6256 6.0382 14.5503 3.96289 11.99 3.96289C9.42874 3.96289 7.35352 6.03829 7.35352 8.59844V10.7397C7.35352 11.154 7.01773 11.4897 6.60352 11.4897C6.1893 11.4897 5.85352 11.154 5.85352 10.7397V8.59844Z" fill="#212121"/>
<path fill-rule="evenodd" clip-rule="evenodd" d="M9.74756 10.4521C9.74756 10.0379 10.0833 9.70215 10.4976 9.70215H13.4825C13.8967 9.70215 14.2325 10.0379 14.2325 10.4521C14.2325 10.8664 13.8967 11.2021 13.4825 11.2021H10.4976C10.0833 11.2021 9.74756 10.8664 9.74756 10.4521Z" fill="#212121"/>
<path fill-rule="evenodd" clip-rule="evenodd" d="M10.738 7.68164C10.738 7.26743 11.0738 6.93164 11.488 6.93164H12.4912C12.9055 6.93164 13.2412 7.26743 13.2412 7.68164C13.2412 8.09585 12.9055 8.43164 12.4912 8.43164H11.488C11.0738 8.43164 10.738 8.09585 10.738 7.68164Z" fill="#212121"/>
</svg>
