<svg width="24" height="24" viewBox="0 0 24 24" fill="none" xmlns="http://www.w3.org/2000/svg">
<path d="M5.84434 9.53327C6.20034 9.95427 9.39134 13.6523 12.0113 13.6523C14.6343 13.6523 17.7933 9.95127 18.1443 9.52927C18.4093 9.21227 18.3663 8.73927 18.0493 8.47427C17.7293 8.20927 17.2583 8.25227 16.9923 8.56927C15.8363 9.95427 13.4613 12.1523 12.0113 12.1523C10.5593 12.1523 8.16234 9.95227 6.99134 8.56627C6.72434 8.24927 6.25134 8.20927 5.93534 8.47627C5.61834 8.74327 5.57834 9.21627 5.84434 9.53327Z" fill="#212121"/>
<path fill-rule="evenodd" clip-rule="evenodd" d="M1.72656 11.9998C1.72656 19.2848 4.41556 21.8668 11.9996 21.8668C19.5846 21.8668 22.2736 19.2848 22.2736 11.9998C22.2736 4.71481 19.5846 2.13281 11.9996 2.13281C4.41556 2.13281 1.72656 4.71481 1.72656 11.9998ZM3.22656 11.9998C3.22656 5.58781 5.27656 3.63281 11.9996 3.63281C18.7236 3.63281 20.7736 5.58781 20.7736 11.9998C20.7736 18.4118 18.7236 20.3668 11.9996 20.3668C5.27656 20.3668 3.22656 18.4118 3.22656 11.9998Z" fill="#212121"/>
</svg>
