<svg width="25" height="24" viewBox="0 0 25 24" fill="none" xmlns="http://www.w3.org/2000/svg">
<path fill-rule="evenodd" clip-rule="evenodd" d="M20.75 12.0001C20.75 8.80205 15.273 5.68805 14.175 5.09605C13.688 4.83305 13.082 5.01505 12.82 5.50205C12.559 5.98705 12.739 6.59405 13.226 6.85605C15.057 7.84505 17.48 9.58205 18.385 11.0011H4.75C4.197 11.0011 3.75 11.4481 3.75 12.0011C3.75 12.5531 4.197 13.0011 4.75 13.0011H18.383C17.477 14.4201 15.056 16.1571 13.226 17.1451C12.739 17.4081 12.559 18.0141 12.82 18.5001C13.001 18.8351 13.346 19.0251 13.701 19.0251C13.861 19.0251 14.024 18.9871 14.175 18.9051C15.272 18.3131 20.745 15.2011 20.75 12.0031C20.75 12.0021 20.75 12.0001 20.75 12.0001Z" fill="#212121"/>
</svg>
