<svg width="24" height="24" viewBox="0 0 24 24" fill="none" xmlns="http://www.w3.org/2000/svg">
<path fill-rule="evenodd" clip-rule="evenodd" d="M6.95993 9.13731C6.77193 9.59031 6.60593 10.0733 6.60593 10.5033C6.60593 10.8123 6.69093 11.0933 6.91493 11.3163C7.38034 11.7799 9.23898 12.0371 11.2498 12.0877L11.2498 20.3045C11.2498 20.7185 11.5858 21.0545 11.9998 21.0545C12.4138 21.0545 12.7498 20.7185 12.7498 20.3045L12.7498 12.0873C14.7563 12.0358 16.6088 11.7785 17.0729 11.3153C17.6359 10.7513 17.3489 9.81831 17.0389 9.06531C16.3879 7.49231 13.6409 2.94531 11.9929 2.94531C10.2919 2.94531 7.55693 7.69531 6.95993 9.13731ZM8.12493 10.3153C8.36493 9.01931 11.0359 4.95231 11.9949 4.46631C12.9909 4.95031 15.6859 9.01831 15.8839 10.2913C14.6299 10.7043 9.32693 10.6973 8.12493 10.3153Z" fill="#212121"/>
</svg>
