<svg width="25" height="24" viewBox="0 0 25 24" fill="none" xmlns="http://www.w3.org/2000/svg">
<path opacity="0.4" fill-rule="evenodd" clip-rule="evenodd" d="M17.5207 15.1719C15.6937 15.1719 14.2077 13.6859 14.2077 11.8599C14.2077 10.0329 15.6937 8.54594 17.5207 8.54594H21.7307C20.8527 4.49194 18.0597 2.96094 12.2507 2.96094C5.01471 2.96094 2.44971 5.32694 2.44971 11.9999C2.44971 18.6739 5.01471 21.0389 12.2507 21.0389C18.1927 21.0389 20.9807 19.4389 21.7887 15.1719H17.5207Z" fill="#212121"/>
<path fill-rule="evenodd" clip-rule="evenodd" d="M17.5205 13.6719C16.5215 13.6719 15.7075 12.8589 15.7075 11.8599C15.7075 10.8599 16.5215 10.0459 17.5205 10.0459H21.9565C22.0155 10.6549 22.0505 11.2979 22.0505 11.9999C22.0505 12.5949 22.0225 13.1439 21.9805 13.6719H17.5205ZM18.4106 11.7998C18.4106 12.2138 18.0746 12.5498 17.6606 12.5498C17.2466 12.5498 16.9106 12.2138 16.9106 11.7998C16.9106 11.3858 17.2466 11.0498 17.6606 11.0498C18.0746 11.0498 18.4106 11.3858 18.4106 11.7998Z" fill="#212121"/>
<path fill-rule="evenodd" clip-rule="evenodd" d="M11.9018 8.64062H7.8418C7.4278 8.64062 7.0918 8.30463 7.0918 7.89062C7.0918 7.47662 7.4278 7.14062 7.8418 7.14062H11.9018C12.3158 7.14062 12.6518 7.47662 12.6518 7.89062C12.6518 8.30463 12.3158 8.64062 11.9018 8.64062Z" fill="#212121"/>
</svg>
