<svg width="24" height="24" viewBox="0 0 24 24" fill="none" xmlns="http://www.w3.org/2000/svg">
<path d="M10.4838 17.2452H4.01123" stroke="#212121" stroke-width="1.5" stroke-linecap="round" stroke-linejoin="round"/>
<path fill-rule="evenodd" clip-rule="evenodd" d="M14.5452 17.2462C14.5452 19.288 15.2261 19.968 17.267 19.968C19.3079 19.968 19.9887 19.288 19.9887 17.2462C19.9887 15.2044 19.3079 14.5244 17.267 14.5244C15.2261 14.5244 14.5452 15.2044 14.5452 17.2462Z" stroke="#212121" stroke-width="1.5" stroke-linecap="round" stroke-linejoin="round"/>
<path d="M13.5168 6.75596H19.9885" stroke="#212121" stroke-width="1.5" stroke-linecap="round" stroke-linejoin="round"/>
<path fill-rule="evenodd" clip-rule="evenodd" d="M9.45546 6.75499C9.45546 4.7141 8.77457 4.0332 6.73367 4.0332C4.69188 4.0332 4.01099 4.7141 4.01099 6.75499C4.01099 8.79678 4.69188 9.47678 6.73367 9.47678C8.77457 9.47678 9.45546 8.79678 9.45546 6.75499Z" stroke="#212121" stroke-width="1.5" stroke-linecap="round" stroke-linejoin="round"/>
</svg>
