<svg width="25" height="24" viewBox="0 0 25 24" fill="none" xmlns="http://www.w3.org/2000/svg">
<path fill-rule="evenodd" clip-rule="evenodd" d="M13.0619 6.91169C12.5259 7.44669 12.3409 9.25869 12.2909 11.0037L12.2849 13.0037C12.3379 15.2407 12.5979 16.6107 13.0619 17.0747C13.6259 17.6377 14.5659 17.3487 15.3219 17.0347C16.8909 16.3837 21.4269 13.6377 21.4269 11.9927C21.4269 10.2977 16.6889 7.56069 15.2499 6.96369C14.4679 6.63869 13.5969 6.37869 13.0619 6.91169Z" fill="#212121"/>
<path opacity="0.4" fill-rule="evenodd" clip-rule="evenodd" d="M12.29 11.0039L4.073 11.0039C3.52 11.0039 3.073 11.4509 3.073 12.0039C3.073 12.5569 3.52 13.0039 4.073 13.0039L12.284 13.0039L12.29 11.0039Z" fill="#212121"/>
</svg>
