<svg width="25" height="25" viewBox="0 0 25 25" fill="none" xmlns="http://www.w3.org/2000/svg">
<path fill-rule="evenodd" clip-rule="evenodd" d="M22.8151 12.6152H1.68506C1.27506 12.6152 0.935059 12.9552 0.935059 13.3652C0.935059 13.7752 1.27506 14.1152 1.68506 14.1152H2.30506C2.34506 14.7552 2.39506 15.3752 2.49506 15.9152V15.9552C3.12506 19.7152 5.09506 21.6652 8.87506 22.2952C8.91506 22.3052 8.96506 22.3052 9.00506 22.3052C9.36506 22.3052 9.67506 22.0452 9.74506 21.6752C9.80506 21.2752 9.53506 20.8852 9.12506 20.8152C5.93506 20.2852 4.49506 18.8352 3.97506 15.6652C3.96506 15.6452 3.96506 15.6352 3.96506 15.6152C3.88506 15.1652 3.84506 14.6552 3.80506 14.1152H5.90506C6.21506 17.9352 8.01506 19.3352 12.3551 19.3352C16.6951 19.3352 18.4951 17.9352 18.8051 14.1152H20.6851C20.6551 14.6652 20.6051 15.1952 20.5251 15.6652V15.7052C19.9951 18.8552 18.5451 20.2852 15.3751 20.8152C14.9651 20.8852 14.6951 21.2752 14.7651 21.6752C14.8251 22.0452 15.1351 22.3052 15.4951 22.3052C15.5451 22.3052 15.5851 22.3052 15.6251 22.2952C19.4251 21.6652 21.3951 19.6952 22.0151 15.9052V15.8652C22.1051 15.3352 22.1551 14.7352 22.1951 14.1152H22.8151C23.2351 14.1152 23.5651 13.7752 23.5651 13.3652C23.5651 12.9552 23.2351 12.6152 22.8151 12.6152Z" fill="#212121"/>
<g opacity="0.4">
<path fill-rule="evenodd" clip-rule="evenodd" d="M5.94495 11.1155H18.7549C18.3549 7.62551 16.5249 6.33551 12.3549 6.33551C8.18495 6.33551 6.35495 7.62551 5.94495 11.1155Z" fill="#212121"/>
<path fill-rule="evenodd" clip-rule="evenodd" d="M3.10995 10.0255C3.15095 10.0325 3.19195 10.0355 3.23195 10.0355C3.59295 10.0355 3.91095 9.7745 3.97095 9.4065C4.48595 6.2625 5.97895 4.7705 9.12195 4.2555C9.53095 4.1885 9.80795 3.8035 9.74095 3.3945C9.67495 2.9855 9.28595 2.7095 8.87995 2.7755C5.08295 3.3965 3.11295 5.3675 2.49095 9.1645C2.42395 9.5725 2.70095 9.9585 3.10995 10.0255Z" fill="#212121"/>
<path fill-rule="evenodd" clip-rule="evenodd" d="M15.3799 4.25589C18.5239 4.77089 20.0159 6.26289 20.5309 9.40589C20.5909 9.77489 20.9089 10.0349 21.2699 10.0349C21.3109 10.0349 21.3509 10.0319 21.3919 10.0259C21.8009 9.95789 22.0779 9.57189 22.0109 9.16389C21.3889 5.36689 19.4189 3.39689 15.6219 2.77589C15.2139 2.70789 14.8279 2.98489 14.7609 3.39489C14.6939 3.80389 14.9709 4.18889 15.3799 4.25589Z" fill="#212121"/>
</g>
</svg>
