<svg width="25" height="24" viewBox="0 0 25 24" fill="none" xmlns="http://www.w3.org/2000/svg">
<path opacity="0.4" fill-rule="evenodd" clip-rule="evenodd" d="M20.75 12.001C20.75 11.4487 20.3023 11.001 19.75 11.001L4.75 11.001C4.19772 11.001 3.75 11.4487 3.75 12.001C3.75 12.5533 4.19772 13.001 4.75 13.001L19.75 13.001C20.3023 13.001 20.75 12.5533 20.75 12.001Z" fill="#212121"/>
<path d="M10.3261 5.09593C10.8123 4.83388 11.4188 5.01556 11.6809 5.50172C11.8583 5.83101 11.8322 6.21557 11.6457 6.51089C11.5569 6.65152 11.4318 6.77192 11.2751 6.85647L11.2731 6.85751L11.2627 6.86319L11.2174 6.88814C11.1767 6.9107 11.1156 6.94492 11.0369 6.98989C10.8795 7.07987 10.6525 7.21256 10.3792 7.38065C9.83075 7.718 9.10502 8.19235 8.38432 8.74532C7.65769 9.30284 6.9686 9.91576 6.47026 10.5256C5.95254 11.1592 5.75059 11.6559 5.75059 11.9992C5.75059 12.3432 5.95275 12.8404 6.47043 13.4743C6.96878 14.0845 7.65787 14.6977 8.38449 15.2554C9.10518 15.8087 9.83089 16.2832 10.3793 16.6206C10.6526 16.7888 10.8796 16.9215 11.037 17.0115C11.1161 17.0568 11.1954 17.1017 11.2755 17.1452C11.7614 17.4074 11.9428 18.0138 11.6808 18.4998C11.4187 18.9859 10.8121 19.1675 10.326 18.9054C10.2313 18.8543 10.1377 18.8012 10.0442 18.7477C9.8708 18.6486 9.62514 18.5049 9.33122 18.324C8.74529 17.9635 7.9585 17.4497 7.16669 16.8419C6.3808 16.2387 5.5574 15.5181 4.92137 14.7394C4.30468 13.9842 3.75059 13.0371 3.75059 11.9992C3.75059 10.9615 4.30489 10.0148 4.92154 9.26014C5.55757 8.48176 6.38098 7.76155 7.16685 7.15857C7.95865 6.55105 8.74543 6.03752 9.33136 5.67712C9.62527 5.49633 9.87093 5.35268 10.0444 5.25354C10.1311 5.20394 10.2 5.1654 10.2479 5.13884L10.3038 5.10808L10.3193 5.09964L10.3238 5.09718L10.3261 5.09593Z" fill="#212121"/>
</svg>
