<svg width="24" height="24" viewBox="0 0 24 24" fill="none" xmlns="http://www.w3.org/2000/svg">
<path d="M3.484 19.1181C3.176 18.5811 3 17.9581 3 17.2951C3 15.2661 4.645 13.6211 6.673 13.6211C8.702 13.6211 10.347 15.2661 10.347 17.2951C10.347 19.3231 8.702 20.9681 6.673 20.9681" stroke="#212121" stroke-width="1.5" stroke-linecap="round" stroke-linejoin="round"/>
<path fill-rule="evenodd" clip-rule="evenodd" d="M21.0001 17.2941C21.0001 19.3231 19.3551 20.9671 17.3271 20.9671C15.2981 20.9671 13.6541 19.3231 13.6541 17.2941C13.6541 15.2651 15.2981 13.6201 17.3271 13.6201C19.3551 13.6201 21.0001 15.2651 21.0001 17.2941Z" stroke="#212121" stroke-width="1.5" stroke-linecap="round" stroke-linejoin="round"/>
<path d="M21.0001 6.70623C21.0001 8.73523 19.3551 10.3802 17.3271 10.3802C15.2981 10.3802 13.6541 8.73523 13.6541 6.70623C13.6541 4.67723 15.2981 3.03223 17.3271 3.03223C18.0641 3.03223 18.7511 3.25023 19.3261 3.62423" stroke="#212121" stroke-width="1.5" stroke-linecap="round" stroke-linejoin="round"/>
<path fill-rule="evenodd" clip-rule="evenodd" d="M10.347 6.70623C10.347 8.73523 8.702 10.3802 6.673 10.3802C4.645 10.3802 3 8.73523 3 6.70623C3 4.67723 4.645 3.03223 6.673 3.03223C8.702 3.03223 10.347 4.67723 10.347 6.70623Z" stroke="#212121" stroke-width="1.5" stroke-linecap="round" stroke-linejoin="round"/>
</svg>
