<svg width="25" height="25" viewBox="0 0 25 25" fill="none" xmlns="http://www.w3.org/2000/svg">
<path fill-rule="evenodd" clip-rule="evenodd" d="M6.20774 16.2591L9.59174 12.4261L9.39474 12.1101C8.92174 11.3501 8.67974 10.6891 8.58274 10.3821L10.2817 7.43107L6.58374 2.35107L6.19274 2.58107C4.61074 3.50907 3.45074 4.67007 2.54174 6.23307L2.48274 6.39207C2.00674 8.93507 3.32274 12.6251 5.83674 15.7921L6.20774 16.2591Z" fill="#212121"/>
<path fill-rule="evenodd" clip-rule="evenodd" d="M16.8855 14.0316L13.9405 15.7266C13.5885 15.6046 12.7895 15.2836 11.8935 14.6746L19.8645 6.17258L18.7695 5.14658L3.12848 21.8306L4.22348 22.8566L8.38148 18.4206C10.4415 20.1746 13.5225 22.0126 17.4385 22.0126C17.6275 22.0126 17.8205 22.0086 18.0135 21.9996L18.1325 21.9936L18.2355 21.9356C19.8385 21.0376 21.0015 19.8736 21.8985 18.2726L22.1135 17.8876L16.8855 14.0316Z" fill="#212121"/>
</svg>
