<svg width="25" height="25" viewBox="0 0 25 25" fill="none" xmlns="http://www.w3.org/2000/svg">
<path d="M15.4802 18.6797V18.9097C15.4802 20.6927 14.0342 22.1387 12.2512 22.1387C10.4682 22.1387 9.02319 20.6927 9.02319 18.9097V18.6797" stroke="#212121" stroke-width="1.5" stroke-linecap="square"/>
<path d="M11.5006 4.29667V5.04667H13.0006V4.29667H11.5006ZM13.0006 2.13867V1.38867H11.5006V2.13867H13.0006ZM19.3086 13.3987V12.6487H17.8086V13.3987H19.3086ZM20.2026 18.6797V19.4297H21.6301L20.8202 18.2542L20.2026 18.6797ZM4.29761 18.6797L3.68019 18.2539L2.86933 19.4297H4.29761V18.6797ZM17.7425 9.74301L17.8579 10.4841L19.34 10.2534L19.2247 9.51234L17.7425 9.74301ZM13.0006 4.29667V2.13867H11.5006V4.29667H13.0006ZM17.8086 13.3987C17.8086 15.4369 18.4289 17.4272 19.585 19.1052L20.8202 18.2542C19.8363 16.8261 19.3086 15.1325 19.3086 13.3987H17.8086ZM20.2026 17.9297H4.29761V19.4297H20.2026V17.9297ZM4.91502 19.1055C6.07244 17.4272 6.69161 15.4366 6.69161 13.3987H5.19161C5.19161 15.1327 4.66477 16.8262 3.68019 18.2539L4.91502 19.1055ZM6.69161 13.3987V10.6057H5.19161V13.3987H6.69161ZM6.69161 10.6057C6.69161 7.53581 9.1799 5.04667 12.2506 5.04667V3.54667C8.35132 3.54667 5.19161 6.70754 5.19161 10.6057H6.69161ZM12.2506 5.04667C15.0262 5.04667 17.3285 7.08261 17.7425 9.74301L19.2247 9.51234C18.6987 6.13274 15.777 3.54667 12.2506 3.54667V5.04667Z" fill="#212121"/>
</svg>
