<svg width="25" height="24" viewBox="0 0 25 24" fill="none" xmlns="http://www.w3.org/2000/svg">
<path fill-rule="evenodd" clip-rule="evenodd" d="M20.425 10.9996H12.198C12.132 9.09164 11.879 7.37064 11.436 6.92664C10.873 6.36364 9.93995 6.64964 9.18795 6.96064C7.61695 7.61064 3.07495 10.3566 3.07495 12.0066C3.07495 13.7096 7.82195 16.4446 9.26295 17.0416C9.71395 17.2286 10.196 17.3936 10.624 17.3936C10.933 17.3936 11.214 17.3086 11.437 17.0846C11.881 16.6386 12.134 14.9116 12.199 12.9996H20.425C20.978 12.9996 21.425 12.5526 21.425 11.9996C21.425 11.4466 20.978 10.9996 20.425 10.9996Z" fill="#212121"/>
</svg>
