<svg width="25" height="25" viewBox="0 0 25 25" fill="none" xmlns="http://www.w3.org/2000/svg">
<path fill-rule="evenodd" clip-rule="evenodd" d="M10.7345 16.8474H4.26147C3.70947 16.8474 3.26147 17.2944 3.26147 17.8474C3.26147 18.4004 3.70947 18.8474 4.26147 18.8474H10.7345C11.2865 18.8474 11.7345 18.4004 11.7345 17.8474C11.7345 17.2944 11.2865 16.8474 10.7345 16.8474Z" fill="#212121"/>
<path fill-rule="evenodd" clip-rule="evenodd" d="M17.5172 14.6266C15.1992 14.6266 14.2952 15.5296 14.2952 17.8486C14.2952 20.1676 15.1992 21.0706 17.5172 21.0706C19.8362 21.0706 20.7392 20.1676 20.7392 17.8486C20.7392 15.5296 19.8362 14.6266 17.5172 14.6266Z" fill="#212121"/>
<path fill-rule="evenodd" clip-rule="evenodd" d="M20.2383 6.35815H13.7673C13.2153 6.35815 12.7673 6.80515 12.7673 7.35815C12.7673 7.91115 13.2153 8.35815 13.7673 8.35815H20.2383C20.7903 8.35815 21.2383 7.91115 21.2383 7.35815C21.2383 6.80515 20.7903 6.35815 20.2383 6.35815Z" fill="#212121"/>
<path fill-rule="evenodd" clip-rule="evenodd" d="M6.98354 10.5797C9.30254 10.5797 10.2055 9.67674 10.2055 7.35674C10.2055 5.03874 9.30254 4.13574 6.98354 4.13574C4.66454 4.13574 3.76154 5.03874 3.76154 7.35674C3.76154 9.67674 4.66454 10.5797 6.98354 10.5797Z" fill="#212121"/>
</svg>
