<svg width="24" height="24" viewBox="0 0 24 24" fill="none" xmlns="http://www.w3.org/2000/svg">
<path fill-rule="evenodd" clip-rule="evenodd" d="M9.56302 17.9032C10.368 18.5202 11.47 19.3642 12.726 19.3642C13.208 19.3642 13.712 19.2402 14.231 18.9312C15.648 17.9252 16.15 16.1132 16.15 12.0062C16.15 7.84718 15.666 6.09918 14.18 5.04718C12.359 3.97018 10.677 5.25718 9.56402 6.10918L9.56154 6.11109C9.14031 6.4345 8.70546 6.76837 8.41902 6.86118C7.99803 7.00052 7.62656 7.04476 7.26716 7.08757L7.26202 7.08818C6.57102 7.17018 5.85702 7.25518 5.06002 7.93218C3.78102 9.01818 3.78502 10.7442 3.78902 12.0062C3.78502 13.2672 3.78102 14.9922 5.06002 16.0802C5.85702 16.7582 6.57202 16.8432 7.26302 16.9252C7.62402 16.9682 7.99702 17.0132 8.41802 17.1502C8.70212 17.2442 9.13224 17.5734 9.55024 17.8934L9.56302 17.9032ZM10.476 7.30018C11.374 6.61218 12.077 6.12418 12.722 6.12418C12.941 6.12418 13.153 6.18018 13.363 6.30418C14.158 6.86818 14.65 8.01918 14.65 12.0062C14.65 15.9932 14.158 17.1442 13.414 17.6752C12.532 18.1962 11.678 17.6352 10.475 16.7122L10.4734 16.711C9.93001 16.2944 9.4155 15.9 8.88702 15.7262C8.32302 15.5412 7.85402 15.4842 7.44002 15.4362L7.43737 15.4359C6.84295 15.3641 6.48335 15.3206 6.03102 14.9372C5.28262 14.3017 5.28602 13.0851 5.28901 12.0108L5.28902 12.0082V12.0042L5.28901 12.0016C5.28602 10.9272 5.28262 9.71068 6.03102 9.07518C6.48302 8.69118 6.84302 8.64818 7.43902 8.57818L7.45693 8.57602C7.86657 8.52657 8.33115 8.47049 8.88802 8.28618C9.41602 8.11218 9.93102 7.71818 10.476 7.30018Z" fill="#212121"/>
<path d="M18.1649 16.3153C18.2799 16.3793 18.4049 16.4093 18.5279 16.4093C18.7919 16.4093 19.0479 16.2693 19.1849 16.0223C20.5539 13.5503 20.5539 10.4723 19.1849 7.99133C18.9849 7.62833 18.5279 7.49733 18.1659 7.69733C17.8029 7.89733 17.6719 8.35333 17.8719 8.71633C18.9939 10.7493 18.9939 13.2703 17.8719 15.2963C17.6719 15.6583 17.8029 16.1143 18.1649 16.3153Z" fill="#212121"/>
</svg>
