<svg width="25" height="25" viewBox="0 0 25 25" fill="none" xmlns="http://www.w3.org/2000/svg">
<path fill-rule="evenodd" clip-rule="evenodd" d="M16.253 13.5352C15.701 13.5352 15.249 13.0882 15.249 12.5352C15.249 11.9822 15.692 11.5352 16.244 11.5352H16.253C16.805 11.5352 17.253 11.9822 17.253 12.5352C17.253 13.0882 16.805 13.5352 16.253 13.5352ZM12.254 13.5352C11.702 13.5352 11.25 13.0882 11.25 12.5352C11.25 11.9822 11.693 11.5352 12.245 11.5352H12.254C12.806 11.5352 13.254 11.9822 13.254 12.5352C13.254 13.0882 12.806 13.5352 12.254 13.5352ZM8.254 13.5352C7.702 13.5352 7.25 13.0882 7.25 12.5352C7.25 11.9822 7.693 11.5352 8.245 11.5352H8.254C8.806 11.5352 9.254 11.9822 9.254 12.5352C9.254 13.0882 8.806 13.5352 8.254 13.5352ZM12.25 2.78516C5.051 2.78516 2.5 5.33716 2.5 12.5352C2.5 19.7332 5.051 22.2852 12.25 22.2852C19.449 22.2852 22 19.7332 22 12.5352C22 5.33716 19.449 2.78516 12.25 2.78516Z" fill="#212121"/>
</svg>
