<svg width="25" height="25" viewBox="0 0 25 25" fill="none" xmlns="http://www.w3.org/2000/svg">
<path d="M5.71701 16.1707L6.18332 16.7581L7.35814 15.8254L6.89183 15.238L5.71701 16.1707ZM3.05042 6.70735L2.40203 6.33039L2.33703 6.4422L2.31323 6.56932L3.05042 6.70735ZM6.52242 3.23535L7.12878 2.79396L6.72896 2.2447L6.14295 2.58843L6.52242 3.23535ZM9.76242 7.68635L10.4125 8.06044L10.6553 7.63853L10.3688 7.24496L9.76242 7.68635ZM7.46937 10.1673L7.09529 10.8173L8.39537 11.5655L8.76946 10.9154L7.46937 10.1673ZM11.5287 14.2663L10.9437 13.797L10.0051 14.9671L10.5901 15.4364L11.5287 14.2663ZM14.0734 16.4954L13.8747 17.2186L14.1766 17.3015L14.4478 17.1452L14.0734 16.4954ZM16.9274 14.8514L17.3726 14.2478L16.978 13.9567L16.5531 14.2015L16.9274 14.8514ZM21.5374 18.2514L22.1921 18.6173L22.5147 18.0402L21.9826 17.6478L21.5374 18.2514ZM18.0664 21.7234L18.1007 22.4726L18.278 22.4645L18.4329 22.3777L18.0664 21.7234ZM8.76527 17.2565L8.21337 16.7486L7.19767 17.8524L7.74957 18.3602L8.76527 17.2565ZM6.89183 15.238C5.72497 13.7682 4.84199 12.1851 4.30594 10.6987C3.76573 9.20069 3.59798 7.85816 3.78761 6.84538L2.31323 6.56932C2.05686 7.93854 2.3031 9.56652 2.89489 11.2075C3.49084 12.8601 4.45787 14.5845 5.71701 16.1707L6.89183 15.238ZM3.6988 7.08431C4.50039 5.70554 5.52065 4.69247 6.90189 3.88227L6.14295 2.58843C4.54418 3.52623 3.33645 4.72316 2.40203 6.33039L3.6988 7.08431ZM5.91605 3.67674L9.15605 8.12774L10.3688 7.24496L7.12878 2.79396L5.91605 3.67674ZM9.11237 7.31226L7.46937 10.1673L8.76946 10.9154L10.4125 8.06044L9.11237 7.31226ZM10.5901 15.4364C11.4219 16.1037 12.2314 16.5452 12.8349 16.8209C13.1373 16.959 13.3897 17.0564 13.57 17.1201C13.6602 17.152 13.7325 17.1755 13.7842 17.1916C13.81 17.1997 13.8307 17.2059 13.8459 17.2103C13.8535 17.2126 13.8598 17.2143 13.8646 17.2157C13.867 17.2164 13.869 17.217 13.8707 17.2174C13.8716 17.2177 13.8723 17.2179 13.873 17.2181C13.8733 17.2182 13.8737 17.2183 13.8739 17.2183C13.8741 17.2184 13.8743 17.2184 13.8744 17.2185C13.8746 17.2185 13.8747 17.2186 14.0734 16.4954C14.2721 15.7721 14.2723 15.7722 14.2724 15.7722C14.2725 15.7723 14.2727 15.7723 14.2728 15.7723C14.273 15.7724 14.2731 15.7724 14.2733 15.7725C14.2736 15.7726 14.2738 15.7726 14.274 15.7727C14.2742 15.7727 14.2742 15.7727 14.2737 15.7726C14.2729 15.7724 14.2707 15.7717 14.2672 15.7707C14.2602 15.7686 14.2478 15.765 14.2305 15.7596C14.1959 15.7488 14.1415 15.7312 14.07 15.7059C13.9269 15.6553 13.716 15.5743 13.4582 15.4565C12.9415 15.2205 12.2439 14.84 11.5287 14.2663L10.5901 15.4364ZM14.4478 17.1452L17.3018 15.5012L16.5531 14.2015L13.6991 15.8455L14.4478 17.1452ZM16.4823 15.4549L21.0923 18.8549L21.9826 17.6478L17.3726 14.2478L16.4823 15.4549ZM20.8828 17.8854C20.0935 19.2971 19.1114 20.2785 17.6999 21.069L18.4329 22.3777C20.0854 21.4522 21.2673 20.2716 22.1921 18.6173L20.8828 17.8854ZM18.0321 20.9741C14.482 21.1366 11.2684 19.5598 8.76527 17.2565L7.74957 18.3602C10.4585 20.8529 14.0449 22.6581 18.1007 22.4726L18.0321 20.9741Z" fill="#212121"/>
<path d="M4.26611 22.0192L18.8801 6.43018" stroke="#212121" stroke-width="1.5" stroke-linecap="square" stroke-linejoin="round"/>
</svg>
