<svg width="25" height="24" viewBox="0 0 25 24" fill="none" xmlns="http://www.w3.org/2000/svg">
<path fill-rule="evenodd" clip-rule="evenodd" d="M6.60257 18.6618C8.24344 19.5128 10.1516 19.8625 12.2296 19.8574H12.2333C14.3113 19.8625 16.2194 19.5128 17.8603 18.6619C16.9078 16.4394 14.813 15.3665 12.2334 15.3731H12.2295C9.64663 15.3665 7.55522 16.4369 6.60257 18.6618ZM12.2315 13.8731C8.95855 13.8653 6.03368 15.3893 4.9629 18.7753L4.78564 19.3358L5.28761 19.6418C7.34942 20.8987 9.74427 21.3633 12.2315 21.3574C14.7187 21.3633 17.1135 20.8987 19.1753 19.6418L19.6773 19.3358L19.5 18.7753C18.4304 15.3925 15.5012 13.8653 12.2315 13.8731Z" fill="#212121"/>
<path fill-rule="evenodd" clip-rule="evenodd" d="M17.6538 13.023C20.0186 13.0169 22.1786 14.1282 22.9654 16.6165L23.1427 17.177L22.6407 17.483C21.8334 17.9751 20.9571 18.2981 20.0425 18.4898L19.3084 18.6437L19.0007 17.1756L19.7347 17.0218C20.2909 16.9051 20.8164 16.734 21.3071 16.5008C20.6463 15.1717 19.3199 14.5187 17.6576 14.523L16.9076 14.5249L16.9038 13.0249L17.6538 13.023Z" fill="#212121"/>
<path fill-rule="evenodd" clip-rule="evenodd" d="M6.84644 13.023C4.48167 13.0169 2.32164 14.1282 1.53482 16.6165L1.35758 17.177L1.85953 17.483C2.6668 17.9751 3.54314 18.2981 4.45775 18.4898L5.1918 18.6437L5.49958 17.1756L4.76554 17.0218C4.20932 16.9051 3.68383 16.734 3.19315 16.5008C3.85396 15.1717 5.18036 14.5187 6.8426 14.523L7.5926 14.5249L7.59644 13.0249L6.84644 13.023Z" fill="#212121"/>
<path fill-rule="evenodd" clip-rule="evenodd" d="M12.2 4.14258C10.3421 4.14258 8.83618 5.64785 8.83618 7.50518C8.83618 9.3625 10.3421 10.8678 12.2 10.8678C14.0565 10.8678 15.5626 9.36265 15.5626 7.50518C15.5626 5.64771 14.0565 4.14258 12.2 4.14258ZM7.33618 7.50518C7.33618 4.81885 9.51424 2.64258 12.2 2.64258C14.8847 2.64258 17.0626 4.81899 17.0626 7.50518C17.0626 10.1914 14.8847 12.3678 12.2 12.3678C9.51424 12.3678 7.33618 10.1915 7.33618 7.50518Z" fill="#212121"/>
<path fill-rule="evenodd" clip-rule="evenodd" d="M8.95442 5.71563L8.26189 5.42769C6.40962 4.65754 4.28264 5.53435 3.51205 7.38768C2.74147 9.241 3.61977 11.3674 5.47205 12.1375C7.00189 12.7736 8.71667 12.2868 9.70262 11.0567L10.1717 10.4715L9.00124 9.53339L8.53218 10.1186C7.95296 10.8413 6.94504 11.1255 6.04793 10.7525C4.96033 10.3003 4.44468 9.05168 4.8971 7.96356C5.34953 6.87544 6.59841 6.36053 7.68601 6.81273L8.37853 7.10068L8.95442 5.71563Z" fill="#212121"/>
<path fill-rule="evenodd" clip-rule="evenodd" d="M15.2758 5.91814L15.939 5.56781C17.4685 4.75981 19.403 5.13859 20.5021 6.55254C21.7339 8.13723 21.4471 10.4199 19.8633 11.651C18.2789 12.8826 15.996 12.5976 14.7641 11.0128L14.3038 10.4206L15.4881 9.50005L15.9484 10.0922C16.6716 11.0225 18.012 11.1902 18.9427 10.4667C19.8727 9.74386 20.041 8.40352 19.3178 7.47312C18.6732 6.64395 17.5371 6.42004 16.6396 6.89412L15.9765 7.24445L15.2758 5.91814Z" fill="#212121"/>
</svg>
