<svg width="24" height="24" viewBox="0 0 24 24" fill="none" xmlns="http://www.w3.org/2000/svg">
<path fill-rule="evenodd" clip-rule="evenodd" d="M16.5156 13.0479C16.9298 13.0479 17.2656 13.3836 17.2656 13.7979V16.9547C17.2656 17.3689 16.9298 17.7047 16.5156 17.7047C16.1014 17.7047 15.7656 17.3689 15.7656 16.9547V13.7979C15.7656 13.3836 16.1014 13.0479 16.5156 13.0479Z" fill="#212121"/>
<path fill-rule="evenodd" clip-rule="evenodd" d="M7.48315 9.51074C7.89737 9.51074 8.23315 9.84653 8.23315 10.2607V16.9544C8.23315 17.3686 7.89737 17.7044 7.48315 17.7044C7.06894 17.7044 6.73315 17.3686 6.73315 16.9544V10.2607C6.73315 9.84653 7.06894 9.51074 7.48315 9.51074Z" fill="#212121"/>
<path fill-rule="evenodd" clip-rule="evenodd" d="M12.0369 6.30762C12.4511 6.30762 12.7869 6.6434 12.7869 7.05762V16.9555C12.7869 17.3697 12.4511 17.7055 12.0369 17.7055C11.6227 17.7055 11.2869 17.3697 11.2869 16.9555V7.05762C11.2869 6.6434 11.6227 6.30762 12.0369 6.30762Z" fill="#212121"/>
<path fill-rule="evenodd" clip-rule="evenodd" d="M4.96051 4.96027C3.66147 6.25931 3.05005 8.42719 3.05005 12.0366C3.05005 15.6461 3.66147 17.814 4.96051 19.113C6.25956 20.4121 8.42744 21.0235 12.0369 21.0235C15.6463 21.0235 17.8142 20.4121 19.1133 19.113C20.4123 17.814 21.0237 15.6461 21.0237 12.0366C21.0237 8.42719 20.4123 6.25931 19.1133 4.96027C17.8142 3.66122 15.6463 3.0498 12.0369 3.0498C8.42744 3.0498 6.25956 3.66122 4.96051 4.96027ZM3.89985 3.89961C5.6437 2.15576 8.34424 1.5498 12.0369 1.5498C15.7295 1.5498 18.4301 2.15576 20.1739 3.89961C21.9178 5.64346 22.5237 8.344 22.5237 12.0366C22.5237 15.7293 21.9178 18.4298 20.1739 20.1737C18.4301 21.9175 15.7295 22.5235 12.0369 22.5235C8.34424 22.5235 5.6437 21.9175 3.89985 20.1737C2.156 18.4298 1.55005 15.7293 1.55005 12.0366C1.55005 8.344 2.156 5.64346 3.89985 3.89961Z" fill="#212121"/>
</svg>
