<svg width="25" height="24" viewBox="0 0 25 24" fill="none" xmlns="http://www.w3.org/2000/svg">
<path fill-rule="evenodd" clip-rule="evenodd" d="M12.2532 8.21894C11.8442 7.44594 9.68115 3.58594 7.29015 3.58594C4.89915 3.58594 2.73515 7.44594 2.32615 8.21894C2.06815 8.70694 2.25415 9.31194 2.74215 9.57094C3.22815 9.82594 3.83515 9.64294 4.09415 9.15494C4.68415 8.04294 5.54815 6.85794 6.29015 6.17194V17.2049C6.29015 17.7579 6.73715 18.2049 7.29015 18.2049C7.84315 18.2049 8.29015 17.7579 8.29015 17.2049V6.17194C9.03215 6.85894 9.89615 8.04294 10.4852 9.15494C10.6652 9.49294 11.0122 9.68694 11.3702 9.68694C11.5282 9.68694 11.6892 9.64894 11.8372 9.57094C12.3252 9.31194 12.5112 8.70694 12.2532 8.21894Z" fill="#212121"/>
<path opacity="0.4" fill-rule="evenodd" clip-rule="evenodd" d="M21.7578 14.4329C21.2738 14.1739 20.6648 14.3599 20.4058 14.8469C19.8178 15.9569 18.9578 17.1389 18.2198 17.8259V6.7959C18.2198 6.2439 17.7728 5.7959 17.2198 5.7959C16.6668 5.7959 16.2198 6.2439 16.2198 6.7959V17.8299C15.4778 17.1439 14.6138 15.9599 14.0238 14.8469C13.7648 14.3599 13.1548 14.1729 12.6718 14.4329C12.1838 14.6909 11.9978 15.2949 12.2558 15.7839C12.6648 16.5569 14.8278 20.4149 17.2198 20.4149C19.6018 20.4149 21.7648 16.5569 22.1738 15.7839C22.4318 15.2949 22.2458 14.6909 21.7578 14.4329Z" fill="#212121"/>
</svg>
