<svg width="25" height="24" viewBox="0 0 25 24" fill="none" xmlns="http://www.w3.org/2000/svg">
<path fill-rule="evenodd" clip-rule="evenodd" d="M15.4267 12.8712C15.2387 12.7882 15.0187 12.8292 14.8727 12.9752L10.3637 17.4852C10.2587 17.5912 10.2057 17.7382 10.2197 17.8872C10.2337 18.0352 10.3137 18.1692 10.4367 18.2532C10.9817 18.6212 11.7117 19.0282 12.5447 19.0282C12.9797 19.0282 13.4437 18.9172 13.9237 18.6312C15.1067 17.7902 15.6117 16.3092 15.7257 13.3492C15.7347 13.1422 15.6147 12.9532 15.4267 12.8712Z" fill="#212121"/>
<path fill-rule="evenodd" clip-rule="evenodd" d="M20.4628 3.79788C20.1698 3.50488 19.6948 3.50488 19.4018 3.79788L15.4428 7.75787C15.1728 6.46187 14.6948 5.64687 13.8878 5.07788C12.2038 4.08388 10.6588 5.26988 9.53076 6.13488C9.06976 6.48888 8.63476 6.82288 8.30676 6.93088C7.85776 7.07788 7.46876 7.12488 7.09276 7.17088C6.43376 7.24988 5.75176 7.33288 5.00676 7.96588C3.79876 8.99088 3.81076 10.6579 3.81876 11.8669C3.81076 13.0839 3.79876 14.7509 5.00876 15.7789C5.60376 16.2799 6.15676 16.4299 6.69076 16.5099L4.05776 19.1429C3.76476 19.4359 3.76476 19.9099 4.05776 20.2029C4.20476 20.3499 4.39676 20.4229 4.58776 20.4229C4.77976 20.4229 4.97176 20.3499 5.11876 20.2029L20.4628 4.85888C20.7558 4.56588 20.7558 4.09088 20.4628 3.79788Z" fill="#212121"/>
</svg>
