<svg width="24" height="24" viewBox="0 0 24 24" fill="none" xmlns="http://www.w3.org/2000/svg">
<path fill-rule="evenodd" clip-rule="evenodd" d="M7.666 20.5C5.136 20.5 3.5 18.767 3.5 16.084V7.916C3.5 5.233 5.136 3.5 7.666 3.5H16.335C18.865 3.5 20.5 5.233 20.5 7.916V16.084C20.5 18.767 18.865 20.5 16.335 20.5H7.666ZM16.335 2H7.666C4.277 2 2 4.378 2 7.916V16.084C2 19.622 4.277 22 7.666 22H16.335C19.724 22 22 19.622 22 16.084V7.916C22 4.378 19.724 2 16.335 2Z" fill="#212121"/>
<path fill-rule="evenodd" clip-rule="evenodd" d="M12 7.16418C11.586 7.16418 11.25 7.50018 11.25 7.91418V16.0862C11.25 16.5002 11.586 16.8362 12 16.8362C12.414 16.8362 12.75 16.5002 12.75 16.0862V7.91418C12.75 7.50018 12.414 7.16418 12 7.16418Z" fill="#212121"/>
<path fill-rule="evenodd" clip-rule="evenodd" d="M11.9999 7.16298C11.801 7.16298 11.6089 7.24198 11.4689 7.38398L7.72095 11.148C7.42795 11.442 7.42995 11.917 7.72295 12.209C8.01695 12.5 8.49095 12.502 8.78295 12.207L11.9999 8.97598L15.2169 12.207C15.5099 12.502 15.9839 12.5 16.2769 12.209C16.57 11.917 16.5719 11.442 16.2789 11.148L12.5309 7.38398C12.3909 7.24198 12.1989 7.16298 11.9999 7.16298Z" fill="#212121"/>
</svg>
