<svg width="24" height="24" viewBox="0 0 24 24" fill="none" xmlns="http://www.w3.org/2000/svg">
<path fill-rule="evenodd" clip-rule="evenodd" d="M9.18617 19.9534C9.49509 19.6774 9.96921 19.7042 10.2451 20.0131C11.2507 21.1388 12.7479 21.1284 13.747 20.0124C14.0233 19.7038 14.4974 19.6776 14.8061 19.9539C15.1147 20.2302 15.1409 20.7044 14.8646 21.013C13.2751 22.7884 10.7342 22.8123 9.12645 21.0123C8.85051 20.7034 8.87725 20.2293 9.18617 19.9534Z" fill="#212121"/>
<path fill-rule="evenodd" clip-rule="evenodd" d="M6.56012 4.39438C7.72157 2.89699 9.52139 1.76465 11.9961 1.76465C14.4703 1.76465 16.2701 2.89703 17.4317 4.39435C18.5749 5.86809 19.107 7.69916 19.107 9.18417C19.107 9.61041 19.0941 9.92685 19.0843 10.167C19.0822 10.2163 19.0803 10.2625 19.0787 10.3057C19.0691 10.564 19.071 10.688 19.0909 10.811C19.1361 11.0905 19.2791 11.435 19.8505 12.6943C19.8562 12.7069 19.8616 12.7196 19.8666 12.7325C20.2794 13.795 20.1871 14.7724 19.6961 15.6006C19.2275 16.3909 18.44 16.9729 17.5887 17.3976C15.8864 18.2468 13.6361 18.6123 11.9961 18.6123C10.3556 18.6123 8.10503 18.2468 6.40271 17.3976C5.55144 16.9729 4.76394 16.3909 4.29552 15.6005C3.80463 14.7722 3.71253 13.7948 4.12564 12.7324C4.13063 12.7195 4.13598 12.7068 4.14168 12.6943C4.71309 11.435 4.85611 11.0905 4.90128 10.811C4.92114 10.688 4.9231 10.564 4.91344 10.3057C4.91182 10.2625 4.90993 10.2163 4.90791 10.167C4.89808 9.92686 4.88513 9.61041 4.88513 9.18417C4.88513 7.69924 5.41698 5.86817 6.56012 4.39438ZM7.74537 5.31372C6.81661 6.51113 6.38513 8.01482 6.38513 9.18417C6.38513 9.57727 6.39671 9.86125 6.40646 10.1003C6.40857 10.152 6.41059 10.2015 6.41239 10.2496C6.42234 10.5155 6.42757 10.7686 6.38208 11.0502C6.29757 11.5733 6.04065 12.1395 5.52668 13.2721L5.51665 13.2942C5.26777 13.9469 5.3476 14.4336 5.58593 14.8357C5.84894 15.2795 6.3531 15.6965 7.07231 16.0553C8.51095 16.773 10.5165 17.1123 11.9961 17.1123C13.4751 17.1123 15.4805 16.773 16.9191 16.0553C17.6384 15.6965 18.1426 15.2795 18.4058 14.8357C18.6442 14.4334 18.7241 13.9467 18.4755 13.2941L18.4655 13.2721C17.9515 12.1395 17.6946 11.5733 17.6101 11.0502C17.5646 10.7686 17.5698 10.5155 17.5798 10.2496C17.5816 10.2015 17.5836 10.152 17.5857 10.1003C17.5955 9.86126 17.607 9.57728 17.607 9.18417C17.607 8.0149 17.1754 6.5112 16.2465 5.31376C15.3358 4.13989 13.9552 3.26465 11.9961 3.26465C10.0365 3.26465 8.65583 4.13992 7.74537 5.31372Z" fill="#212121"/>
</svg>
