<svg width="25" height="25" viewBox="0 0 25 25" fill="none" xmlns="http://www.w3.org/2000/svg">
<path fill-rule="evenodd" clip-rule="evenodd" d="M18.527 16.4265C18.152 16.5975 17.706 16.4275 17.536 16.0495C17.251 15.4135 16.419 14.1025 15.673 14.1025C15.259 14.1025 14.493 15.0265 13.985 15.6365C13.169 16.6205 12.397 17.5505 11.411 17.5505C10.49 17.5505 9.848 17.0725 9.332 16.6885C8.904 16.3705 8.626 16.1755 8.315 16.1755C7.78 16.1755 7.192 16.9985 6.991 17.3975C6.86 17.6595 6.594 17.8115 6.319 17.8115C6.207 17.8115 6.093 17.7855 5.985 17.7325C5.616 17.5475 5.465 17.0995 5.649 16.7295C5.753 16.5185 6.714 14.6755 8.315 14.6755C9.139 14.6755 9.742 15.1235 10.227 15.4855C10.698 15.8355 11.008 16.0505 11.411 16.0505C11.695 16.0465 12.434 15.1565 12.831 14.6785C13.679 13.6575 14.555 12.6025 15.673 12.6025C17.587 12.6025 18.777 15.1475 18.906 15.4375C19.074 15.8155 18.905 16.2575 18.527 16.4265ZM8.831 7.65052C9.966 7.65152 10.889 8.57452 10.889 9.70852C10.889 10.8435 9.965 11.7665 8.831 11.7665C7.696 11.7665 6.774 10.8435 6.774 9.70852C6.774 8.57352 7.696 7.65052 8.831 7.65052ZM12.25 2.85352C5.051 2.85352 2.5 5.40552 2.5 12.6035C2.5 19.8015 5.051 22.3535 12.25 22.3535C19.448 22.3535 22 19.8015 22 12.6035C22 5.40552 19.448 2.85352 12.25 2.85352Z" fill="#212121"/>
</svg>
