<svg width="25" height="25" viewBox="0 0 25 25" fill="none" xmlns="http://www.w3.org/2000/svg">
<path fill-rule="evenodd" clip-rule="evenodd" d="M14.626 10.7681H16.17V12.2681H14.626V10.7681Z" fill="#212121"/>
<path fill-rule="evenodd" clip-rule="evenodd" d="M9.01855 10.7681H10.5626V12.2681H9.01855V10.7681Z" fill="#212121"/>
<path fill-rule="evenodd" clip-rule="evenodd" d="M9.09113 3.71367C10.0149 2.79378 11.267 2.2796 12.5706 2.28471C15.2782 2.28556 17.4729 4.4808 17.4729 7.18864V7.93864H15.9729V7.18864C15.9729 5.3087 14.4489 3.78471 12.569 3.78471H12.5658V3.7847C11.6605 3.78086 10.791 4.1378 10.1495 4.77657C9.50806 5.41535 9.14745 6.28335 9.14746 7.18864L9.14747 7.93864L7.64747 7.93865L7.64746 7.18865C7.64745 5.88444 8.16696 4.63394 9.09113 3.71367Z" fill="#212121"/>
<path fill-rule="evenodd" clip-rule="evenodd" d="M2.69336 22.7846L21.8075 22.7846L20.8278 6.64941L3.67301 6.64941L2.69336 22.7846ZM5.0847 8.14941L19.4161 8.14941L20.2136 21.2846L4.28719 21.2846L5.0847 8.14941Z" fill="#212121"/>
</svg>
