<svg width="25" height="24" viewBox="0 0 25 24" fill="none" xmlns="http://www.w3.org/2000/svg">
<path opacity="0.4" fill-rule="evenodd" clip-rule="evenodd" d="M1.99993 7.71035C1.91993 8.83035 1.88012 10.0104 1.87012 11.2404L1.87012 12.7404C1.88012 13.9504 1.92993 15.2104 1.99993 16.5104L1.99993 16.5304C2.36993 20.5604 4.19993 21.8604 9.49993 21.8604C17.0999 21.8604 17.0999 19.0104 17.0999 12.1104C17.0999 5.21035 17.0999 2.36035 9.49993 2.36035C4.19993 2.36035 2.36993 3.66035 1.99993 7.71035Z" fill="#212121"/>
<path fill-rule="evenodd" clip-rule="evenodd" d="M20.0736 11.3595L18.4306 9.72055C18.2836 9.57455 18.2096 9.38155 18.2096 9.18955C18.2096 8.99855 18.2836 8.80655 18.4286 8.66055C18.7216 8.36655 19.1966 8.36655 19.4896 8.65855L22.4176 11.5785C22.7006 11.8595 22.7006 12.3595 22.4176 12.6405L19.4896 15.5605C19.1966 15.8525 18.7216 15.8525 18.4286 15.5585C18.1366 15.2645 18.1366 14.7905 18.4306 14.4985L20.0736 12.8595L9.83677 12.8595C9.42509 12.8595 9.09452 12.514 9.09452 12.1023C9.09452 11.6904 9.42546 11.3595 9.83737 11.3595L20.0736 11.3595Z" fill="#212121"/>
</svg>
