<svg width="25" height="24" viewBox="0 0 25 24" fill="none" xmlns="http://www.w3.org/2000/svg">
<path opacity="0.4" fill-rule="evenodd" clip-rule="evenodd" d="M17.26 8.674C15.614 8.674 14.27 7.34 14.27 5.694V3.652L19.552 8.674H17.26ZM20.955 8.85C20.955 8.81 20.955 8.78 20.945 8.74C20.915 8.56 20.885 8.38 20.855 8.21C20.835 8.1 20.785 8.01 20.705 7.93L15.035 2.53C14.965 2.46 14.865 2.41 14.765 2.4C14.595 2.38 14.415 2.36 14.235 2.34C14.205 2.33 14.165 2.33 14.135 2.33C13.555 2.28 12.915 2.25 12.245 2.25C5.68498 2.25 3.35498 4.8 3.35498 12C3.35498 19.19 5.68498 21.75 12.245 21.75C18.815 21.75 21.145 19.19 21.145 12C21.145 10.8 21.085 9.76 20.955 8.85Z" fill="#212121"/>
<path d="M13.2397 13.5845C13.4307 13.5845 13.6227 13.5115 13.7687 13.3655C14.0617 13.0735 14.0637 12.5995 13.7707 12.3055L11.4267 9.95052C11.2907 9.81352 11.1027 9.72852 10.8947 9.72852C10.6867 9.72852 10.4987 9.81352 10.3627 9.95052L8.01769 12.3055C7.72569 12.5995 7.72669 13.0735 8.01969 13.3655C8.31369 13.6575 8.78869 13.6575 9.08069 13.3645L10.1447 12.2945V16.5195C10.1447 16.9335 10.4807 17.2695 10.8947 17.2695C11.3087 17.2695 11.6447 16.9335 11.6447 16.5195V12.2955L12.7087 13.3645C12.8547 13.5115 13.0467 13.5845 13.2397 13.5845Z" fill="#212121"/>
</svg>
