<svg width="25" height="24" viewBox="0 0 25 24" fill="none" xmlns="http://www.w3.org/2000/svg">
<path d="M12.232 20.5749C9.83398 20.5799 7.58698 20.1319 5.67798 18.9689C6.62598 15.9699 9.19798 14.5819 12.232 14.5899C15.262 14.5819 17.838 15.9739 18.785 18.9689C17.766 19.5899 16.651 20.0069 15.468 20.2599" stroke="#212121" stroke-width="1.5" stroke-linecap="square"/>
<path d="M17.656 13.7398C19.78 13.7348 21.586 14.7098 22.25 16.8098C21.861 17.0478 21.451 17.2418 21.025 17.3988" stroke="#212121" stroke-width="1.5" stroke-linecap="square"/>
<path d="M6.84476 13.7398C4.71976 13.7348 2.91376 14.7098 2.24976 16.8098C2.61276 17.0308 2.99176 17.2148 3.38676 17.3658" stroke="#212121" stroke-width="1.5" stroke-linecap="square"/>
<path d="M17.656 5.8667C19.246 5.8667 20.536 7.1557 20.536 8.7467C20.536 10.3367 19.246 11.6267 17.656 11.6267" stroke="#212121" stroke-width="1.5" stroke-linecap="square"/>
<path d="M6.84509 5.8667C5.25409 5.8667 3.96509 7.1557 3.96509 8.7467C3.96509 10.3367 5.25409 11.6267 6.84509 11.6267" stroke="#212121" stroke-width="1.5" stroke-linecap="square"/>
<path d="M12.9826 3.4248C14.8966 3.7698 16.3486 5.4448 16.3486 7.4578C16.3486 9.7218 14.5136 11.5568 12.2496 11.5568C9.98661 11.5568 8.15161 9.7218 8.15161 7.4578C8.15161 6.2088 8.71061 5.0898 9.59261 4.3378" stroke="#212121" stroke-width="1.5" stroke-linecap="square"/>
</svg>
