<svg width="25" height="25" viewBox="0 0 25 25" fill="none" xmlns="http://www.w3.org/2000/svg">
<path fill-rule="evenodd" clip-rule="evenodd" d="M13.1827 6.82959L18.0441 11.6911L7.13075 22.6044L2.27386 22.5999L2.26929 17.743L13.1827 6.82959ZM3.76987 18.3637L3.77245 21.1013L6.51002 21.1039L15.9228 11.6911L13.1827 8.95091L3.76987 18.3637Z" fill="#212121"/>
<path fill-rule="evenodd" clip-rule="evenodd" d="M13.1827 6.82959L18.0441 11.6911L7.13075 22.6044L2.27386 22.5999L2.26929 17.743L13.1827 6.82959ZM3.76987 18.3637L3.77245 21.1013L6.51002 21.1039L15.9228 11.6911L13.1827 8.95091L3.76987 18.3637Z" fill="#212121"/>
<path fill-rule="evenodd" clip-rule="evenodd" d="M13.7433 15.1577L9.69644 11.1109L10.7571 10.0502L14.804 14.0971L13.7433 15.1577Z" fill="#212121"/>
<path fill-rule="evenodd" clip-rule="evenodd" d="M22.2305 22.604H12.1937V21.104H20.7305V4.104H3.76927V12.8004H2.26927V2.604H22.2305V22.604Z" fill="#212121"/>
</svg>
