<svg width="25" height="24" viewBox="0 0 25 24" fill="none" xmlns="http://www.w3.org/2000/svg">
<path opacity="0.4" fill-rule="evenodd" clip-rule="evenodd" d="M19.3581 5.11993C17.5231 3.28493 15.0821 2.27393 12.4821 2.27393C9.8831 2.27393 7.4401 3.28493 5.6051 5.12093C3.7651 6.95993 2.7531 9.40493 2.7551 12.0039C2.7551 14.6399 4.1391 17.1519 4.6411 17.9759L2.2981 21.7119L3.2111 21.7039C3.2691 21.7039 9.0211 21.6539 12.2711 21.7239C12.3441 21.7249 12.4161 21.7259 12.4881 21.7259C15.0841 21.7259 17.5161 20.7189 19.3581 18.8759C23.1501 15.0829 23.1501 8.91293 19.3581 5.11993Z" fill="#212121"/>
<path d="M16.9901 13.1309H15.3921V11.6309H16.9901V13.1309Z" fill="#212121"/>
<path d="M13.2561 13.1309H11.6571V11.6309H13.2561V13.1309Z" fill="#212121"/>
<path d="M9.5221 13.1309H7.9231V11.6309H9.5221V13.1309Z" fill="#212121"/>
</svg>
