<svg width="24" height="24" viewBox="0 0 24 24" fill="none" xmlns="http://www.w3.org/2000/svg">
<path fill-rule="evenodd" clip-rule="evenodd" d="M17.48 19.7686C17.781 19.7686 18.025 20.0126 18.025 20.3126C18.025 20.6136 17.781 20.8576 17.48 20.8576C17.18 20.8576 16.936 20.6136 16.936 20.3126C16.936 20.0126 17.18 19.7686 17.48 19.7686Z" fill="#212121"/>
<path fill-rule="evenodd" clip-rule="evenodd" d="M17.48 19.7686C17.781 19.7686 18.025 20.0126 18.025 20.3126C18.025 20.6136 17.781 20.8576 17.48 20.8576C17.18 20.8576 16.936 20.6136 16.936 20.3126C16.936 20.0126 17.18 19.7686 17.48 19.7686Z" stroke="#212121" stroke-width="1.5" stroke-linecap="round" stroke-linejoin="round"/>
<path fill-rule="evenodd" clip-rule="evenodd" d="M7.149 19.7686C7.449 19.7686 7.693 20.0126 7.693 20.3126C7.693 20.6136 7.449 20.8576 7.149 20.8576C6.848 20.8576 6.604 20.6136 6.604 20.3126C6.604 20.0126 6.848 19.7686 7.149 19.7686Z" fill="#212121"/>
<path fill-rule="evenodd" clip-rule="evenodd" d="M7.149 19.7686C7.449 19.7686 7.693 20.0126 7.693 20.3126C7.693 20.6136 7.449 20.8576 7.149 20.8576C6.848 20.8576 6.604 20.6136 6.604 20.3126C6.604 20.0126 6.848 19.7686 7.149 19.7686Z" stroke="#212121" stroke-width="1.5" stroke-linecap="round" stroke-linejoin="round"/>
<path d="M9.00725 6.6416C11.3173 6.5326 14.4853 6.2666 15.5583 6.2526C16.5833 6.2396 17.6933 6.1056 18.6563 6.5386C21.9593 8.0256 20.5663 14.0006 18.2833 15.7746C16.6923 17.0106 14.1483 17.1026 12.2173 17.0526C10.4253 17.0076 8.26325 16.8026 6.75525 15.7286C4.15625 13.8776 5.51425 8.8336 5.42925 5.3846C5.48025 3.4546 3.38525 3.1416 3.38525 3.1416" stroke="#212121" stroke-width="1.5" stroke-linecap="round" stroke-linejoin="round"/>
<path d="M12.8853 10.1416H15.6583" stroke="#212121" stroke-width="1.5" stroke-linecap="round" stroke-linejoin="round"/>
</svg>
