<svg width="25" height="25" viewBox="0 0 25 25" fill="none" xmlns="http://www.w3.org/2000/svg">
<path opacity="0.4" fill-rule="evenodd" clip-rule="evenodd" d="M6.39507 6.3017L6.09507 3.2417H2.19507V4.7417H4.73507L6.01507 17.4417H20.8351L22.3051 6.3017H6.39507Z" fill="#212121"/>
<path d="M13.8245 11.7119H17.9945V10.2119H13.8245V11.7119Z" fill="#212121"/>
<path d="M6.57983 20.5528C6.57983 19.8498 7.15083 19.2788 7.85383 19.2788C8.55583 19.2788 9.12683 19.8498 9.12683 20.5528C9.12683 21.2558 8.55583 21.8278 7.85383 21.8278C7.15083 21.8278 6.57983 21.2558 6.57983 20.5528Z" fill="#212121"/>
<path d="M17.447 20.5528C17.447 19.8498 18.018 19.2788 18.721 19.2788C19.424 19.2788 19.995 19.8498 19.995 20.5528C19.995 21.2558 19.424 21.8278 18.721 21.8278C18.018 21.8278 17.447 21.2558 17.447 20.5528Z" fill="#212121"/>
</svg>
