<svg width="24" height="24" viewBox="0 0 24 24" fill="none" xmlns="http://www.w3.org/2000/svg">
<path d="M13.8791 14.3964C13.6871 14.3964 13.4951 14.3234 13.3491 14.1764L11.9999 12.8275L10.6506 14.1764C10.5046 14.3234 10.3126 14.3964 10.1206 14.3964C9.9286 14.3964 9.7366 14.3234 9.5906 14.1764C9.2976 13.8834 9.2976 13.4094 9.5906 13.1164L10.9397 11.7677L9.59011 10.4184C9.29711 10.1254 9.29711 9.65142 9.59011 9.35842C9.88311 9.06542 10.3581 9.06542 10.6501 9.35842L11.9999 10.7078L13.3496 9.35842C13.6416 9.06542 14.1166 9.06542 14.4096 9.35842C14.7026 9.65142 14.7026 10.1254 14.4096 10.4184L13.06 11.7677L14.4091 13.1164C14.7021 13.4094 14.7021 13.8834 14.4091 14.1764C14.2631 14.3234 14.0711 14.3964 13.8791 14.3964Z" fill="#212121"/>
<path fill-rule="evenodd" clip-rule="evenodd" d="M12.0002 22.1773C9.06317 22.1773 3.57717 19.3973 3.57717 12.7003C3.57717 10.809 3.55281 9.43315 3.53487 8.41982L3.53417 8.38027C3.48817 5.83527 3.47917 5.30427 4.13517 4.64927C4.96717 3.81727 8.41217 1.82227 12.0002 1.82227C15.5892 1.82227 19.0332 3.81727 19.8652 4.64927C20.5206 5.30366 20.5112 5.83429 20.4663 8.37424L20.4662 8.38127C20.4472 9.39927 20.4222 10.7853 20.4222 12.7003C20.4222 19.3973 14.9372 22.1773 12.0002 22.1773ZM12.0002 3.32227C8.73617 3.32227 5.68117 5.22327 5.19517 5.71027C5.00217 5.90227 4.99517 6.22127 5.03417 8.35227L5.03495 8.3966C5.05288 9.4174 5.07717 10.7999 5.07717 12.7003C5.07717 18.7873 10.1512 20.6773 12.0002 20.6773C13.8482 20.6773 18.9222 18.7873 18.9222 12.7003C18.9222 10.7733 18.9472 9.37927 18.9662 8.35427C19.0042 6.22127 18.9972 5.90327 18.8042 5.71027C18.3182 5.22327 15.2652 3.32227 12.0002 3.32227Z" fill="#212121"/>
</svg>
