<svg width="25" height="24" viewBox="0 0 25 24" fill="none" xmlns="http://www.w3.org/2000/svg">
<path opacity="0.4" fill-rule="evenodd" clip-rule="evenodd" d="M12.25 2.50098C12.2502 2.50098 12.2503 2.50098 12.2505 2.50098C13.8669 2.50098 14.5093 4.12487 15.0769 5.55986L15.0785 5.56398C15.3685 6.29798 15.6685 7.05698 16.0505 7.45298C16.426 7.84039 17.3192 7.88561 18.1849 7.92944L18.1955 7.92998L18.1976 7.93008C19.5783 7.99906 21.2947 8.08482 21.6815 9.72998C22.0484 11.2918 20.9018 12.2367 19.8899 13.0706L19.8895 13.071C19.1975 13.641 18.5435 14.181 18.3985 14.841C18.2577 15.4812 18.469 16.3081 18.6738 17.1092L18.6745 17.112L18.6753 17.1153C19.0271 18.4935 19.4254 20.0538 18.0915 21.06C17.6745 21.375 17.2515 21.5 16.8335 21.5C15.9285 21.5 15.0465 20.916 14.2915 20.416L14.2857 20.4121C13.5885 19.9513 12.8678 19.475 12.2505 19.475C12.2503 19.475 12.2502 19.475 12.25 19.475V2.50098Z" fill="#212121"/>
<path fill-rule="evenodd" clip-rule="evenodd" d="M12.25 2.50098C12.2498 2.50098 12.2497 2.50098 12.2495 2.50098C10.6331 2.50098 9.99074 4.12487 9.42314 5.55986L9.42151 5.56398C9.13151 6.29798 8.83151 7.05698 8.44951 7.45298C8.07404 7.84039 7.18082 7.88561 6.31513 7.92944L6.30451 7.92998L6.30238 7.93008C4.92174 7.99906 3.20531 8.08482 2.81851 9.72998C2.45156 11.2918 3.5982 12.2367 4.61009 13.0706L4.61051 13.071C5.30251 13.641 5.95651 14.181 6.10151 14.841C6.24235 15.4812 6.031 16.3081 5.82622 17.1092L5.82551 17.112L5.82466 17.1153C5.47286 18.4935 5.07459 20.0538 6.40851 21.06C6.82551 21.375 7.24851 21.5 7.66651 21.5C8.57151 21.5 9.45351 20.916 10.2085 20.416L10.2143 20.4121C10.9115 19.9513 11.6322 19.475 12.2495 19.475C12.2497 19.475 12.2498 19.475 12.25 19.475V2.50098Z" fill="#212121"/>
</svg>
