<svg width="25" height="25" viewBox="0 0 25 25" fill="none" xmlns="http://www.w3.org/2000/svg">
<path opacity="0.4" d="M9.18664 9.20166C9.2273 9.19571 9.26805 9.19016 9.30888 9.18502C9.45426 9.16674 9.64701 9.14088 9.87923 9.10867C10.5921 9.03031 11.3806 8.99316 12.2501 8.99316C18.2741 8.99316 20.4101 10.7652 20.4101 15.7642C20.4101 20.7642 18.2741 22.5362 12.2501 22.5362C6.22609 22.5362 4.09009 20.7642 4.09009 15.7642C4.09009 13.0636 4.7166 11.3074 6.23942 10.2622C6.63855 10.0168 7.65058 9.50903 8.79749 9.27074C8.92429 9.24599 9.05399 9.22297 9.18664 9.20166Z" fill="#212121"/>
<path d="M12.2502 17.7962C12.6642 17.7962 13.0002 17.4602 13.0002 17.0462V14.8252C13.0002 14.4112 12.6642 14.0752 12.2502 14.0752C11.8362 14.0752 11.5002 14.4112 11.5002 14.8252V17.0462C11.5002 17.4602 11.8362 17.7962 12.2502 17.7962Z" fill="#212121"/>
<path d="M8.43872 9.35938V7.91603C8.47272 5.84103 10.1237 4.19503 12.1987 4.17003H12.2467C13.9137 4.17003 15.4127 5.27703 15.9027 6.87703C16.0237 7.27303 16.4397 7.49803 16.8397 7.37403C17.2347 7.25303 17.4587 6.83403 17.3367 6.43803C16.6477 4.19003 14.4857 2.65503 12.1807 2.67003C9.28772 2.70603 6.98572 4.99903 6.93872 7.90403V9.88672C7.48323 9.65328 7.94165 9.50453 8.43872 9.35938Z" fill="#212121"/>
</svg>
