<svg width="24" height="24" viewBox="0 0 24 24" fill="none" xmlns="http://www.w3.org/2000/svg">
<path fill-rule="evenodd" clip-rule="evenodd" d="M12 3.5C7.313 3.5 3.5 7.313 3.5 12C3.5 16.687 7.313 20.5 12 20.5C16.687 20.5 20.5 16.687 20.5 12C20.5 7.313 16.687 3.5 12 3.5ZM12 22C6.486 22 2 17.514 2 12C2 6.486 6.486 2 12 2C17.514 2 22 6.486 22 12C22 17.514 17.514 22 12 22Z" fill="#212121"/>
<path fill-rule="evenodd" clip-rule="evenodd" d="M10.5587 16.2208C10.3667 16.2208 10.1737 16.1478 10.0277 15.9998C9.7357 15.7058 9.7367 15.2318 10.0297 14.9398L12.9817 11.9998L10.0297 9.0608C9.7367 8.7688 9.7357 8.2938 10.0277 7.9998C10.3197 7.7048 10.7937 7.7068 11.0877 7.9978L14.5737 11.4688C14.7147 11.6098 14.7937 11.8008 14.7937 11.9998C14.7937 12.1998 14.7147 12.3908 14.5737 12.5318L11.0877 16.0018C10.9417 16.1478 10.7497 16.2208 10.5587 16.2208Z" fill="#212121"/>
</svg>
