<svg width="25" height="25" viewBox="0 0 25 25" fill="none" xmlns="http://www.w3.org/2000/svg">
<path opacity="0.4" fill-rule="evenodd" clip-rule="evenodd" d="M12.2499 2.29785C4.69094 2.29785 2.01294 4.97585 2.01294 12.5349C2.01294 20.0939 4.69094 22.7719 12.2499 22.7719C19.8079 22.7719 22.4869 20.0939 22.4869 12.5349C22.4869 4.97585 19.8079 2.29785 12.2499 2.29785Z" fill="#212121"/>
<path d="M12.9996 13.2849H15.8276C16.2416 13.2849 16.5776 12.9489 16.5776 12.5349C16.5776 12.1209 16.2416 11.7849 15.8276 11.7849H12.9996V8.96094C12.9996 8.54694 12.6636 8.21094 12.2496 8.21094C11.8356 8.21094 11.4996 8.54694 11.4996 8.96094V11.7849H8.67163C8.25763 11.7849 7.92163 12.1209 7.92163 12.5349C7.92163 12.9489 8.25763 13.2849 8.67163 13.2849H11.4996V16.1089C11.4996 16.5229 11.8356 16.8589 12.2496 16.8589C12.6636 16.8589 12.9996 16.5229 12.9996 16.1089V13.2849Z" fill="#212121"/>
</svg>
