<svg width="25" height="24" viewBox="0 0 25 24" fill="none" xmlns="http://www.w3.org/2000/svg">
<path fill-rule="evenodd" clip-rule="evenodd" d="M18.7249 12.3088C17.5849 12.3088 16.5149 12.5388 15.6149 12.9288C18.7649 13.8388 20.9949 16.0188 21.0549 18.5688C22.6949 18.3588 24.4649 17.7388 24.4649 16.0488C24.4649 14.0188 21.8349 12.3088 18.7249 12.3088Z" fill="#212121"/>
<path fill-rule="evenodd" clip-rule="evenodd" d="M18.6949 10.8688H18.7149C20.8449 10.8688 22.5849 9.12879 22.5849 7.00879C22.5849 4.87879 20.8449 3.13879 18.7149 3.13879C18.2949 3.13879 17.8949 3.20879 17.5149 3.32879C18.2049 4.34879 18.6049 5.57879 18.6049 6.90879C18.6149 8.25879 18.1949 9.55879 17.4049 10.6388C17.8149 10.7888 18.2449 10.8688 18.6949 10.8688Z" fill="#212121"/>
<path fill-rule="evenodd" clip-rule="evenodd" d="M8.87491 12.9188C7.97491 12.5388 6.90491 12.3088 5.77491 12.3088C2.66491 12.3088 0.0349121 14.0188 0.0349121 16.0488C0.0349121 17.7388 1.79491 18.3488 3.43491 18.5688C3.48491 16.0188 5.71491 13.8388 8.87491 12.9188Z" fill="#212121"/>
<path fill-rule="evenodd" clip-rule="evenodd" d="M5.77492 10.8688H5.80492C6.25492 10.8688 6.68492 10.7888 7.09492 10.6388C6.33492 9.59879 5.88492 8.30879 5.88492 6.90879C5.88492 5.57879 6.28492 4.34879 6.97492 3.32879C6.59492 3.20879 6.19492 3.13879 5.77492 3.13879C3.64492 3.13879 1.91492 4.87879 1.91492 7.00879C1.91492 9.12879 3.64492 10.8688 5.77492 10.8688Z" fill="#212121"/>
<path fill-rule="evenodd" clip-rule="evenodd" d="M12.2445 13.9458C8.28352 13.9458 4.93652 16.1018 4.93652 18.6538C4.93652 21.9538 10.4365 21.9538 12.2445 21.9538C15.3825 21.9538 19.5545 21.6138 19.5545 18.6748C19.5545 16.1108 16.2065 13.9458 12.2445 13.9458Z" fill="#212121"/>
<path fill-rule="evenodd" clip-rule="evenodd" d="M12.2455 11.7749H12.2785C13.5735 11.7709 14.7895 11.2619 15.7015 10.3429C16.6145 9.42387 17.1145 8.20487 17.1095 6.91187C17.1095 4.22887 14.9285 2.04688 12.2455 2.04688C9.56351 2.04688 7.38251 4.22887 7.38251 6.91187C7.38251 9.59287 9.56351 11.7749 12.2455 11.7749Z" fill="#212121"/>
</svg>
