<svg width="25" height="25" viewBox="0 0 25 25" fill="none" xmlns="http://www.w3.org/2000/svg">
<path opacity="0.4" fill-rule="evenodd" clip-rule="evenodd" d="M15.8076 14.4514C14.8096 14.9374 13.9466 15.3594 11.6996 13.1124C9.45363 10.8654 9.87263 10.0024 10.3606 9.00344C11.0646 7.55544 11.3496 6.23844 8.14763 3.60144C7.38463 2.97744 6.56263 2.74044 5.68863 2.90344C3.82863 3.24944 2.55763 5.28644 2.55963 5.28644C1.74863 6.42344 0.636629 9.84144 7.80363 17.0074C12.5156 21.7194 15.6076 22.8524 17.4836 22.8524C18.4606 22.8524 19.1096 22.5454 19.4856 22.2764C19.5056 22.2634 21.5746 20.9594 21.9106 19.1084C22.0666 18.2444 21.8306 17.4224 21.2076 16.6614C18.5746 13.4644 17.2566 13.7464 15.8076 14.4514Z" fill="#212121"/>
<path fill-rule="evenodd" clip-rule="evenodd" d="M19.8452 6.10424L22.3152 3.63424C22.6082 3.34124 22.6082 2.86724 22.3152 2.57424C22.0222 2.28124 21.5472 2.28124 21.2542 2.57424L18.7842 5.04324L16.3152 2.57424C16.0222 2.28124 15.5472 2.28124 15.2542 2.57424C14.9612 2.86724 14.9612 3.34124 15.2542 3.63424L17.7242 6.10424L15.2542 8.57424C14.9612 8.86724 14.9612 9.34124 15.2542 9.63424C15.4012 9.78124 15.5922 9.85424 15.7842 9.85424C15.9772 9.85424 16.1682 9.78124 16.3152 9.63424L18.7842 7.16524L21.2542 9.63424C21.4012 9.78124 21.5922 9.85424 21.7842 9.85424C21.9772 9.85424 22.1682 9.78124 22.3152 9.63424C22.6082 9.34124 22.6082 8.86724 22.3152 8.57424L19.8452 6.10424Z" fill="#212121"/>
</svg>
