<svg width="25" height="25" viewBox="0 0 25 25" fill="none" xmlns="http://www.w3.org/2000/svg">
<path fill-rule="evenodd" clip-rule="evenodd" d="M21.8743 16.0373C19.2393 12.8413 17.9233 13.1263 16.4733 13.8303C15.5573 14.2773 14.7593 14.6633 12.9063 13.0073L21.6543 4.25927C21.9473 3.96627 21.9473 3.49127 21.6543 3.19827C21.3613 2.90527 20.8873 2.90527 20.5943 3.19827L2.09426 21.6983C1.80126 21.9913 1.80126 22.4663 2.09426 22.7593C2.24026 22.9053 2.43226 22.9783 2.62426 22.9783C2.81626 22.9783 3.00826 22.9053 3.15426 22.7593L9.00826 16.9053C13.4253 21.1763 16.3513 22.2323 18.1483 22.2323C19.1283 22.2323 19.7723 21.9223 20.1433 21.6523C20.1633 21.6413 22.2303 20.3603 22.5763 18.4983C22.7373 17.6303 22.5013 16.8033 21.8743 16.0373Z" fill="#212121"/>
<path opacity="0.4" fill-rule="evenodd" clip-rule="evenodd" d="M6.71412 14.286H6.73412C6.86612 14.286 6.99312 14.233 7.08712 14.14L10.5901 10.636C10.7191 10.507 10.7681 10.317 10.7161 10.141C10.5101 9.43798 10.7491 8.94698 11.0261 8.37998C11.7291 6.93198 12.0131 5.61498 8.81112 2.97298C8.04612 2.34798 7.21412 2.11598 6.34512 2.27898C4.49912 2.62998 3.22312 4.66498 3.22512 4.66498C2.38812 5.84798 1.68312 8.64998 6.35412 14.111C6.44412 14.217 6.57512 14.28 6.71412 14.286Z" fill="#212121"/>
</svg>
