<svg width="24" height="24" viewBox="0 0 24 24" fill="none" xmlns="http://www.w3.org/2000/svg">
<path fill-rule="evenodd" clip-rule="evenodd" d="M9.92234 21.8087C6.10834 21.8087 2.85034 21.2317 2.85034 18.9217C2.85034 16.6117 6.08734 14.5107 9.92234 14.5107C13.7363 14.5107 16.9943 16.5917 16.9943 18.9007C16.9943 21.2097 13.7573 21.8087 9.92234 21.8087Z" stroke="#212121" stroke-width="1.5" stroke-linecap="round" stroke-linejoin="round"/>
<path d="M19.1313 8.12988V12.1399" stroke="#212121" stroke-width="1.5" stroke-linecap="round" stroke-linejoin="round"/>
<path d="M21.1776 10.1348H17.0876" stroke="#212121" stroke-width="1.5" stroke-linecap="round" stroke-linejoin="round"/>
<path fill-rule="evenodd" clip-rule="evenodd" d="M9.92243 11.2164C12.4254 11.2164 14.4554 9.18639 14.4554 6.68339C14.4554 4.17939 12.4254 2.15039 9.92243 2.15039C7.41943 2.15039 5.38943 4.17939 5.38943 6.68339C5.38043 9.17739 7.39643 11.2074 9.89043 11.2164H9.92243Z" stroke="#212121" stroke-width="1.5" stroke-linecap="round" stroke-linejoin="round"/>
</svg>
