<svg width="25" height="24" viewBox="0 0 25 24" fill="none" xmlns="http://www.w3.org/2000/svg">
<path fill-rule="evenodd" clip-rule="evenodd" d="M12.2532 8.21894C11.8442 7.44594 9.68115 3.58594 7.29015 3.58594C4.89915 3.58594 2.73515 7.44594 2.32615 8.21894C2.06815 8.70694 2.25415 9.31194 2.74215 9.57094C3.22815 9.82594 3.83515 9.64294 4.09415 9.15494C4.68415 8.04294 5.54815 6.85794 6.29015 6.17194V17.2049C6.29015 17.7579 6.73715 18.2049 7.29015 18.2049C7.84315 18.2049 8.29015 17.7579 8.29015 17.2049V6.17194C9.03215 6.85894 9.89615 8.04294 10.4852 9.15494C10.6652 9.49294 11.0122 9.68694 11.3702 9.68694C11.5282 9.68694 11.6892 9.64894 11.8372 9.57094C12.3252 9.31194 12.5112 8.70694 12.2532 8.21894Z" fill="#212121"/>
<path fill-rule="evenodd" clip-rule="evenodd" d="M21.758 14.4328C21.274 14.1738 20.665 14.3598 20.406 14.8468C19.818 15.9568 18.958 17.1388 18.22 17.8258V6.79584C18.22 6.24384 17.773 5.79584 17.22 5.79584C16.667 5.79584 16.22 6.24384 16.22 6.79584V17.8298C15.478 17.1438 14.614 15.9598 14.024 14.8468C13.765 14.3598 13.155 14.1728 12.672 14.4328C12.184 14.6908 11.998 15.2948 12.256 15.7838C12.665 16.5568 14.828 20.4148 17.22 20.4148C19.602 20.4148 21.765 16.5568 22.174 15.7838C22.432 15.2948 22.246 14.6908 21.758 14.4328Z" fill="#212121"/>
</svg>
