<svg width="25" height="25" viewBox="0 0 25 25" fill="none" xmlns="http://www.w3.org/2000/svg">
<path opacity="0.4" fill-rule="evenodd" clip-rule="evenodd" d="M15.7759 14.4506C14.7779 14.9366 13.9139 15.3586 11.6669 13.1116C9.42088 10.8646 9.84088 10.0016 10.3279 9.00265C11.0329 7.55465 11.3179 6.23765 8.11588 3.60065C7.35088 2.97565 6.52088 2.73565 5.65388 2.90365C3.82088 3.24665 2.52588 5.28665 2.52788 5.28665C1.71588 6.42265 0.603876 9.83865 7.77088 17.0066C12.4849 21.7216 15.5769 22.8526 17.4529 22.8526C18.4289 22.8526 19.0759 22.5466 19.4499 22.2776C19.4699 22.2656 21.5279 20.9906 21.8759 19.1216C22.0379 18.2526 21.8019 17.4256 21.1759 16.6606C18.5399 13.4616 17.2229 13.7456 15.7759 14.4506Z" fill="#212121"/>
<path fill-rule="evenodd" clip-rule="evenodd" d="M14.8605 2.35933C14.4475 2.30733 14.0775 2.61033 14.0325 3.02133C13.9865 3.43333 14.2835 3.80333 14.6945 3.84933C18.0715 4.22433 20.6935 6.84433 21.0725 10.2203C21.1155 10.6033 21.4395 10.8863 21.8165 10.8863C21.8445 10.8863 21.8735 10.8843 21.9015 10.8813C22.3125 10.8363 22.6085 10.4643 22.5625 10.0523C22.1055 5.97633 18.9385 2.81233 14.8605 2.35933Z" fill="#212121"/>
<path fill-rule="evenodd" clip-rule="evenodd" d="M17.5412 10.2909C17.6112 10.6489 17.9252 10.8969 18.2762 10.8969C18.3242 10.8969 18.3722 10.8929 18.4212 10.8839C18.8272 10.8049 19.0932 10.4099 19.0142 10.0039C18.6072 7.92192 17.0002 6.31492 14.9202 5.91092C14.5232 5.83192 14.1202 6.09792 14.0412 6.50492C13.9622 6.91092 14.2282 7.30492 14.6352 7.38392C16.1112 7.67092 17.2532 8.81192 17.5412 10.2909Z" fill="#212121"/>
</svg>
