<svg width="25" height="24" viewBox="0 0 25 24" fill="none" xmlns="http://www.w3.org/2000/svg">
<path d="M21.245 6.64673C21.245 8.65806 19.6145 10.2886 17.6032 10.2886C15.5918 10.2886 13.9613 8.65806 13.9613 6.64673C13.9613 4.63539 15.5918 3.00488 17.6032 3.00488C19.6145 3.00488 21.245 4.63539 21.245 6.64673Z" fill="#212121"/>
<path d="M10.5388 6.64673C10.5388 8.65806 8.90831 10.2886 6.89697 10.2886C4.88564 10.2886 3.25513 8.65806 3.25513 6.64673C3.25513 4.63539 4.88564 3.00488 6.89697 3.00488C8.90831 3.00488 10.5388 4.63539 10.5388 6.64673Z" fill="#212121"/>
<path d="M21.245 17.353C21.245 19.3643 19.6145 20.9948 17.6032 20.9948C15.5918 20.9948 13.9613 19.3643 13.9613 17.353C13.9613 15.3416 15.5918 13.7111 17.6032 13.7111C19.6145 13.7111 21.245 15.3416 21.245 17.353Z" fill="#212121"/>
<path d="M10.5388 17.353C10.5388 19.3643 8.90831 20.9948 6.89697 20.9948C4.88564 20.9948 3.25513 19.3643 3.25513 17.353C3.25513 15.3416 4.88564 13.7111 6.89697 13.7111C8.90831 13.7111 10.5388 15.3416 10.5388 17.353Z" fill="#212121"/>
</svg>
