<svg width="25" height="25" viewBox="0 0 25 25" fill="none" xmlns="http://www.w3.org/2000/svg">
<path fill-rule="evenodd" clip-rule="evenodd" d="M12.25 4.104C7.55544 4.104 3.75 7.90944 3.75 12.604C3.75 17.2986 7.55544 21.104 12.25 21.104C16.9437 21.104 20.75 17.2985 20.75 12.604C20.75 7.90949 16.9437 4.104 12.25 4.104ZM2.25 12.604C2.25 7.08102 6.72701 2.604 12.25 2.604C17.772 2.604 22.25 7.08097 22.25 12.604C22.25 18.127 17.772 22.604 12.25 22.604C6.72701 22.604 2.25 18.127 2.25 12.604Z" fill="#212121"/>
<path fill-rule="evenodd" clip-rule="evenodd" d="M9.91406 8.37256L16.5704 12.5993L9.91406 16.8261V8.37256ZM11.4141 11.1019V14.0967L13.7722 12.5993L11.4141 11.1019Z" fill="#212121"/>
</svg>
