<svg width="25" height="25" viewBox="0 0 25 25" fill="none" xmlns="http://www.w3.org/2000/svg">
<path d="M6.9021 17.4139V17.5109" stroke="#212121" stroke-width="1.5" stroke-linecap="square"/>
<path d="M21.0001 20.8656H14.1941V14.0596H21.0001V17.7796" stroke="#212121" stroke-width="1.5" stroke-linecap="square"/>
<path d="M17.5974 17.4139V17.5109" stroke="#212121" stroke-width="1.5" stroke-linecap="square"/>
<path d="M3.49976 20.8656V14.0596H10.3058V20.8656L7.01476 20.9106" stroke="#212121" stroke-width="1.5" stroke-linecap="square"/>
<path d="M16.6251 4.11621H17.3751V2.61621H16.6251V4.11621ZM14.1951 3.36621V2.61621H13.4451V3.36621H14.1951ZM13.4451 7.48621V8.23621H14.9451V7.48621H13.4451ZM20.2501 5.06721V5.81721H21.7501V5.06721H20.2501ZM21.0001 3.36621H21.7501V2.61621H21.0001V3.36621ZM19.2991 2.61621H18.5491V4.11621H19.2991V2.61621ZM21.7501 7.74121V6.99121H20.2501V7.74121H21.7501ZM21.0001 10.1712V10.9212H21.7501V10.1712H21.0001ZM19.2991 9.42121H18.5491V10.9212H19.2991V9.42121ZM14.1951 9.42121H13.4451V10.9212H14.1951V9.42121ZM16.4151 10.9212H17.1651V9.42121H16.4151V10.9212ZM16.6251 2.61621H14.1951V4.11621H16.6251V2.61621ZM13.4451 3.36621V7.48621H14.9451V3.36621H13.4451ZM21.7501 5.06721V3.36621H20.2501V5.06721H21.7501ZM21.0001 2.61621H19.2991V4.11621H21.0001V2.61621ZM20.2501 7.74121V10.1712H21.7501V7.74121H20.2501ZM21.0001 9.42121H19.2991V10.9212H21.0001V9.42121ZM14.1951 10.9212H16.4151V9.42121H14.1951V10.9212Z" fill="#212121"/>
<path d="M16.5173 5.73096V7.94996H18.3463" stroke="#212121" stroke-width="1.5" stroke-linecap="square"/>
<path d="M18.9436 5.72107V5.73107" stroke="#212121" stroke-width="1.5" stroke-linecap="square"/>
<path d="M10.3058 3.36621V10.1722H3.49976V3.36621H6.63176" stroke="#212121" stroke-width="1.5" stroke-linecap="square"/>
<path d="M6.9021 6.72005V6.81705" stroke="#212121" stroke-width="1.5" stroke-linecap="square"/>
</svg>
