<svg width="25" height="25" viewBox="0 0 25 25" fill="none" xmlns="http://www.w3.org/2000/svg">
<path fill-rule="evenodd" clip-rule="evenodd" d="M15.4436 10.194L9.90832 15.7292L8.84766 14.6686L14.3829 9.1333L15.4436 10.194Z" fill="#212121"/>
<path fill-rule="evenodd" clip-rule="evenodd" d="M13.5662 13.856H15.074V15.356H13.5662V13.856Z" fill="#212121"/>
<path fill-rule="evenodd" clip-rule="evenodd" d="M9.2146 9.50342H10.7224V11.0034H9.2146V9.50342Z" fill="#212121"/>
<path fill-rule="evenodd" clip-rule="evenodd" d="M12.2501 2.04346L12.8477 2.83162C14.2145 4.63421 16.4476 5.55916 18.6887 5.25102L19.6686 5.11629L19.5338 6.09619C19.2257 8.3373 20.1507 10.5703 21.9533 11.9371L22.7414 12.5348L21.9533 13.1324C20.1507 14.4992 19.2257 16.7322 19.5338 18.9733L19.6686 19.9532L18.6887 19.8185C16.4476 19.5104 14.2145 20.4353 12.8477 22.2379L12.2501 23.0261L11.6525 22.2379C10.2857 20.4353 8.05264 19.5104 5.81152 19.8185L4.83162 19.9532L4.96635 18.9733C5.27449 16.7322 4.34955 14.4992 2.54695 13.1324L1.75879 12.5348L2.54695 11.9371C4.34955 10.5703 5.27449 8.33731 4.96635 6.09619L4.83162 5.11629L5.81152 5.25102C8.05264 5.55916 10.2857 4.63422 11.6525 2.83162L12.2501 2.04346ZM6.52355 6.80822C6.56296 8.96246 5.70267 11.0394 4.15153 12.5348C5.70267 14.0302 6.56296 16.1071 6.52355 18.2613C8.67779 18.2219 10.7547 19.0822 12.2501 20.6333C13.7455 19.0822 15.8224 18.2219 17.9767 18.2613C17.9372 16.1071 18.7975 14.0302 20.3487 12.5348C18.7975 11.0394 17.9372 8.96246 17.9767 6.80822C15.8224 6.84762 13.7455 5.98734 12.2501 4.4362C10.7547 5.98734 8.67779 6.84762 6.52355 6.80822Z" fill="#212121"/>
</svg>
