<svg width="24" height="24" viewBox="0 0 24 24" fill="none" xmlns="http://www.w3.org/2000/svg">
<path fill-rule="evenodd" clip-rule="evenodd" d="M19.018 5.15151C19.3621 4.92087 19.828 5.01282 20.0586 5.35689C22.7213 9.32902 22.7293 14.5681 20.0585 18.5496C19.8277 18.8936 19.3618 18.9854 19.0178 18.7546C18.6738 18.5239 18.582 18.0579 18.8128 17.714C21.1438 14.239 21.1373 9.65996 18.8126 6.1921C18.582 5.84803 18.674 5.38215 19.018 5.15151Z" fill="#212121"/>
<path fill-rule="evenodd" clip-rule="evenodd" d="M16.6265 7.56029C16.9892 7.36015 17.4454 7.4919 17.6456 7.85456C19.0516 10.4024 19.0522 13.5111 17.645 16.0521C17.4443 16.4145 16.9879 16.5455 16.6256 16.3449C16.2632 16.1442 16.1321 15.6878 16.3328 15.3254C17.4892 13.2373 17.4898 10.6769 16.3323 8.57931C16.1321 8.21666 16.2639 7.76042 16.6265 7.56029Z" fill="#212121"/>
<path fill-rule="evenodd" clip-rule="evenodd" d="M8.83786 5.20561C9.79001 4.58696 11.1158 4.01033 12.5327 4.84998C12.5505 4.8605 12.5678 4.87174 12.5846 4.88368C13.3209 5.40649 13.8169 6.13976 14.1213 7.26738C14.4159 8.35887 14.5404 9.85297 14.5404 11.9525C14.5404 14.0542 14.4097 15.552 14.112 16.6453C13.8052 17.7717 13.3105 18.5056 12.5847 19.0212C12.5679 19.0331 12.5506 19.0443 12.5329 19.0548C11.116 19.8951 9.79015 19.3188 8.83786 18.7C8.47785 18.4661 8.12321 18.1943 7.81315 17.9567C7.71498 17.8814 7.62127 17.8096 7.53328 17.7435C7.12888 17.4397 6.85444 17.2642 6.65476 17.1984C6.22731 17.0578 5.89353 17.0179 5.51663 16.9728C5.37829 16.9562 5.23415 16.9389 5.07742 16.9158C4.493 16.8293 3.88257 16.6636 3.22584 16.106C2.54202 15.5255 2.22484 14.7658 2.07501 14.0335C1.92916 13.3206 1.93081 12.5721 1.93215 11.9641L1.93218 11.9541V11.9508L1.93215 11.9408C1.93081 11.3329 1.92916 10.5844 2.07501 9.87147C2.22484 9.13908 2.54204 8.37945 3.22588 7.7989L3.22613 7.79869C3.88292 7.24161 4.4933 7.07627 5.07742 6.98987C5.2334 6.96679 5.37696 6.94957 5.51476 6.93305C5.8923 6.88776 6.22661 6.84766 6.65461 6.70655L6.6552 6.70636C6.85469 6.64077 7.12902 6.46555 7.53339 6.16187C7.62159 6.09564 7.71553 6.02366 7.81397 5.94824C8.12382 5.71083 8.4782 5.43931 8.83786 5.20561ZM7.1237 8.13132C6.53922 8.32394 6.00558 8.38713 5.60214 8.43491C5.48972 8.44822 5.38741 8.46033 5.29693 8.47372C4.8825 8.53502 4.56975 8.62603 4.19665 8.94241C3.8514 9.2355 3.65269 9.64359 3.54457 10.1721C3.43352 10.7149 3.43078 11.3148 3.43217 11.9508V11.9541C3.43078 12.5901 3.43352 13.19 3.54457 13.7328C3.65269 14.2614 3.8514 14.6694 4.19665 14.9625L4.1967 14.9626C4.56996 15.2795 4.88272 15.3706 5.29693 15.4319C5.3876 15.4453 5.4902 15.4575 5.60301 15.4708C6.00629 15.5185 6.53987 15.5815 7.12385 15.7737L7.12414 15.7738C7.59082 15.9275 8.04945 16.2551 8.43425 16.5442C8.54628 16.6284 8.65531 16.7119 8.76282 16.7943C9.06158 17.0232 9.34855 17.243 9.65512 17.4422C10.4734 17.9739 11.1055 18.1425 11.7415 17.7799C12.119 17.5039 12.4352 17.0939 12.6647 16.2512C12.9083 15.3565 13.0404 14.0217 13.0404 11.9525C13.0404 9.88107 12.9139 8.55063 12.6731 7.65825C12.4469 6.82031 12.1318 6.40982 11.7418 6.12519C11.1058 5.76283 10.4736 5.93165 9.65512 6.46343C9.34879 6.66246 9.0621 6.88204 8.76364 7.11063C8.65584 7.19319 8.5465 7.27694 8.43414 7.36131C8.04931 7.65031 7.59057 7.97782 7.1237 8.13132Z" fill="#212121"/>
</svg>
