<svg width="25" height="24" viewBox="0 0 25 24" fill="none" xmlns="http://www.w3.org/2000/svg">
<path fill-rule="evenodd" clip-rule="evenodd" d="M17.3386 12.8122C16.8036 12.2762 14.9916 12.0912 13.2466 12.0412L11.2466 12.0352C9.00955 12.0882 7.63955 12.3482 7.17555 12.8122C6.61255 13.3762 6.90155 14.3162 7.21555 15.0722C7.86655 16.6412 10.6126 21.1772 12.2576 21.1772C13.9526 21.1772 16.6896 16.4392 17.2866 15.0002C17.6116 14.2182 17.8716 13.3472 17.3386 12.8122Z" fill="#212121"/>
<path opacity="0.4" fill-rule="evenodd" clip-rule="evenodd" d="M13.2473 12.0402V3.82324C13.2473 3.27024 12.8003 2.82324 12.2473 2.82324C11.6943 2.82324 11.2473 3.27024 11.2473 3.82324V12.0342L13.2473 12.0402Z" fill="#212121"/>
</svg>
