<svg width="24" height="24" viewBox="0 0 24 24" fill="none" xmlns="http://www.w3.org/2000/svg">
<path fill-rule="evenodd" clip-rule="evenodd" d="M14.9244 9.0644C15.2173 9.35729 15.2173 9.83216 14.9244 10.1251L10.1324 14.9171C9.83949 15.2099 9.36461 15.2099 9.07172 14.9171C8.77883 14.6242 8.77883 14.1493 9.07172 13.8564L13.8637 9.0644C14.1566 8.7715 14.6315 8.7715 14.9244 9.0644Z" fill="#212121"/>
<path fill-rule="evenodd" clip-rule="evenodd" d="M9.06952 9.06244C9.36242 8.76955 9.83729 8.76955 10.1302 9.06244L14.9302 13.8624C15.2231 14.1553 15.2231 14.6302 14.9302 14.9231C14.6373 15.216 14.1624 15.216 13.8695 14.9231L9.06952 10.1231C8.77663 9.83021 8.77663 9.35534 9.06952 9.06244Z" fill="#212121"/>
<path fill-rule="evenodd" clip-rule="evenodd" d="M4.24329 4.24329C5.91107 2.57552 8.4899 2 12 2C15.5101 2 18.0889 2.57552 19.7567 4.24329C21.4245 5.91107 22 8.4899 22 12C22 15.5101 21.4245 18.0889 19.7567 19.7567C18.0889 21.4245 15.5101 22 12 22C8.4899 22 5.91107 21.4245 4.24329 19.7567C2.57552 18.0889 2 15.5101 2 12C2 8.4899 2.57552 5.91107 4.24329 4.24329ZM5.30396 5.30396C4.08098 6.52693 3.5 8.5731 3.5 12C3.5 15.4269 4.08098 17.4731 5.30396 18.696C6.52693 19.919 8.5731 20.5 12 20.5C15.4269 20.5 17.4731 19.919 18.696 18.696C19.919 17.4731 20.5 15.4269 20.5 12C20.5 8.5731 19.919 6.52693 18.696 5.30396C17.4731 4.08098 15.4269 3.5 12 3.5C8.5731 3.5 6.52693 4.08098 5.30396 5.30396Z" fill="#212121"/>
</svg>
