<svg width="25" height="24" viewBox="0 0 25 24" fill="none" xmlns="http://www.w3.org/2000/svg">
<path opacity="0.4" fill-rule="evenodd" clip-rule="evenodd" d="M17.8696 6.00285C17.7006 5.94985 17.4546 5.83885 17.2476 5.61185C17.1616 5.51785 17.0456 5.28285 16.9336 5.05685C16.6316 4.44585 16.2186 3.60985 15.3876 3.25985C14.3196 2.81185 10.2196 2.80985 9.11658 3.25785C8.29658 3.59485 7.87858 4.43485 7.57358 5.04785C7.45858 5.27785 7.34058 5.51585 7.25258 5.61185C7.04658 5.83985 6.80058 5.94985 6.64758 5.99885C3.35058 6.91085 2.74658 9.05385 2.74658 12.9439C2.74658 18.5679 4.11858 21.0769 12.2506 21.0769C20.3816 21.0769 21.7536 18.5679 21.7536 12.9439C21.7536 9.05385 21.1506 6.91085 17.8696 6.00285Z" fill="#212121"/>
<path d="M16.4175 9.37695C16.4175 9.79095 16.7575 10.127 17.1715 10.127C17.5855 10.127 17.9215 9.79095 17.9215 9.37695C17.9215 8.96295 17.5855 8.62695 17.1715 8.62695H17.1625C16.7485 8.62695 16.4175 8.96295 16.4175 9.37695Z" fill="#212121"/>
<path fill-rule="evenodd" clip-rule="evenodd" d="M12.2505 16.771C10.1025 16.771 8.35547 15.023 8.35547 12.875C8.35547 10.728 10.1025 8.98095 12.2505 8.98095C14.3985 8.98095 16.1455 10.728 16.1455 12.875C16.1455 15.023 14.3985 16.771 12.2505 16.771ZM9.8556 12.8754C9.8556 11.5544 10.9296 10.4804 12.2506 10.4804C13.5716 10.4804 14.6456 11.5544 14.6456 12.8754C14.6456 14.1964 13.5716 15.2704 12.2506 15.2704C10.9296 15.2704 9.8556 14.1964 9.8556 12.8754Z" fill="#212121"/>
</svg>
