<svg width="24" height="24" viewBox="0 0 24 24" fill="none" xmlns="http://www.w3.org/2000/svg">
<path d="M21.7038 10.143C21.3268 10.143 21.0028 9.85998 20.9598 9.47698C20.5798 6.10098 17.9568 3.48098 14.5808 3.10598C14.1698 3.05998 13.8728 2.68998 13.9188 2.27798C13.9638 1.86698 14.3328 1.55998 14.7468 1.61598C18.8238 2.06798 21.9918 5.23198 22.4498 9.30898C22.4968 9.72098 22.1998 10.092 21.7888 10.138C21.7608 10.141 21.7318 10.143 21.7038 10.143Z" fill="#212121"/>
<path d="M18.1625 10.1537C17.8105 10.1537 17.4975 9.90574 17.4275 9.54774C17.1395 8.06774 15.9985 6.92674 14.5205 6.63974C14.1135 6.56074 13.8485 6.16774 13.9275 5.76074C14.0065 5.35374 14.4095 5.08874 14.8065 5.16774C16.8875 5.57174 18.4945 7.17774 18.8995 9.25974C18.9785 9.66774 18.7135 10.0607 18.3075 10.1397C18.2585 10.1487 18.2105 10.1537 18.1625 10.1537Z" fill="#212121"/>
<path fill-rule="evenodd" clip-rule="evenodd" d="M7.48215 16.4399C12.1952 21.1539 15.3332 22.3899 17.3152 22.3899C18.2932 22.3899 18.9912 22.0889 19.4562 21.7549C19.4772 21.7429 21.6292 20.4269 22.0062 18.4349C22.1842 17.4999 21.9242 16.5749 21.2562 15.7589C18.5042 12.4179 17.1022 12.7299 15.5542 13.4829C14.6032 13.9489 13.8522 14.3109 11.7312 12.1919C9.6114 10.0711 9.97707 9.32004 10.44 8.3692C11.194 6.8212 11.5042 5.41886 8.16215 2.66486C7.34815 1.99986 6.42915 1.73986 5.49515 1.91486C3.53215 2.28186 2.20815 4.39886 2.21015 4.39886C1.15815 5.87586 0.444153 9.40286 7.48215 16.4399ZM5.80115 3.38286C5.88915 3.36886 5.97615 3.36086 6.06215 3.36086C6.45415 3.36086 6.83215 3.51386 7.20915 3.82386C9.90413 6.04385 9.56316 6.74385 9.09116 7.71284C8.38216 9.16984 8.01115 10.5919 10.6702 13.2529C13.3322 15.9139 14.7552 15.5429 16.2102 14.8319L16.2126 14.8307C17.1804 14.3603 17.8801 14.0202 20.0972 16.7119C20.4762 17.1739 20.6212 17.6359 20.5392 18.1229C20.3502 19.2429 19.0482 20.2459 18.6542 20.4899C17.2432 21.4959 13.8462 20.6829 8.54215 15.3799C3.24015 10.0769 2.42615 6.67986 3.46815 5.21486C3.67615 4.87586 4.68315 3.57186 5.80115 3.38286Z" fill="#212121"/>
</svg>
