<svg width="25" height="24" viewBox="0 0 25 24" fill="none" xmlns="http://www.w3.org/2000/svg">
<path fill-rule="evenodd" clip-rule="evenodd" d="M19.6061 4.33105L20.034 4.94702C22.9837 9.19336 22.9938 14.7976 20.0337 19.0532L19.6054 19.6689L18.374 18.8124L18.8023 18.1967C21.4033 14.4573 21.3952 9.53592 18.802 5.80279L18.3741 5.18682L19.6061 4.33105Z" fill="#212121"/>
<path fill-rule="evenodd" clip-rule="evenodd" d="M16.9755 6.97168L17.3481 7.62257C18.9052 10.3426 18.9058 13.6669 17.3476 16.3803L16.9741 17.0307L15.6733 16.2837L16.0468 15.6333C17.339 13.3832 17.3395 10.6269 16.0463 8.36779L15.6737 7.71689L16.9755 6.97168Z" fill="#212121"/>
<path fill-rule="evenodd" clip-rule="evenodd" d="M11.2283 3.7373H13.0337V20.2627H11.2283L7.10246 16.6863H2.25198L2.25137 15.937C2.24922 13.3124 2.24922 10.6878 2.25137 8.06316L2.25198 7.31378H7.10245L11.2283 3.7373ZM11.5337 5.45769L7.66208 8.81378H3.75081C3.7494 10.938 3.7494 13.0622 3.75081 15.1863H7.66208L11.5337 18.5423V5.45769Z" fill="#212121"/>
</svg>
