<svg width="25" height="25" viewBox="0 0 25 25" fill="none" xmlns="http://www.w3.org/2000/svg">
<path fill-rule="evenodd" clip-rule="evenodd" d="M15.6086 16.5913H17.1172V18.0913H15.6086V16.5913Z" fill="#212121"/>
<path fill-rule="evenodd" clip-rule="evenodd" d="M11.5044 16.5913H13.013V18.0913H11.5044V16.5913Z" fill="#212121"/>
<path fill-rule="evenodd" clip-rule="evenodd" d="M7.39111 16.5913H8.89968V18.0913H7.39111V16.5913Z" fill="#212121"/>
<path fill-rule="evenodd" clip-rule="evenodd" d="M15.6086 12.9961H17.1172V14.4961H15.6086V12.9961Z" fill="#212121"/>
<path fill-rule="evenodd" clip-rule="evenodd" d="M11.5044 12.9961H13.013V14.4961H11.5044V12.9961Z" fill="#212121"/>
<path fill-rule="evenodd" clip-rule="evenodd" d="M7.39111 12.9961H8.89968V14.4961H7.39111V12.9961Z" fill="#212121"/>
<path fill-rule="evenodd" clip-rule="evenodd" d="M3.26074 9.38379H21.248V10.8838H3.26074V9.38379Z" fill="#212121"/>
<path fill-rule="evenodd" clip-rule="evenodd" d="M16.7407 2.53467V7.07865H15.2407V2.53467H16.7407Z" fill="#212121"/>
<path fill-rule="evenodd" clip-rule="evenodd" d="M9.26855 2.53467V7.07865H7.76855V2.53467H9.26855Z" fill="#212121"/>
<path fill-rule="evenodd" clip-rule="evenodd" d="M3.17578 3.99512H21.3258V22.5344H3.17578V3.99512ZM4.67578 5.49512V21.0344H19.8258V5.49512H4.67578Z" fill="#212121"/>
</svg>
