<svg width="25" height="24" viewBox="0 0 25 24" fill="none" xmlns="http://www.w3.org/2000/svg">
<g opacity="0.4">
<path fill-rule="evenodd" clip-rule="evenodd" d="M18.7249 12.3086C17.5849 12.3086 16.5149 12.5386 15.6149 12.9286C18.7649 13.8386 20.9949 16.0186 21.0549 18.5686C22.6949 18.3586 24.4649 17.7386 24.4649 16.0486C24.4649 14.0186 21.8349 12.3086 18.7249 12.3086Z" fill="#212121"/>
<path fill-rule="evenodd" clip-rule="evenodd" d="M8.87491 12.9186C7.97491 12.5386 6.90491 12.3086 5.77491 12.3086C2.66491 12.3086 0.0349121 14.0186 0.0349121 16.0486C0.0349121 17.7386 1.79491 18.3486 3.43491 18.5686C3.48491 16.0186 5.71491 13.8386 8.87491 12.9186Z" fill="#212121"/>
<path fill-rule="evenodd" clip-rule="evenodd" d="M12.2445 13.9456C8.28352 13.9456 4.93652 16.1016 4.93652 18.6536C4.93652 21.9536 10.4365 21.9536 12.2445 21.9536C15.3825 21.9536 19.5545 21.6136 19.5545 18.6746C19.5545 16.1106 16.2065 13.9456 12.2445 13.9456Z" fill="#212121"/>
</g>
<path fill-rule="evenodd" clip-rule="evenodd" d="M18.6948 10.8688H18.7148C20.8448 10.8688 22.5848 9.12879 22.5848 7.00879C22.5848 4.87879 20.8448 3.13879 18.7148 3.13879C18.2948 3.13879 17.8948 3.20879 17.5148 3.32879C18.2048 4.34879 18.6048 5.57879 18.6048 6.90879C18.6148 8.25879 18.1948 9.55879 17.4048 10.6388C17.8148 10.7888 18.2448 10.8688 18.6948 10.8688Z" fill="#212121"/>
<path fill-rule="evenodd" clip-rule="evenodd" d="M5.77479 10.8688H5.8048C6.2548 10.8688 6.68479 10.7888 7.09479 10.6388C6.33479 9.59879 5.8848 8.30879 5.8848 6.90879C5.8848 5.57879 6.28479 4.34879 6.97479 3.32879C6.59479 3.20879 6.19479 3.13879 5.77479 3.13879C3.64479 3.13879 1.91479 4.87879 1.91479 7.00879C1.91479 9.12879 3.64479 10.8688 5.77479 10.8688Z" fill="#212121"/>
<path fill-rule="evenodd" clip-rule="evenodd" d="M12.2454 11.7749H12.2784C13.5734 11.7709 14.7894 11.2619 15.7014 10.3429C16.6144 9.42387 17.1144 8.20487 17.1094 6.91187C17.1094 4.22887 14.9284 2.04688 12.2454 2.04688C9.56339 2.04688 7.38239 4.22887 7.38239 6.91187C7.38239 9.59287 9.56339 11.7749 12.2454 11.7749Z" fill="#212121"/>
</svg>
