<svg width="25" height="25" viewBox="0 0 25 25" fill="none" xmlns="http://www.w3.org/2000/svg">
<path fill-rule="evenodd" clip-rule="evenodd" d="M9.9081 15.7295L8.8471 14.6685L14.3831 9.13352L15.4431 10.1945L9.9081 15.7295ZM15.0741 15.3565H13.5741L13.5661 13.8565H15.0741V15.3565ZM10.7211 9.50352V11.0035H9.2211L9.2151 9.50352H10.7211ZM21.8021 12.1365C19.9301 10.7165 18.9671 8.38952 19.2861 6.06252L19.3761 5.40952L18.7221 5.49952C16.4021 5.81952 14.0681 4.85452 12.6481 2.98252L12.2501 2.45752L11.8511 2.98252C10.4311 4.85452 8.0981 5.82052 5.7771 5.49952L5.1241 5.40952L5.2141 6.06252C5.5331 8.38952 4.5691 10.7165 2.6981 12.1365L2.1731 12.5345L2.6981 12.9335C4.5691 14.3525 5.5331 16.6795 5.2141 19.0075L5.1241 19.6605L5.7771 19.5705C8.0971 19.2525 10.4311 20.2145 11.8511 22.0865L12.2501 22.6115L12.6481 22.0865C14.0681 20.2145 16.4031 19.2535 18.7221 19.5705L19.3761 19.6605L19.2861 19.0075C18.9671 16.6795 19.9301 14.3525 21.8021 12.9335L22.3271 12.5345L21.8021 12.1365Z" fill="#212121"/>
</svg>
