<svg width="24" height="24" viewBox="0 0 24 24" fill="none" xmlns="http://www.w3.org/2000/svg">
<path fill-rule="evenodd" clip-rule="evenodd" d="M0.699951 12.8008C0.699951 12.3866 1.03574 12.0508 1.44995 12.0508H22.582C22.9962 12.0508 23.332 12.3866 23.332 12.8008C23.332 13.215 22.9962 13.5508 22.582 13.5508H1.44995C1.03574 13.5508 0.699951 13.215 0.699951 12.8008Z" fill="#212121"/>
<path fill-rule="evenodd" clip-rule="evenodd" d="M2.76831 12.0549C3.18242 12.0456 3.52566 12.3737 3.53497 12.7878C3.55387 13.629 3.61774 14.3847 3.7263 15.0492C3.73018 15.0657 3.73352 15.0825 3.7363 15.0995C4.00546 16.7428 4.53051 17.8742 5.31989 18.6625C6.1097 19.4513 7.24435 19.9767 8.88946 20.2509C9.29804 20.319 9.57405 20.7054 9.50596 21.114C9.43786 21.5226 9.05144 21.7986 8.64286 21.7305C6.80797 21.4247 5.34262 20.8051 4.25993 19.7239C3.18752 18.6529 2.56916 17.2075 2.26504 15.3963C2.26139 15.3807 2.25821 15.3649 2.25553 15.349C2.12726 14.5857 2.05596 13.7387 2.03535 12.8215C2.02604 12.4074 2.3542 12.0642 2.76831 12.0549Z" fill="#212121"/>
<path fill-rule="evenodd" clip-rule="evenodd" d="M21.2613 12.0549C21.6755 12.0642 22.0036 12.4074 21.9943 12.8215C21.9741 13.7195 21.9044 14.5491 21.7825 15.2981C21.781 15.3128 21.779 15.3274 21.7766 15.3421C21.4752 17.1788 20.855 18.6423 19.7718 19.7239C18.689 20.8051 17.2237 21.4247 15.3888 21.7305C14.9802 21.7986 14.5938 21.5226 14.5257 21.114C14.4576 20.7054 14.7336 20.319 15.1422 20.2509C16.7873 19.9767 17.922 19.4513 18.7119 18.6625C19.4939 17.8816 20.0167 16.7642 20.2886 15.1462C20.2902 15.1313 20.2922 15.1163 20.2947 15.1014C20.4077 14.4235 20.4753 13.6499 20.4947 12.7878C20.504 12.3737 20.8472 12.0456 21.2613 12.0549Z" fill="#212121"/>
<path fill-rule="evenodd" clip-rule="evenodd" d="M14.5258 2.82908C14.5928 2.42031 14.9784 2.14322 15.3872 2.21017C17.2236 2.51096 18.6896 3.13077 19.7726 4.21373C20.8555 5.29669 21.4753 6.7627 21.7761 8.59908C21.8431 9.00785 21.566 9.39349 21.1572 9.46045C20.7484 9.5274 20.3628 9.25031 20.2958 8.84154C20.0266 7.19792 19.5014 6.06393 18.7119 5.27439C17.9224 4.48485 16.7884 3.95966 15.1448 3.69045C14.736 3.62349 14.4589 3.23785 14.5258 2.82908Z" fill="#212121"/>
<path fill-rule="evenodd" clip-rule="evenodd" d="M9.5061 2.82908C9.57305 3.23785 9.29596 3.62349 8.88719 3.69045C7.24357 3.95966 6.10958 4.48485 5.32004 5.27439C4.53051 6.06393 4.00532 7.19792 3.7361 8.84154C3.66915 9.25031 3.2835 9.5274 2.87473 9.46045C2.46597 9.39349 2.18887 9.00785 2.25583 8.59908C2.55661 6.7627 3.17642 5.29669 4.25938 4.21373C5.34235 3.13077 6.80836 2.51096 8.64473 2.21017C9.0535 2.14322 9.43915 2.42031 9.5061 2.82908Z" fill="#212121"/>
</svg>
