<svg width="24" height="24" viewBox="0 0 24 24" fill="none" xmlns="http://www.w3.org/2000/svg">
<path fill-rule="evenodd" clip-rule="evenodd" d="M3.26123 17.2451C3.26123 16.8309 3.59702 16.4951 4.01123 16.4951H10.4838C10.898 16.4951 11.2338 16.8309 11.2338 17.2451C11.2338 17.6593 10.898 17.9951 10.4838 17.9951H4.01123C3.59702 17.9951 3.26123 17.6593 3.26123 17.2451Z" fill="#212121"/>
<path fill-rule="evenodd" clip-rule="evenodd" d="M14.6105 14.5892C15.2582 13.9416 16.205 13.7744 17.267 13.7744C18.3289 13.7744 19.2757 13.9416 19.9234 14.5892C20.5713 15.2369 20.7387 16.1837 20.7387 17.2462C20.7387 18.3087 20.5713 19.2555 19.9234 19.9032C19.2757 20.5508 18.3289 20.718 17.267 20.718C16.205 20.718 15.2582 20.5508 14.6105 19.9032C13.9627 19.2555 13.7952 18.3087 13.7952 17.2462C13.7952 16.1837 13.9627 15.2369 14.6105 14.5892ZM15.671 15.65C15.4681 15.8528 15.2952 16.2669 15.2952 17.2462C15.2952 18.2255 15.4681 18.6396 15.671 18.8424C15.8739 19.0452 16.288 19.218 17.267 19.218C18.2459 19.218 18.66 19.0452 18.8629 18.8424C19.0658 18.6396 19.2387 18.2255 19.2387 17.2462C19.2387 16.2669 19.0658 15.8528 18.8629 15.65C18.66 15.4472 18.2459 15.2744 17.267 15.2744C16.288 15.2744 15.8739 15.4472 15.671 15.65Z" fill="#212121"/>
<path fill-rule="evenodd" clip-rule="evenodd" d="M12.7668 6.75586C12.7668 6.34165 13.1026 6.00586 13.5168 6.00586H19.9885C20.4027 6.00586 20.7385 6.34165 20.7385 6.75586C20.7385 7.17007 20.4027 7.50586 19.9885 7.50586H13.5168C13.1026 7.50586 12.7668 7.17007 12.7668 6.75586Z" fill="#212121"/>
<path fill-rule="evenodd" clip-rule="evenodd" d="M4.0764 4.09836C4.72422 3.45071 5.67114 3.2832 6.73367 3.2832C7.79582 3.2832 8.74253 3.45073 9.39023 4.09843C10.0379 4.74613 10.2055 5.69284 10.2055 6.75499C10.2055 7.81749 10.038 8.76432 9.39016 9.41196C8.7424 10.0596 7.79562 10.2268 6.73367 10.2268C5.67135 10.2268 4.72435 10.0596 4.07647 9.41203C3.42847 8.76437 3.26099 7.81748 3.26099 6.75499C3.26099 5.69285 3.42851 4.74608 4.0764 4.09836ZM5.13692 5.15916C4.93391 5.36212 4.76099 5.77624 4.76099 6.75499C4.76099 7.73429 4.93395 8.14829 5.13685 8.35109C5.33985 8.55399 5.7542 8.72678 6.73367 8.72678C7.71262 8.72678 8.12673 8.55401 8.32964 8.35116C8.5325 8.14835 8.70546 7.73429 8.70546 6.75499C8.70546 5.77625 8.53254 5.36206 8.32957 5.15909C8.1266 4.95612 7.71242 4.7832 6.73367 4.7832C5.75441 4.7832 5.33999 4.95615 5.13692 5.15916Z" fill="#212121"/>
</svg>
