<svg width="25" height="25" viewBox="0 0 25 25" fill="none" xmlns="http://www.w3.org/2000/svg">
<path fill-rule="evenodd" clip-rule="evenodd" d="M18.775 20.0273C19.065 20.0273 19.3 20.2623 19.3 20.5513C19.3 20.8413 19.065 21.0763 18.775 21.0763C18.485 21.0763 18.251 20.8413 18.251 20.5513C18.251 20.2623 18.485 20.0273 18.775 20.0273Z" fill="#212121"/>
<path fill-rule="evenodd" clip-rule="evenodd" d="M18.775 20.0273C19.065 20.0273 19.3 20.2623 19.3 20.5513C19.3 20.8413 19.065 21.0763 18.775 21.0763C18.485 21.0763 18.251 20.8413 18.251 20.5513C18.251 20.2623 18.485 20.0273 18.775 20.0273Z" stroke="#212121" stroke-width="1.5" stroke-linecap="square"/>
<path fill-rule="evenodd" clip-rule="evenodd" d="M7.90828 20.0273C8.19828 20.0273 8.43228 20.2623 8.43228 20.5513C8.43228 20.8413 8.19828 21.0763 7.90828 21.0763C7.61828 21.0763 7.38428 20.8413 7.38428 20.5513C7.38428 20.2623 7.61828 20.0273 7.90828 20.0273Z" fill="#212121"/>
<path fill-rule="evenodd" clip-rule="evenodd" d="M7.90828 20.0273C8.19828 20.0273 8.43228 20.2623 8.43228 20.5513C8.43228 20.8413 8.19828 21.0763 7.90828 21.0763C7.61828 21.0763 7.38428 20.8413 7.38428 20.5513C7.38428 20.2623 7.61828 20.0273 7.90828 20.0273Z" stroke="#212121" stroke-width="1.5" stroke-linecap="square"/>
<path d="M14.624 10.9639H17.296" stroke="#212121" stroke-width="1.5" stroke-linecap="square"/>
<path d="M8.734 7.05316H21.5L20.231 16.6882H6.744L5.467 3.99316H3" stroke="#212121" stroke-width="1.5" stroke-linecap="square"/>
</svg>
