<svg width="25" height="24" viewBox="0 0 25 24" fill="none" xmlns="http://www.w3.org/2000/svg">
<g opacity="0.4">
<path fill-rule="evenodd" clip-rule="evenodd" d="M16.2702 12.3076C15.1402 12.3076 14.0702 12.5376 13.1702 12.9176C16.3302 13.8376 18.5602 16.0276 18.6102 18.5776C20.2502 18.3576 22.0102 17.7476 22.0102 16.0476C22.0102 14.0176 19.3802 12.3076 16.2702 12.3076Z" fill="#212121"/>
<path fill-rule="evenodd" clip-rule="evenodd" d="M9.79875 13.9468C5.83675 13.9468 2.48975 16.1118 2.48975 18.6748C2.48975 21.6138 6.66075 21.9538 9.79875 21.9538C11.6067 21.9538 17.1077 21.9538 17.1077 18.6548C17.1077 16.1028 13.7607 13.9468 9.79875 13.9468Z" fill="#212121"/>
</g>
<path fill-rule="evenodd" clip-rule="evenodd" d="M16.2398 10.8676H16.2698C18.3998 10.8676 20.1298 9.13758 20.1298 7.00758C20.1298 4.87758 18.3998 3.14758 16.2698 3.14758C15.8498 3.14758 15.4498 3.21758 15.0698 3.33758C15.7598 4.35758 16.1598 5.58758 16.1598 6.90758C16.1598 8.29758 15.7098 9.58758 14.9498 10.6376C15.3498 10.7876 15.7898 10.8676 16.2398 10.8676Z" fill="#212121"/>
<path fill-rule="evenodd" clip-rule="evenodd" d="M9.76712 11.7759H9.79712C12.4801 11.7759 14.6621 9.59387 14.6621 6.91187C14.6621 4.22887 12.4801 2.04688 9.79712 2.04688C7.11612 2.04688 4.93412 4.22887 4.93412 6.90987C4.92912 8.20487 5.42812 9.42387 6.34112 10.3429C7.25412 11.2619 8.47012 11.7709 9.76712 11.7759Z" fill="#212121"/>
</svg>
