<svg width="25" height="25" viewBox="0 0 25 25" fill="none" xmlns="http://www.w3.org/2000/svg">
<path fill-rule="evenodd" clip-rule="evenodd" d="M13.0001 17.047C13.0001 17.461 12.6641 17.797 12.2501 17.797C11.8361 17.797 11.5001 17.461 11.5001 17.047V14.826C11.5001 14.412 11.8361 14.076 12.2501 14.076C12.6641 14.076 13.0001 14.412 13.0001 14.826V17.047ZM12.2501 8.99401C10.7471 8.99401 9.48609 9.10501 8.43909 9.34801V7.91701C8.47309 5.84201 10.1241 4.19601 12.1991 4.17101H12.2471C13.9141 4.17101 15.4131 5.27801 15.9031 6.87801C16.0241 7.27401 16.4401 7.49901 16.8401 7.37501C17.2351 7.25401 17.4591 6.83501 17.3371 6.43901C16.6481 4.19101 14.4861 2.65601 12.1811 2.67101C9.28809 2.70701 6.98609 5.00001 6.93909 7.90501V9.86201C4.90609 10.831 4.09009 12.683 4.09009 15.765C4.09009 20.765 6.22609 22.537 12.2501 22.537C18.2741 22.537 20.4101 20.765 20.4101 15.765C20.4101 10.766 18.2741 8.99401 12.2501 8.99401Z" fill="#212121"/>
</svg>
