<svg width="25" height="25" viewBox="0 0 25 25" fill="none" xmlns="http://www.w3.org/2000/svg">
<path fill-rule="evenodd" clip-rule="evenodd" d="M19.85 7.95721L16.08 11.7272C16.13 11.9872 16.16 12.2472 16.16 12.5172C16.16 14.6772 14.4 16.4272 12.25 16.4272C11.98 16.4272 11.72 16.3972 11.46 16.3472H11.45L8.27002 19.5272C9.48002 20.0172 10.83 20.3172 12.25 20.3172C17.65 20.3172 22 16.0572 22 12.5172C22 10.9972 21.19 9.34721 19.85 7.95721Z" fill="#212121"/>
<path fill-rule="evenodd" clip-rule="evenodd" d="M8.34 12.5172C8.34 10.3572 10.09 8.60723 12.25 8.60723C13.01 8.60723 13.73 8.82723 14.33 9.21723L13.23 10.3172C12.93 10.1772 12.6 10.1072 12.25 10.1072C10.92 10.1072 9.84 11.1872 9.84 12.5172C9.84 12.8672 9.91 13.1972 10.05 13.4972L8.94 14.6072C8.56 14.0072 8.34 13.2872 8.34 12.5172ZM11.06 14.6172L14.35 11.3372L15.43 10.2472L18.73 6.95723L18.72 6.94723L20.42 5.24723C20.72 4.95723 20.72 4.47723 20.42 4.18723C20.13 3.89723 19.65 3.89723 19.36 4.18723L17.44 6.10723C15.94 5.25723 14.16 4.71723 12.25 4.71723C6.85 4.71723 2.5 8.98723 2.5 12.5172C2.5 14.3672 3.69 16.4172 5.6 17.9472L3.59 19.9572C3.29 20.2572 3.29 20.7272 3.59 21.0172C3.73 21.1672 3.93 21.2372 4.12 21.2372C4.31 21.2372 4.5 21.1672 4.65 21.0172L5.72 19.9572L6.85 18.8172H6.86L11.06 14.6172Z" fill="#212121"/>
</svg>
