<svg width="25" height="24" viewBox="0 0 25 24" fill="none" xmlns="http://www.w3.org/2000/svg">
<path fill-rule="evenodd" clip-rule="evenodd" d="M20.1966 5.40799C19.9666 5.06399 19.4986 4.97099 19.1556 5.20299C18.8116 5.43299 18.7196 5.89899 18.9506 6.24399C21.2616 9.69099 21.2616 14.321 18.9506 17.765C18.7196 18.109 18.8116 18.575 19.1556 18.806C19.2836 18.892 19.4286 18.933 19.5726 18.933C19.8146 18.933 20.0516 18.817 20.1966 18.601C22.8426 14.658 22.8426 9.35599 20.1966 5.40799Z" fill="#212121"/>
<path fill-rule="evenodd" clip-rule="evenodd" d="M16.7645 7.61206C16.4015 7.81106 16.2695 8.26806 16.4705 8.63106C17.6205 10.7161 17.6205 13.3011 16.4705 15.3781C16.2695 15.7401 16.4015 16.1961 16.7635 16.3971C16.8785 16.4611 17.0035 16.4911 17.1265 16.4911C17.3895 16.4911 17.6455 16.3511 17.7835 16.1041C19.1805 13.5811 19.1815 10.4391 17.7835 7.90606C17.5825 7.54306 17.1265 7.41206 16.7645 7.61206Z" fill="#212121"/>
<path opacity="0.4" fill-rule="evenodd" clip-rule="evenodd" d="M12.543 5.11824C10.837 4.10324 9.26801 5.30824 8.12201 6.18524C7.65201 6.54524 7.20801 6.88524 6.87101 6.99624C6.41301 7.14624 6.01801 7.19424 5.63501 7.24024C4.96801 7.31924 4.27901 7.40124 3.52401 8.04224C2.31501 9.06924 2.31701 10.6972 2.31901 12.0052C2.31701 13.3122 2.31501 14.9402 3.52501 15.9682C4.27901 16.6082 4.96801 16.6902 5.63501 16.7692C6.01801 16.8152 6.41301 16.8632 6.87101 17.0142C7.20801 17.1252 7.65101 17.4652 8.12101 17.8242C8.95201 18.4612 10.006 19.2682 11.188 19.2682C11.635 19.2682 12.1 19.1532 12.578 18.8692C13.944 17.8982 14.428 16.1012 14.428 12.0052C14.428 7.85424 13.961 6.12224 12.543 5.11824Z" fill="#212121"/>
</svg>
