<svg width="24" height="24" viewBox="0 0 24 24" fill="none" xmlns="http://www.w3.org/2000/svg">
<path d="M2.6099 9.34994C2.7219 9.40794 2.8419 9.43594 2.9589 9.43594C3.2289 9.43594 3.4889 9.28994 3.6229 9.03594C4.23212 7.87873 5.34598 6.29258 6.27905 5.63763V17.2052C6.27905 17.6192 6.61505 17.9552 7.02905 17.9552C7.44305 17.9552 7.77905 17.6192 7.77905 17.2052V5.63795C8.7135 6.2933 9.83287 7.87985 10.4459 9.03694C10.6399 9.40194 11.0939 9.54294 11.4599 9.34894C11.8259 9.15494 11.9659 8.70094 11.7719 8.33494C11.3749 7.58394 9.2769 3.83594 7.0289 3.83594C4.7809 3.83594 2.6919 7.58494 2.2969 8.33594C2.1039 8.70294 2.2439 9.15694 2.6099 9.34994Z" fill="#212121"/>
<path d="M17.7097 18.3626V6.79565C17.7097 6.38165 17.3737 6.04565 16.9597 6.04565C16.5457 6.04565 16.2097 6.38165 16.2097 6.79565V18.3629C15.2752 17.7077 14.1556 16.1209 13.5425 14.9636C13.3495 14.5986 12.8945 14.4576 12.5285 14.6516C12.1625 14.8456 12.0225 15.2996 12.2165 15.6646C12.6135 16.4166 14.7115 20.1646 16.9595 20.1646C19.2075 20.1646 21.3055 16.4166 21.7025 15.6646C21.8965 15.2996 21.7565 14.8456 21.3905 14.6516C21.0245 14.4576 20.5705 14.5986 20.3765 14.9636C19.7635 16.1207 18.6441 17.7072 17.7097 18.3626Z" fill="#212121"/>
</svg>
