<svg width="25" height="24" viewBox="0 0 25 24" fill="none" xmlns="http://www.w3.org/2000/svg">
<path fill-rule="evenodd" clip-rule="evenodd" d="M16.2006 13.4159C15.6486 13.4159 15.1956 12.9689 15.1956 12.4159C15.1956 11.8629 15.6386 11.4159 16.1916 11.4159H16.2006C16.7526 11.4159 17.2006 11.8629 17.2006 12.4159C17.2006 12.9689 16.7526 13.4159 16.2006 13.4159ZM12.1916 13.4159C11.6386 13.4159 11.1866 12.9689 11.1866 12.4159C11.1866 11.8629 11.6306 11.4159 12.1826 11.4159H12.1916C12.7436 11.4159 13.1916 11.8629 13.1916 12.4159C13.1916 12.9689 12.7436 13.4159 12.1916 13.4159ZM8.18264 13.4159C7.63064 13.4159 7.17864 12.9689 7.17864 12.4159C7.17864 11.8629 7.62064 11.4159 8.17364 11.4159H8.18264C8.73464 11.4159 9.18264 11.8629 9.18264 12.4159C9.18264 12.9689 8.73464 13.4159 8.18264 13.4159ZM19.6766 4.57593C17.6956 2.59493 15.0586 1.50293 12.2526 1.50293C9.44664 1.50293 6.80964 2.59493 4.82864 4.57593C1.72664 7.67893 0.880636 12.4409 2.70564 16.3749C2.73864 16.5369 2.64964 17.1959 2.58564 17.6779C2.34364 19.4839 2.21964 20.8099 2.83264 21.4239C3.44464 22.0369 4.76964 21.9129 6.57564 21.6699C7.05764 21.6059 7.72464 21.5199 7.82864 21.5309C9.23464 22.1819 10.7376 22.4969 12.2296 22.4969C14.9676 22.4969 17.6696 21.4349 19.6766 19.4269C23.7696 15.3319 23.7706 8.66993 19.6766 4.57593Z" fill="#212121"/>
</svg>
