<svg width="25" height="24" viewBox="0 0 25 24" fill="none" xmlns="http://www.w3.org/2000/svg">
<path fill-rule="evenodd" clip-rule="evenodd" d="M16.2702 12.3076C15.1402 12.3076 14.0702 12.5376 13.1702 12.9176C16.3302 13.8376 18.5602 16.0276 18.6102 18.5776C20.2502 18.3576 22.0102 17.7476 22.0102 16.0476C22.0102 14.0176 19.3802 12.3076 16.2702 12.3076Z" fill="#212121"/>
<path fill-rule="evenodd" clip-rule="evenodd" d="M16.2402 10.8676H16.2702C18.4002 10.8676 20.1302 9.13758 20.1302 7.00758C20.1302 4.87758 18.4002 3.14758 16.2702 3.14758C15.8502 3.14758 15.4502 3.21758 15.0702 3.33758C15.7602 4.35758 16.1602 5.58758 16.1602 6.90758C16.1602 8.29758 15.7102 9.58758 14.9502 10.6376C15.3502 10.7876 15.7902 10.8676 16.2402 10.8676Z" fill="#212121"/>
<path fill-rule="evenodd" clip-rule="evenodd" d="M9.79875 13.9468C5.83675 13.9468 2.48975 16.1118 2.48975 18.6748C2.48975 21.6138 6.66075 21.9538 9.79875 21.9538C11.6067 21.9538 17.1077 21.9538 17.1077 18.6548C17.1077 16.1028 13.7607 13.9468 9.79875 13.9468Z" fill="#212121"/>
<path fill-rule="evenodd" clip-rule="evenodd" d="M9.76749 11.7759H9.79749C12.4805 11.7759 14.6625 9.59387 14.6625 6.91187C14.6625 4.22887 12.4805 2.04688 9.79749 2.04688C7.11649 2.04688 4.93449 4.22887 4.93449 6.90987C4.92949 8.20487 5.42849 9.42387 6.34149 10.3429C7.25449 11.2619 8.47049 11.7709 9.76749 11.7759Z" fill="#212121"/>
</svg>
