<svg width="25" height="25" viewBox="0 0 25 25" fill="none" xmlns="http://www.w3.org/2000/svg">
<path opacity="0.4" fill-rule="evenodd" clip-rule="evenodd" d="M19.3487 10.2012C19.3487 9.92517 19.1247 9.70117 18.8487 9.70117H5.65272C5.37572 9.70117 5.15272 9.92517 5.15272 10.2012C5.15272 11.1982 5.13472 12.1272 5.11772 12.9882C5.04372 16.7372 4.99472 19.2142 6.50972 20.7592C7.58572 21.8562 9.35272 22.3462 12.2397 22.3462C15.1297 22.3462 16.8997 21.8552 17.9787 20.7562C19.5007 19.2042 19.4527 16.7152 19.3817 12.9452C19.3657 12.0962 19.3487 11.1812 19.3487 10.2012Z" fill="#212121"/>
<path fill-rule="evenodd" clip-rule="evenodd" d="M20.325 6.37833H16.184C16.143 5.72433 15.962 4.80233 15.311 4.05433C14.623 3.26333 13.593 2.86133 12.249 2.86133C10.906 2.86133 9.87605 3.26333 9.18805 4.05433C8.53705 4.80233 8.35505 5.72433 8.31405 6.37833H4.17505C3.76105 6.37833 3.42505 6.71433 3.42505 7.12833C3.42505 7.54233 3.76105 7.87833 4.17505 7.87833H20.325C20.739 7.87833 21.075 7.54233 21.075 7.12833C21.075 6.71433 20.739 6.37833 20.325 6.37833Z" fill="#212121"/>
</svg>
