<svg width="24" height="24" viewBox="0 0 24 24" fill="none" xmlns="http://www.w3.org/2000/svg">
<path fill-rule="evenodd" clip-rule="evenodd" d="M11.9726 20.3681C8.73355 20.3681 5.96655 19.8781 5.96655 17.9161C5.96655 15.9541 8.71555 14.2461 11.9726 14.2461C15.2116 14.2461 17.9786 15.9381 17.9786 17.8991C17.9786 19.8601 15.2296 20.3681 11.9726 20.3681Z" stroke="#212121" stroke-width="1.5" stroke-linecap="round" stroke-linejoin="round"/>
<path d="M18.9431 13.5449C20.6971 13.5449 22.1951 14.7339 22.1951 15.7959C22.1951 16.4209 21.6781 17.1019 20.8941 17.2859" stroke="#212121" stroke-width="1.5" stroke-linecap="round" stroke-linejoin="round"/>
<path d="M5.00176 13.5449C3.24776 13.5449 1.74976 14.7339 1.74976 15.7959C1.74976 16.4209 2.26676 17.1019 3.05176 17.2859" stroke="#212121" stroke-width="1.5" stroke-linecap="round" stroke-linejoin="round"/>
<path d="M18.362 10.392C19.599 10.061 20.511 8.93302 20.511 7.59002C20.511 6.18902 19.518 5.01902 18.196 4.74902" stroke="#212121" stroke-width="1.5" stroke-linecap="round" stroke-linejoin="round"/>
<path d="M5.58384 10.392C4.34584 10.061 3.43384 8.93302 3.43384 7.59002C3.43384 6.18902 4.42784 5.01902 5.74884 4.74902" stroke="#212121" stroke-width="1.5" stroke-linecap="round" stroke-linejoin="round"/>
<path fill-rule="evenodd" clip-rule="evenodd" d="M11.9726 11.449C14.0986 11.449 15.8226 9.726 15.8226 7.6C15.8226 5.474 14.0986 3.75 11.9726 3.75C9.84657 3.75 8.12257 5.474 8.12257 7.6C8.11657 9.718 9.82657 11.442 11.9456 11.449H11.9726Z" stroke="#212121" stroke-width="1.5" stroke-linecap="round" stroke-linejoin="round"/>
</svg>
