<svg width="25" height="25" viewBox="0 0 25 25" fill="none" xmlns="http://www.w3.org/2000/svg">
<path d="M9.90796 14.6688L14.383 10.1938" stroke="#212121" stroke-width="1.5" stroke-linecap="square" stroke-linejoin="round"/>
<path d="M14.3161 14.6064H14.3241" stroke="#212121" stroke-width="1.5" stroke-linecap="square" stroke-linejoin="round"/>
<path d="M9.96501 10.2539H9.97201" stroke="#212121" stroke-width="1.5" stroke-linecap="square" stroke-linejoin="round"/>
<path d="M5.13424 15.1932C4.66024 14.1622 3.93624 13.2442 3.00024 12.5342C5.01924 11.0042 6.05424 8.50318 5.70924 5.99418C8.21924 6.33918 10.7192 5.30318 12.2502 3.28418C13.7812 5.30318 16.2812 6.33918 18.7912 5.99418C18.6182 7.24918 18.7912 8.50118 19.2592 9.63118" stroke="#212121" stroke-width="1.5" stroke-linecap="square"/>
<path d="M21.4997 12.5347C19.4807 14.0657 18.4457 16.5657 18.7907 19.0757C16.2807 18.7307 13.7807 19.7657 12.2497 21.7847C10.7187 19.7657 8.21874 18.7307 5.70874 19.0757" stroke="#212121" stroke-width="1.5" stroke-linecap="square"/>
</svg>
