<svg width="25" height="25" viewBox="0 0 25 25" fill="none" xmlns="http://www.w3.org/2000/svg">
<path fill-rule="evenodd" clip-rule="evenodd" d="M19.8585 19.3516H13.4815C13.0675 19.3516 12.7315 19.6876 12.7315 20.1016C12.7315 20.5156 13.0675 20.8516 13.4815 20.8516H19.8585C20.2725 20.8516 20.6085 20.5156 20.6085 20.1016C20.6085 19.6876 20.2725 19.3516 19.8585 19.3516Z" fill="#212121"/>
<path fill-rule="evenodd" clip-rule="evenodd" d="M9.61667 8.34312C9.71611 8.21086 9.90387 8.18409 10.0363 8.28331L15.2163 12.1637C15.349 12.2631 15.3759 12.4513 15.2763 12.5839L10.4566 19.0038C9.29664 20.5538 7.54664 20.8638 6.33664 20.8638C5.58664 20.8638 5.04664 20.7438 4.98664 20.7338C4.85664 20.7038 4.73664 20.6138 4.66664 20.4938C4.59664 20.3638 2.87664 17.3038 4.79664 14.7538L9.61667 8.34312Z" fill="#212121"/>
<path fill-rule="evenodd" clip-rule="evenodd" d="M17.2066 10.0138L16.5366 10.9045C16.4372 11.0367 16.2494 11.0634 16.117 10.9642L10.9362 7.08321C10.8038 6.98403 10.7767 6.7964 10.8756 6.66378L11.5466 5.76375C12.2366 4.83375 13.3066 4.34375 14.3866 4.34375C15.1266 4.34375 15.8666 4.57375 16.5066 5.05375C17.2566 5.62375 17.7466 6.45375 17.8866 7.38375C18.0166 8.32375 17.7766 9.25375 17.2066 10.0138Z" fill="#212121"/>
</svg>
