<svg width="25" height="24" viewBox="0 0 25 24" fill="none" xmlns="http://www.w3.org/2000/svg">
<path opacity="0.4" fill-rule="evenodd" clip-rule="evenodd" d="M12.2498 20.5C12.802 20.5 13.2498 20.0523 13.2498 19.5V4.5C13.2498 3.94772 12.802 3.5 12.2498 3.5C11.6975 3.5 11.2498 3.94772 11.2498 4.5V19.5C11.2498 20.0523 11.6975 20.5 12.2498 20.5Z" fill="#212121"/>
<path d="M19.1548 10.0761C19.4168 10.5623 19.2352 11.1688 18.749 11.4309C18.4197 11.6083 18.0352 11.5822 17.7398 11.3957C17.5992 11.3069 17.4788 11.1818 17.3943 11.0251L17.3932 11.0231L17.3875 11.0127L17.3626 10.9674C17.34 10.9267 17.3058 10.8656 17.2608 10.7869C17.1709 10.6295 17.0382 10.4025 16.8701 10.1292C16.5327 9.58074 16.0584 8.85502 15.5054 8.13432C14.9479 7.40769 14.335 6.7186 13.7251 6.22026C13.0915 5.70253 12.5949 5.50059 12.2515 5.50059C11.9075 5.50059 11.4103 5.70275 10.7765 6.22043C10.1662 6.71878 9.55304 7.40787 8.99528 8.13449C8.44208 8.85518 7.96756 9.58089 7.63009 10.1293C7.46195 10.4026 7.32921 10.6296 7.2392 10.787C7.19397 10.8661 7.14899 10.9454 7.10557 11.0255C6.84337 11.5114 6.23697 11.6928 5.75095 11.4308C5.26482 11.1687 5.08322 10.5621 5.34533 10.076C5.39644 9.98129 5.44957 9.88767 5.503 9.79424C5.60217 9.6208 5.74587 9.37514 5.92673 9.08122C6.28726 8.49529 6.80099 7.7085 7.40879 6.91669C8.01203 6.1308 8.73258 5.3074 9.51137 4.67137C10.2665 4.05468 11.2136 3.50059 12.2515 3.50059C13.2892 3.50059 14.2359 4.05489 14.9906 4.67154C15.769 5.30757 16.4892 6.13098 17.0922 6.91685C17.6997 7.70865 18.2132 8.49543 18.5736 9.08136C18.7544 9.37527 18.8981 9.62093 18.9972 9.79436C19.0468 9.88113 19.0853 9.94997 19.1119 9.99789L19.1427 10.0538L19.1511 10.0693L19.1535 10.0738L19.1548 10.0761Z" fill="#212121"/>
</svg>
