<svg width="25" height="25" viewBox="0 0 25 25" fill="none" xmlns="http://www.w3.org/2000/svg">
<path fill-rule="evenodd" clip-rule="evenodd" d="M17.2702 10.4451L13.603 15.1781L10.4048 12.6659L7.60387 16.3062L6.41504 15.3915L10.1399 10.5504L13.3421 13.0658L16.0845 9.52637L17.2702 10.4451Z" fill="#212121"/>
<path fill-rule="evenodd" clip-rule="evenodd" d="M19.4182 4.28467C18.8373 4.28467 18.3665 4.75554 18.3665 5.33638C18.3665 5.91723 18.8373 6.38809 19.4182 6.38809C19.999 6.38809 20.4699 5.91723 20.4699 5.33638C20.4699 4.75554 19.999 4.28467 19.4182 4.28467ZM16.8665 5.33638C16.8665 3.92711 18.0089 2.78467 19.4182 2.78467C20.8274 2.78467 21.9699 3.92711 21.9699 5.33638C21.9699 6.74565 20.8274 7.88809 19.4182 7.88809C18.0089 7.88809 16.8665 6.74565 16.8665 5.33638Z" fill="#212121"/>
<path fill-rule="evenodd" clip-rule="evenodd" d="M2.53027 3.57422H15.4154V5.07422H4.03027V20.7849H19.7409V9.37402H21.2409V22.2849H2.53027V3.57422Z" fill="#212121"/>
</svg>
