<svg width="24" height="24" viewBox="0 0 24 24" fill="none" xmlns="http://www.w3.org/2000/svg">
<path opacity="0.4" d="M10.4838 17.2442H4.01123" stroke="#212121" stroke-width="1.5" stroke-linecap="round" stroke-linejoin="round"/>
<path fill-rule="evenodd" clip-rule="evenodd" d="M14.5452 17.2452C14.5452 19.287 15.2261 19.967 17.267 19.967C19.3079 19.967 19.9887 19.287 19.9887 17.2452C19.9887 15.2034 19.3079 14.5234 17.267 14.5234C15.2261 14.5234 14.5452 15.2034 14.5452 17.2452Z" stroke="#212121" stroke-width="1.5" stroke-linecap="round" stroke-linejoin="round"/>
<path opacity="0.4" d="M13.5168 6.75499H19.9885" stroke="#212121" stroke-width="1.5" stroke-linecap="round" stroke-linejoin="round"/>
<path fill-rule="evenodd" clip-rule="evenodd" d="M9.45546 6.75402C9.45546 4.71312 8.77457 4.03223 6.73367 4.03223C4.69188 4.03223 4.01099 4.71312 4.01099 6.75402C4.01099 8.79581 4.69188 9.47581 6.73367 9.47581C8.77457 9.47581 9.45546 8.79581 9.45546 6.75402Z" stroke="#212121" stroke-width="1.5" stroke-linecap="round" stroke-linejoin="round"/>
</svg>
