<svg width="25" height="25" viewBox="0 0 25 25" fill="none" xmlns="http://www.w3.org/2000/svg">
<path fill-rule="evenodd" clip-rule="evenodd" d="M12.003 15.8385C11.703 15.9625 11.36 16.0795 11.04 16.0795C10.792 16.0795 10.559 16.0095 10.369 15.8195C10.23 15.6805 9.803 15.2545 9.815 12.4405C9.826 9.64152 10.235 9.23352 10.369 9.09852C10.841 8.62752 11.622 8.94852 11.956 9.08752C12.78 9.42852 16.006 11.2055 16.006 12.4595C16.006 13.7335 12.71 15.5455 12.003 15.8385ZM12.25 2.85352C5.052 2.85352 2.5 5.40552 2.5 12.6035C2.5 19.8015 5.052 22.3535 12.25 22.3535C19.449 22.3535 22 19.8015 22 12.6035C22 5.40552 19.449 2.85352 12.25 2.85352Z" fill="#212121"/>
</svg>
