<svg width="25" height="24" viewBox="0 0 25 24" fill="none" xmlns="http://www.w3.org/2000/svg">
<path fill-rule="evenodd" clip-rule="evenodd" d="M17.9068 10.6976H17.8818C17.4678 10.6826 17.1428 10.3366 17.1568 9.92255C17.1888 8.97155 16.7238 8.35455 15.9128 8.27155C15.5008 8.22955 15.2008 7.86155 15.2428 7.44955C15.2858 7.03855 15.6558 6.73555 16.0658 6.77955C17.6738 6.94355 18.7148 8.22655 18.6558 9.97255C18.6418 10.3786 18.3088 10.6976 17.9068 10.6976ZM17.8248 3.28355C16.1048 2.73355 13.7238 2.96155 12.2378 4.64755C10.6768 2.97355 8.37679 2.73055 6.66879 3.28455C2.75379 4.54455 1.53279 9.08055 2.64679 12.5596V12.5606C4.40479 18.0316 10.2498 20.9825 12.2518 20.9825C14.0388 20.9825 20.1158 18.0865 21.8538 12.5596C22.9678 9.08155 21.7438 4.54555 17.8248 3.28355Z" fill="#212121"/>
</svg>
