<svg width="25" height="25" viewBox="0 0 25 25" fill="none" xmlns="http://www.w3.org/2000/svg">
<path opacity="0.4" fill-rule="evenodd" clip-rule="evenodd" d="M12.25 2.85352C5.051 2.85352 2.5 5.40552 2.5 12.6035C2.5 19.8015 5.051 22.3535 12.25 22.3535C19.448 22.3535 22 19.8015 22 12.6035C22 5.40552 19.448 2.85352 12.25 2.85352Z" fill="#212121"/>
<path d="M17.5357 16.0494C17.7057 16.4274 18.1517 16.5974 18.5267 16.4264C18.9047 16.2574 19.0737 15.8154 18.9057 15.4374C18.7767 15.1474 17.5867 12.6024 15.6727 12.6024C14.555 12.6024 13.6791 13.6569 12.8313 14.6777L12.8307 14.6784L12.83 14.6793C12.4328 15.1575 11.6945 16.0464 11.4107 16.0504C11.0077 16.0504 10.6977 15.8354 10.2267 15.4854C9.74173 15.1234 9.13873 14.6754 8.31473 14.6754C6.71373 14.6754 5.75273 16.5184 5.64873 16.7294C5.46473 17.0994 5.61573 17.5474 5.98473 17.7324C6.09273 17.7854 6.20673 17.8114 6.31873 17.8114C6.59373 17.8114 6.85973 17.6594 6.99073 17.3974C7.19173 16.9984 7.77973 16.1754 8.31473 16.1754C8.62573 16.1754 8.90373 16.3704 9.33173 16.6884L9.33225 16.6888C9.84816 17.0727 10.49 17.5504 11.4107 17.5504C12.3967 17.5504 13.1687 16.6204 13.9847 15.6364L13.9974 15.6212C14.5054 15.0112 15.2621 14.1024 15.6727 14.1024C16.4187 14.1024 17.2507 15.4134 17.5357 16.0494Z" fill="#212121"/>
<path d="M10.8887 9.70839C10.8887 8.57439 9.96573 7.65139 8.83073 7.65039C7.69573 7.65039 6.77373 8.57339 6.77373 9.70839C6.77373 10.8434 7.69573 11.7664 8.83073 11.7664C9.96473 11.7664 10.8887 10.8434 10.8887 9.70839Z" fill="#212121"/>
</svg>
