<svg width="25" height="24" viewBox="0 0 25 24" fill="none" xmlns="http://www.w3.org/2000/svg">
<path fill-rule="evenodd" clip-rule="evenodd" d="M20.1965 5.40824C19.9665 5.06424 19.4985 4.97124 19.1555 5.20324C18.8115 5.43324 18.7195 5.89924 18.9505 6.24424C21.2615 9.69124 21.2615 14.3212 18.9505 17.7652C18.7195 18.1092 18.8115 18.5752 19.1555 18.8062C19.2835 18.8922 19.4285 18.9332 19.5725 18.9332C19.8145 18.9332 20.0515 18.8172 20.1965 18.6012C22.8425 14.6582 22.8425 9.35624 20.1965 5.40824Z" fill="#212121"/>
<path fill-rule="evenodd" clip-rule="evenodd" d="M16.7644 7.61231C16.4014 7.81131 16.2694 8.26831 16.4704 8.63131C17.6204 10.7163 17.6204 13.3013 16.4704 15.3783C16.2694 15.7403 16.4014 16.1963 16.7634 16.3973C16.8784 16.4613 17.0034 16.4913 17.1264 16.4913C17.3894 16.4913 17.6454 16.3513 17.7834 16.1043C19.1804 13.5813 19.1814 10.4393 17.7834 7.90631C17.5824 7.54331 17.1264 7.41231 16.7644 7.61231Z" fill="#212121"/>
<path fill-rule="evenodd" clip-rule="evenodd" d="M12.5433 5.11824C10.8373 4.10324 9.26825 5.30824 8.12225 6.18524C7.65225 6.54524 7.20825 6.88524 6.87125 6.99624C6.41325 7.14624 6.01825 7.19424 5.63525 7.24024C4.96825 7.31924 4.27925 7.40124 3.52425 8.04224C2.31525 9.06924 2.31725 10.6972 2.31925 12.0052C2.31725 13.3122 2.31525 14.9402 3.52525 15.9682C4.27925 16.6082 4.96825 16.6902 5.63525 16.7692C6.01825 16.8152 6.41325 16.8632 6.87125 17.0142C7.20825 17.1252 7.65125 17.4652 8.12125 17.8242C8.95225 18.4612 10.0063 19.2682 11.1883 19.2682C11.6353 19.2682 12.1003 19.1532 12.5783 18.8692C13.9443 17.8982 14.4283 16.1012 14.4283 12.0052C14.4283 7.85424 13.9613 6.12224 12.5433 5.11824Z" fill="#212121"/>
</svg>
