<svg width="25" height="24" viewBox="0 0 25 24" fill="none" xmlns="http://www.w3.org/2000/svg">
<path fill-rule="evenodd" clip-rule="evenodd" d="M3.92338 18.8867C5.62584 19.7748 7.60644 20.139 9.76227 20.1337H9.76593C11.9217 20.139 13.9023 19.7748 15.6047 18.8867C14.6213 16.5682 12.4438 15.4502 9.76602 15.4571H9.76218C7.081 15.4502 4.90707 16.5655 3.92338 18.8867ZM9.7641 13.9571C6.3937 13.949 3.38617 15.5176 2.28492 19L2.10767 19.5605L2.60963 19.8665C4.73279 21.1608 7.19984 21.6398 9.7641 21.6337C12.3284 21.6398 14.7954 21.1608 16.9186 19.8665L17.4205 19.5605L17.2433 19C16.1432 15.521 13.1312 13.949 9.7641 13.9571Z" fill="#212121"/>
<path fill-rule="evenodd" clip-rule="evenodd" d="M16.3335 14.2661C14.9686 14.2626 13.8072 14.6536 12.9905 15.4053L12.4386 15.9131L11.4229 14.8094L11.9747 14.3015C13.1338 13.2348 14.6923 12.7623 16.3354 12.7661C18.9631 12.76 21.3465 13.9925 22.2155 16.7407L22.3927 17.3013L21.8908 17.6073C20.2329 18.6179 18.3134 18.9874 16.3336 18.9826L15.5836 18.9808L15.5872 17.4808L16.3372 17.4826C17.9008 17.4864 19.3304 17.2326 20.5645 16.6258C19.8179 15.0369 18.2678 14.2612 16.3373 14.2661H16.3335Z" fill="#212121"/>
<path fill-rule="evenodd" clip-rule="evenodd" d="M9.73137 3.86572C7.80046 3.86572 6.23535 5.43016 6.23535 7.36049C6.23535 9.29082 7.80046 10.8553 9.73137 10.8553C11.6609 10.8553 13.2261 9.29097 13.2261 7.36049C13.2261 5.43001 11.6609 3.86572 9.73137 3.86572ZM4.73535 7.36049C4.73535 4.60115 6.97261 2.36572 9.73137 2.36572C12.489 2.36572 14.7261 4.6013 14.7261 7.36049C14.7261 10.1197 12.489 12.3553 9.73137 12.3553C6.97261 12.3553 4.73535 10.1198 4.73535 7.36049Z" fill="#212121"/>
<path fill-rule="evenodd" clip-rule="evenodd" d="M16.3096 5.41602C15.5771 5.41602 14.9193 5.73084 14.4623 6.2348L13.9585 6.79038L12.8473 5.78275L13.3512 5.22717C14.0806 4.42277 15.1365 3.91602 16.3096 3.91602C18.5132 3.91602 20.3008 5.70243 20.3008 7.90729C20.3008 10.1121 18.5132 11.8986 16.3096 11.8986C14.9021 11.8986 13.6651 11.1698 12.9552 10.0723L12.5479 9.44256L13.8074 8.62791L14.2147 9.25767C14.6597 9.94576 15.4319 10.3986 16.3096 10.3986C17.685 10.3986 18.8008 9.28343 18.8008 7.90729C18.8008 6.53115 17.685 5.41602 16.3096 5.41602Z" fill="#212121"/>
</svg>
