<svg width="25" height="24" viewBox="0 0 25 24" fill="none" xmlns="http://www.w3.org/2000/svg">
<path opacity="0.4" fill-rule="evenodd" clip-rule="evenodd" d="M10.0334 14.0312C5.92943 14.0312 2.46143 16.2802 2.46143 18.9422C2.46143 21.9782 6.78243 22.3293 10.0334 22.3293C11.9064 22.3293 17.6054 22.3292 17.6054 18.9222C17.6054 16.2702 14.1374 14.0312 10.0334 14.0312Z" fill="#212121"/>
<path fill-rule="evenodd" clip-rule="evenodd" d="M10.0005 11.7369H10.0325C12.8085 11.7369 15.0655 9.47888 15.0655 6.70388C15.0655 3.92887 12.8085 1.67188 10.0325 1.67188C7.25754 1.67188 4.99955 3.92888 4.99955 6.70188C4.98955 9.46788 7.23154 11.7269 10.0005 11.7369Z" fill="#212121"/>
<path fill-rule="evenodd" clip-rule="evenodd" d="M21.2887 9.40484H19.9917V8.14984C19.9917 7.73584 19.6557 7.39984 19.2417 7.39984C18.8277 7.39984 18.4917 7.73584 18.4917 8.14984V9.40484H17.1987C16.7847 9.40484 16.4487 9.74084 16.4487 10.1548C16.4487 10.5688 16.7847 10.9048 17.1987 10.9048H18.4917V12.1598C18.4917 12.5738 18.8277 12.9098 19.2417 12.9098C19.6557 12.9098 19.9917 12.5738 19.9917 12.1598V10.9048H21.2887C21.7027 10.9048 22.0387 10.5688 22.0387 10.1548C22.0387 9.74084 21.7027 9.40484 21.2887 9.40484Z" fill="#212121"/>
</svg>
