<svg width="25" height="25" viewBox="0 0 25 25" fill="none" xmlns="http://www.w3.org/2000/svg">
<path fill-rule="evenodd" clip-rule="evenodd" d="M16.6411 11.7842C15.6551 13.4782 14.0071 14.5222 12.3281 14.5222C12.2811 14.5222 12.2341 14.5222 12.1861 14.5222C10.5321 14.5222 8.88409 13.4782 7.89809 11.7842L7.52009 11.1362L8.81709 10.3812L9.19409 11.0292C9.76409 12.0082 10.8501 13.0732 12.2571 13.0212C13.6741 13.0652 14.7751 12.0092 15.3451 11.0292L15.7221 10.3812L17.0181 11.1362L16.6411 11.7842ZM17.6901 3.50924C15.5931 2.83324 13.6841 3.39624 12.2501 5.09424C10.8151 3.39624 8.90609 2.83324 6.80909 3.50924C4.16309 4.36224 2.51209 6.75424 2.50009 9.75024C2.47509 14.8842 7.41609 18.9062 12.0481 20.9572L12.2511 21.0472L12.4541 20.9572C17.0851 18.9052 22.0251 14.8832 22.0001 9.74924C21.9881 6.75324 20.3371 4.36224 17.6901 3.50924Z" fill="#212121"/>
</svg>
