<svg width="24" height="24" viewBox="0 0 24 24" fill="none" xmlns="http://www.w3.org/2000/svg">
<path opacity="0.4" d="M11.999 21.9981C11.23 21.9981 10.462 21.7061 9.87502 21.1231L9.14502 20.3931C8.86202 20.1111 8.48302 19.9551 8.08102 19.9541H7.05402C5.39402 19.9541 4.04302 18.6031 4.04302 16.9431V15.9151C4.04202 15.5141 3.88602 15.1351 3.60302 14.8501L2.88502 14.1331C1.70902 12.9641 1.70402 11.0531 2.87402 9.87615L3.60402 9.14515C3.88602 8.86215 4.04202 8.48315 4.04302 8.08115V7.05515C4.04302 5.39415 5.39402 4.04315 7.05402 4.04315H8.08202C8.48302 4.04315 8.86102 3.88715 9.14602 3.60215L9.86502 2.88515C11.034 1.70915 12.944 1.70315 14.122 2.87415L14.852 3.60415C15.136 3.88715 15.514 4.04315 15.915 4.04315H16.943C18.603 4.04315 19.954 5.39415 19.954 7.05515V8.08215C19.955 8.48315 20.111 8.86215 20.394 9.14715L21.112 9.86515C21.681 10.4311 21.996 11.1851 21.999 11.9901C22.001 12.7901 21.693 13.5431 21.132 14.1121C21.122 14.1221 21.113 14.1331 21.103 14.1421L20.393 14.8521C20.111 15.1351 19.955 15.5141 19.954 15.9161V16.9431C19.954 18.6031 18.603 19.9541 16.943 19.9541H15.915C15.514 19.9551 15.135 20.1111 14.851 20.3941L14.132 21.1121C13.546 21.7021 12.772 21.9981 11.999 21.9981Z" fill="#212121"/>
<path fill-rule="evenodd" clip-rule="evenodd" d="M10.0428 10.051C9.87776 10.216 9.66376 10.305 9.42676 10.305C9.20476 10.305 8.98676 10.214 8.81176 10.05C8.64576 9.88495 8.55176 9.65895 8.55176 9.42995C8.55176 9.21195 8.64376 8.98795 8.80576 8.81495C8.89476 8.72495 9.00076 8.65695 9.10676 8.62095C9.40876 8.48295 9.80976 8.56395 10.0478 8.81395C10.1328 8.89895 10.1978 8.99195 10.2408 9.08895C10.2878 9.19295 10.3118 9.31095 10.3118 9.42995C10.3118 9.66795 10.2168 9.88895 10.0428 10.051ZM15.1905 8.80985C14.8495 8.46985 14.2945 8.46985 13.9535 8.80985L8.81346 13.9499C8.47246 14.2909 8.47246 14.8459 8.81346 15.1879C8.97946 15.3529 9.19846 15.4439 9.43246 15.4439C9.66646 15.4439 9.88546 15.3529 10.0505 15.1879L15.1905 10.0479C15.5315 9.70585 15.5315 9.15185 15.1905 8.80985ZM14.9058 13.764C14.5818 13.628 14.1978 13.702 13.9418 13.958C13.8888 14.02 13.8138 14.116 13.7628 14.229C13.7088 14.351 13.7018 14.482 13.7018 14.57C13.7018 14.658 13.7088 14.788 13.7628 14.91C13.8128 15.022 13.8728 15.113 13.9518 15.192C14.1328 15.36 14.3428 15.445 14.5768 15.445C14.7988 15.445 15.0168 15.355 15.1958 15.188C15.3548 15.029 15.4418 14.809 15.4418 14.57C15.4418 14.33 15.3548 14.111 15.1948 13.951C15.1068 13.864 15.0008 13.796 14.9058 13.764Z" fill="#212121"/>
</svg>
