<svg width="25" height="24" viewBox="0 0 25 24" fill="none" xmlns="http://www.w3.org/2000/svg">
<path fill-rule="evenodd" clip-rule="evenodd" d="M5.31188 8.93778C5.31188 5.10615 8.41803 2 12.2497 2C16.0813 2 19.1874 5.10615 19.1874 8.93777V13.3835L21.129 18.6072H3.37036L5.31188 13.3835V8.93778ZM12.2497 3.5C9.24646 3.5 6.81188 5.93458 6.81188 8.93778V13.6532L5.52813 17.1072H18.9712L17.6874 13.6532V8.93777C17.6874 5.93457 15.2529 3.5 12.2497 3.5Z" fill="#212121"/>
<path fill-rule="evenodd" clip-rule="evenodd" d="M8.33398 18.0834V17.8574H9.83398V18.0834C9.83398 19.4181 10.916 20.5001 12.2507 20.5001C13.5853 20.5001 14.6673 19.4181 14.6673 18.0834V17.8574H16.1673V18.0834C16.1673 20.2465 14.4138 22.0001 12.2507 22.0001C10.0875 22.0001 8.33398 20.2465 8.33398 18.0834Z" fill="#212121"/>
</svg>
