<svg width="25" height="24" viewBox="0 0 25 24" fill="none" xmlns="http://www.w3.org/2000/svg">
<path fill-rule="evenodd" clip-rule="evenodd" d="M10.0332 14.0309C5.92918 14.0309 2.46118 16.2799 2.46118 18.9419C2.46118 21.9779 6.78218 22.3289 10.0332 22.3289C11.9062 22.3289 17.6052 22.3289 17.6052 18.9219C17.6052 16.2699 14.1372 14.0309 10.0332 14.0309Z" fill="#212121"/>
<path fill-rule="evenodd" clip-rule="evenodd" d="M10.0009 11.7369H10.0329C12.8089 11.7369 15.0659 9.47888 15.0659 6.70388C15.0659 3.92887 12.8089 1.67188 10.0329 1.67188C7.25785 1.67188 4.99985 3.92888 4.99985 6.70188C4.98985 9.46788 7.23185 11.7269 10.0009 11.7369Z" fill="#212121"/>
<path fill-rule="evenodd" clip-rule="evenodd" d="M21.289 9.40484H19.992V8.14984C19.992 7.73584 19.656 7.39984 19.242 7.39984C18.828 7.39984 18.492 7.73584 18.492 8.14984V9.40484H17.199C16.785 9.40484 16.449 9.74084 16.449 10.1548C16.449 10.5688 16.785 10.9048 17.199 10.9048H18.492V12.1598C18.492 12.5738 18.828 12.9098 19.242 12.9098C19.656 12.9098 19.992 12.5738 19.992 12.1598V10.9048H21.289C21.703 10.9048 22.039 10.5688 22.039 10.1548C22.039 9.74084 21.703 9.40484 21.289 9.40484Z" fill="#212121"/>
</svg>
