<svg width="24" height="24" viewBox="0 0 24 24" fill="none" xmlns="http://www.w3.org/2000/svg">
<path fill-rule="evenodd" clip-rule="evenodd" d="M3.66751 4.58512C3.66308 4.59174 3.66138 4.59428 3.66246 4.59235C3.64982 4.61482 3.63604 4.63661 3.62117 4.65765C3.4191 4.94345 3.09435 5.60277 3.33545 6.82373C3.58257 8.07511 4.43091 9.94247 6.67848 12.57C6.94773 12.8848 6.91083 13.3582 6.59606 13.6275C6.2813 13.8967 5.80786 13.8598 5.53861 13.5451C3.20021 10.8113 2.17966 8.71345 1.86387 7.11432C1.54559 5.50256 1.95138 4.43187 2.38209 3.81207C2.5378 3.56347 3.18137 2.65443 4.12081 1.99459C4.6346 1.63372 5.28532 1.31299 6.03001 1.2582C6.79857 1.20165 7.59137 1.43455 8.34504 2.05209L8.34698 2.05368L8.34698 2.05368C9.58861 3.07803 10.3478 3.92869 10.7492 4.69883C11.1746 5.51524 11.185 6.21696 11.0018 6.85075C10.9174 7.14298 10.7958 7.40726 10.6891 7.62927C10.665 7.67934 10.6419 7.72683 10.6198 7.77243C10.5367 7.94324 10.4666 8.08757 10.4053 8.24193C10.2662 8.59189 10.206 8.91473 10.3315 9.34333C10.4479 9.74084 10.22 10.1575 9.82252 10.2739C9.42501 10.3903 9.00838 10.1624 8.89196 9.76492C8.64593 8.92485 8.7886 8.24843 9.01127 7.68803C9.09534 7.47646 9.19638 7.26896 9.28182 7.09351C9.30122 7.05367 9.31982 7.01548 9.33723 6.97927C9.43881 6.768 9.51332 6.59866 9.56079 6.43438C9.64146 6.15517 9.65882 5.8523 9.41897 5.39209C9.15508 4.88575 8.5768 4.188 7.39343 3.21159C6.91658 2.8212 6.49857 2.72778 6.14008 2.75416C5.75748 2.78231 5.36474 2.95391 4.98296 3.22207C4.604 3.48824 4.27632 3.82129 4.03364 4.10653C3.82 4.35763 3.69421 4.54529 3.66751 4.58512Z" fill="#212121"/>
<path fill-rule="evenodd" clip-rule="evenodd" d="M11.0452 11.7942C11.3325 11.4958 11.8073 11.4869 12.1056 11.7743C13.2882 12.9133 14.0177 13.1979 14.4776 13.2373C14.9155 13.2748 15.2414 13.1175 15.7732 12.8606C15.808 12.8438 15.8436 12.8266 15.8802 12.809C16.4494 12.5352 17.2208 12.1989 18.2289 12.5118C19.1654 12.8025 20.1767 13.614 21.4423 15.1498L21.4435 15.1513C22.063 15.9071 22.2979 16.7011 22.242 17.4709C22.1878 18.2171 21.8663 18.8681 21.5044 19.3817C20.8455 20.3167 19.9388 20.956 19.6868 21.1139C18.9862 21.6105 17.725 22.0466 15.7905 21.4899C13.8717 20.9377 11.297 19.4137 7.87365 16.033C7.57892 15.742 7.57594 15.2671 7.86698 14.9724C8.15803 14.6777 8.63289 14.6747 8.92762 14.9657C12.2664 18.2628 14.6286 19.5946 16.2053 20.0484C17.7437 20.4911 18.5299 20.0999 18.8312 19.8817C18.8544 19.8649 18.8785 19.8495 18.9034 19.8354C18.9019 19.8363 18.904 19.8348 18.9097 19.8311C18.9472 19.8062 19.1376 19.6798 19.3923 19.4644C19.6782 19.2224 20.0118 18.8958 20.2783 18.5177C20.5466 18.1369 20.7181 17.7449 20.7459 17.3623C20.7719 17.0037 20.6778 16.5836 20.284 16.1029C19.0611 14.619 18.2842 14.0996 17.7843 13.9444C17.3559 13.8115 17.0426 13.9144 16.5304 14.1608C16.4859 14.1822 16.4394 14.2051 16.3906 14.2291C15.9083 14.4668 15.2189 14.8064 14.3495 14.7318C13.3856 14.6492 12.3459 14.0883 11.065 12.8546C10.7667 12.5673 10.7578 12.0925 11.0452 11.7942Z" fill="#212121"/>
<path fill-rule="evenodd" clip-rule="evenodd" d="M21.0303 2.46967C21.3232 2.76256 21.3232 3.23744 21.0303 3.53033L2.53033 22.0303C2.23744 22.3232 1.76256 22.3232 1.46967 22.0303C1.17678 21.7374 1.17678 21.2626 1.46967 20.9697L19.9697 2.46967C20.2626 2.17678 20.7374 2.17678 21.0303 2.46967Z" fill="#212121"/>
</svg>
