<svg width="25" height="24" viewBox="0 0 25 24" fill="none" xmlns="http://www.w3.org/2000/svg">
<path opacity="0.4" fill-rule="evenodd" clip-rule="evenodd" d="M12.25 2.25C5.052 2.25 2.5 4.802 2.5 12C2.5 19.199 5.052 21.75 12.25 21.75C19.448 21.75 22 19.199 22 12C22 4.802 19.448 2.25 12.25 2.25Z" fill="#212121"/>
<path fill-rule="evenodd" clip-rule="evenodd" d="M18.0103 13.8524C18.0103 14.2664 17.6743 14.6024 17.2603 14.6024C16.8463 14.6024 16.5103 14.2664 16.5103 13.8524V12.7504H15.1823V13.8524C15.1823 14.2664 14.8463 14.6024 14.4323 14.6024C14.0183 14.6024 13.6823 14.2664 13.6823 13.8524V12.7504H11.5663C11.2423 13.8184 10.2593 14.6024 9.08733 14.6024C7.65333 14.6024 6.48633 13.4354 6.48633 12.0004C6.48633 10.5664 7.65333 9.39941 9.08733 9.39941C10.2613 9.40041 11.2423 10.1844 11.5663 11.2504H17.2603C17.6743 11.2504 18.0103 11.5864 18.0103 12.0004V13.8524ZM7.98544 12.0012C7.98544 11.3932 8.48044 10.8992 9.08944 10.8992C9.69644 10.9002 10.1904 11.3942 10.1904 12.0012C10.1904 12.6082 9.69544 13.1022 9.08744 13.1022C8.48044 13.1022 7.98544 12.6082 7.98544 12.0012Z" fill="#212121"/>
</svg>
